<?xml version="1.0" encoding="utf-8" standalone="no"?>
<!DOCTYPE svg PUBLIC "-//W3C//DTD SVG 1.1//EN"
  "http://www.w3.org/Graphics/SVG/1.1/DTD/svg11.dtd">
<svg xmlns:xlink="http://www.w3.org/1999/xlink" width="864pt" height="432pt" viewBox="0 0 864 432" xmlns="http://www.w3.org/2000/svg" version="1.1">
 <metadata>
  <rdf:RDF xmlns:dc="http://purl.org/dc/elements/1.1/" xmlns:cc="http://creativecommons.org/ns#" xmlns:rdf="http://www.w3.org/1999/02/22-rdf-syntax-ns#">
   <cc:Work>
    <dc:type rdf:resource="http://purl.org/dc/dcmitype/StillImage"/>
    <dc:date>2022-12-13T20:43:23.717843</dc:date>
    <dc:format>image/svg+xml</dc:format>
    <dc:creator>
     <cc:Agent>
      <dc:title>Matplotlib v3.6.2, https://matplotlib.org/</dc:title>
     </cc:Agent>
    </dc:creator>
   </cc:Work>
  </rdf:RDF>
 </metadata>
 <defs>
  <style type="text/css">*{stroke-linejoin: round; stroke-linecap: butt}</style>
 </defs>
 <g id="figure_1">
  <g id="patch_1">
   <path d="M 0 432 
L 864 432 
L 864 0 
L 0 0 
z
" style="fill: #ffffff"/>
  </g>
  <g id="axes_1">
   <g id="patch_2">
    <path d="M 108 384.48 
L 777.6 384.48 
L 777.6 51.84 
L 108 51.84 
z
" style="fill: #ffffff"/>
   </g>
   <g id="matplotlib.axis_1">
    <g id="xtick_1">
     <g id="line2d_1">
      <path d="M 138.408922 384.48 
L 138.408922 51.84 
" clip-path="url(#p16f3df0916)" style="fill: none; stroke: #b0b0b0; stroke-width: 0.8; stroke-linecap: square"/>
     </g>
     <g id="line2d_2">
      <defs>
       <path id="mc375129ccf" d="M 0 0 
L 0 3.5 
" style="stroke: #000000; stroke-width: 0.8"/>
      </defs>
      <g>
       <use xlink:href="#mc375129ccf" x="138.408922" y="384.48" style="stroke: #000000; stroke-width: 0.8"/>
      </g>
     </g>
     <g id="text_1">
      <!-- 0.0 -->
      <g transform="translate(130.45736 399.078438) scale(0.1 -0.1)">
       <defs>
        <path id="DejaVuSans-30" d="M 2034 4250 
Q 1547 4250 1301 3770 
Q 1056 3291 1056 2328 
Q 1056 1369 1301 889 
Q 1547 409 2034 409 
Q 2525 409 2770 889 
Q 3016 1369 3016 2328 
Q 3016 3291 2770 3770 
Q 2525 4250 2034 4250 
z
M 2034 4750 
Q 2819 4750 3233 4129 
Q 3647 3509 3647 2328 
Q 3647 1150 3233 529 
Q 2819 -91 2034 -91 
Q 1250 -91 836 529 
Q 422 1150 422 2328 
Q 422 3509 836 4129 
Q 1250 4750 2034 4750 
z
" transform="scale(0.015625)"/>
        <path id="DejaVuSans-2e" d="M 684 794 
L 1344 794 
L 1344 0 
L 684 0 
L 684 794 
z
" transform="scale(0.015625)"/>
       </defs>
       <use xlink:href="#DejaVuSans-30"/>
       <use xlink:href="#DejaVuSans-2e" x="63.623047"/>
       <use xlink:href="#DejaVuSans-30" x="95.410156"/>
      </g>
     </g>
    </g>
    <g id="xtick_2">
     <g id="line2d_3">
      <path d="M 269.081454 384.48 
L 269.081454 51.84 
" clip-path="url(#p16f3df0916)" style="fill: none; stroke: #b0b0b0; stroke-width: 0.8; stroke-linecap: square"/>
     </g>
     <g id="line2d_4">
      <g>
       <use xlink:href="#mc375129ccf" x="269.081454" y="384.48" style="stroke: #000000; stroke-width: 0.8"/>
      </g>
     </g>
     <g id="text_2">
      <!-- 0.5 -->
      <g transform="translate(261.129891 399.078438) scale(0.1 -0.1)">
       <defs>
        <path id="DejaVuSans-35" d="M 691 4666 
L 3169 4666 
L 3169 4134 
L 1269 4134 
L 1269 2991 
Q 1406 3038 1543 3061 
Q 1681 3084 1819 3084 
Q 2600 3084 3056 2656 
Q 3513 2228 3513 1497 
Q 3513 744 3044 326 
Q 2575 -91 1722 -91 
Q 1428 -91 1123 -41 
Q 819 9 494 109 
L 494 744 
Q 775 591 1075 516 
Q 1375 441 1709 441 
Q 2250 441 2565 725 
Q 2881 1009 2881 1497 
Q 2881 1984 2565 2268 
Q 2250 2553 1709 2553 
Q 1456 2553 1204 2497 
Q 953 2441 691 2322 
L 691 4666 
z
" transform="scale(0.015625)"/>
       </defs>
       <use xlink:href="#DejaVuSans-30"/>
       <use xlink:href="#DejaVuSans-2e" x="63.623047"/>
       <use xlink:href="#DejaVuSans-35" x="95.410156"/>
      </g>
     </g>
    </g>
    <g id="xtick_3">
     <g id="line2d_5">
      <path d="M 399.753985 384.48 
L 399.753985 51.84 
" clip-path="url(#p16f3df0916)" style="fill: none; stroke: #b0b0b0; stroke-width: 0.8; stroke-linecap: square"/>
     </g>
     <g id="line2d_6">
      <g>
       <use xlink:href="#mc375129ccf" x="399.753985" y="384.48" style="stroke: #000000; stroke-width: 0.8"/>
      </g>
     </g>
     <g id="text_3">
      <!-- 1.0 -->
      <g transform="translate(391.802423 399.078438) scale(0.1 -0.1)">
       <defs>
        <path id="DejaVuSans-31" d="M 794 531 
L 1825 531 
L 1825 4091 
L 703 3866 
L 703 4441 
L 1819 4666 
L 2450 4666 
L 2450 531 
L 3481 531 
L 3481 0 
L 794 0 
L 794 531 
z
" transform="scale(0.015625)"/>
       </defs>
       <use xlink:href="#DejaVuSans-31"/>
       <use xlink:href="#DejaVuSans-2e" x="63.623047"/>
       <use xlink:href="#DejaVuSans-30" x="95.410156"/>
      </g>
     </g>
    </g>
    <g id="xtick_4">
     <g id="line2d_7">
      <path d="M 530.426517 384.48 
L 530.426517 51.84 
" clip-path="url(#p16f3df0916)" style="fill: none; stroke: #b0b0b0; stroke-width: 0.8; stroke-linecap: square"/>
     </g>
     <g id="line2d_8">
      <g>
       <use xlink:href="#mc375129ccf" x="530.426517" y="384.48" style="stroke: #000000; stroke-width: 0.8"/>
      </g>
     </g>
     <g id="text_4">
      <!-- 1.5 -->
      <g transform="translate(522.474954 399.078438) scale(0.1 -0.1)">
       <use xlink:href="#DejaVuSans-31"/>
       <use xlink:href="#DejaVuSans-2e" x="63.623047"/>
       <use xlink:href="#DejaVuSans-35" x="95.410156"/>
      </g>
     </g>
    </g>
    <g id="xtick_5">
     <g id="line2d_9">
      <path d="M 661.099048 384.48 
L 661.099048 51.84 
" clip-path="url(#p16f3df0916)" style="fill: none; stroke: #b0b0b0; stroke-width: 0.8; stroke-linecap: square"/>
     </g>
     <g id="line2d_10">
      <g>
       <use xlink:href="#mc375129ccf" x="661.099048" y="384.48" style="stroke: #000000; stroke-width: 0.8"/>
      </g>
     </g>
     <g id="text_5">
      <!-- 2.0 -->
      <g transform="translate(653.147486 399.078438) scale(0.1 -0.1)">
       <defs>
        <path id="DejaVuSans-32" d="M 1228 531 
L 3431 531 
L 3431 0 
L 469 0 
L 469 531 
Q 828 903 1448 1529 
Q 2069 2156 2228 2338 
Q 2531 2678 2651 2914 
Q 2772 3150 2772 3378 
Q 2772 3750 2511 3984 
Q 2250 4219 1831 4219 
Q 1534 4219 1204 4116 
Q 875 4013 500 3803 
L 500 4441 
Q 881 4594 1212 4672 
Q 1544 4750 1819 4750 
Q 2544 4750 2975 4387 
Q 3406 4025 3406 3419 
Q 3406 3131 3298 2873 
Q 3191 2616 2906 2266 
Q 2828 2175 2409 1742 
Q 1991 1309 1228 531 
z
" transform="scale(0.015625)"/>
       </defs>
       <use xlink:href="#DejaVuSans-32"/>
       <use xlink:href="#DejaVuSans-2e" x="63.623047"/>
       <use xlink:href="#DejaVuSans-30" x="95.410156"/>
      </g>
     </g>
    </g>
    <g id="text_6">
     <!-- Time (s) -->
     <g transform="translate(422.471094 412.756563) scale(0.1 -0.1)">
      <defs>
       <path id="DejaVuSans-54" d="M -19 4666 
L 3928 4666 
L 3928 4134 
L 2272 4134 
L 2272 0 
L 1638 0 
L 1638 4134 
L -19 4134 
L -19 4666 
z
" transform="scale(0.015625)"/>
       <path id="DejaVuSans-69" d="M 603 3500 
L 1178 3500 
L 1178 0 
L 603 0 
L 603 3500 
z
M 603 4863 
L 1178 4863 
L 1178 4134 
L 603 4134 
L 603 4863 
z
" transform="scale(0.015625)"/>
       <path id="DejaVuSans-6d" d="M 3328 2828 
Q 3544 3216 3844 3400 
Q 4144 3584 4550 3584 
Q 5097 3584 5394 3201 
Q 5691 2819 5691 2113 
L 5691 0 
L 5113 0 
L 5113 2094 
Q 5113 2597 4934 2840 
Q 4756 3084 4391 3084 
Q 3944 3084 3684 2787 
Q 3425 2491 3425 1978 
L 3425 0 
L 2847 0 
L 2847 2094 
Q 2847 2600 2669 2842 
Q 2491 3084 2119 3084 
Q 1678 3084 1418 2786 
Q 1159 2488 1159 1978 
L 1159 0 
L 581 0 
L 581 3500 
L 1159 3500 
L 1159 2956 
Q 1356 3278 1631 3431 
Q 1906 3584 2284 3584 
Q 2666 3584 2933 3390 
Q 3200 3197 3328 2828 
z
" transform="scale(0.015625)"/>
       <path id="DejaVuSans-65" d="M 3597 1894 
L 3597 1613 
L 953 1613 
Q 991 1019 1311 708 
Q 1631 397 2203 397 
Q 2534 397 2845 478 
Q 3156 559 3463 722 
L 3463 178 
Q 3153 47 2828 -22 
Q 2503 -91 2169 -91 
Q 1331 -91 842 396 
Q 353 884 353 1716 
Q 353 2575 817 3079 
Q 1281 3584 2069 3584 
Q 2775 3584 3186 3129 
Q 3597 2675 3597 1894 
z
M 3022 2063 
Q 3016 2534 2758 2815 
Q 2500 3097 2075 3097 
Q 1594 3097 1305 2825 
Q 1016 2553 972 2059 
L 3022 2063 
z
" transform="scale(0.015625)"/>
       <path id="DejaVuSans-20" transform="scale(0.015625)"/>
       <path id="DejaVuSans-28" d="M 1984 4856 
Q 1566 4138 1362 3434 
Q 1159 2731 1159 2009 
Q 1159 1288 1364 580 
Q 1569 -128 1984 -844 
L 1484 -844 
Q 1016 -109 783 600 
Q 550 1309 550 2009 
Q 550 2706 781 3412 
Q 1013 4119 1484 4856 
L 1984 4856 
z
" transform="scale(0.015625)"/>
       <path id="DejaVuSans-73" d="M 2834 3397 
L 2834 2853 
Q 2591 2978 2328 3040 
Q 2066 3103 1784 3103 
Q 1356 3103 1142 2972 
Q 928 2841 928 2578 
Q 928 2378 1081 2264 
Q 1234 2150 1697 2047 
L 1894 2003 
Q 2506 1872 2764 1633 
Q 3022 1394 3022 966 
Q 3022 478 2636 193 
Q 2250 -91 1575 -91 
Q 1294 -91 989 -36 
Q 684 19 347 128 
L 347 722 
Q 666 556 975 473 
Q 1284 391 1588 391 
Q 1994 391 2212 530 
Q 2431 669 2431 922 
Q 2431 1156 2273 1281 
Q 2116 1406 1581 1522 
L 1381 1569 
Q 847 1681 609 1914 
Q 372 2147 372 2553 
Q 372 3047 722 3315 
Q 1072 3584 1716 3584 
Q 2034 3584 2315 3537 
Q 2597 3491 2834 3397 
z
" transform="scale(0.015625)"/>
       <path id="DejaVuSans-29" d="M 513 4856 
L 1013 4856 
Q 1481 4119 1714 3412 
Q 1947 2706 1947 2009 
Q 1947 1309 1714 600 
Q 1481 -109 1013 -844 
L 513 -844 
Q 928 -128 1133 580 
Q 1338 1288 1338 2009 
Q 1338 2731 1133 3434 
Q 928 4138 513 4856 
z
" transform="scale(0.015625)"/>
      </defs>
      <use xlink:href="#DejaVuSans-54"/>
      <use xlink:href="#DejaVuSans-69" x="57.958984"/>
      <use xlink:href="#DejaVuSans-6d" x="85.742188"/>
      <use xlink:href="#DejaVuSans-65" x="183.154297"/>
      <use xlink:href="#DejaVuSans-20" x="244.677734"/>
      <use xlink:href="#DejaVuSans-28" x="276.464844"/>
      <use xlink:href="#DejaVuSans-73" x="315.478516"/>
      <use xlink:href="#DejaVuSans-29" x="367.578125"/>
     </g>
    </g>
    <g id="text_7">
     <!-- 1e6 -->
     <g transform="translate(758.721875 411.756563) scale(0.1 -0.1)">
      <defs>
       <path id="DejaVuSans-36" d="M 2113 2584 
Q 1688 2584 1439 2293 
Q 1191 2003 1191 1497 
Q 1191 994 1439 701 
Q 1688 409 2113 409 
Q 2538 409 2786 701 
Q 3034 994 3034 1497 
Q 3034 2003 2786 2293 
Q 2538 2584 2113 2584 
z
M 3366 4563 
L 3366 3988 
Q 3128 4100 2886 4159 
Q 2644 4219 2406 4219 
Q 1781 4219 1451 3797 
Q 1122 3375 1075 2522 
Q 1259 2794 1537 2939 
Q 1816 3084 2150 3084 
Q 2853 3084 3261 2657 
Q 3669 2231 3669 1497 
Q 3669 778 3244 343 
Q 2819 -91 2113 -91 
Q 1303 -91 875 529 
Q 447 1150 447 2328 
Q 447 3434 972 4092 
Q 1497 4750 2381 4750 
Q 2619 4750 2861 4703 
Q 3103 4656 3366 4563 
z
" transform="scale(0.015625)"/>
      </defs>
      <use xlink:href="#DejaVuSans-31"/>
      <use xlink:href="#DejaVuSans-65" x="63.623047"/>
      <use xlink:href="#DejaVuSans-36" x="125.146484"/>
     </g>
    </g>
   </g>
   <g id="matplotlib.axis_2">
    <g id="ytick_1">
     <g id="line2d_11">
      <path d="M 108 369.36 
L 777.6 369.36 
" clip-path="url(#p16f3df0916)" style="fill: none; stroke: #b0b0b0; stroke-width: 0.8; stroke-linecap: square"/>
     </g>
     <g id="line2d_12">
      <defs>
       <path id="m3c57446451" d="M 0 0 
L -3.5 0 
" style="stroke: #000000; stroke-width: 0.8"/>
      </defs>
      <g>
       <use xlink:href="#m3c57446451" x="108" y="369.36" style="stroke: #000000; stroke-width: 0.8"/>
      </g>
     </g>
     <g id="text_8">
      <!-- 0.0 -->
      <g transform="translate(85.096875 373.159219) scale(0.1 -0.1)">
       <use xlink:href="#DejaVuSans-30"/>
       <use xlink:href="#DejaVuSans-2e" x="63.623047"/>
       <use xlink:href="#DejaVuSans-30" x="95.410156"/>
      </g>
     </g>
    </g>
    <g id="ytick_2">
     <g id="line2d_13">
      <path d="M 108 308.697831 
L 777.6 308.697831 
" clip-path="url(#p16f3df0916)" style="fill: none; stroke: #b0b0b0; stroke-width: 0.8; stroke-linecap: square"/>
     </g>
     <g id="line2d_14">
      <g>
       <use xlink:href="#m3c57446451" x="108" y="308.697831" style="stroke: #000000; stroke-width: 0.8"/>
      </g>
     </g>
     <g id="text_9">
      <!-- 0.2 -->
      <g transform="translate(85.096875 312.49705) scale(0.1 -0.1)">
       <use xlink:href="#DejaVuSans-30"/>
       <use xlink:href="#DejaVuSans-2e" x="63.623047"/>
       <use xlink:href="#DejaVuSans-32" x="95.410156"/>
      </g>
     </g>
    </g>
    <g id="ytick_3">
     <g id="line2d_15">
      <path d="M 108 248.035663 
L 777.6 248.035663 
" clip-path="url(#p16f3df0916)" style="fill: none; stroke: #b0b0b0; stroke-width: 0.8; stroke-linecap: square"/>
     </g>
     <g id="line2d_16">
      <g>
       <use xlink:href="#m3c57446451" x="108" y="248.035663" style="stroke: #000000; stroke-width: 0.8"/>
      </g>
     </g>
     <g id="text_10">
      <!-- 0.4 -->
      <g transform="translate(85.096875 251.834881) scale(0.1 -0.1)">
       <defs>
        <path id="DejaVuSans-34" d="M 2419 4116 
L 825 1625 
L 2419 1625 
L 2419 4116 
z
M 2253 4666 
L 3047 4666 
L 3047 1625 
L 3713 1625 
L 3713 1100 
L 3047 1100 
L 3047 0 
L 2419 0 
L 2419 1100 
L 313 1100 
L 313 1709 
L 2253 4666 
z
" transform="scale(0.015625)"/>
       </defs>
       <use xlink:href="#DejaVuSans-30"/>
       <use xlink:href="#DejaVuSans-2e" x="63.623047"/>
       <use xlink:href="#DejaVuSans-34" x="95.410156"/>
      </g>
     </g>
    </g>
    <g id="ytick_4">
     <g id="line2d_17">
      <path d="M 108 187.373494 
L 777.6 187.373494 
" clip-path="url(#p16f3df0916)" style="fill: none; stroke: #b0b0b0; stroke-width: 0.8; stroke-linecap: square"/>
     </g>
     <g id="line2d_18">
      <g>
       <use xlink:href="#m3c57446451" x="108" y="187.373494" style="stroke: #000000; stroke-width: 0.8"/>
      </g>
     </g>
     <g id="text_11">
      <!-- 0.6 -->
      <g transform="translate(85.096875 191.172713) scale(0.1 -0.1)">
       <use xlink:href="#DejaVuSans-30"/>
       <use xlink:href="#DejaVuSans-2e" x="63.623047"/>
       <use xlink:href="#DejaVuSans-36" x="95.410156"/>
      </g>
     </g>
    </g>
    <g id="ytick_5">
     <g id="line2d_19">
      <path d="M 108 126.711325 
L 777.6 126.711325 
" clip-path="url(#p16f3df0916)" style="fill: none; stroke: #b0b0b0; stroke-width: 0.8; stroke-linecap: square"/>
     </g>
     <g id="line2d_20">
      <g>
       <use xlink:href="#m3c57446451" x="108" y="126.711325" style="stroke: #000000; stroke-width: 0.8"/>
      </g>
     </g>
     <g id="text_12">
      <!-- 0.8 -->
      <g transform="translate(85.096875 130.510544) scale(0.1 -0.1)">
       <defs>
        <path id="DejaVuSans-38" d="M 2034 2216 
Q 1584 2216 1326 1975 
Q 1069 1734 1069 1313 
Q 1069 891 1326 650 
Q 1584 409 2034 409 
Q 2484 409 2743 651 
Q 3003 894 3003 1313 
Q 3003 1734 2745 1975 
Q 2488 2216 2034 2216 
z
M 1403 2484 
Q 997 2584 770 2862 
Q 544 3141 544 3541 
Q 544 4100 942 4425 
Q 1341 4750 2034 4750 
Q 2731 4750 3128 4425 
Q 3525 4100 3525 3541 
Q 3525 3141 3298 2862 
Q 3072 2584 2669 2484 
Q 3125 2378 3379 2068 
Q 3634 1759 3634 1313 
Q 3634 634 3220 271 
Q 2806 -91 2034 -91 
Q 1263 -91 848 271 
Q 434 634 434 1313 
Q 434 1759 690 2068 
Q 947 2378 1403 2484 
z
M 1172 3481 
Q 1172 3119 1398 2916 
Q 1625 2713 2034 2713 
Q 2441 2713 2670 2916 
Q 2900 3119 2900 3481 
Q 2900 3844 2670 4047 
Q 2441 4250 2034 4250 
Q 1625 4250 1398 4047 
Q 1172 3844 1172 3481 
z
" transform="scale(0.015625)"/>
       </defs>
       <use xlink:href="#DejaVuSans-30"/>
       <use xlink:href="#DejaVuSans-2e" x="63.623047"/>
       <use xlink:href="#DejaVuSans-38" x="95.410156"/>
      </g>
     </g>
    </g>
    <g id="ytick_6">
     <g id="line2d_21">
      <path d="M 108 66.049157 
L 777.6 66.049157 
" clip-path="url(#p16f3df0916)" style="fill: none; stroke: #b0b0b0; stroke-width: 0.8; stroke-linecap: square"/>
     </g>
     <g id="line2d_22">
      <g>
       <use xlink:href="#m3c57446451" x="108" y="66.049157" style="stroke: #000000; stroke-width: 0.8"/>
      </g>
     </g>
     <g id="text_13">
      <!-- 1.0 -->
      <g transform="translate(85.096875 69.848375) scale(0.1 -0.1)">
       <use xlink:href="#DejaVuSans-31"/>
       <use xlink:href="#DejaVuSans-2e" x="63.623047"/>
       <use xlink:href="#DejaVuSans-30" x="95.410156"/>
      </g>
     </g>
    </g>
    <g id="text_14">
     <!-- Probability -->
     <g transform="translate(79.017187 244.588906) rotate(-90) scale(0.1 -0.1)">
      <defs>
       <path id="DejaVuSans-50" d="M 1259 4147 
L 1259 2394 
L 2053 2394 
Q 2494 2394 2734 2622 
Q 2975 2850 2975 3272 
Q 2975 3691 2734 3919 
Q 2494 4147 2053 4147 
L 1259 4147 
z
M 628 4666 
L 2053 4666 
Q 2838 4666 3239 4311 
Q 3641 3956 3641 3272 
Q 3641 2581 3239 2228 
Q 2838 1875 2053 1875 
L 1259 1875 
L 1259 0 
L 628 0 
L 628 4666 
z
" transform="scale(0.015625)"/>
       <path id="DejaVuSans-72" d="M 2631 2963 
Q 2534 3019 2420 3045 
Q 2306 3072 2169 3072 
Q 1681 3072 1420 2755 
Q 1159 2438 1159 1844 
L 1159 0 
L 581 0 
L 581 3500 
L 1159 3500 
L 1159 2956 
Q 1341 3275 1631 3429 
Q 1922 3584 2338 3584 
Q 2397 3584 2469 3576 
Q 2541 3569 2628 3553 
L 2631 2963 
z
" transform="scale(0.015625)"/>
       <path id="DejaVuSans-6f" d="M 1959 3097 
Q 1497 3097 1228 2736 
Q 959 2375 959 1747 
Q 959 1119 1226 758 
Q 1494 397 1959 397 
Q 2419 397 2687 759 
Q 2956 1122 2956 1747 
Q 2956 2369 2687 2733 
Q 2419 3097 1959 3097 
z
M 1959 3584 
Q 2709 3584 3137 3096 
Q 3566 2609 3566 1747 
Q 3566 888 3137 398 
Q 2709 -91 1959 -91 
Q 1206 -91 779 398 
Q 353 888 353 1747 
Q 353 2609 779 3096 
Q 1206 3584 1959 3584 
z
" transform="scale(0.015625)"/>
       <path id="DejaVuSans-62" d="M 3116 1747 
Q 3116 2381 2855 2742 
Q 2594 3103 2138 3103 
Q 1681 3103 1420 2742 
Q 1159 2381 1159 1747 
Q 1159 1113 1420 752 
Q 1681 391 2138 391 
Q 2594 391 2855 752 
Q 3116 1113 3116 1747 
z
M 1159 2969 
Q 1341 3281 1617 3432 
Q 1894 3584 2278 3584 
Q 2916 3584 3314 3078 
Q 3713 2572 3713 1747 
Q 3713 922 3314 415 
Q 2916 -91 2278 -91 
Q 1894 -91 1617 61 
Q 1341 213 1159 525 
L 1159 0 
L 581 0 
L 581 4863 
L 1159 4863 
L 1159 2969 
z
" transform="scale(0.015625)"/>
       <path id="DejaVuSans-61" d="M 2194 1759 
Q 1497 1759 1228 1600 
Q 959 1441 959 1056 
Q 959 750 1161 570 
Q 1363 391 1709 391 
Q 2188 391 2477 730 
Q 2766 1069 2766 1631 
L 2766 1759 
L 2194 1759 
z
M 3341 1997 
L 3341 0 
L 2766 0 
L 2766 531 
Q 2569 213 2275 61 
Q 1981 -91 1556 -91 
Q 1019 -91 701 211 
Q 384 513 384 1019 
Q 384 1609 779 1909 
Q 1175 2209 1959 2209 
L 2766 2209 
L 2766 2266 
Q 2766 2663 2505 2880 
Q 2244 3097 1772 3097 
Q 1472 3097 1187 3025 
Q 903 2953 641 2809 
L 641 3341 
Q 956 3463 1253 3523 
Q 1550 3584 1831 3584 
Q 2591 3584 2966 3190 
Q 3341 2797 3341 1997 
z
" transform="scale(0.015625)"/>
       <path id="DejaVuSans-6c" d="M 603 4863 
L 1178 4863 
L 1178 0 
L 603 0 
L 603 4863 
z
" transform="scale(0.015625)"/>
       <path id="DejaVuSans-74" d="M 1172 4494 
L 1172 3500 
L 2356 3500 
L 2356 3053 
L 1172 3053 
L 1172 1153 
Q 1172 725 1289 603 
Q 1406 481 1766 481 
L 2356 481 
L 2356 0 
L 1766 0 
Q 1100 0 847 248 
Q 594 497 594 1153 
L 594 3053 
L 172 3053 
L 172 3500 
L 594 3500 
L 594 4494 
L 1172 4494 
z
" transform="scale(0.015625)"/>
       <path id="DejaVuSans-79" d="M 2059 -325 
Q 1816 -950 1584 -1140 
Q 1353 -1331 966 -1331 
L 506 -1331 
L 506 -850 
L 844 -850 
Q 1081 -850 1212 -737 
Q 1344 -625 1503 -206 
L 1606 56 
L 191 3500 
L 800 3500 
L 1894 763 
L 2988 3500 
L 3597 3500 
L 2059 -325 
z
" transform="scale(0.015625)"/>
      </defs>
      <use xlink:href="#DejaVuSans-50"/>
      <use xlink:href="#DejaVuSans-72" x="58.552734"/>
      <use xlink:href="#DejaVuSans-6f" x="97.416016"/>
      <use xlink:href="#DejaVuSans-62" x="158.597656"/>
      <use xlink:href="#DejaVuSans-61" x="222.074219"/>
      <use xlink:href="#DejaVuSans-62" x="283.353516"/>
      <use xlink:href="#DejaVuSans-69" x="346.830078"/>
      <use xlink:href="#DejaVuSans-6c" x="374.613281"/>
      <use xlink:href="#DejaVuSans-69" x="402.396484"/>
      <use xlink:href="#DejaVuSans-74" x="430.179688"/>
      <use xlink:href="#DejaVuSans-79" x="469.388672"/>
     </g>
    </g>
   </g>
   <g id="line2d_23">
    <path d="M 138.461191 66.96 
L 138.571218 129.808193 
L 138.720446 159.866024 
L 138.769317 169.885301 
L 138.889797 185.369639 
L 139.260385 209.96241 
L 139.423725 216.338313 
L 139.534536 219.981687 
L 139.647175 222.714217 
L 139.723749 225.446747 
L 139.782552 229.09012 
L 139.921326 232.733494 
L 139.940143 233.644337 
L 140.121517 234.555181 
L 140.298709 240.020241 
L 140.926198 258.237108 
L 140.993886 260.058795 
L 141.13057 261.880482 
L 141.290252 270.988916 
L 141.311421 283.740723 
L 141.528598 284.651566 
L 141.712585 291.938313 
L 141.765377 292.849157 
L 141.931593 293.76 
L 142.287544 294.670843 
L 142.64036 298.314217 
L 142.95319 307.422651 
L 143.527888 310.155181 
L 144.110426 311.066024 
L 144.685124 318.352771 
L 145.079755 320.174458 
L 145.196576 321.085301 
L 146.235162 322.906988 
L 146.720741 323.817831 
L 147.05291 324.728675 
L 147.05291 327.461205 
L 147.166857 329.282892 
L 147.272702 330.193735 
L 147.838514 331.104578 
L 147.902543 332.015422 
L 149.93424 332.926265 
L 151.464415 333.837108 
L 152.060282 334.747952 
L 152.776629 340.213012 
L 153.004521 341.123855 
L 154.032392 342.945542 
L 154.292953 343.856386 
L 155.204524 344.767229 
L 155.213149 345.678072 
L 155.675207 346.588916 
L 156.637741 347.499759 
L 157.246675 348.410602 
L 157.447388 350.232289 
L 157.801771 352.053976 
L 158.589727 352.964819 
L 160.652785 353.875663 
L 161.376449 354.786506 
L 161.459034 355.697349 
L 161.879016 356.608193 
L 169.400004 357.519036 
L 170.030107 358.42988 
L 170.099886 359.340723 
L 175.948266 360.251566 
L 183.209216 361.16241 
L 186.663936 362.073253 
L 188.982067 362.984096 
L 193.265512 363.89494 
L 194.093454 364.805783 
L 247.476842 368.449157 
L 293.384715 369.36 
L 293.384715 369.36 
" clip-path="url(#p16f3df0916)" style="fill: none; stroke: #1f77b4; stroke-width: 1.5; stroke-linecap: square"/>
   </g>
   <g id="line2d_24">
    <path d="M 138.461191 68.965607 
L 138.461714 71.882057 
L 138.462759 74.798508 
L 138.463544 77.714958 
L 138.463805 80.631409 
L 138.466941 83.547859 
L 138.467202 86.46431 
L 138.467464 89.38076 
L 138.467725 92.29721 
L 138.469032 95.213661 
L 138.469293 98.130111 
L 138.469293 101.046562 
L 138.470077 103.963012 
L 138.470338 106.879462 
L 138.471384 109.795913 
L 138.471645 112.712363 
L 138.472952 115.628814 
L 138.473213 118.545264 
L 138.473997 121.461715 
L 138.473997 124.378165 
L 138.47452 127.294615 
L 138.475043 130.211066 
L 138.475827 133.127516 
L 138.478179 136.043967 
L 138.48027 138.960417 
L 138.481054 141.876867 
L 138.481838 144.793318 
L 138.482099 147.709768 
L 138.485497 150.626219 
L 138.487065 153.542669 
L 138.490201 156.45912 
L 138.490723 159.37557 
L 138.490723 162.29202 
L 138.491246 165.208471 
L 138.491769 168.124921 
L 138.491769 171.041372 
L 138.492814 173.957822 
L 138.509802 176.874272 
L 138.512676 179.790723 
L 138.515029 182.707173 
L 138.520778 185.623624 
L 138.521301 188.540074 
L 138.538288 191.456525 
L 138.542731 194.372975 
L 138.544822 197.289425 
L 138.561809 200.205876 
L 138.572524 203.122326 
L 138.579058 206.038777 
L 138.585592 208.955227 
L 138.597352 211.871677 
L 138.616169 214.788128 
L 138.628452 217.704578 
L 138.632372 220.621029 
L 138.647008 223.537479 
L 138.649883 226.45393 
L 138.651712 229.37038 
L 138.660598 232.28683 
L 138.67262 235.203281 
L 138.673665 238.119731 
L 138.681244 241.036182 
L 138.687516 243.952632 
L 138.711299 246.869082 
L 138.715742 249.785533 
L 138.719139 252.701983 
L 138.727763 255.618434 
L 138.73691 258.534884 
L 138.753114 261.451335 
L 138.787873 264.367785 
L 138.811916 267.284235 
L 138.830472 270.200686 
L 138.886138 273.117136 
L 139.056274 276.033587 
L 139.248624 278.950037 
L 139.360218 281.866487 
L 139.883954 284.782938 
L 140.335036 287.699388 
L 140.44271 290.615839 
L 140.560054 293.532289 
L 140.655445 296.44874 
L 140.993886 299.36519 
L 141.095288 302.28164 
L 141.196168 305.198091 
L 141.223086 308.114541 
L 141.290252 311.030992 
L 141.328669 313.947442 
L 141.616933 316.863892 
L 141.650908 319.780343 
L 143.764928 322.696793 
L 144.477355 325.613244 
L 145.047871 328.529694 
L 147.201616 331.446145 
L 161.751218 334.362595 
L 167.222216 337.279045 
L 178.105669 340.195496 
L 178.341403 343.111946 
L 178.64979 346.028397 
L 179.123086 348.944847 
L 191.858692 351.861297 
L 195.343728 354.777748 
L 212.387347 357.694198 
L 221.087001 360.610649 
L 325.948572 363.527099 
L 589.298935 366.44355 
L 747.163636 369.36 
" clip-path="url(#p16f3df0916)" style="fill: none; stroke: #ff7f0e; stroke-width: 1.5; stroke-linecap: square"/>
   </g>
   <g id="line2d_25">
    <path d="M 138.437148 68.91058 
L 138.43767 71.772003 
L 138.444465 74.633426 
L 138.445511 77.494849 
L 138.445511 80.356272 
L 138.452306 83.217695 
L 138.455703 86.079118 
L 138.455703 88.940541 
L 138.45701 91.801964 
L 138.457794 94.663387 
L 138.459362 97.52481 
L 138.461453 100.386233 
L 138.464066 103.247656 
L 138.470077 106.109079 
L 138.476088 108.970502 
L 138.487587 111.831925 
L 138.494644 114.693348 
L 138.507711 117.554772 
L 138.507711 120.416195 
L 138.525221 123.277618 
L 138.560503 126.139041 
L 138.561809 129.000464 
L 138.564423 131.861887 
L 138.58324 134.72331 
L 138.586898 137.584733 
L 138.612772 140.446156 
L 138.637599 143.307579 
L 138.702674 146.169002 
L 138.779248 149.030425 
L 138.80486 151.891848 
L 138.809042 154.753271 
L 138.815837 157.614694 
L 138.838574 160.476117 
L 138.873071 163.33754 
L 138.875423 166.198963 
L 138.960099 169.060386 
L 138.970553 171.92181 
L 138.978916 174.783233 
L 138.984666 177.644656 
L 139.00505 180.506079 
L 139.051831 183.367502 
L 139.1041 186.228925 
L 139.272145 189.090348 
L 139.347413 191.951771 
L 139.441497 194.813194 
L 139.455087 197.674617 
L 139.507617 200.53604 
L 139.554921 203.397463 
L 139.56067 206.258886 
L 139.659981 209.120309 
L 139.674617 211.981732 
L 139.779416 214.843155 
L 139.963141 217.704578 
L 139.974641 220.566001 
L 140.056964 223.427424 
L 140.150265 226.288847 
L 140.29505 229.150271 
L 140.36692 232.011694 
L 140.414746 234.873117 
L 140.674523 237.73454 
L 140.815649 240.595963 
L 140.870532 243.457386 
L 141.386949 246.318809 
L 141.908333 249.180232 
L 142.01862 252.041655 
L 142.143021 254.903078 
L 142.470225 257.764501 
L 143.004937 260.625924 
L 143.560818 263.487347 
L 143.950222 266.34877 
L 147.296484 269.210193 
L 150.475485 272.071616 
L 154.175086 274.933039 
L 154.347574 277.794462 
L 155.423531 280.655885 
L 156.883666 283.517308 
L 157.150238 286.378732 
L 157.283263 289.240155 
L 158.809779 292.101578 
L 159.691819 294.963001 
L 161.001942 297.824424 
L 161.045325 300.685847 
L 161.427673 303.54727 
L 161.956635 306.408693 
L 163.568873 309.270116 
L 164.0832 312.131539 
L 164.18042 314.992962 
L 174.413386 317.854385 
L 174.731705 320.715808 
L 174.895045 323.577231 
L 179.441404 326.438654 
L 184.098834 329.300077 
L 184.374292 332.1615 
L 188.202736 335.022923 
L 189.781783 337.884346 
L 191.363704 340.745769 
L 193.108705 343.607193 
L 193.514836 346.468616 
L 206.533479 349.330039 
L 216.133728 352.191462 
L 216.466682 355.052885 
L 216.704244 357.914308 
L 221.85823 360.775731 
L 224.367666 363.637154 
L 332.446132 366.498577 
L 412.119527 369.36 
" clip-path="url(#p16f3df0916)" style="fill: none; stroke: #2ca02c; stroke-width: 1.5; stroke-linecap: square"/>
   </g>
   <g id="line2d_26">
    <path d="M 138.436364 70.2041 
L 138.440022 74.359043 
L 138.457271 78.513986 
L 138.458055 82.668929 
L 138.460407 86.823872 
L 138.46093 90.978815 
L 138.461191 95.133758 
L 138.464066 99.288701 
L 138.479747 103.443644 
L 138.489417 107.598587 
L 138.516858 111.75353 
L 138.532539 115.908473 
L 138.564423 120.063416 
L 138.616692 124.218359 
L 138.6261 128.373303 
L 138.653541 132.528246 
L 138.655371 136.683189 
L 138.6572 140.838132 
L 138.682028 144.993075 
L 138.682289 149.148018 
L 138.707378 153.302961 
L 138.821064 157.457904 
L 138.85922 161.612847 
L 138.975519 165.76779 
L 139.032492 169.922733 
L 139.266657 174.077676 
L 139.266918 178.232619 
L 139.272145 182.387562 
L 139.363093 186.542505 
L 139.384001 190.697448 
L 139.427907 194.852391 
L 139.509708 199.007335 
L 139.554921 203.162278 
L 139.727147 207.317221 
L 139.727931 211.472164 
L 139.740476 215.627107 
L 140.417359 219.78205 
L 140.686022 223.936993 
L 141.290774 228.091936 
L 141.391915 232.246879 
L 141.634705 236.401822 
L 141.973669 240.556765 
L 143.849604 244.711708 
L 144.104938 248.866651 
L 144.305128 253.021594 
L 144.971297 257.176537 
L 145.425253 261.33148 
L 145.771536 265.486424 
L 145.840008 269.641367 
L 150.553889 273.79631 
L 152.424335 277.951253 
L 153.034576 282.106196 
L 155.185446 286.261139 
L 157.513247 290.416082 
L 158.338836 294.571025 
L 159.556181 298.725968 
L 167.17648 302.880911 
L 167.783846 307.035854 
L 168.604208 311.190797 
L 173.513837 315.34574 
L 184.039248 319.500683 
L 184.297979 323.655626 
L 187.425757 327.810569 
L 188.745288 331.965512 
L 199.491013 336.120456 
L 208.41464 340.275399 
L 227.407109 344.430342 
L 229.045481 348.585285 
L 257.368491 352.740228 
L 263.984441 356.895171 
L 269.691433 361.050114 
L 321.40169 365.205057 
L 661.111332 369.36 
" clip-path="url(#p16f3df0916)" style="fill: none; stroke: #d62728; stroke-width: 1.5; stroke-linecap: square"/>
   </g>
   <g id="line2d_27">
    <path d="M 138.436625 70.261807 
L 138.437932 74.474458 
L 138.446556 78.687108 
L 138.473213 82.899759 
L 138.476349 87.11241 
L 138.49778 91.32506 
L 138.551355 95.537711 
L 138.557366 99.750361 
L 138.619305 103.963012 
L 138.709208 108.175663 
L 138.776374 112.388313 
L 138.778726 116.600964 
L 138.796236 120.813614 
L 138.817143 125.026265 
L 138.897376 129.238916 
L 139.128405 133.451566 
L 139.260385 137.664217 
L 139.374592 141.876867 
L 140.327457 146.089518 
L 140.463356 150.302169 
L 141.299137 154.514819 
L 141.571982 158.72747 
L 141.66293 162.94012 
L 141.812158 167.152771 
L 143.126201 171.365422 
L 143.217672 175.578072 
L 143.312278 179.790723 
L 143.509855 184.003373 
L 144.060771 188.216024 
L 144.554713 192.428675 
L 144.655592 196.641325 
L 144.907006 200.853976 
L 146.2349 205.066627 
L 146.702447 209.279277 
L 146.894797 213.491928 
L 146.909432 217.704578 
L 147.397102 221.917229 
L 147.397624 226.12988 
L 148.219293 230.34253 
L 148.463651 234.555181 
L 149.077289 238.767831 
L 149.482635 242.980482 
L 149.8838 247.193133 
L 154.204618 251.405783 
L 157.083857 255.618434 
L 157.599752 259.831084 
L 160.228622 264.043735 
L 160.970058 268.256386 
L 161.682223 272.469036 
L 162.985551 276.681687 
L 164.316058 280.894337 
L 165.960964 285.106988 
L 167.690807 289.319639 
L 168.257403 293.532289 
L 171.944198 297.74494 
L 173.441444 301.95759 
L 179.128835 306.170241 
L 181.51178 310.382892 
L 183.307482 314.595542 
L 186.052127 318.808193 
L 190.631677 323.020843 
L 191.204284 327.233494 
L 191.711293 331.446145 
L 201.338984 335.658795 
L 201.677165 339.871446 
L 229.808347 344.084096 
L 230.796493 348.296747 
L 240.662008 352.509398 
L 251.38395 356.722048 
L 285.383636 360.934699 
L 299.872084 365.147349 
L 306.962637 369.36 
" clip-path="url(#p16f3df0916)" style="fill: none; stroke: #9467bd; stroke-width: 1.5; stroke-linecap: square"/>
   </g>
   <g id="patch_3">
    <path d="M 108 384.48 
L 108 51.84 
" style="fill: none; stroke: #000000; stroke-width: 0.8; stroke-linejoin: miter; stroke-linecap: square"/>
   </g>
   <g id="patch_4">
    <path d="M 777.6 384.48 
L 777.6 51.84 
" style="fill: none; stroke: #000000; stroke-width: 0.8; stroke-linejoin: miter; stroke-linecap: square"/>
   </g>
   <g id="patch_5">
    <path d="M 108 384.48 
L 777.6 384.48 
" style="fill: none; stroke: #000000; stroke-width: 0.8; stroke-linejoin: miter; stroke-linecap: square"/>
   </g>
   <g id="patch_6">
    <path d="M 108 51.84 
L 777.6 51.84 
" style="fill: none; stroke: #000000; stroke-width: 0.8; stroke-linejoin: miter; stroke-linecap: square"/>
   </g>
   <g id="legend_1">
    <g id="patch_7">
     <path d="M 613.33125 133.230625 
L 770.6 133.230625 
Q 772.6 133.230625 772.6 131.230625 
L 772.6 58.84 
Q 772.6 56.84 770.6 56.84 
L 613.33125 56.84 
Q 611.33125 56.84 611.33125 58.84 
L 611.33125 131.230625 
Q 611.33125 133.230625 613.33125 133.230625 
z
" style="fill: #ffffff; opacity: 0.8; stroke: #cccccc; stroke-linejoin: miter"/>
    </g>
    <g id="line2d_28">
     <path d="M 615.33125 64.938437 
L 625.33125 64.938437 
L 635.33125 64.938437 
" style="fill: none; stroke: #1f77b4; stroke-width: 1.5; stroke-linecap: square"/>
    </g>
    <g id="text_15">
     <!-- Empirical Reliability DEV -->
     <g transform="translate(643.33125 68.438437) scale(0.1 -0.1)">
      <defs>
       <path id="DejaVuSans-45" d="M 628 4666 
L 3578 4666 
L 3578 4134 
L 1259 4134 
L 1259 2753 
L 3481 2753 
L 3481 2222 
L 1259 2222 
L 1259 531 
L 3634 531 
L 3634 0 
L 628 0 
L 628 4666 
z
" transform="scale(0.015625)"/>
       <path id="DejaVuSans-70" d="M 1159 525 
L 1159 -1331 
L 581 -1331 
L 581 3500 
L 1159 3500 
L 1159 2969 
Q 1341 3281 1617 3432 
Q 1894 3584 2278 3584 
Q 2916 3584 3314 3078 
Q 3713 2572 3713 1747 
Q 3713 922 3314 415 
Q 2916 -91 2278 -91 
Q 1894 -91 1617 61 
Q 1341 213 1159 525 
z
M 3116 1747 
Q 3116 2381 2855 2742 
Q 2594 3103 2138 3103 
Q 1681 3103 1420 2742 
Q 1159 2381 1159 1747 
Q 1159 1113 1420 752 
Q 1681 391 2138 391 
Q 2594 391 2855 752 
Q 3116 1113 3116 1747 
z
" transform="scale(0.015625)"/>
       <path id="DejaVuSans-63" d="M 3122 3366 
L 3122 2828 
Q 2878 2963 2633 3030 
Q 2388 3097 2138 3097 
Q 1578 3097 1268 2742 
Q 959 2388 959 1747 
Q 959 1106 1268 751 
Q 1578 397 2138 397 
Q 2388 397 2633 464 
Q 2878 531 3122 666 
L 3122 134 
Q 2881 22 2623 -34 
Q 2366 -91 2075 -91 
Q 1284 -91 818 406 
Q 353 903 353 1747 
Q 353 2603 823 3093 
Q 1294 3584 2113 3584 
Q 2378 3584 2631 3529 
Q 2884 3475 3122 3366 
z
" transform="scale(0.015625)"/>
       <path id="DejaVuSans-52" d="M 2841 2188 
Q 3044 2119 3236 1894 
Q 3428 1669 3622 1275 
L 4263 0 
L 3584 0 
L 2988 1197 
Q 2756 1666 2539 1819 
Q 2322 1972 1947 1972 
L 1259 1972 
L 1259 0 
L 628 0 
L 628 4666 
L 2053 4666 
Q 2853 4666 3247 4331 
Q 3641 3997 3641 3322 
Q 3641 2881 3436 2590 
Q 3231 2300 2841 2188 
z
M 1259 4147 
L 1259 2491 
L 2053 2491 
Q 2509 2491 2742 2702 
Q 2975 2913 2975 3322 
Q 2975 3731 2742 3939 
Q 2509 4147 2053 4147 
L 1259 4147 
z
" transform="scale(0.015625)"/>
       <path id="DejaVuSans-44" d="M 1259 4147 
L 1259 519 
L 2022 519 
Q 2988 519 3436 956 
Q 3884 1394 3884 2338 
Q 3884 3275 3436 3711 
Q 2988 4147 2022 4147 
L 1259 4147 
z
M 628 4666 
L 1925 4666 
Q 3281 4666 3915 4102 
Q 4550 3538 4550 2338 
Q 4550 1131 3912 565 
Q 3275 0 1925 0 
L 628 0 
L 628 4666 
z
" transform="scale(0.015625)"/>
       <path id="DejaVuSans-56" d="M 1831 0 
L 50 4666 
L 709 4666 
L 2188 738 
L 3669 4666 
L 4325 4666 
L 2547 0 
L 1831 0 
z
" transform="scale(0.015625)"/>
      </defs>
      <use xlink:href="#DejaVuSans-45"/>
      <use xlink:href="#DejaVuSans-6d" x="63.183594"/>
      <use xlink:href="#DejaVuSans-70" x="160.595703"/>
      <use xlink:href="#DejaVuSans-69" x="224.072266"/>
      <use xlink:href="#DejaVuSans-72" x="251.855469"/>
      <use xlink:href="#DejaVuSans-69" x="292.96875"/>
      <use xlink:href="#DejaVuSans-63" x="320.751953"/>
      <use xlink:href="#DejaVuSans-61" x="375.732422"/>
      <use xlink:href="#DejaVuSans-6c" x="437.011719"/>
      <use xlink:href="#DejaVuSans-20" x="464.794922"/>
      <use xlink:href="#DejaVuSans-52" x="496.582031"/>
      <use xlink:href="#DejaVuSans-65" x="561.564453"/>
      <use xlink:href="#DejaVuSans-6c" x="623.087891"/>
      <use xlink:href="#DejaVuSans-69" x="650.871094"/>
      <use xlink:href="#DejaVuSans-61" x="678.654297"/>
      <use xlink:href="#DejaVuSans-62" x="739.933594"/>
      <use xlink:href="#DejaVuSans-69" x="803.410156"/>
      <use xlink:href="#DejaVuSans-6c" x="831.193359"/>
      <use xlink:href="#DejaVuSans-69" x="858.976562"/>
      <use xlink:href="#DejaVuSans-74" x="886.759766"/>
      <use xlink:href="#DejaVuSans-79" x="925.96875"/>
      <use xlink:href="#DejaVuSans-20" x="985.148438"/>
      <use xlink:href="#DejaVuSans-44" x="1016.935547"/>
      <use xlink:href="#DejaVuSans-45" x="1093.9375"/>
      <use xlink:href="#DejaVuSans-56" x="1157.121094"/>
     </g>
    </g>
    <g id="line2d_29">
     <path d="M 615.33125 79.616562 
L 625.33125 79.616562 
L 635.33125 79.616562 
" style="fill: none; stroke: #ff7f0e; stroke-width: 1.5; stroke-linecap: square"/>
    </g>
    <g id="text_16">
     <!-- Empirical Reliability MEM -->
     <g transform="translate(643.33125 83.116562) scale(0.1 -0.1)">
      <defs>
       <path id="DejaVuSans-4d" d="M 628 4666 
L 1569 4666 
L 2759 1491 
L 3956 4666 
L 4897 4666 
L 4897 0 
L 4281 0 
L 4281 4097 
L 3078 897 
L 2444 897 
L 1241 4097 
L 1241 0 
L 628 0 
L 628 4666 
z
" transform="scale(0.015625)"/>
      </defs>
      <use xlink:href="#DejaVuSans-45"/>
      <use xlink:href="#DejaVuSans-6d" x="63.183594"/>
      <use xlink:href="#DejaVuSans-70" x="160.595703"/>
      <use xlink:href="#DejaVuSans-69" x="224.072266"/>
      <use xlink:href="#DejaVuSans-72" x="251.855469"/>
      <use xlink:href="#DejaVuSans-69" x="292.96875"/>
      <use xlink:href="#DejaVuSans-63" x="320.751953"/>
      <use xlink:href="#DejaVuSans-61" x="375.732422"/>
      <use xlink:href="#DejaVuSans-6c" x="437.011719"/>
      <use xlink:href="#DejaVuSans-20" x="464.794922"/>
      <use xlink:href="#DejaVuSans-52" x="496.582031"/>
      <use xlink:href="#DejaVuSans-65" x="561.564453"/>
      <use xlink:href="#DejaVuSans-6c" x="623.087891"/>
      <use xlink:href="#DejaVuSans-69" x="650.871094"/>
      <use xlink:href="#DejaVuSans-61" x="678.654297"/>
      <use xlink:href="#DejaVuSans-62" x="739.933594"/>
      <use xlink:href="#DejaVuSans-69" x="803.410156"/>
      <use xlink:href="#DejaVuSans-6c" x="831.193359"/>
      <use xlink:href="#DejaVuSans-69" x="858.976562"/>
      <use xlink:href="#DejaVuSans-74" x="886.759766"/>
      <use xlink:href="#DejaVuSans-79" x="925.96875"/>
      <use xlink:href="#DejaVuSans-20" x="985.148438"/>
      <use xlink:href="#DejaVuSans-4d" x="1016.935547"/>
      <use xlink:href="#DejaVuSans-45" x="1103.214844"/>
      <use xlink:href="#DejaVuSans-4d" x="1166.398438"/>
     </g>
    </g>
    <g id="line2d_30">
     <path d="M 615.33125 94.294687 
L 625.33125 94.294687 
L 635.33125 94.294687 
" style="fill: none; stroke: #2ca02c; stroke-width: 1.5; stroke-linecap: square"/>
    </g>
    <g id="text_17">
     <!-- Empirical Reliability I-O -->
     <g transform="translate(643.33125 97.794687) scale(0.1 -0.1)">
      <defs>
       <path id="DejaVuSans-49" d="M 628 4666 
L 1259 4666 
L 1259 0 
L 628 0 
L 628 4666 
z
" transform="scale(0.015625)"/>
       <path id="DejaVuSans-2d" d="M 313 2009 
L 1997 2009 
L 1997 1497 
L 313 1497 
L 313 2009 
z
" transform="scale(0.015625)"/>
       <path id="DejaVuSans-4f" d="M 2522 4238 
Q 1834 4238 1429 3725 
Q 1025 3213 1025 2328 
Q 1025 1447 1429 934 
Q 1834 422 2522 422 
Q 3209 422 3611 934 
Q 4013 1447 4013 2328 
Q 4013 3213 3611 3725 
Q 3209 4238 2522 4238 
z
M 2522 4750 
Q 3503 4750 4090 4092 
Q 4678 3434 4678 2328 
Q 4678 1225 4090 567 
Q 3503 -91 2522 -91 
Q 1538 -91 948 565 
Q 359 1222 359 2328 
Q 359 3434 948 4092 
Q 1538 4750 2522 4750 
z
" transform="scale(0.015625)"/>
      </defs>
      <use xlink:href="#DejaVuSans-45"/>
      <use xlink:href="#DejaVuSans-6d" x="63.183594"/>
      <use xlink:href="#DejaVuSans-70" x="160.595703"/>
      <use xlink:href="#DejaVuSans-69" x="224.072266"/>
      <use xlink:href="#DejaVuSans-72" x="251.855469"/>
      <use xlink:href="#DejaVuSans-69" x="292.96875"/>
      <use xlink:href="#DejaVuSans-63" x="320.751953"/>
      <use xlink:href="#DejaVuSans-61" x="375.732422"/>
      <use xlink:href="#DejaVuSans-6c" x="437.011719"/>
      <use xlink:href="#DejaVuSans-20" x="464.794922"/>
      <use xlink:href="#DejaVuSans-52" x="496.582031"/>
      <use xlink:href="#DejaVuSans-65" x="561.564453"/>
      <use xlink:href="#DejaVuSans-6c" x="623.087891"/>
      <use xlink:href="#DejaVuSans-69" x="650.871094"/>
      <use xlink:href="#DejaVuSans-61" x="678.654297"/>
      <use xlink:href="#DejaVuSans-62" x="739.933594"/>
      <use xlink:href="#DejaVuSans-69" x="803.410156"/>
      <use xlink:href="#DejaVuSans-6c" x="831.193359"/>
      <use xlink:href="#DejaVuSans-69" x="858.976562"/>
      <use xlink:href="#DejaVuSans-74" x="886.759766"/>
      <use xlink:href="#DejaVuSans-79" x="925.96875"/>
      <use xlink:href="#DejaVuSans-20" x="985.148438"/>
      <use xlink:href="#DejaVuSans-49" x="1016.935547"/>
      <use xlink:href="#DejaVuSans-2d" x="1046.427734"/>
      <use xlink:href="#DejaVuSans-4f" x="1085.261719"/>
     </g>
    </g>
    <g id="line2d_31">
     <path d="M 615.33125 108.972812 
L 625.33125 108.972812 
L 635.33125 108.972812 
" style="fill: none; stroke: #d62728; stroke-width: 1.5; stroke-linecap: square"/>
    </g>
    <g id="text_18">
     <!-- Empirical Reliability NET -->
     <g transform="translate(643.33125 112.472812) scale(0.1 -0.1)">
      <defs>
       <path id="DejaVuSans-4e" d="M 628 4666 
L 1478 4666 
L 3547 763 
L 3547 4666 
L 4159 4666 
L 4159 0 
L 3309 0 
L 1241 3903 
L 1241 0 
L 628 0 
L 628 4666 
z
" transform="scale(0.015625)"/>
      </defs>
      <use xlink:href="#DejaVuSans-45"/>
      <use xlink:href="#DejaVuSans-6d" x="63.183594"/>
      <use xlink:href="#DejaVuSans-70" x="160.595703"/>
      <use xlink:href="#DejaVuSans-69" x="224.072266"/>
      <use xlink:href="#DejaVuSans-72" x="251.855469"/>
      <use xlink:href="#DejaVuSans-69" x="292.96875"/>
      <use xlink:href="#DejaVuSans-63" x="320.751953"/>
      <use xlink:href="#DejaVuSans-61" x="375.732422"/>
      <use xlink:href="#DejaVuSans-6c" x="437.011719"/>
      <use xlink:href="#DejaVuSans-20" x="464.794922"/>
      <use xlink:href="#DejaVuSans-52" x="496.582031"/>
      <use xlink:href="#DejaVuSans-65" x="561.564453"/>
      <use xlink:href="#DejaVuSans-6c" x="623.087891"/>
      <use xlink:href="#DejaVuSans-69" x="650.871094"/>
      <use xlink:href="#DejaVuSans-61" x="678.654297"/>
      <use xlink:href="#DejaVuSans-62" x="739.933594"/>
      <use xlink:href="#DejaVuSans-69" x="803.410156"/>
      <use xlink:href="#DejaVuSans-6c" x="831.193359"/>
      <use xlink:href="#DejaVuSans-69" x="858.976562"/>
      <use xlink:href="#DejaVuSans-74" x="886.759766"/>
      <use xlink:href="#DejaVuSans-79" x="925.96875"/>
      <use xlink:href="#DejaVuSans-20" x="985.148438"/>
      <use xlink:href="#DejaVuSans-4e" x="1016.935547"/>
      <use xlink:href="#DejaVuSans-45" x="1091.740234"/>
      <use xlink:href="#DejaVuSans-54" x="1154.923828"/>
     </g>
    </g>
    <g id="line2d_32">
     <path d="M 615.33125 123.650937 
L 625.33125 123.650937 
L 635.33125 123.650937 
" style="fill: none; stroke: #9467bd; stroke-width: 1.5; stroke-linecap: square"/>
    </g>
    <g id="text_19">
     <!-- Empirical Reliability PRO -->
     <g transform="translate(643.33125 127.150937) scale(0.1 -0.1)">
      <use xlink:href="#DejaVuSans-45"/>
      <use xlink:href="#DejaVuSans-6d" x="63.183594"/>
      <use xlink:href="#DejaVuSans-70" x="160.595703"/>
      <use xlink:href="#DejaVuSans-69" x="224.072266"/>
      <use xlink:href="#DejaVuSans-72" x="251.855469"/>
      <use xlink:href="#DejaVuSans-69" x="292.96875"/>
      <use xlink:href="#DejaVuSans-63" x="320.751953"/>
      <use xlink:href="#DejaVuSans-61" x="375.732422"/>
      <use xlink:href="#DejaVuSans-6c" x="437.011719"/>
      <use xlink:href="#DejaVuSans-20" x="464.794922"/>
      <use xlink:href="#DejaVuSans-52" x="496.582031"/>
      <use xlink:href="#DejaVuSans-65" x="561.564453"/>
      <use xlink:href="#DejaVuSans-6c" x="623.087891"/>
      <use xlink:href="#DejaVuSans-69" x="650.871094"/>
      <use xlink:href="#DejaVuSans-61" x="678.654297"/>
      <use xlink:href="#DejaVuSans-62" x="739.933594"/>
      <use xlink:href="#DejaVuSans-69" x="803.410156"/>
      <use xlink:href="#DejaVuSans-6c" x="831.193359"/>
      <use xlink:href="#DejaVuSans-69" x="858.976562"/>
      <use xlink:href="#DejaVuSans-74" x="886.759766"/>
      <use xlink:href="#DejaVuSans-79" x="925.96875"/>
      <use xlink:href="#DejaVuSans-20" x="985.148438"/>
      <use xlink:href="#DejaVuSans-50" x="1016.935547"/>
      <use xlink:href="#DejaVuSans-52" x="1077.238281"/>
      <use xlink:href="#DejaVuSans-4f" x="1146.720703"/>
     </g>
    </g>
   </g>
  </g>
 </g>
 <defs>
  <clipPath id="p16f3df0916">
   <rect x="108" y="51.84" width="669.6" height="332.64"/>
  </clipPath>
 </defs>
</svg>
