<?xml version="1.0" encoding="utf-8" standalone="no"?>
<!DOCTYPE svg PUBLIC "-//W3C//DTD SVG 1.1//EN"
  "http://www.w3.org/Graphics/SVG/1.1/DTD/svg11.dtd">
<svg xmlns:xlink="http://www.w3.org/1999/xlink" width="432pt" height="864pt" viewBox="0 0 432 864" xmlns="http://www.w3.org/2000/svg" version="1.1">
 <metadata>
  <rdf:RDF xmlns:dc="http://purl.org/dc/elements/1.1/" xmlns:cc="http://creativecommons.org/ns#" xmlns:rdf="http://www.w3.org/1999/02/22-rdf-syntax-ns#">
   <cc:Work>
    <dc:type rdf:resource="http://purl.org/dc/dcmitype/StillImage"/>
    <dc:date>2022-12-16T13:07:06.260849</dc:date>
    <dc:format>image/svg+xml</dc:format>
    <dc:creator>
     <cc:Agent>
      <dc:title>Matplotlib v3.6.2, https://matplotlib.org/</dc:title>
     </cc:Agent>
    </dc:creator>
   </cc:Work>
  </rdf:RDF>
 </metadata>
 <defs>
  <style type="text/css">*{stroke-linejoin: round; stroke-linecap: butt}</style>
 </defs>
 <g id="figure_1">
  <g id="patch_1">
   <path d="M 0 864 
L 432 864 
L 432 0 
L 0 0 
z
" style="fill: #ffffff"/>
  </g>
  <g id="axes_1">
   <g id="patch_2">
    <path d="M 54 768.96 
L 388.8 768.96 
L 388.8 103.68 
L 54 103.68 
z
" style="fill: #ffffff"/>
   </g>
   <g id="patch_3">
    <path d="M 54 758.565 
L 91.534466 758.565 
L 91.534466 757.179 
L 54 757.179 
z
" clip-path="url(#pafdf4466a5)" style="fill: #1f77b4"/>
   </g>
   <g id="patch_4">
    <path d="M 54 716.985 
L 92.091908 716.985 
L 92.091908 715.599 
L 54 715.599 
z
" clip-path="url(#pafdf4466a5)" style="fill: #1f77b4"/>
   </g>
   <g id="patch_5">
    <path d="M 54 675.405 
L 344.427572 675.405 
L 344.427572 674.019 
L 54 674.019 
z
" clip-path="url(#pafdf4466a5)" style="fill: #1f77b4"/>
   </g>
   <g id="patch_6">
    <path d="M 54 633.825 
L 90.977023 633.825 
L 90.977023 632.439 
L 54 632.439 
z
" clip-path="url(#pafdf4466a5)" style="fill: #1f77b4"/>
   </g>
   <g id="patch_7">
    <path d="M 54 592.245 
L 87.260739 592.245 
L 87.260739 590.859 
L 54 590.859 
z
" clip-path="url(#pafdf4466a5)" style="fill: #1f77b4"/>
   </g>
   <g id="patch_8">
    <path d="M 54 550.665 
L 112.15984 550.665 
L 112.15984 549.279 
L 54 549.279 
z
" clip-path="url(#pafdf4466a5)" style="fill: #1f77b4"/>
   </g>
   <g id="patch_9">
    <path d="M 54 509.085 
L 100.453546 509.085 
L 100.453546 507.699 
L 54 507.699 
z
" clip-path="url(#pafdf4466a5)" style="fill: #1f77b4"/>
   </g>
   <g id="patch_10">
    <path d="M 54 467.505 
L 99.71029 467.505 
L 99.71029 466.119 
L 54 466.119 
z
" clip-path="url(#pafdf4466a5)" style="fill: #1f77b4"/>
   </g>
   <g id="patch_11">
    <path d="M 54 425.925 
L 100.081918 425.925 
L 100.081918 424.539 
L 54 424.539 
z
" clip-path="url(#pafdf4466a5)" style="fill: #1f77b4"/>
   </g>
   <g id="patch_12">
    <path d="M 54 384.345 
L 103.798202 384.345 
L 103.798202 382.959 
L 54 382.959 
z
" clip-path="url(#pafdf4466a5)" style="fill: #1f77b4"/>
   </g>
   <g id="patch_13">
    <path d="M 54 342.765 
L 101.196803 342.765 
L 101.196803 341.379 
L 54 341.379 
z
" clip-path="url(#pafdf4466a5)" style="fill: #1f77b4"/>
   </g>
   <g id="patch_14">
    <path d="M 54 301.185 
L 100.267732 301.185 
L 100.267732 299.799 
L 54 299.799 
z
" clip-path="url(#pafdf4466a5)" style="fill: #1f77b4"/>
   </g>
   <g id="patch_15">
    <path d="M 54 259.605 
L 200.979021 259.605 
L 200.979021 258.219 
L 54 258.219 
z
" clip-path="url(#pafdf4466a5)" style="fill: #1f77b4"/>
   </g>
   <g id="patch_16">
    <path d="M 54 218.025 
L 101.010989 218.025 
L 101.010989 216.639 
L 54 216.639 
z
" clip-path="url(#pafdf4466a5)" style="fill: #1f77b4"/>
   </g>
   <g id="patch_17">
    <path d="M 54 176.445 
L 83.172827 176.445 
L 83.172827 175.059 
L 54 175.059 
z
" clip-path="url(#pafdf4466a5)" style="fill: #1f77b4"/>
   </g>
   <g id="patch_18">
    <path d="M 54 134.865 
L 83.358641 134.865 
L 83.358641 133.479 
L 54 133.479 
z
" clip-path="url(#pafdf4466a5)" style="fill: #1f77b4"/>
   </g>
   <g id="patch_19">
    <path d="M 54 757.179 
L 54 757.179 
L 54 755.793 
L 54 755.793 
z
" clip-path="url(#pafdf4466a5)" style="fill: #aec7e8"/>
   </g>
   <g id="patch_20">
    <path d="M 54 715.599 
L 54 715.599 
L 54 714.213 
L 54 714.213 
z
" clip-path="url(#pafdf4466a5)" style="fill: #aec7e8"/>
   </g>
   <g id="patch_21">
    <path d="M 54 674.019 
L 54 674.019 
L 54 672.633 
L 54 672.633 
z
" clip-path="url(#pafdf4466a5)" style="fill: #aec7e8"/>
   </g>
   <g id="patch_22">
    <path d="M 54 632.439 
L 54 632.439 
L 54 631.053 
L 54 631.053 
z
" clip-path="url(#pafdf4466a5)" style="fill: #aec7e8"/>
   </g>
   <g id="patch_23">
    <path d="M 54 590.859 
L 54 590.859 
L 54 589.473 
L 54 589.473 
z
" clip-path="url(#pafdf4466a5)" style="fill: #aec7e8"/>
   </g>
   <g id="patch_24">
    <path d="M 54 549.279 
L 77.784216 549.279 
L 77.784216 547.893 
L 54 547.893 
z
" clip-path="url(#pafdf4466a5)" style="fill: #aec7e8"/>
   </g>
   <g id="patch_25">
    <path d="M 54 507.699 
L 65.892108 507.699 
L 65.892108 506.313 
L 54 506.313 
z
" clip-path="url(#pafdf4466a5)" style="fill: #aec7e8"/>
   </g>
   <g id="patch_26">
    <path d="M 54 466.119 
L 65.892108 466.119 
L 65.892108 464.733 
L 54 464.733 
z
" clip-path="url(#pafdf4466a5)" style="fill: #aec7e8"/>
   </g>
   <g id="patch_27">
    <path d="M 54 424.539 
L 65.892108 424.539 
L 65.892108 423.153 
L 54 423.153 
z
" clip-path="url(#pafdf4466a5)" style="fill: #aec7e8"/>
   </g>
   <g id="patch_28">
    <path d="M 54 382.959 
L 65.892108 382.959 
L 65.892108 381.573 
L 54 381.573 
z
" clip-path="url(#pafdf4466a5)" style="fill: #aec7e8"/>
   </g>
   <g id="patch_29">
    <path d="M 54 341.379 
L 65.892108 341.379 
L 65.892108 339.993 
L 54 339.993 
z
" clip-path="url(#pafdf4466a5)" style="fill: #aec7e8"/>
   </g>
   <g id="patch_30">
    <path d="M 54 299.799 
L 65.892108 299.799 
L 65.892108 298.413 
L 54 298.413 
z
" clip-path="url(#pafdf4466a5)" style="fill: #aec7e8"/>
   </g>
   <g id="patch_31">
    <path d="M 54 258.219 
L 89.676324 258.219 
L 89.676324 256.833 
L 54 256.833 
z
" clip-path="url(#pafdf4466a5)" style="fill: #aec7e8"/>
   </g>
   <g id="patch_32">
    <path d="M 54 216.639 
L 65.892108 216.639 
L 65.892108 215.253 
L 54 215.253 
z
" clip-path="url(#pafdf4466a5)" style="fill: #aec7e8"/>
   </g>
   <g id="patch_33">
    <path d="M 54 175.059 
L 54 175.059 
L 54 173.673 
L 54 173.673 
z
" clip-path="url(#pafdf4466a5)" style="fill: #aec7e8"/>
   </g>
   <g id="patch_34">
    <path d="M 54 133.479 
L 54 133.479 
L 54 132.093 
L 54 132.093 
z
" clip-path="url(#pafdf4466a5)" style="fill: #aec7e8"/>
   </g>
   <g id="patch_35">
    <path d="M 54 755.793 
L 54 755.793 
L 54 754.407 
L 54 754.407 
z
" clip-path="url(#pafdf4466a5)" style="fill: #ff7f0e"/>
   </g>
   <g id="patch_36">
    <path d="M 54 714.213 
L 54 714.213 
L 54 712.827 
L 54 712.827 
z
" clip-path="url(#pafdf4466a5)" style="fill: #ff7f0e"/>
   </g>
   <g id="patch_37">
    <path d="M 54 672.633 
L 54 672.633 
L 54 671.247 
L 54 671.247 
z
" clip-path="url(#pafdf4466a5)" style="fill: #ff7f0e"/>
   </g>
   <g id="patch_38">
    <path d="M 54 631.053 
L 54 631.053 
L 54 629.667 
L 54 629.667 
z
" clip-path="url(#pafdf4466a5)" style="fill: #ff7f0e"/>
   </g>
   <g id="patch_39">
    <path d="M 54 589.473 
L 54 589.473 
L 54 588.087 
L 54 588.087 
z
" clip-path="url(#pafdf4466a5)" style="fill: #ff7f0e"/>
   </g>
   <g id="patch_40">
    <path d="M 54 547.893 
L 77.784216 547.893 
L 77.784216 546.507 
L 54 546.507 
z
" clip-path="url(#pafdf4466a5)" style="fill: #ff7f0e"/>
   </g>
   <g id="patch_41">
    <path d="M 54 506.313 
L 65.892108 506.313 
L 65.892108 504.927 
L 54 504.927 
z
" clip-path="url(#pafdf4466a5)" style="fill: #ff7f0e"/>
   </g>
   <g id="patch_42">
    <path d="M 54 464.733 
L 65.892108 464.733 
L 65.892108 463.347 
L 54 463.347 
z
" clip-path="url(#pafdf4466a5)" style="fill: #ff7f0e"/>
   </g>
   <g id="patch_43">
    <path d="M 54 423.153 
L 65.892108 423.153 
L 65.892108 421.767 
L 54 421.767 
z
" clip-path="url(#pafdf4466a5)" style="fill: #ff7f0e"/>
   </g>
   <g id="patch_44">
    <path d="M 54 381.573 
L 65.892108 381.573 
L 65.892108 380.187 
L 54 380.187 
z
" clip-path="url(#pafdf4466a5)" style="fill: #ff7f0e"/>
   </g>
   <g id="patch_45">
    <path d="M 54 339.993 
L 65.892108 339.993 
L 65.892108 338.607 
L 54 338.607 
z
" clip-path="url(#pafdf4466a5)" style="fill: #ff7f0e"/>
   </g>
   <g id="patch_46">
    <path d="M 54 298.413 
L 65.892108 298.413 
L 65.892108 297.027 
L 54 297.027 
z
" clip-path="url(#pafdf4466a5)" style="fill: #ff7f0e"/>
   </g>
   <g id="patch_47">
    <path d="M 54 256.833 
L 235.354645 256.833 
L 235.354645 255.447 
L 54 255.447 
z
" clip-path="url(#pafdf4466a5)" style="fill: #ff7f0e"/>
   </g>
   <g id="patch_48">
    <path d="M 54 215.253 
L 65.892108 215.253 
L 65.892108 213.867 
L 54 213.867 
z
" clip-path="url(#pafdf4466a5)" style="fill: #ff7f0e"/>
   </g>
   <g id="patch_49">
    <path d="M 54 173.673 
L 54 173.673 
L 54 172.287 
L 54 172.287 
z
" clip-path="url(#pafdf4466a5)" style="fill: #ff7f0e"/>
   </g>
   <g id="patch_50">
    <path d="M 54 132.093 
L 54 132.093 
L 54 130.707 
L 54 130.707 
z
" clip-path="url(#pafdf4466a5)" style="fill: #ff7f0e"/>
   </g>
   <g id="patch_51">
    <path d="M 54 754.407 
L 54 754.407 
L 54 753.021 
L 54 753.021 
z
" clip-path="url(#pafdf4466a5)" style="fill: #2ca02c"/>
   </g>
   <g id="patch_52">
    <path d="M 54 712.827 
L 54 712.827 
L 54 711.441 
L 54 711.441 
z
" clip-path="url(#pafdf4466a5)" style="fill: #2ca02c"/>
   </g>
   <g id="patch_53">
    <path d="M 54 671.247 
L 54 671.247 
L 54 669.861 
L 54 669.861 
z
" clip-path="url(#pafdf4466a5)" style="fill: #2ca02c"/>
   </g>
   <g id="patch_54">
    <path d="M 54 629.667 
L 58.45954 629.667 
L 58.45954 628.281 
L 54 628.281 
z
" clip-path="url(#pafdf4466a5)" style="fill: #2ca02c"/>
   </g>
   <g id="patch_55">
    <path d="M 54 588.087 
L 54 588.087 
L 54 586.701 
L 54 586.701 
z
" clip-path="url(#pafdf4466a5)" style="fill: #2ca02c"/>
   </g>
   <g id="patch_56">
    <path d="M 54 546.507 
L 77.784216 546.507 
L 77.784216 545.121 
L 54 545.121 
z
" clip-path="url(#pafdf4466a5)" style="fill: #2ca02c"/>
   </g>
   <g id="patch_57">
    <path d="M 54 504.927 
L 65.892108 504.927 
L 65.892108 503.541 
L 54 503.541 
z
" clip-path="url(#pafdf4466a5)" style="fill: #2ca02c"/>
   </g>
   <g id="patch_58">
    <path d="M 54 463.347 
L 65.892108 463.347 
L 65.892108 461.961 
L 54 461.961 
z
" clip-path="url(#pafdf4466a5)" style="fill: #2ca02c"/>
   </g>
   <g id="patch_59">
    <path d="M 54 421.767 
L 65.892108 421.767 
L 65.892108 420.381 
L 54 420.381 
z
" clip-path="url(#pafdf4466a5)" style="fill: #2ca02c"/>
   </g>
   <g id="patch_60">
    <path d="M 54 380.187 
L 65.892108 380.187 
L 65.892108 378.801 
L 54 378.801 
z
" clip-path="url(#pafdf4466a5)" style="fill: #2ca02c"/>
   </g>
   <g id="patch_61">
    <path d="M 54 338.607 
L 65.892108 338.607 
L 65.892108 337.221 
L 54 337.221 
z
" clip-path="url(#pafdf4466a5)" style="fill: #2ca02c"/>
   </g>
   <g id="patch_62">
    <path d="M 54 297.027 
L 65.892108 297.027 
L 65.892108 295.641 
L 54 295.641 
z
" clip-path="url(#pafdf4466a5)" style="fill: #2ca02c"/>
   </g>
   <g id="patch_63">
    <path d="M 54 255.447 
L 89.676324 255.447 
L 89.676324 254.061 
L 54 254.061 
z
" clip-path="url(#pafdf4466a5)" style="fill: #2ca02c"/>
   </g>
   <g id="patch_64">
    <path d="M 54 213.867 
L 65.892108 213.867 
L 65.892108 212.481 
L 54 212.481 
z
" clip-path="url(#pafdf4466a5)" style="fill: #2ca02c"/>
   </g>
   <g id="patch_65">
    <path d="M 54 172.287 
L 54 172.287 
L 54 170.901 
L 54 170.901 
z
" clip-path="url(#pafdf4466a5)" style="fill: #2ca02c"/>
   </g>
   <g id="patch_66">
    <path d="M 54 130.707 
L 54 130.707 
L 54 129.321 
L 54 129.321 
z
" clip-path="url(#pafdf4466a5)" style="fill: #2ca02c"/>
   </g>
   <g id="patch_67">
    <path d="M 54 753.021 
L 92.463536 753.021 
L 92.463536 751.635 
L 54 751.635 
z
" clip-path="url(#pafdf4466a5)" style="fill: #98df8a"/>
   </g>
   <g id="patch_68">
    <path d="M 54 711.441 
L 92.091908 711.441 
L 92.091908 710.055 
L 54 710.055 
z
" clip-path="url(#pafdf4466a5)" style="fill: #98df8a"/>
   </g>
   <g id="patch_69">
    <path d="M 54 669.861 
L 90.977023 669.861 
L 90.977023 668.475 
L 54 668.475 
z
" clip-path="url(#pafdf4466a5)" style="fill: #98df8a"/>
   </g>
   <g id="patch_70">
    <path d="M 54 628.281 
L 90.977023 628.281 
L 90.977023 626.895 
L 54 626.895 
z
" clip-path="url(#pafdf4466a5)" style="fill: #98df8a"/>
   </g>
   <g id="patch_71">
    <path d="M 54 586.701 
L 85.96004 586.701 
L 85.96004 585.315 
L 54 585.315 
z
" clip-path="url(#pafdf4466a5)" style="fill: #98df8a"/>
   </g>
   <g id="patch_72">
    <path d="M 54 545.121 
L 111.788212 545.121 
L 111.788212 543.735 
L 54 543.735 
z
" clip-path="url(#pafdf4466a5)" style="fill: #98df8a"/>
   </g>
   <g id="patch_73">
    <path d="M 54 503.541 
L 101.196803 503.541 
L 101.196803 502.155 
L 54 502.155 
z
" clip-path="url(#pafdf4466a5)" style="fill: #98df8a"/>
   </g>
   <g id="patch_74">
    <path d="M 54 461.961 
L 100.267732 461.961 
L 100.267732 460.575 
L 54 460.575 
z
" clip-path="url(#pafdf4466a5)" style="fill: #98df8a"/>
   </g>
   <g id="patch_75">
    <path d="M 54 420.381 
L 100.639361 420.381 
L 100.639361 418.995 
L 54 418.995 
z
" clip-path="url(#pafdf4466a5)" style="fill: #98df8a"/>
   </g>
   <g id="patch_76">
    <path d="M 54 378.801 
L 100.453546 378.801 
L 100.453546 377.415 
L 54 377.415 
z
" clip-path="url(#pafdf4466a5)" style="fill: #98df8a"/>
   </g>
   <g id="patch_77">
    <path d="M 54 337.221 
L 149.694306 337.221 
L 149.694306 335.835 
L 54 335.835 
z
" clip-path="url(#pafdf4466a5)" style="fill: #98df8a"/>
   </g>
   <g id="patch_78">
    <path d="M 54 295.641 
L 100.639361 295.641 
L 100.639361 294.255 
L 54 294.255 
z
" clip-path="url(#pafdf4466a5)" style="fill: #98df8a"/>
   </g>
   <g id="patch_79">
    <path d="M 54 254.061 
L 137.988012 254.061 
L 137.988012 252.675 
L 54 252.675 
z
" clip-path="url(#pafdf4466a5)" style="fill: #98df8a"/>
   </g>
   <g id="patch_80">
    <path d="M 54 212.481 
L 100.825175 212.481 
L 100.825175 211.095 
L 54 211.095 
z
" clip-path="url(#pafdf4466a5)" style="fill: #98df8a"/>
   </g>
   <g id="patch_81">
    <path d="M 54 170.901 
L 372.857143 170.901 
L 372.857143 169.515 
L 54 169.515 
z
" clip-path="url(#pafdf4466a5)" style="fill: #98df8a"/>
   </g>
   <g id="patch_82">
    <path d="M 54 129.321 
L 83.73027 129.321 
L 83.73027 127.935 
L 54 127.935 
z
" clip-path="url(#pafdf4466a5)" style="fill: #98df8a"/>
   </g>
   <g id="patch_83">
    <path d="M 54 751.635 
L 54 751.635 
L 54 750.249 
L 54 750.249 
z
" clip-path="url(#pafdf4466a5)" style="fill: #ff9896"/>
   </g>
   <g id="patch_84">
    <path d="M 54 710.055 
L 54 710.055 
L 54 708.669 
L 54 708.669 
z
" clip-path="url(#pafdf4466a5)" style="fill: #ff9896"/>
   </g>
   <g id="patch_85">
    <path d="M 54 668.475 
L 54 668.475 
L 54 667.089 
L 54 667.089 
z
" clip-path="url(#pafdf4466a5)" style="fill: #ff9896"/>
   </g>
   <g id="patch_86">
    <path d="M 54 626.895 
L 54 626.895 
L 54 625.509 
L 54 625.509 
z
" clip-path="url(#pafdf4466a5)" style="fill: #ff9896"/>
   </g>
   <g id="patch_87">
    <path d="M 54 585.315 
L 54 585.315 
L 54 583.929 
L 54 583.929 
z
" clip-path="url(#pafdf4466a5)" style="fill: #ff9896"/>
   </g>
   <g id="patch_88">
    <path d="M 54 543.735 
L 77.784216 543.735 
L 77.784216 542.349 
L 54 542.349 
z
" clip-path="url(#pafdf4466a5)" style="fill: #ff9896"/>
   </g>
   <g id="patch_89">
    <path d="M 54 502.155 
L 65.892108 502.155 
L 65.892108 500.769 
L 54 500.769 
z
" clip-path="url(#pafdf4466a5)" style="fill: #ff9896"/>
   </g>
   <g id="patch_90">
    <path d="M 54 460.575 
L 65.892108 460.575 
L 65.892108 459.189 
L 54 459.189 
z
" clip-path="url(#pafdf4466a5)" style="fill: #ff9896"/>
   </g>
   <g id="patch_91">
    <path d="M 54 418.995 
L 65.892108 418.995 
L 65.892108 417.609 
L 54 417.609 
z
" clip-path="url(#pafdf4466a5)" style="fill: #ff9896"/>
   </g>
   <g id="patch_92">
    <path d="M 54 377.415 
L 65.892108 377.415 
L 65.892108 376.029 
L 54 376.029 
z
" clip-path="url(#pafdf4466a5)" style="fill: #ff9896"/>
   </g>
   <g id="patch_93">
    <path d="M 54 335.835 
L 65.892108 335.835 
L 65.892108 334.449 
L 54 334.449 
z
" clip-path="url(#pafdf4466a5)" style="fill: #ff9896"/>
   </g>
   <g id="patch_94">
    <path d="M 54 294.255 
L 65.892108 294.255 
L 65.892108 292.869 
L 54 292.869 
z
" clip-path="url(#pafdf4466a5)" style="fill: #ff9896"/>
   </g>
   <g id="patch_95">
    <path d="M 54 252.675 
L 89.676324 252.675 
L 89.676324 251.289 
L 54 251.289 
z
" clip-path="url(#pafdf4466a5)" style="fill: #ff9896"/>
   </g>
   <g id="patch_96">
    <path d="M 54 211.095 
L 88.18981 211.095 
L 88.18981 209.709 
L 54 209.709 
z
" clip-path="url(#pafdf4466a5)" style="fill: #ff9896"/>
   </g>
   <g id="patch_97">
    <path d="M 54 169.515 
L 54 169.515 
L 54 168.129 
L 54 168.129 
z
" clip-path="url(#pafdf4466a5)" style="fill: #ff9896"/>
   </g>
   <g id="patch_98">
    <path d="M 54 127.935 
L 54 127.935 
L 54 126.549 
L 54 126.549 
z
" clip-path="url(#pafdf4466a5)" style="fill: #ff9896"/>
   </g>
   <g id="patch_99">
    <path d="M 54 750.249 
L 54 750.249 
L 54 748.863 
L 54 748.863 
z
" clip-path="url(#pafdf4466a5)" style="fill: #9467bd"/>
   </g>
   <g id="patch_100">
    <path d="M 54 708.669 
L 54 708.669 
L 54 707.283 
L 54 707.283 
z
" clip-path="url(#pafdf4466a5)" style="fill: #9467bd"/>
   </g>
   <g id="patch_101">
    <path d="M 54 667.089 
L 54 667.089 
L 54 665.703 
L 54 665.703 
z
" clip-path="url(#pafdf4466a5)" style="fill: #9467bd"/>
   </g>
   <g id="patch_102">
    <path d="M 54 625.509 
L 54 625.509 
L 54 624.123 
L 54 624.123 
z
" clip-path="url(#pafdf4466a5)" style="fill: #9467bd"/>
   </g>
   <g id="patch_103">
    <path d="M 54 583.929 
L 54 583.929 
L 54 582.543 
L 54 582.543 
z
" clip-path="url(#pafdf4466a5)" style="fill: #9467bd"/>
   </g>
   <g id="patch_104">
    <path d="M 54 542.349 
L 77.784216 542.349 
L 77.784216 540.963 
L 54 540.963 
z
" clip-path="url(#pafdf4466a5)" style="fill: #9467bd"/>
   </g>
   <g id="patch_105">
    <path d="M 54 500.769 
L 65.892108 500.769 
L 65.892108 499.383 
L 54 499.383 
z
" clip-path="url(#pafdf4466a5)" style="fill: #9467bd"/>
   </g>
   <g id="patch_106">
    <path d="M 54 459.189 
L 65.892108 459.189 
L 65.892108 457.803 
L 54 457.803 
z
" clip-path="url(#pafdf4466a5)" style="fill: #9467bd"/>
   </g>
   <g id="patch_107">
    <path d="M 54 417.609 
L 65.892108 417.609 
L 65.892108 416.223 
L 54 416.223 
z
" clip-path="url(#pafdf4466a5)" style="fill: #9467bd"/>
   </g>
   <g id="patch_108">
    <path d="M 54 376.029 
L 65.892108 376.029 
L 65.892108 374.643 
L 54 374.643 
z
" clip-path="url(#pafdf4466a5)" style="fill: #9467bd"/>
   </g>
   <g id="patch_109">
    <path d="M 54 334.449 
L 65.892108 334.449 
L 65.892108 333.063 
L 54 333.063 
z
" clip-path="url(#pafdf4466a5)" style="fill: #9467bd"/>
   </g>
   <g id="patch_110">
    <path d="M 54 292.869 
L 65.892108 292.869 
L 65.892108 291.483 
L 54 291.483 
z
" clip-path="url(#pafdf4466a5)" style="fill: #9467bd"/>
   </g>
   <g id="patch_111">
    <path d="M 54 251.289 
L 98.223776 251.289 
L 98.223776 249.903 
L 54 249.903 
z
" clip-path="url(#pafdf4466a5)" style="fill: #9467bd"/>
   </g>
   <g id="patch_112">
    <path d="M 54 209.709 
L 65.892108 209.709 
L 65.892108 208.323 
L 54 208.323 
z
" clip-path="url(#pafdf4466a5)" style="fill: #9467bd"/>
   </g>
   <g id="patch_113">
    <path d="M 54 168.129 
L 54 168.129 
L 54 166.743 
L 54 166.743 
z
" clip-path="url(#pafdf4466a5)" style="fill: #9467bd"/>
   </g>
   <g id="patch_114">
    <path d="M 54 126.549 
L 54 126.549 
L 54 125.163 
L 54 125.163 
z
" clip-path="url(#pafdf4466a5)" style="fill: #9467bd"/>
   </g>
   <g id="patch_115">
    <path d="M 54 748.863 
L 126.467532 748.863 
L 126.467532 747.477 
L 54 747.477 
z
" clip-path="url(#pafdf4466a5)" style="fill: #8c564b"/>
   </g>
   <g id="patch_116">
    <path d="M 54 707.283 
L 54 707.283 
L 54 705.897 
L 54 705.897 
z
" clip-path="url(#pafdf4466a5)" style="fill: #8c564b"/>
   </g>
   <g id="patch_117">
    <path d="M 54 665.703 
L 54 665.703 
L 54 664.317 
L 54 664.317 
z
" clip-path="url(#pafdf4466a5)" style="fill: #8c564b"/>
   </g>
   <g id="patch_118">
    <path d="M 54 624.123 
L 54 624.123 
L 54 622.737 
L 54 622.737 
z
" clip-path="url(#pafdf4466a5)" style="fill: #8c564b"/>
   </g>
   <g id="patch_119">
    <path d="M 54 582.543 
L 54 582.543 
L 54 581.157 
L 54 581.157 
z
" clip-path="url(#pafdf4466a5)" style="fill: #8c564b"/>
   </g>
   <g id="patch_120">
    <path d="M 54 540.963 
L 77.784216 540.963 
L 77.784216 539.577 
L 54 539.577 
z
" clip-path="url(#pafdf4466a5)" style="fill: #8c564b"/>
   </g>
   <g id="patch_121">
    <path d="M 54 499.383 
L 65.892108 499.383 
L 65.892108 497.997 
L 54 497.997 
z
" clip-path="url(#pafdf4466a5)" style="fill: #8c564b"/>
   </g>
   <g id="patch_122">
    <path d="M 54 457.803 
L 65.892108 457.803 
L 65.892108 456.417 
L 54 456.417 
z
" clip-path="url(#pafdf4466a5)" style="fill: #8c564b"/>
   </g>
   <g id="patch_123">
    <path d="M 54 416.223 
L 65.892108 416.223 
L 65.892108 414.837 
L 54 414.837 
z
" clip-path="url(#pafdf4466a5)" style="fill: #8c564b"/>
   </g>
   <g id="patch_124">
    <path d="M 54 374.643 
L 65.892108 374.643 
L 65.892108 373.257 
L 54 373.257 
z
" clip-path="url(#pafdf4466a5)" style="fill: #8c564b"/>
   </g>
   <g id="patch_125">
    <path d="M 54 333.063 
L 65.892108 333.063 
L 65.892108 331.677 
L 54 331.677 
z
" clip-path="url(#pafdf4466a5)" style="fill: #8c564b"/>
   </g>
   <g id="patch_126">
    <path d="M 54 291.483 
L 65.892108 291.483 
L 65.892108 290.097 
L 54 290.097 
z
" clip-path="url(#pafdf4466a5)" style="fill: #8c564b"/>
   </g>
   <g id="patch_127">
    <path d="M 54 249.903 
L 89.676324 249.903 
L 89.676324 248.517 
L 54 248.517 
z
" clip-path="url(#pafdf4466a5)" style="fill: #8c564b"/>
   </g>
   <g id="patch_128">
    <path d="M 54 208.323 
L 65.892108 208.323 
L 65.892108 206.937 
L 54 206.937 
z
" clip-path="url(#pafdf4466a5)" style="fill: #8c564b"/>
   </g>
   <g id="patch_129">
    <path d="M 54 166.743 
L 54 166.743 
L 54 165.357 
L 54 165.357 
z
" clip-path="url(#pafdf4466a5)" style="fill: #8c564b"/>
   </g>
   <g id="patch_130">
    <path d="M 54 125.163 
L 54 125.163 
L 54 123.777 
L 54 123.777 
z
" clip-path="url(#pafdf4466a5)" style="fill: #8c564b"/>
   </g>
   <g id="patch_131">
    <path d="M 54 747.477 
L 91.906094 747.477 
L 91.906094 746.091 
L 54 746.091 
z
" clip-path="url(#pafdf4466a5)" style="fill: #c49c94"/>
   </g>
   <g id="patch_132">
    <path d="M 54 705.897 
L 92.091908 705.897 
L 92.091908 704.511 
L 54 704.511 
z
" clip-path="url(#pafdf4466a5)" style="fill: #c49c94"/>
   </g>
   <g id="patch_133">
    <path d="M 54 664.317 
L 90.605395 664.317 
L 90.605395 662.931 
L 54 662.931 
z
" clip-path="url(#pafdf4466a5)" style="fill: #c49c94"/>
   </g>
   <g id="patch_134">
    <path d="M 54 622.737 
L 90.605395 622.737 
L 90.605395 621.351 
L 54 621.351 
z
" clip-path="url(#pafdf4466a5)" style="fill: #c49c94"/>
   </g>
   <g id="patch_135">
    <path d="M 54 581.157 
L 86.145854 581.157 
L 86.145854 579.771 
L 54 579.771 
z
" clip-path="url(#pafdf4466a5)" style="fill: #c49c94"/>
   </g>
   <g id="patch_136">
    <path d="M 54 539.577 
L 110.673327 539.577 
L 110.673327 538.191 
L 54 538.191 
z
" clip-path="url(#pafdf4466a5)" style="fill: #c49c94"/>
   </g>
   <g id="patch_137">
    <path d="M 54 497.997 
L 101.196803 497.997 
L 101.196803 496.611 
L 54 496.611 
z
" clip-path="url(#pafdf4466a5)" style="fill: #c49c94"/>
   </g>
   <g id="patch_138">
    <path d="M 54 456.417 
L 99.338661 456.417 
L 99.338661 455.031 
L 54 455.031 
z
" clip-path="url(#pafdf4466a5)" style="fill: #c49c94"/>
   </g>
   <g id="patch_139">
    <path d="M 54 414.837 
L 98.967033 414.837 
L 98.967033 413.451 
L 54 413.451 
z
" clip-path="url(#pafdf4466a5)" style="fill: #c49c94"/>
   </g>
   <g id="patch_140">
    <path d="M 54 373.257 
L 99.71029 373.257 
L 99.71029 371.871 
L 54 371.871 
z
" clip-path="url(#pafdf4466a5)" style="fill: #c49c94"/>
   </g>
   <g id="patch_141">
    <path d="M 54 331.677 
L 101.382617 331.677 
L 101.382617 330.291 
L 54 330.291 
z
" clip-path="url(#pafdf4466a5)" style="fill: #c49c94"/>
   </g>
   <g id="patch_142">
    <path d="M 54 290.097 
L 99.338661 290.097 
L 99.338661 288.711 
L 54 288.711 
z
" clip-path="url(#pafdf4466a5)" style="fill: #c49c94"/>
   </g>
   <g id="patch_143">
    <path d="M 54 248.517 
L 138.35964 248.517 
L 138.35964 247.131 
L 54 247.131 
z
" clip-path="url(#pafdf4466a5)" style="fill: #c49c94"/>
   </g>
   <g id="patch_144">
    <path d="M 54 206.937 
L 100.639361 206.937 
L 100.639361 205.551 
L 54 205.551 
z
" clip-path="url(#pafdf4466a5)" style="fill: #c49c94"/>
   </g>
   <g id="patch_145">
    <path d="M 54 165.357 
L 82.243756 165.357 
L 82.243756 163.971 
L 54 163.971 
z
" clip-path="url(#pafdf4466a5)" style="fill: #c49c94"/>
   </g>
   <g id="patch_146">
    <path d="M 54 123.777 
L 82.987013 123.777 
L 82.987013 122.391 
L 54 122.391 
z
" clip-path="url(#pafdf4466a5)" style="fill: #c49c94"/>
   </g>
   <g id="patch_147">
    <path d="M 54 746.091 
L 54 746.091 
L 54 744.705 
L 54 744.705 
z
" clip-path="url(#pafdf4466a5)" style="fill: #e377c2"/>
   </g>
   <g id="patch_148">
    <path d="M 54 704.511 
L 54 704.511 
L 54 703.125 
L 54 703.125 
z
" clip-path="url(#pafdf4466a5)" style="fill: #e377c2"/>
   </g>
   <g id="patch_149">
    <path d="M 54 662.931 
L 54 662.931 
L 54 661.545 
L 54 661.545 
z
" clip-path="url(#pafdf4466a5)" style="fill: #e377c2"/>
   </g>
   <g id="patch_150">
    <path d="M 54 621.351 
L 54 621.351 
L 54 619.965 
L 54 619.965 
z
" clip-path="url(#pafdf4466a5)" style="fill: #e377c2"/>
   </g>
   <g id="patch_151">
    <path d="M 54 579.771 
L 54 579.771 
L 54 578.385 
L 54 578.385 
z
" clip-path="url(#pafdf4466a5)" style="fill: #e377c2"/>
   </g>
   <g id="patch_152">
    <path d="M 54 538.191 
L 77.784216 538.191 
L 77.784216 536.805 
L 54 536.805 
z
" clip-path="url(#pafdf4466a5)" style="fill: #e377c2"/>
   </g>
   <g id="patch_153">
    <path d="M 54 496.611 
L 65.892108 496.611 
L 65.892108 495.225 
L 54 495.225 
z
" clip-path="url(#pafdf4466a5)" style="fill: #e377c2"/>
   </g>
   <g id="patch_154">
    <path d="M 54 455.031 
L 65.892108 455.031 
L 65.892108 453.645 
L 54 453.645 
z
" clip-path="url(#pafdf4466a5)" style="fill: #e377c2"/>
   </g>
   <g id="patch_155">
    <path d="M 54 413.451 
L 65.892108 413.451 
L 65.892108 412.065 
L 54 412.065 
z
" clip-path="url(#pafdf4466a5)" style="fill: #e377c2"/>
   </g>
   <g id="patch_156">
    <path d="M 54 371.871 
L 65.892108 371.871 
L 65.892108 370.485 
L 54 370.485 
z
" clip-path="url(#pafdf4466a5)" style="fill: #e377c2"/>
   </g>
   <g id="patch_157">
    <path d="M 54 330.291 
L 65.892108 330.291 
L 65.892108 328.905 
L 54 328.905 
z
" clip-path="url(#pafdf4466a5)" style="fill: #e377c2"/>
   </g>
   <g id="patch_158">
    <path d="M 54 288.711 
L 65.892108 288.711 
L 65.892108 287.325 
L 54 287.325 
z
" clip-path="url(#pafdf4466a5)" style="fill: #e377c2"/>
   </g>
   <g id="patch_159">
    <path d="M 54 247.131 
L 89.676324 247.131 
L 89.676324 245.745 
L 54 245.745 
z
" clip-path="url(#pafdf4466a5)" style="fill: #e377c2"/>
   </g>
   <g id="patch_160">
    <path d="M 54 205.551 
L 65.892108 205.551 
L 65.892108 204.165 
L 54 204.165 
z
" clip-path="url(#pafdf4466a5)" style="fill: #e377c2"/>
   </g>
   <g id="patch_161">
    <path d="M 54 163.971 
L 54 163.971 
L 54 162.585 
L 54 162.585 
z
" clip-path="url(#pafdf4466a5)" style="fill: #e377c2"/>
   </g>
   <g id="patch_162">
    <path d="M 54 122.391 
L 54 122.391 
L 54 121.005 
L 54 121.005 
z
" clip-path="url(#pafdf4466a5)" style="fill: #e377c2"/>
   </g>
   <g id="patch_163">
    <path d="M 54 744.705 
L 54 744.705 
L 54 743.319 
L 54 743.319 
z
" clip-path="url(#pafdf4466a5)" style="fill: #7f7f7f"/>
   </g>
   <g id="patch_164">
    <path d="M 54 703.125 
L 54 703.125 
L 54 701.739 
L 54 701.739 
z
" clip-path="url(#pafdf4466a5)" style="fill: #7f7f7f"/>
   </g>
   <g id="patch_165">
    <path d="M 54 661.545 
L 54 661.545 
L 54 660.159 
L 54 660.159 
z
" clip-path="url(#pafdf4466a5)" style="fill: #7f7f7f"/>
   </g>
   <g id="patch_166">
    <path d="M 54 619.965 
L 54 619.965 
L 54 618.579 
L 54 618.579 
z
" clip-path="url(#pafdf4466a5)" style="fill: #7f7f7f"/>
   </g>
   <g id="patch_167">
    <path d="M 54 578.385 
L 54 578.385 
L 54 576.999 
L 54 576.999 
z
" clip-path="url(#pafdf4466a5)" style="fill: #7f7f7f"/>
   </g>
   <g id="patch_168">
    <path d="M 54 536.805 
L 77.784216 536.805 
L 77.784216 535.419 
L 54 535.419 
z
" clip-path="url(#pafdf4466a5)" style="fill: #7f7f7f"/>
   </g>
   <g id="patch_169">
    <path d="M 54 495.225 
L 65.892108 495.225 
L 65.892108 493.839 
L 54 493.839 
z
" clip-path="url(#pafdf4466a5)" style="fill: #7f7f7f"/>
   </g>
   <g id="patch_170">
    <path d="M 54 453.645 
L 65.892108 453.645 
L 65.892108 452.259 
L 54 452.259 
z
" clip-path="url(#pafdf4466a5)" style="fill: #7f7f7f"/>
   </g>
   <g id="patch_171">
    <path d="M 54 412.065 
L 65.892108 412.065 
L 65.892108 410.679 
L 54 410.679 
z
" clip-path="url(#pafdf4466a5)" style="fill: #7f7f7f"/>
   </g>
   <g id="patch_172">
    <path d="M 54 370.485 
L 65.892108 370.485 
L 65.892108 369.099 
L 54 369.099 
z
" clip-path="url(#pafdf4466a5)" style="fill: #7f7f7f"/>
   </g>
   <g id="patch_173">
    <path d="M 54 328.905 
L 65.892108 328.905 
L 65.892108 327.519 
L 54 327.519 
z
" clip-path="url(#pafdf4466a5)" style="fill: #7f7f7f"/>
   </g>
   <g id="patch_174">
    <path d="M 54 287.325 
L 65.892108 287.325 
L 65.892108 285.939 
L 54 285.939 
z
" clip-path="url(#pafdf4466a5)" style="fill: #7f7f7f"/>
   </g>
   <g id="patch_175">
    <path d="M 54 245.745 
L 89.676324 245.745 
L 89.676324 244.359 
L 54 244.359 
z
" clip-path="url(#pafdf4466a5)" style="fill: #7f7f7f"/>
   </g>
   <g id="patch_176">
    <path d="M 54 204.165 
L 65.892108 204.165 
L 65.892108 202.779 
L 54 202.779 
z
" clip-path="url(#pafdf4466a5)" style="fill: #7f7f7f"/>
   </g>
   <g id="patch_177">
    <path d="M 54 162.585 
L 54 162.585 
L 54 161.199 
L 54 161.199 
z
" clip-path="url(#pafdf4466a5)" style="fill: #7f7f7f"/>
   </g>
   <g id="patch_178">
    <path d="M 54 121.005 
L 54 121.005 
L 54 119.619 
L 54 119.619 
z
" clip-path="url(#pafdf4466a5)" style="fill: #7f7f7f"/>
   </g>
   <g id="patch_179">
    <path d="M 54 743.319 
L 91.534466 743.319 
L 91.534466 741.933 
L 54 741.933 
z
" clip-path="url(#pafdf4466a5)" style="fill: #c7c7c7"/>
   </g>
   <g id="patch_180">
    <path d="M 54 701.739 
L 91.534466 701.739 
L 91.534466 700.353 
L 54 700.353 
z
" clip-path="url(#pafdf4466a5)" style="fill: #c7c7c7"/>
   </g>
   <g id="patch_181">
    <path d="M 54 660.159 
L 90.977023 660.159 
L 90.977023 658.773 
L 54 658.773 
z
" clip-path="url(#pafdf4466a5)" style="fill: #c7c7c7"/>
   </g>
   <g id="patch_182">
    <path d="M 54 618.579 
L 90.977023 618.579 
L 90.977023 617.193 
L 54 617.193 
z
" clip-path="url(#pafdf4466a5)" style="fill: #c7c7c7"/>
   </g>
   <g id="patch_183">
    <path d="M 54 576.999 
L 86.703297 576.999 
L 86.703297 575.613 
L 54 575.613 
z
" clip-path="url(#pafdf4466a5)" style="fill: #c7c7c7"/>
   </g>
   <g id="patch_184">
    <path d="M 54 535.419 
L 113.460539 535.419 
L 113.460539 534.033 
L 54 534.033 
z
" clip-path="url(#pafdf4466a5)" style="fill: #c7c7c7"/>
   </g>
   <g id="patch_185">
    <path d="M 54 493.839 
L 100.267732 493.839 
L 100.267732 492.453 
L 54 492.453 
z
" clip-path="url(#pafdf4466a5)" style="fill: #c7c7c7"/>
   </g>
   <g id="patch_186">
    <path d="M 54 452.259 
L 99.524476 452.259 
L 99.524476 450.873 
L 54 450.873 
z
" clip-path="url(#pafdf4466a5)" style="fill: #c7c7c7"/>
   </g>
   <g id="patch_187">
    <path d="M 54 410.679 
L 108.257742 410.679 
L 108.257742 409.293 
L 54 409.293 
z
" clip-path="url(#pafdf4466a5)" style="fill: #c7c7c7"/>
   </g>
   <g id="patch_188">
    <path d="M 54 369.099 
L 100.081918 369.099 
L 100.081918 367.713 
L 54 367.713 
z
" clip-path="url(#pafdf4466a5)" style="fill: #c7c7c7"/>
   </g>
   <g id="patch_189">
    <path d="M 54 327.519 
L 102.497502 327.519 
L 102.497502 326.133 
L 54 326.133 
z
" clip-path="url(#pafdf4466a5)" style="fill: #c7c7c7"/>
   </g>
   <g id="patch_190">
    <path d="M 54 285.939 
L 100.825175 285.939 
L 100.825175 284.553 
L 54 284.553 
z
" clip-path="url(#pafdf4466a5)" style="fill: #c7c7c7"/>
   </g>
   <g id="patch_191">
    <path d="M 54 244.359 
L 139.474525 244.359 
L 139.474525 242.973 
L 54 242.973 
z
" clip-path="url(#pafdf4466a5)" style="fill: #c7c7c7"/>
   </g>
   <g id="patch_192">
    <path d="M 54 202.779 
L 101.382617 202.779 
L 101.382617 201.393 
L 54 201.393 
z
" clip-path="url(#pafdf4466a5)" style="fill: #c7c7c7"/>
   </g>
   <g id="patch_193">
    <path d="M 54 161.199 
L 82.987013 161.199 
L 82.987013 159.813 
L 54 159.813 
z
" clip-path="url(#pafdf4466a5)" style="fill: #c7c7c7"/>
   </g>
   <g id="patch_194">
    <path d="M 54 119.619 
L 83.73027 119.619 
L 83.73027 118.233 
L 54 118.233 
z
" clip-path="url(#pafdf4466a5)" style="fill: #c7c7c7"/>
   </g>
   <g id="patch_195">
    <path d="M 54 741.933 
L 54 741.933 
L 54 740.547 
L 54 740.547 
z
" clip-path="url(#pafdf4466a5)" style="fill: #dbdb8d"/>
   </g>
   <g id="patch_196">
    <path d="M 54 700.353 
L 54 700.353 
L 54 698.967 
L 54 698.967 
z
" clip-path="url(#pafdf4466a5)" style="fill: #dbdb8d"/>
   </g>
   <g id="patch_197">
    <path d="M 54 658.773 
L 54 658.773 
L 54 657.387 
L 54 657.387 
z
" clip-path="url(#pafdf4466a5)" style="fill: #dbdb8d"/>
   </g>
   <g id="patch_198">
    <path d="M 54 617.193 
L 54 617.193 
L 54 615.807 
L 54 615.807 
z
" clip-path="url(#pafdf4466a5)" style="fill: #dbdb8d"/>
   </g>
   <g id="patch_199">
    <path d="M 54 575.613 
L 54 575.613 
L 54 574.227 
L 54 574.227 
z
" clip-path="url(#pafdf4466a5)" style="fill: #dbdb8d"/>
   </g>
   <g id="patch_200">
    <path d="M 54 534.033 
L 77.784216 534.033 
L 77.784216 532.647 
L 54 532.647 
z
" clip-path="url(#pafdf4466a5)" style="fill: #dbdb8d"/>
   </g>
   <g id="patch_201">
    <path d="M 54 492.453 
L 65.892108 492.453 
L 65.892108 491.067 
L 54 491.067 
z
" clip-path="url(#pafdf4466a5)" style="fill: #dbdb8d"/>
   </g>
   <g id="patch_202">
    <path d="M 54 450.873 
L 65.892108 450.873 
L 65.892108 449.487 
L 54 449.487 
z
" clip-path="url(#pafdf4466a5)" style="fill: #dbdb8d"/>
   </g>
   <g id="patch_203">
    <path d="M 54 409.293 
L 65.892108 409.293 
L 65.892108 407.907 
L 54 407.907 
z
" clip-path="url(#pafdf4466a5)" style="fill: #dbdb8d"/>
   </g>
   <g id="patch_204">
    <path d="M 54 367.713 
L 65.892108 367.713 
L 65.892108 366.327 
L 54 366.327 
z
" clip-path="url(#pafdf4466a5)" style="fill: #dbdb8d"/>
   </g>
   <g id="patch_205">
    <path d="M 54 326.133 
L 65.892108 326.133 
L 65.892108 324.747 
L 54 324.747 
z
" clip-path="url(#pafdf4466a5)" style="fill: #dbdb8d"/>
   </g>
   <g id="patch_206">
    <path d="M 54 284.553 
L 65.892108 284.553 
L 65.892108 283.167 
L 54 283.167 
z
" clip-path="url(#pafdf4466a5)" style="fill: #dbdb8d"/>
   </g>
   <g id="patch_207">
    <path d="M 54 242.973 
L 89.676324 242.973 
L 89.676324 241.587 
L 54 241.587 
z
" clip-path="url(#pafdf4466a5)" style="fill: #dbdb8d"/>
   </g>
   <g id="patch_208">
    <path d="M 54 201.393 
L 65.892108 201.393 
L 65.892108 200.007 
L 54 200.007 
z
" clip-path="url(#pafdf4466a5)" style="fill: #dbdb8d"/>
   </g>
   <g id="patch_209">
    <path d="M 54 159.813 
L 54 159.813 
L 54 158.427 
L 54 158.427 
z
" clip-path="url(#pafdf4466a5)" style="fill: #dbdb8d"/>
   </g>
   <g id="patch_210">
    <path d="M 54 118.233 
L 54 118.233 
L 54 116.847 
L 54 116.847 
z
" clip-path="url(#pafdf4466a5)" style="fill: #dbdb8d"/>
   </g>
   <g id="patch_211">
    <path d="M 54 740.547 
L 54 740.547 
L 54 739.161 
L 54 739.161 
z
" clip-path="url(#pafdf4466a5)" style="fill: #17becf"/>
   </g>
   <g id="patch_212">
    <path d="M 54 698.967 
L 54 698.967 
L 54 697.581 
L 54 697.581 
z
" clip-path="url(#pafdf4466a5)" style="fill: #17becf"/>
   </g>
   <g id="patch_213">
    <path d="M 54 657.387 
L 54 657.387 
L 54 656.001 
L 54 656.001 
z
" clip-path="url(#pafdf4466a5)" style="fill: #17becf"/>
   </g>
   <g id="patch_214">
    <path d="M 54 615.807 
L 54 615.807 
L 54 614.421 
L 54 614.421 
z
" clip-path="url(#pafdf4466a5)" style="fill: #17becf"/>
   </g>
   <g id="patch_215">
    <path d="M 54 574.227 
L 54 574.227 
L 54 572.841 
L 54 572.841 
z
" clip-path="url(#pafdf4466a5)" style="fill: #17becf"/>
   </g>
   <g id="patch_216">
    <path d="M 54 532.647 
L 77.784216 532.647 
L 77.784216 531.261 
L 54 531.261 
z
" clip-path="url(#pafdf4466a5)" style="fill: #17becf"/>
   </g>
   <g id="patch_217">
    <path d="M 54 491.067 
L 65.892108 491.067 
L 65.892108 489.681 
L 54 489.681 
z
" clip-path="url(#pafdf4466a5)" style="fill: #17becf"/>
   </g>
   <g id="patch_218">
    <path d="M 54 449.487 
L 65.892108 449.487 
L 65.892108 448.101 
L 54 448.101 
z
" clip-path="url(#pafdf4466a5)" style="fill: #17becf"/>
   </g>
   <g id="patch_219">
    <path d="M 54 407.907 
L 65.892108 407.907 
L 65.892108 406.521 
L 54 406.521 
z
" clip-path="url(#pafdf4466a5)" style="fill: #17becf"/>
   </g>
   <g id="patch_220">
    <path d="M 54 366.327 
L 65.892108 366.327 
L 65.892108 364.941 
L 54 364.941 
z
" clip-path="url(#pafdf4466a5)" style="fill: #17becf"/>
   </g>
   <g id="patch_221">
    <path d="M 54 324.747 
L 65.892108 324.747 
L 65.892108 323.361 
L 54 323.361 
z
" clip-path="url(#pafdf4466a5)" style="fill: #17becf"/>
   </g>
   <g id="patch_222">
    <path d="M 54 283.167 
L 65.892108 283.167 
L 65.892108 281.781 
L 54 281.781 
z
" clip-path="url(#pafdf4466a5)" style="fill: #17becf"/>
   </g>
   <g id="patch_223">
    <path d="M 54 241.587 
L 90.047952 241.587 
L 90.047952 240.201 
L 54 240.201 
z
" clip-path="url(#pafdf4466a5)" style="fill: #17becf"/>
   </g>
   <g id="patch_224">
    <path d="M 54 200.007 
L 65.892108 200.007 
L 65.892108 198.621 
L 54 198.621 
z
" clip-path="url(#pafdf4466a5)" style="fill: #17becf"/>
   </g>
   <g id="patch_225">
    <path d="M 54 158.427 
L 54 158.427 
L 54 157.041 
L 54 157.041 
z
" clip-path="url(#pafdf4466a5)" style="fill: #17becf"/>
   </g>
   <g id="patch_226">
    <path d="M 54 116.847 
L 54 116.847 
L 54 115.461 
L 54 115.461 
z
" clip-path="url(#pafdf4466a5)" style="fill: #17becf"/>
   </g>
   <g id="patch_227">
    <path d="M 54 739.161 
L 54 739.161 
L 54 737.775 
L 54 737.775 
z
" clip-path="url(#pafdf4466a5)" style="fill: #9edae5"/>
   </g>
   <g id="patch_228">
    <path d="M 54 697.581 
L 232.381618 697.581 
L 232.381618 696.195 
L 54 696.195 
z
" clip-path="url(#pafdf4466a5)" style="fill: #9edae5"/>
   </g>
   <g id="patch_229">
    <path d="M 54 656.001 
L 54 656.001 
L 54 654.615 
L 54 654.615 
z
" clip-path="url(#pafdf4466a5)" style="fill: #9edae5"/>
   </g>
   <g id="patch_230">
    <path d="M 54 614.421 
L 54 614.421 
L 54 613.035 
L 54 613.035 
z
" clip-path="url(#pafdf4466a5)" style="fill: #9edae5"/>
   </g>
   <g id="patch_231">
    <path d="M 54 572.841 
L 54 572.841 
L 54 571.455 
L 54 571.455 
z
" clip-path="url(#pafdf4466a5)" style="fill: #9edae5"/>
   </g>
   <g id="patch_232">
    <path d="M 54 531.261 
L 77.784216 531.261 
L 77.784216 529.875 
L 54 529.875 
z
" clip-path="url(#pafdf4466a5)" style="fill: #9edae5"/>
   </g>
   <g id="patch_233">
    <path d="M 54 489.681 
L 65.892108 489.681 
L 65.892108 488.295 
L 54 488.295 
z
" clip-path="url(#pafdf4466a5)" style="fill: #9edae5"/>
   </g>
   <g id="patch_234">
    <path d="M 54 448.101 
L 65.892108 448.101 
L 65.892108 446.715 
L 54 446.715 
z
" clip-path="url(#pafdf4466a5)" style="fill: #9edae5"/>
   </g>
   <g id="patch_235">
    <path d="M 54 406.521 
L 65.892108 406.521 
L 65.892108 405.135 
L 54 405.135 
z
" clip-path="url(#pafdf4466a5)" style="fill: #9edae5"/>
   </g>
   <g id="patch_236">
    <path d="M 54 364.941 
L 65.892108 364.941 
L 65.892108 363.555 
L 54 363.555 
z
" clip-path="url(#pafdf4466a5)" style="fill: #9edae5"/>
   </g>
   <g id="patch_237">
    <path d="M 54 323.361 
L 65.892108 323.361 
L 65.892108 321.975 
L 54 321.975 
z
" clip-path="url(#pafdf4466a5)" style="fill: #9edae5"/>
   </g>
   <g id="patch_238">
    <path d="M 54 281.781 
L 65.892108 281.781 
L 65.892108 280.395 
L 54 280.395 
z
" clip-path="url(#pafdf4466a5)" style="fill: #9edae5"/>
   </g>
   <g id="patch_239">
    <path d="M 54 240.201 
L 89.676324 240.201 
L 89.676324 238.815 
L 54 238.815 
z
" clip-path="url(#pafdf4466a5)" style="fill: #9edae5"/>
   </g>
   <g id="patch_240">
    <path d="M 54 198.621 
L 65.892108 198.621 
L 65.892108 197.235 
L 54 197.235 
z
" clip-path="url(#pafdf4466a5)" style="fill: #9edae5"/>
   </g>
   <g id="patch_241">
    <path d="M 54 157.041 
L 54 157.041 
L 54 155.655 
L 54 155.655 
z
" clip-path="url(#pafdf4466a5)" style="fill: #9edae5"/>
   </g>
   <g id="patch_242">
    <path d="M 54 115.461 
L 54 115.461 
L 54 114.075 
L 54 114.075 
z
" clip-path="url(#pafdf4466a5)" style="fill: #9edae5"/>
   </g>
   <g id="matplotlib.axis_1">
    <g id="xtick_1">
     <g id="line2d_1">
      <defs>
       <path id="mdb15374107" d="M 0 0 
L 0 3.5 
" style="stroke: #000000; stroke-width: 0.8"/>
      </defs>
      <g>
       <use xlink:href="#mdb15374107" x="54" y="768.96" style="stroke: #000000; stroke-width: 0.8"/>
      </g>
     </g>
     <g id="text_1">
      <!-- 0 -->
      <g transform="translate(50.81875 783.558437) scale(0.1 -0.1)">
       <defs>
        <path id="DejaVuSans-30" d="M 2034 4250 
Q 1547 4250 1301 3770 
Q 1056 3291 1056 2328 
Q 1056 1369 1301 889 
Q 1547 409 2034 409 
Q 2525 409 2770 889 
Q 3016 1369 3016 2328 
Q 3016 3291 2770 3770 
Q 2525 4250 2034 4250 
z
M 2034 4750 
Q 2819 4750 3233 4129 
Q 3647 3509 3647 2328 
Q 3647 1150 3233 529 
Q 2819 -91 2034 -91 
Q 1250 -91 836 529 
Q 422 1150 422 2328 
Q 422 3509 836 4129 
Q 1250 4750 2034 4750 
z
" transform="scale(0.015625)"/>
       </defs>
       <use xlink:href="#DejaVuSans-30"/>
      </g>
     </g>
    </g>
    <g id="xtick_2">
     <g id="line2d_2">
      <g>
       <use xlink:href="#mdb15374107" x="100.453546" y="768.96" style="stroke: #000000; stroke-width: 0.8"/>
      </g>
     </g>
     <g id="text_2">
      <!-- 250 -->
      <g transform="translate(90.909796 783.558437) scale(0.1 -0.1)">
       <defs>
        <path id="DejaVuSans-32" d="M 1228 531 
L 3431 531 
L 3431 0 
L 469 0 
L 469 531 
Q 828 903 1448 1529 
Q 2069 2156 2228 2338 
Q 2531 2678 2651 2914 
Q 2772 3150 2772 3378 
Q 2772 3750 2511 3984 
Q 2250 4219 1831 4219 
Q 1534 4219 1204 4116 
Q 875 4013 500 3803 
L 500 4441 
Q 881 4594 1212 4672 
Q 1544 4750 1819 4750 
Q 2544 4750 2975 4387 
Q 3406 4025 3406 3419 
Q 3406 3131 3298 2873 
Q 3191 2616 2906 2266 
Q 2828 2175 2409 1742 
Q 1991 1309 1228 531 
z
" transform="scale(0.015625)"/>
        <path id="DejaVuSans-35" d="M 691 4666 
L 3169 4666 
L 3169 4134 
L 1269 4134 
L 1269 2991 
Q 1406 3038 1543 3061 
Q 1681 3084 1819 3084 
Q 2600 3084 3056 2656 
Q 3513 2228 3513 1497 
Q 3513 744 3044 326 
Q 2575 -91 1722 -91 
Q 1428 -91 1123 -41 
Q 819 9 494 109 
L 494 744 
Q 775 591 1075 516 
Q 1375 441 1709 441 
Q 2250 441 2565 725 
Q 2881 1009 2881 1497 
Q 2881 1984 2565 2268 
Q 2250 2553 1709 2553 
Q 1456 2553 1204 2497 
Q 953 2441 691 2322 
L 691 4666 
z
" transform="scale(0.015625)"/>
       </defs>
       <use xlink:href="#DejaVuSans-32"/>
       <use xlink:href="#DejaVuSans-35" x="63.623047"/>
       <use xlink:href="#DejaVuSans-30" x="127.246094"/>
      </g>
     </g>
    </g>
    <g id="xtick_3">
     <g id="line2d_3">
      <g>
       <use xlink:href="#mdb15374107" x="146.907093" y="768.96" style="stroke: #000000; stroke-width: 0.8"/>
      </g>
     </g>
     <g id="text_3">
      <!-- 500 -->
      <g transform="translate(137.363343 783.558437) scale(0.1 -0.1)">
       <use xlink:href="#DejaVuSans-35"/>
       <use xlink:href="#DejaVuSans-30" x="63.623047"/>
       <use xlink:href="#DejaVuSans-30" x="127.246094"/>
      </g>
     </g>
    </g>
    <g id="xtick_4">
     <g id="line2d_4">
      <g>
       <use xlink:href="#mdb15374107" x="193.360639" y="768.96" style="stroke: #000000; stroke-width: 0.8"/>
      </g>
     </g>
     <g id="text_4">
      <!-- 750 -->
      <g transform="translate(183.816889 783.558437) scale(0.1 -0.1)">
       <defs>
        <path id="DejaVuSans-37" d="M 525 4666 
L 3525 4666 
L 3525 4397 
L 1831 0 
L 1172 0 
L 2766 4134 
L 525 4134 
L 525 4666 
z
" transform="scale(0.015625)"/>
       </defs>
       <use xlink:href="#DejaVuSans-37"/>
       <use xlink:href="#DejaVuSans-35" x="63.623047"/>
       <use xlink:href="#DejaVuSans-30" x="127.246094"/>
      </g>
     </g>
    </g>
    <g id="xtick_5">
     <g id="line2d_5">
      <g>
       <use xlink:href="#mdb15374107" x="239.814186" y="768.96" style="stroke: #000000; stroke-width: 0.8"/>
      </g>
     </g>
     <g id="text_5">
      <!-- 1000 -->
      <g transform="translate(227.089186 783.558437) scale(0.1 -0.1)">
       <defs>
        <path id="DejaVuSans-31" d="M 794 531 
L 1825 531 
L 1825 4091 
L 703 3866 
L 703 4441 
L 1819 4666 
L 2450 4666 
L 2450 531 
L 3481 531 
L 3481 0 
L 794 0 
L 794 531 
z
" transform="scale(0.015625)"/>
       </defs>
       <use xlink:href="#DejaVuSans-31"/>
       <use xlink:href="#DejaVuSans-30" x="63.623047"/>
       <use xlink:href="#DejaVuSans-30" x="127.246094"/>
       <use xlink:href="#DejaVuSans-30" x="190.869141"/>
      </g>
     </g>
    </g>
    <g id="xtick_6">
     <g id="line2d_6">
      <g>
       <use xlink:href="#mdb15374107" x="286.267732" y="768.96" style="stroke: #000000; stroke-width: 0.8"/>
      </g>
     </g>
     <g id="text_6">
      <!-- 1250 -->
      <g transform="translate(273.542732 783.558437) scale(0.1 -0.1)">
       <use xlink:href="#DejaVuSans-31"/>
       <use xlink:href="#DejaVuSans-32" x="63.623047"/>
       <use xlink:href="#DejaVuSans-35" x="127.246094"/>
       <use xlink:href="#DejaVuSans-30" x="190.869141"/>
      </g>
     </g>
    </g>
    <g id="xtick_7">
     <g id="line2d_7">
      <g>
       <use xlink:href="#mdb15374107" x="332.721279" y="768.96" style="stroke: #000000; stroke-width: 0.8"/>
      </g>
     </g>
     <g id="text_7">
      <!-- 1500 -->
      <g transform="translate(319.996279 783.558437) scale(0.1 -0.1)">
       <use xlink:href="#DejaVuSans-31"/>
       <use xlink:href="#DejaVuSans-35" x="63.623047"/>
       <use xlink:href="#DejaVuSans-30" x="127.246094"/>
       <use xlink:href="#DejaVuSans-30" x="190.869141"/>
      </g>
     </g>
    </g>
    <g id="xtick_8">
     <g id="line2d_8">
      <g>
       <use xlink:href="#mdb15374107" x="379.174825" y="768.96" style="stroke: #000000; stroke-width: 0.8"/>
      </g>
     </g>
     <g id="text_8">
      <!-- 1750 -->
      <g transform="translate(366.449825 783.558437) scale(0.1 -0.1)">
       <use xlink:href="#DejaVuSans-31"/>
       <use xlink:href="#DejaVuSans-37" x="63.623047"/>
       <use xlink:href="#DejaVuSans-35" x="127.246094"/>
       <use xlink:href="#DejaVuSans-30" x="190.869141"/>
      </g>
     </g>
    </g>
   </g>
   <g id="matplotlib.axis_2">
    <g id="ytick_1">
     <g id="line2d_9">
      <defs>
       <path id="m8430c35c28" d="M 0 0 
L -3.5 0 
" style="stroke: #000000; stroke-width: 0.8"/>
      </defs>
      <g>
       <use xlink:href="#m8430c35c28" x="54" y="748.17" style="stroke: #000000; stroke-width: 0.8"/>
      </g>
     </g>
     <g id="text_9">
      <!-- (R03, M0) -->
      <g transform="translate(-1.823438 751.969219) scale(0.1 -0.1)">
       <defs>
        <path id="DejaVuSans-28" d="M 1984 4856 
Q 1566 4138 1362 3434 
Q 1159 2731 1159 2009 
Q 1159 1288 1364 580 
Q 1569 -128 1984 -844 
L 1484 -844 
Q 1016 -109 783 600 
Q 550 1309 550 2009 
Q 550 2706 781 3412 
Q 1013 4119 1484 4856 
L 1984 4856 
z
" transform="scale(0.015625)"/>
        <path id="DejaVuSans-52" d="M 2841 2188 
Q 3044 2119 3236 1894 
Q 3428 1669 3622 1275 
L 4263 0 
L 3584 0 
L 2988 1197 
Q 2756 1666 2539 1819 
Q 2322 1972 1947 1972 
L 1259 1972 
L 1259 0 
L 628 0 
L 628 4666 
L 2053 4666 
Q 2853 4666 3247 4331 
Q 3641 3997 3641 3322 
Q 3641 2881 3436 2590 
Q 3231 2300 2841 2188 
z
M 1259 4147 
L 1259 2491 
L 2053 2491 
Q 2509 2491 2742 2702 
Q 2975 2913 2975 3322 
Q 2975 3731 2742 3939 
Q 2509 4147 2053 4147 
L 1259 4147 
z
" transform="scale(0.015625)"/>
        <path id="DejaVuSans-33" d="M 2597 2516 
Q 3050 2419 3304 2112 
Q 3559 1806 3559 1356 
Q 3559 666 3084 287 
Q 2609 -91 1734 -91 
Q 1441 -91 1130 -33 
Q 819 25 488 141 
L 488 750 
Q 750 597 1062 519 
Q 1375 441 1716 441 
Q 2309 441 2620 675 
Q 2931 909 2931 1356 
Q 2931 1769 2642 2001 
Q 2353 2234 1838 2234 
L 1294 2234 
L 1294 2753 
L 1863 2753 
Q 2328 2753 2575 2939 
Q 2822 3125 2822 3475 
Q 2822 3834 2567 4026 
Q 2313 4219 1838 4219 
Q 1578 4219 1281 4162 
Q 984 4106 628 3988 
L 628 4550 
Q 988 4650 1302 4700 
Q 1616 4750 1894 4750 
Q 2613 4750 3031 4423 
Q 3450 4097 3450 3541 
Q 3450 3153 3228 2886 
Q 3006 2619 2597 2516 
z
" transform="scale(0.015625)"/>
        <path id="DejaVuSans-2c" d="M 750 794 
L 1409 794 
L 1409 256 
L 897 -744 
L 494 -744 
L 750 256 
L 750 794 
z
" transform="scale(0.015625)"/>
        <path id="DejaVuSans-20" transform="scale(0.015625)"/>
        <path id="DejaVuSans-4d" d="M 628 4666 
L 1569 4666 
L 2759 1491 
L 3956 4666 
L 4897 4666 
L 4897 0 
L 4281 0 
L 4281 4097 
L 3078 897 
L 2444 897 
L 1241 4097 
L 1241 0 
L 628 0 
L 628 4666 
z
" transform="scale(0.015625)"/>
        <path id="DejaVuSans-29" d="M 513 4856 
L 1013 4856 
Q 1481 4119 1714 3412 
Q 1947 2706 1947 2009 
Q 1947 1309 1714 600 
Q 1481 -109 1013 -844 
L 513 -844 
Q 928 -128 1133 580 
Q 1338 1288 1338 2009 
Q 1338 2731 1133 3434 
Q 928 4138 513 4856 
z
" transform="scale(0.015625)"/>
       </defs>
       <use xlink:href="#DejaVuSans-28"/>
       <use xlink:href="#DejaVuSans-52" x="39.013672"/>
       <use xlink:href="#DejaVuSans-30" x="108.496094"/>
       <use xlink:href="#DejaVuSans-33" x="172.119141"/>
       <use xlink:href="#DejaVuSans-2c" x="235.742188"/>
       <use xlink:href="#DejaVuSans-20" x="267.529297"/>
       <use xlink:href="#DejaVuSans-4d" x="299.316406"/>
       <use xlink:href="#DejaVuSans-30" x="385.595703"/>
       <use xlink:href="#DejaVuSans-29" x="449.21875"/>
      </g>
     </g>
    </g>
    <g id="ytick_2">
     <g id="line2d_10">
      <g>
       <use xlink:href="#m8430c35c28" x="54" y="706.59" style="stroke: #000000; stroke-width: 0.8"/>
      </g>
     </g>
     <g id="text_10">
      <!-- (R03, M1) -->
      <g transform="translate(-1.823438 710.389219) scale(0.1 -0.1)">
       <use xlink:href="#DejaVuSans-28"/>
       <use xlink:href="#DejaVuSans-52" x="39.013672"/>
       <use xlink:href="#DejaVuSans-30" x="108.496094"/>
       <use xlink:href="#DejaVuSans-33" x="172.119141"/>
       <use xlink:href="#DejaVuSans-2c" x="235.742188"/>
       <use xlink:href="#DejaVuSans-20" x="267.529297"/>
       <use xlink:href="#DejaVuSans-4d" x="299.316406"/>
       <use xlink:href="#DejaVuSans-31" x="385.595703"/>
       <use xlink:href="#DejaVuSans-29" x="449.21875"/>
      </g>
     </g>
    </g>
    <g id="ytick_3">
     <g id="line2d_11">
      <g>
       <use xlink:href="#m8430c35c28" x="54" y="665.01" style="stroke: #000000; stroke-width: 0.8"/>
      </g>
     </g>
     <g id="text_11">
      <!-- (R12, M0) -->
      <g transform="translate(-1.823438 668.809219) scale(0.1 -0.1)">
       <use xlink:href="#DejaVuSans-28"/>
       <use xlink:href="#DejaVuSans-52" x="39.013672"/>
       <use xlink:href="#DejaVuSans-31" x="108.496094"/>
       <use xlink:href="#DejaVuSans-32" x="172.119141"/>
       <use xlink:href="#DejaVuSans-2c" x="235.742188"/>
       <use xlink:href="#DejaVuSans-20" x="267.529297"/>
       <use xlink:href="#DejaVuSans-4d" x="299.316406"/>
       <use xlink:href="#DejaVuSans-30" x="385.595703"/>
       <use xlink:href="#DejaVuSans-29" x="449.21875"/>
      </g>
     </g>
    </g>
    <g id="ytick_4">
     <g id="line2d_12">
      <g>
       <use xlink:href="#m8430c35c28" x="54" y="623.43" style="stroke: #000000; stroke-width: 0.8"/>
      </g>
     </g>
     <g id="text_12">
      <!-- (R12, M1) -->
      <g transform="translate(-1.823438 627.229219) scale(0.1 -0.1)">
       <use xlink:href="#DejaVuSans-28"/>
       <use xlink:href="#DejaVuSans-52" x="39.013672"/>
       <use xlink:href="#DejaVuSans-31" x="108.496094"/>
       <use xlink:href="#DejaVuSans-32" x="172.119141"/>
       <use xlink:href="#DejaVuSans-2c" x="235.742188"/>
       <use xlink:href="#DejaVuSans-20" x="267.529297"/>
       <use xlink:href="#DejaVuSans-4d" x="299.316406"/>
       <use xlink:href="#DejaVuSans-31" x="385.595703"/>
       <use xlink:href="#DejaVuSans-29" x="449.21875"/>
      </g>
     </g>
    </g>
    <g id="ytick_5">
     <g id="line2d_13">
      <g>
       <use xlink:href="#m8430c35c28" x="54" y="581.85" style="stroke: #000000; stroke-width: 0.8"/>
      </g>
     </g>
     <g id="text_13">
      <!-- (R46, M0) -->
      <g transform="translate(-1.823438 585.649219) scale(0.1 -0.1)">
       <defs>
        <path id="DejaVuSans-34" d="M 2419 4116 
L 825 1625 
L 2419 1625 
L 2419 4116 
z
M 2253 4666 
L 3047 4666 
L 3047 1625 
L 3713 1625 
L 3713 1100 
L 3047 1100 
L 3047 0 
L 2419 0 
L 2419 1100 
L 313 1100 
L 313 1709 
L 2253 4666 
z
" transform="scale(0.015625)"/>
        <path id="DejaVuSans-36" d="M 2113 2584 
Q 1688 2584 1439 2293 
Q 1191 2003 1191 1497 
Q 1191 994 1439 701 
Q 1688 409 2113 409 
Q 2538 409 2786 701 
Q 3034 994 3034 1497 
Q 3034 2003 2786 2293 
Q 2538 2584 2113 2584 
z
M 3366 4563 
L 3366 3988 
Q 3128 4100 2886 4159 
Q 2644 4219 2406 4219 
Q 1781 4219 1451 3797 
Q 1122 3375 1075 2522 
Q 1259 2794 1537 2939 
Q 1816 3084 2150 3084 
Q 2853 3084 3261 2657 
Q 3669 2231 3669 1497 
Q 3669 778 3244 343 
Q 2819 -91 2113 -91 
Q 1303 -91 875 529 
Q 447 1150 447 2328 
Q 447 3434 972 4092 
Q 1497 4750 2381 4750 
Q 2619 4750 2861 4703 
Q 3103 4656 3366 4563 
z
" transform="scale(0.015625)"/>
       </defs>
       <use xlink:href="#DejaVuSans-28"/>
       <use xlink:href="#DejaVuSans-52" x="39.013672"/>
       <use xlink:href="#DejaVuSans-34" x="108.496094"/>
       <use xlink:href="#DejaVuSans-36" x="172.119141"/>
       <use xlink:href="#DejaVuSans-2c" x="235.742188"/>
       <use xlink:href="#DejaVuSans-20" x="267.529297"/>
       <use xlink:href="#DejaVuSans-4d" x="299.316406"/>
       <use xlink:href="#DejaVuSans-30" x="385.595703"/>
       <use xlink:href="#DejaVuSans-29" x="449.21875"/>
      </g>
     </g>
    </g>
    <g id="ytick_6">
     <g id="line2d_14">
      <g>
       <use xlink:href="#m8430c35c28" x="54" y="540.27" style="stroke: #000000; stroke-width: 0.8"/>
      </g>
     </g>
     <g id="text_14">
      <!-- (R46, M1) -->
      <g transform="translate(-1.823438 544.069219) scale(0.1 -0.1)">
       <use xlink:href="#DejaVuSans-28"/>
       <use xlink:href="#DejaVuSans-52" x="39.013672"/>
       <use xlink:href="#DejaVuSans-34" x="108.496094"/>
       <use xlink:href="#DejaVuSans-36" x="172.119141"/>
       <use xlink:href="#DejaVuSans-2c" x="235.742188"/>
       <use xlink:href="#DejaVuSans-20" x="267.529297"/>
       <use xlink:href="#DejaVuSans-4d" x="299.316406"/>
       <use xlink:href="#DejaVuSans-31" x="385.595703"/>
       <use xlink:href="#DejaVuSans-29" x="449.21875"/>
      </g>
     </g>
    </g>
    <g id="ytick_7">
     <g id="line2d_15">
      <g>
       <use xlink:href="#m8430c35c28" x="54" y="498.69" style="stroke: #000000; stroke-width: 0.8"/>
      </g>
     </g>
     <g id="text_15">
      <!-- (R56, M0) -->
      <g transform="translate(-1.823438 502.489219) scale(0.1 -0.1)">
       <use xlink:href="#DejaVuSans-28"/>
       <use xlink:href="#DejaVuSans-52" x="39.013672"/>
       <use xlink:href="#DejaVuSans-35" x="108.496094"/>
       <use xlink:href="#DejaVuSans-36" x="172.119141"/>
       <use xlink:href="#DejaVuSans-2c" x="235.742188"/>
       <use xlink:href="#DejaVuSans-20" x="267.529297"/>
       <use xlink:href="#DejaVuSans-4d" x="299.316406"/>
       <use xlink:href="#DejaVuSans-30" x="385.595703"/>
       <use xlink:href="#DejaVuSans-29" x="449.21875"/>
      </g>
     </g>
    </g>
    <g id="ytick_8">
     <g id="line2d_16">
      <g>
       <use xlink:href="#m8430c35c28" x="54" y="457.11" style="stroke: #000000; stroke-width: 0.8"/>
      </g>
     </g>
     <g id="text_16">
      <!-- (R56, M1) -->
      <g transform="translate(-1.823438 460.909219) scale(0.1 -0.1)">
       <use xlink:href="#DejaVuSans-28"/>
       <use xlink:href="#DejaVuSans-52" x="39.013672"/>
       <use xlink:href="#DejaVuSans-35" x="108.496094"/>
       <use xlink:href="#DejaVuSans-36" x="172.119141"/>
       <use xlink:href="#DejaVuSans-2c" x="235.742188"/>
       <use xlink:href="#DejaVuSans-20" x="267.529297"/>
       <use xlink:href="#DejaVuSans-4d" x="299.316406"/>
       <use xlink:href="#DejaVuSans-31" x="385.595703"/>
       <use xlink:href="#DejaVuSans-29" x="449.21875"/>
      </g>
     </g>
    </g>
    <g id="ytick_9">
     <g id="line2d_17">
      <g>
       <use xlink:href="#m8430c35c28" x="54" y="415.53" style="stroke: #000000; stroke-width: 0.8"/>
      </g>
     </g>
     <g id="text_17">
      <!-- (R57, M0) -->
      <g transform="translate(-1.823438 419.329219) scale(0.1 -0.1)">
       <use xlink:href="#DejaVuSans-28"/>
       <use xlink:href="#DejaVuSans-52" x="39.013672"/>
       <use xlink:href="#DejaVuSans-35" x="108.496094"/>
       <use xlink:href="#DejaVuSans-37" x="172.119141"/>
       <use xlink:href="#DejaVuSans-2c" x="235.742188"/>
       <use xlink:href="#DejaVuSans-20" x="267.529297"/>
       <use xlink:href="#DejaVuSans-4d" x="299.316406"/>
       <use xlink:href="#DejaVuSans-30" x="385.595703"/>
       <use xlink:href="#DejaVuSans-29" x="449.21875"/>
      </g>
     </g>
    </g>
    <g id="ytick_10">
     <g id="line2d_18">
      <g>
       <use xlink:href="#m8430c35c28" x="54" y="373.95" style="stroke: #000000; stroke-width: 0.8"/>
      </g>
     </g>
     <g id="text_18">
      <!-- (R57, M1) -->
      <g transform="translate(-1.823438 377.749219) scale(0.1 -0.1)">
       <use xlink:href="#DejaVuSans-28"/>
       <use xlink:href="#DejaVuSans-52" x="39.013672"/>
       <use xlink:href="#DejaVuSans-35" x="108.496094"/>
       <use xlink:href="#DejaVuSans-37" x="172.119141"/>
       <use xlink:href="#DejaVuSans-2c" x="235.742188"/>
       <use xlink:href="#DejaVuSans-20" x="267.529297"/>
       <use xlink:href="#DejaVuSans-4d" x="299.316406"/>
       <use xlink:href="#DejaVuSans-31" x="385.595703"/>
       <use xlink:href="#DejaVuSans-29" x="449.21875"/>
      </g>
     </g>
    </g>
    <g id="ytick_11">
     <g id="line2d_19">
      <g>
       <use xlink:href="#m8430c35c28" x="54" y="332.37" style="stroke: #000000; stroke-width: 0.8"/>
      </g>
     </g>
     <g id="text_19">
      <!-- (R62, M0) -->
      <g transform="translate(-1.823438 336.169219) scale(0.1 -0.1)">
       <use xlink:href="#DejaVuSans-28"/>
       <use xlink:href="#DejaVuSans-52" x="39.013672"/>
       <use xlink:href="#DejaVuSans-36" x="108.496094"/>
       <use xlink:href="#DejaVuSans-32" x="172.119141"/>
       <use xlink:href="#DejaVuSans-2c" x="235.742188"/>
       <use xlink:href="#DejaVuSans-20" x="267.529297"/>
       <use xlink:href="#DejaVuSans-4d" x="299.316406"/>
       <use xlink:href="#DejaVuSans-30" x="385.595703"/>
       <use xlink:href="#DejaVuSans-29" x="449.21875"/>
      </g>
     </g>
    </g>
    <g id="ytick_12">
     <g id="line2d_20">
      <g>
       <use xlink:href="#m8430c35c28" x="54" y="290.79" style="stroke: #000000; stroke-width: 0.8"/>
      </g>
     </g>
     <g id="text_20">
      <!-- (R62, M1) -->
      <g transform="translate(-1.823438 294.589219) scale(0.1 -0.1)">
       <use xlink:href="#DejaVuSans-28"/>
       <use xlink:href="#DejaVuSans-52" x="39.013672"/>
       <use xlink:href="#DejaVuSans-36" x="108.496094"/>
       <use xlink:href="#DejaVuSans-32" x="172.119141"/>
       <use xlink:href="#DejaVuSans-2c" x="235.742188"/>
       <use xlink:href="#DejaVuSans-20" x="267.529297"/>
       <use xlink:href="#DejaVuSans-4d" x="299.316406"/>
       <use xlink:href="#DejaVuSans-31" x="385.595703"/>
       <use xlink:href="#DejaVuSans-29" x="449.21875"/>
      </g>
     </g>
    </g>
    <g id="ytick_13">
     <g id="line2d_21">
      <g>
       <use xlink:href="#m8430c35c28" x="54" y="249.21" style="stroke: #000000; stroke-width: 0.8"/>
      </g>
     </g>
     <g id="text_21">
      <!-- (R63, M0) -->
      <g transform="translate(-1.823438 253.009219) scale(0.1 -0.1)">
       <use xlink:href="#DejaVuSans-28"/>
       <use xlink:href="#DejaVuSans-52" x="39.013672"/>
       <use xlink:href="#DejaVuSans-36" x="108.496094"/>
       <use xlink:href="#DejaVuSans-33" x="172.119141"/>
       <use xlink:href="#DejaVuSans-2c" x="235.742188"/>
       <use xlink:href="#DejaVuSans-20" x="267.529297"/>
       <use xlink:href="#DejaVuSans-4d" x="299.316406"/>
       <use xlink:href="#DejaVuSans-30" x="385.595703"/>
       <use xlink:href="#DejaVuSans-29" x="449.21875"/>
      </g>
     </g>
    </g>
    <g id="ytick_14">
     <g id="line2d_22">
      <g>
       <use xlink:href="#m8430c35c28" x="54" y="207.63" style="stroke: #000000; stroke-width: 0.8"/>
      </g>
     </g>
     <g id="text_22">
      <!-- (R63, M1) -->
      <g transform="translate(-1.823438 211.429219) scale(0.1 -0.1)">
       <use xlink:href="#DejaVuSans-28"/>
       <use xlink:href="#DejaVuSans-52" x="39.013672"/>
       <use xlink:href="#DejaVuSans-36" x="108.496094"/>
       <use xlink:href="#DejaVuSans-33" x="172.119141"/>
       <use xlink:href="#DejaVuSans-2c" x="235.742188"/>
       <use xlink:href="#DejaVuSans-20" x="267.529297"/>
       <use xlink:href="#DejaVuSans-4d" x="299.316406"/>
       <use xlink:href="#DejaVuSans-31" x="385.595703"/>
       <use xlink:href="#DejaVuSans-29" x="449.21875"/>
      </g>
     </g>
    </g>
    <g id="ytick_15">
     <g id="line2d_23">
      <g>
       <use xlink:href="#m8430c35c28" x="54" y="166.05" style="stroke: #000000; stroke-width: 0.8"/>
      </g>
     </g>
     <g id="text_23">
      <!-- (R71, M0) -->
      <g transform="translate(-1.823438 169.849219) scale(0.1 -0.1)">
       <use xlink:href="#DejaVuSans-28"/>
       <use xlink:href="#DejaVuSans-52" x="39.013672"/>
       <use xlink:href="#DejaVuSans-37" x="108.496094"/>
       <use xlink:href="#DejaVuSans-31" x="172.119141"/>
       <use xlink:href="#DejaVuSans-2c" x="235.742188"/>
       <use xlink:href="#DejaVuSans-20" x="267.529297"/>
       <use xlink:href="#DejaVuSans-4d" x="299.316406"/>
       <use xlink:href="#DejaVuSans-30" x="385.595703"/>
       <use xlink:href="#DejaVuSans-29" x="449.21875"/>
      </g>
     </g>
    </g>
    <g id="ytick_16">
     <g id="line2d_24">
      <g>
       <use xlink:href="#m8430c35c28" x="54" y="124.47" style="stroke: #000000; stroke-width: 0.8"/>
      </g>
     </g>
     <g id="text_24">
      <!-- (R71, M1) -->
      <g transform="translate(-1.823438 128.269219) scale(0.1 -0.1)">
       <use xlink:href="#DejaVuSans-28"/>
       <use xlink:href="#DejaVuSans-52" x="39.013672"/>
       <use xlink:href="#DejaVuSans-37" x="108.496094"/>
       <use xlink:href="#DejaVuSans-31" x="172.119141"/>
       <use xlink:href="#DejaVuSans-2c" x="235.742188"/>
       <use xlink:href="#DejaVuSans-20" x="267.529297"/>
       <use xlink:href="#DejaVuSans-4d" x="299.316406"/>
       <use xlink:href="#DejaVuSans-31" x="385.595703"/>
       <use xlink:href="#DejaVuSans-29" x="449.21875"/>
      </g>
     </g>
    </g>
    <g id="text_25">
     <!-- Rack,Midplane -->
     <g transform="translate(-7.903125 472.729375) rotate(-90) scale(0.1 -0.1)">
      <defs>
       <path id="DejaVuSans-61" d="M 2194 1759 
Q 1497 1759 1228 1600 
Q 959 1441 959 1056 
Q 959 750 1161 570 
Q 1363 391 1709 391 
Q 2188 391 2477 730 
Q 2766 1069 2766 1631 
L 2766 1759 
L 2194 1759 
z
M 3341 1997 
L 3341 0 
L 2766 0 
L 2766 531 
Q 2569 213 2275 61 
Q 1981 -91 1556 -91 
Q 1019 -91 701 211 
Q 384 513 384 1019 
Q 384 1609 779 1909 
Q 1175 2209 1959 2209 
L 2766 2209 
L 2766 2266 
Q 2766 2663 2505 2880 
Q 2244 3097 1772 3097 
Q 1472 3097 1187 3025 
Q 903 2953 641 2809 
L 641 3341 
Q 956 3463 1253 3523 
Q 1550 3584 1831 3584 
Q 2591 3584 2966 3190 
Q 3341 2797 3341 1997 
z
" transform="scale(0.015625)"/>
       <path id="DejaVuSans-63" d="M 3122 3366 
L 3122 2828 
Q 2878 2963 2633 3030 
Q 2388 3097 2138 3097 
Q 1578 3097 1268 2742 
Q 959 2388 959 1747 
Q 959 1106 1268 751 
Q 1578 397 2138 397 
Q 2388 397 2633 464 
Q 2878 531 3122 666 
L 3122 134 
Q 2881 22 2623 -34 
Q 2366 -91 2075 -91 
Q 1284 -91 818 406 
Q 353 903 353 1747 
Q 353 2603 823 3093 
Q 1294 3584 2113 3584 
Q 2378 3584 2631 3529 
Q 2884 3475 3122 3366 
z
" transform="scale(0.015625)"/>
       <path id="DejaVuSans-6b" d="M 581 4863 
L 1159 4863 
L 1159 1991 
L 2875 3500 
L 3609 3500 
L 1753 1863 
L 3688 0 
L 2938 0 
L 1159 1709 
L 1159 0 
L 581 0 
L 581 4863 
z
" transform="scale(0.015625)"/>
       <path id="DejaVuSans-69" d="M 603 3500 
L 1178 3500 
L 1178 0 
L 603 0 
L 603 3500 
z
M 603 4863 
L 1178 4863 
L 1178 4134 
L 603 4134 
L 603 4863 
z
" transform="scale(0.015625)"/>
       <path id="DejaVuSans-64" d="M 2906 2969 
L 2906 4863 
L 3481 4863 
L 3481 0 
L 2906 0 
L 2906 525 
Q 2725 213 2448 61 
Q 2172 -91 1784 -91 
Q 1150 -91 751 415 
Q 353 922 353 1747 
Q 353 2572 751 3078 
Q 1150 3584 1784 3584 
Q 2172 3584 2448 3432 
Q 2725 3281 2906 2969 
z
M 947 1747 
Q 947 1113 1208 752 
Q 1469 391 1925 391 
Q 2381 391 2643 752 
Q 2906 1113 2906 1747 
Q 2906 2381 2643 2742 
Q 2381 3103 1925 3103 
Q 1469 3103 1208 2742 
Q 947 2381 947 1747 
z
" transform="scale(0.015625)"/>
       <path id="DejaVuSans-70" d="M 1159 525 
L 1159 -1331 
L 581 -1331 
L 581 3500 
L 1159 3500 
L 1159 2969 
Q 1341 3281 1617 3432 
Q 1894 3584 2278 3584 
Q 2916 3584 3314 3078 
Q 3713 2572 3713 1747 
Q 3713 922 3314 415 
Q 2916 -91 2278 -91 
Q 1894 -91 1617 61 
Q 1341 213 1159 525 
z
M 3116 1747 
Q 3116 2381 2855 2742 
Q 2594 3103 2138 3103 
Q 1681 3103 1420 2742 
Q 1159 2381 1159 1747 
Q 1159 1113 1420 752 
Q 1681 391 2138 391 
Q 2594 391 2855 752 
Q 3116 1113 3116 1747 
z
" transform="scale(0.015625)"/>
       <path id="DejaVuSans-6c" d="M 603 4863 
L 1178 4863 
L 1178 0 
L 603 0 
L 603 4863 
z
" transform="scale(0.015625)"/>
       <path id="DejaVuSans-6e" d="M 3513 2113 
L 3513 0 
L 2938 0 
L 2938 2094 
Q 2938 2591 2744 2837 
Q 2550 3084 2163 3084 
Q 1697 3084 1428 2787 
Q 1159 2491 1159 1978 
L 1159 0 
L 581 0 
L 581 3500 
L 1159 3500 
L 1159 2956 
Q 1366 3272 1645 3428 
Q 1925 3584 2291 3584 
Q 2894 3584 3203 3211 
Q 3513 2838 3513 2113 
z
" transform="scale(0.015625)"/>
       <path id="DejaVuSans-65" d="M 3597 1894 
L 3597 1613 
L 953 1613 
Q 991 1019 1311 708 
Q 1631 397 2203 397 
Q 2534 397 2845 478 
Q 3156 559 3463 722 
L 3463 178 
Q 3153 47 2828 -22 
Q 2503 -91 2169 -91 
Q 1331 -91 842 396 
Q 353 884 353 1716 
Q 353 2575 817 3079 
Q 1281 3584 2069 3584 
Q 2775 3584 3186 3129 
Q 3597 2675 3597 1894 
z
M 3022 2063 
Q 3016 2534 2758 2815 
Q 2500 3097 2075 3097 
Q 1594 3097 1305 2825 
Q 1016 2553 972 2059 
L 3022 2063 
z
" transform="scale(0.015625)"/>
      </defs>
      <use xlink:href="#DejaVuSans-52"/>
      <use xlink:href="#DejaVuSans-61" x="67.232422"/>
      <use xlink:href="#DejaVuSans-63" x="128.511719"/>
      <use xlink:href="#DejaVuSans-6b" x="183.492188"/>
      <use xlink:href="#DejaVuSans-2c" x="241.402344"/>
      <use xlink:href="#DejaVuSans-4d" x="273.189453"/>
      <use xlink:href="#DejaVuSans-69" x="359.46875"/>
      <use xlink:href="#DejaVuSans-64" x="387.251953"/>
      <use xlink:href="#DejaVuSans-70" x="450.728516"/>
      <use xlink:href="#DejaVuSans-6c" x="514.205078"/>
      <use xlink:href="#DejaVuSans-61" x="541.988281"/>
      <use xlink:href="#DejaVuSans-6e" x="603.267578"/>
      <use xlink:href="#DejaVuSans-65" x="666.646484"/>
     </g>
    </g>
   </g>
   <g id="patch_243">
    <path d="M 54 768.96 
L 54 103.68 
" style="fill: none; stroke: #000000; stroke-width: 0.8; stroke-linejoin: miter; stroke-linecap: square"/>
   </g>
   <g id="patch_244">
    <path d="M 388.8 768.96 
L 388.8 103.68 
" style="fill: none; stroke: #000000; stroke-width: 0.8; stroke-linejoin: miter; stroke-linecap: square"/>
   </g>
   <g id="patch_245">
    <path d="M 54 768.96 
L 388.8 768.96 
" style="fill: none; stroke: #000000; stroke-width: 0.8; stroke-linejoin: miter; stroke-linecap: square"/>
   </g>
   <g id="patch_246">
    <path d="M 54 103.68 
L 388.8 103.68 
" style="fill: none; stroke: #000000; stroke-width: 0.8; stroke-linejoin: miter; stroke-linecap: square"/>
   </g>
   <g id="legend_1">
    <g id="patch_247">
     <path d="M 334.61875 555.245 
L 381.8 555.245 
Q 383.8 555.245 383.8 553.245 
L 383.8 319.395 
Q 383.8 317.395 381.8 317.395 
L 334.61875 317.395 
Q 332.61875 317.395 332.61875 319.395 
L 332.61875 553.245 
Q 332.61875 555.245 334.61875 555.245 
z
" style="fill: #ffffff; opacity: 0.8; stroke: #cccccc; stroke-linejoin: miter"/>
    </g>
    <g id="text_26">
     <!-- Node -->
     <g transform="translate(345.158594 328.993437) scale(0.1 -0.1)">
      <defs>
       <path id="DejaVuSans-4e" d="M 628 4666 
L 1478 4666 
L 3547 763 
L 3547 4666 
L 4159 4666 
L 4159 0 
L 3309 0 
L 1241 3903 
L 1241 0 
L 628 0 
L 628 4666 
z
" transform="scale(0.015625)"/>
       <path id="DejaVuSans-6f" d="M 1959 3097 
Q 1497 3097 1228 2736 
Q 959 2375 959 1747 
Q 959 1119 1226 758 
Q 1494 397 1959 397 
Q 2419 397 2687 759 
Q 2956 1122 2956 1747 
Q 2956 2369 2687 2733 
Q 2419 3097 1959 3097 
z
M 1959 3584 
Q 2709 3584 3137 3096 
Q 3566 2609 3566 1747 
Q 3566 888 3137 398 
Q 2709 -91 1959 -91 
Q 1206 -91 779 398 
Q 353 888 353 1747 
Q 353 2609 779 3096 
Q 1206 3584 1959 3584 
z
" transform="scale(0.015625)"/>
      </defs>
      <use xlink:href="#DejaVuSans-4e"/>
      <use xlink:href="#DejaVuSans-6f" x="74.804688"/>
      <use xlink:href="#DejaVuSans-64" x="135.986328"/>
      <use xlink:href="#DejaVuSans-65" x="199.462891"/>
     </g>
    </g>
    <g id="patch_248">
     <path d="M 336.61875 343.671562 
L 356.61875 343.671562 
L 356.61875 336.671562 
L 336.61875 336.671562 
z
" style="fill: #1f77b4"/>
    </g>
    <g id="text_27">
     <!-- N0 -->
     <g transform="translate(364.61875 343.671562) scale(0.1 -0.1)">
      <use xlink:href="#DejaVuSans-4e"/>
      <use xlink:href="#DejaVuSans-30" x="74.804688"/>
     </g>
    </g>
    <g id="patch_249">
     <path d="M 336.61875 358.349687 
L 356.61875 358.349687 
L 356.61875 351.349687 
L 336.61875 351.349687 
z
" style="fill: #aec7e8"/>
    </g>
    <g id="text_28">
     <!-- N1 -->
     <g transform="translate(364.61875 358.349687) scale(0.1 -0.1)">
      <use xlink:href="#DejaVuSans-4e"/>
      <use xlink:href="#DejaVuSans-31" x="74.804688"/>
     </g>
    </g>
    <g id="patch_250">
     <path d="M 336.61875 373.027812 
L 356.61875 373.027812 
L 356.61875 366.027812 
L 336.61875 366.027812 
z
" style="fill: #ff7f0e"/>
    </g>
    <g id="text_29">
     <!-- N2 -->
     <g transform="translate(364.61875 373.027812) scale(0.1 -0.1)">
      <use xlink:href="#DejaVuSans-4e"/>
      <use xlink:href="#DejaVuSans-32" x="74.804688"/>
     </g>
    </g>
    <g id="patch_251">
     <path d="M 336.61875 387.705937 
L 356.61875 387.705937 
L 356.61875 380.705937 
L 336.61875 380.705937 
z
" style="fill: #2ca02c"/>
    </g>
    <g id="text_30">
     <!-- N3 -->
     <g transform="translate(364.61875 387.705937) scale(0.1 -0.1)">
      <use xlink:href="#DejaVuSans-4e"/>
      <use xlink:href="#DejaVuSans-33" x="74.804688"/>
     </g>
    </g>
    <g id="patch_252">
     <path d="M 336.61875 402.384062 
L 356.61875 402.384062 
L 356.61875 395.384062 
L 336.61875 395.384062 
z
" style="fill: #98df8a"/>
    </g>
    <g id="text_31">
     <!-- N4 -->
     <g transform="translate(364.61875 402.384062) scale(0.1 -0.1)">
      <use xlink:href="#DejaVuSans-4e"/>
      <use xlink:href="#DejaVuSans-34" x="74.804688"/>
     </g>
    </g>
    <g id="patch_253">
     <path d="M 336.61875 417.062187 
L 356.61875 417.062187 
L 356.61875 410.062187 
L 336.61875 410.062187 
z
" style="fill: #ff9896"/>
    </g>
    <g id="text_32">
     <!-- N5 -->
     <g transform="translate(364.61875 417.062187) scale(0.1 -0.1)">
      <use xlink:href="#DejaVuSans-4e"/>
      <use xlink:href="#DejaVuSans-35" x="74.804688"/>
     </g>
    </g>
    <g id="patch_254">
     <path d="M 336.61875 431.740312 
L 356.61875 431.740312 
L 356.61875 424.740312 
L 336.61875 424.740312 
z
" style="fill: #9467bd"/>
    </g>
    <g id="text_33">
     <!-- N6 -->
     <g transform="translate(364.61875 431.740312) scale(0.1 -0.1)">
      <use xlink:href="#DejaVuSans-4e"/>
      <use xlink:href="#DejaVuSans-36" x="74.804688"/>
     </g>
    </g>
    <g id="patch_255">
     <path d="M 336.61875 446.418437 
L 356.61875 446.418437 
L 356.61875 439.418437 
L 336.61875 439.418437 
z
" style="fill: #8c564b"/>
    </g>
    <g id="text_34">
     <!-- N7 -->
     <g transform="translate(364.61875 446.418437) scale(0.1 -0.1)">
      <use xlink:href="#DejaVuSans-4e"/>
      <use xlink:href="#DejaVuSans-37" x="74.804688"/>
     </g>
    </g>
    <g id="patch_256">
     <path d="M 336.61875 461.096562 
L 356.61875 461.096562 
L 356.61875 454.096562 
L 336.61875 454.096562 
z
" style="fill: #c49c94"/>
    </g>
    <g id="text_35">
     <!-- N8 -->
     <g transform="translate(364.61875 461.096562) scale(0.1 -0.1)">
      <defs>
       <path id="DejaVuSans-38" d="M 2034 2216 
Q 1584 2216 1326 1975 
Q 1069 1734 1069 1313 
Q 1069 891 1326 650 
Q 1584 409 2034 409 
Q 2484 409 2743 651 
Q 3003 894 3003 1313 
Q 3003 1734 2745 1975 
Q 2488 2216 2034 2216 
z
M 1403 2484 
Q 997 2584 770 2862 
Q 544 3141 544 3541 
Q 544 4100 942 4425 
Q 1341 4750 2034 4750 
Q 2731 4750 3128 4425 
Q 3525 4100 3525 3541 
Q 3525 3141 3298 2862 
Q 3072 2584 2669 2484 
Q 3125 2378 3379 2068 
Q 3634 1759 3634 1313 
Q 3634 634 3220 271 
Q 2806 -91 2034 -91 
Q 1263 -91 848 271 
Q 434 634 434 1313 
Q 434 1759 690 2068 
Q 947 2378 1403 2484 
z
M 1172 3481 
Q 1172 3119 1398 2916 
Q 1625 2713 2034 2713 
Q 2441 2713 2670 2916 
Q 2900 3119 2900 3481 
Q 2900 3844 2670 4047 
Q 2441 4250 2034 4250 
Q 1625 4250 1398 4047 
Q 1172 3844 1172 3481 
z
" transform="scale(0.015625)"/>
      </defs>
      <use xlink:href="#DejaVuSans-4e"/>
      <use xlink:href="#DejaVuSans-38" x="74.804688"/>
     </g>
    </g>
    <g id="patch_257">
     <path d="M 336.61875 475.774687 
L 356.61875 475.774687 
L 356.61875 468.774687 
L 336.61875 468.774687 
z
" style="fill: #e377c2"/>
    </g>
    <g id="text_36">
     <!-- N9 -->
     <g transform="translate(364.61875 475.774687) scale(0.1 -0.1)">
      <defs>
       <path id="DejaVuSans-39" d="M 703 97 
L 703 672 
Q 941 559 1184 500 
Q 1428 441 1663 441 
Q 2288 441 2617 861 
Q 2947 1281 2994 2138 
Q 2813 1869 2534 1725 
Q 2256 1581 1919 1581 
Q 1219 1581 811 2004 
Q 403 2428 403 3163 
Q 403 3881 828 4315 
Q 1253 4750 1959 4750 
Q 2769 4750 3195 4129 
Q 3622 3509 3622 2328 
Q 3622 1225 3098 567 
Q 2575 -91 1691 -91 
Q 1453 -91 1209 -44 
Q 966 3 703 97 
z
M 1959 2075 
Q 2384 2075 2632 2365 
Q 2881 2656 2881 3163 
Q 2881 3666 2632 3958 
Q 2384 4250 1959 4250 
Q 1534 4250 1286 3958 
Q 1038 3666 1038 3163 
Q 1038 2656 1286 2365 
Q 1534 2075 1959 2075 
z
" transform="scale(0.015625)"/>
      </defs>
      <use xlink:href="#DejaVuSans-4e"/>
      <use xlink:href="#DejaVuSans-39" x="74.804688"/>
     </g>
    </g>
    <g id="patch_258">
     <path d="M 336.61875 490.452812 
L 356.61875 490.452812 
L 356.61875 483.452812 
L 336.61875 483.452812 
z
" style="fill: #7f7f7f"/>
    </g>
    <g id="text_37">
     <!-- NB -->
     <g transform="translate(364.61875 490.452812) scale(0.1 -0.1)">
      <defs>
       <path id="DejaVuSans-42" d="M 1259 2228 
L 1259 519 
L 2272 519 
Q 2781 519 3026 730 
Q 3272 941 3272 1375 
Q 3272 1813 3026 2020 
Q 2781 2228 2272 2228 
L 1259 2228 
z
M 1259 4147 
L 1259 2741 
L 2194 2741 
Q 2656 2741 2882 2914 
Q 3109 3088 3109 3444 
Q 3109 3797 2882 3972 
Q 2656 4147 2194 4147 
L 1259 4147 
z
M 628 4666 
L 2241 4666 
Q 2963 4666 3353 4366 
Q 3744 4066 3744 3513 
Q 3744 3084 3544 2831 
Q 3344 2578 2956 2516 
Q 3422 2416 3680 2098 
Q 3938 1781 3938 1306 
Q 3938 681 3513 340 
Q 3088 0 2303 0 
L 628 0 
L 628 4666 
z
" transform="scale(0.015625)"/>
      </defs>
      <use xlink:href="#DejaVuSans-4e"/>
      <use xlink:href="#DejaVuSans-42" x="74.804688"/>
     </g>
    </g>
    <g id="patch_259">
     <path d="M 336.61875 505.130937 
L 356.61875 505.130937 
L 356.61875 498.130937 
L 336.61875 498.130937 
z
" style="fill: #c7c7c7"/>
    </g>
    <g id="text_38">
     <!-- NC -->
     <g transform="translate(364.61875 505.130937) scale(0.1 -0.1)">
      <defs>
       <path id="DejaVuSans-43" d="M 4122 4306 
L 4122 3641 
Q 3803 3938 3442 4084 
Q 3081 4231 2675 4231 
Q 1875 4231 1450 3742 
Q 1025 3253 1025 2328 
Q 1025 1406 1450 917 
Q 1875 428 2675 428 
Q 3081 428 3442 575 
Q 3803 722 4122 1019 
L 4122 359 
Q 3791 134 3420 21 
Q 3050 -91 2638 -91 
Q 1578 -91 968 557 
Q 359 1206 359 2328 
Q 359 3453 968 4101 
Q 1578 4750 2638 4750 
Q 3056 4750 3426 4639 
Q 3797 4528 4122 4306 
z
" transform="scale(0.015625)"/>
      </defs>
      <use xlink:href="#DejaVuSans-4e"/>
      <use xlink:href="#DejaVuSans-43" x="74.804688"/>
     </g>
    </g>
    <g id="patch_260">
     <path d="M 336.61875 519.809062 
L 356.61875 519.809062 
L 356.61875 512.809062 
L 336.61875 512.809062 
z
" style="fill: #dbdb8d"/>
    </g>
    <g id="text_39">
     <!-- ND -->
     <g transform="translate(364.61875 519.809062) scale(0.1 -0.1)">
      <defs>
       <path id="DejaVuSans-44" d="M 1259 4147 
L 1259 519 
L 2022 519 
Q 2988 519 3436 956 
Q 3884 1394 3884 2338 
Q 3884 3275 3436 3711 
Q 2988 4147 2022 4147 
L 1259 4147 
z
M 628 4666 
L 1925 4666 
Q 3281 4666 3915 4102 
Q 4550 3538 4550 2338 
Q 4550 1131 3912 565 
Q 3275 0 1925 0 
L 628 0 
L 628 4666 
z
" transform="scale(0.015625)"/>
      </defs>
      <use xlink:href="#DejaVuSans-4e"/>
      <use xlink:href="#DejaVuSans-44" x="74.804688"/>
     </g>
    </g>
    <g id="patch_261">
     <path d="M 336.61875 534.487187 
L 356.61875 534.487187 
L 356.61875 527.487187 
L 336.61875 527.487187 
z
" style="fill: #17becf"/>
    </g>
    <g id="text_40">
     <!-- NE -->
     <g transform="translate(364.61875 534.487187) scale(0.1 -0.1)">
      <defs>
       <path id="DejaVuSans-45" d="M 628 4666 
L 3578 4666 
L 3578 4134 
L 1259 4134 
L 1259 2753 
L 3481 2753 
L 3481 2222 
L 1259 2222 
L 1259 531 
L 3634 531 
L 3634 0 
L 628 0 
L 628 4666 
z
" transform="scale(0.015625)"/>
      </defs>
      <use xlink:href="#DejaVuSans-4e"/>
      <use xlink:href="#DejaVuSans-45" x="74.804688"/>
     </g>
    </g>
    <g id="patch_262">
     <path d="M 336.61875 549.165312 
L 356.61875 549.165312 
L 356.61875 542.165312 
L 336.61875 542.165312 
z
" style="fill: #9edae5"/>
    </g>
    <g id="text_41">
     <!-- NF -->
     <g transform="translate(364.61875 549.165312) scale(0.1 -0.1)">
      <defs>
       <path id="DejaVuSans-46" d="M 628 4666 
L 3309 4666 
L 3309 4134 
L 1259 4134 
L 1259 2759 
L 3109 2759 
L 3109 2228 
L 1259 2228 
L 1259 0 
L 628 0 
L 628 4666 
z
" transform="scale(0.015625)"/>
      </defs>
      <use xlink:href="#DejaVuSans-4e"/>
      <use xlink:href="#DejaVuSans-46" x="74.804688"/>
     </g>
    </g>
   </g>
  </g>
 </g>
 <defs>
  <clipPath id="pafdf4466a5">
   <rect x="54" y="103.68" width="334.8" height="665.28"/>
  </clipPath>
 </defs>
</svg>
