<?xml version="1.0" encoding="utf-8" standalone="no"?>
<!DOCTYPE svg PUBLIC "-//W3C//DTD SVG 1.1//EN"
  "http://www.w3.org/Graphics/SVG/1.1/DTD/svg11.dtd">
<svg xmlns:xlink="http://www.w3.org/1999/xlink" width="864pt" height="432pt" viewBox="0 0 864 432" xmlns="http://www.w3.org/2000/svg" version="1.1">
 <metadata>
  <rdf:RDF xmlns:dc="http://purl.org/dc/elements/1.1/" xmlns:cc="http://creativecommons.org/ns#" xmlns:rdf="http://www.w3.org/1999/02/22-rdf-syntax-ns#">
   <cc:Work>
    <dc:type rdf:resource="http://purl.org/dc/dcmitype/StillImage"/>
    <dc:date>2022-12-14T11:02:46.417585</dc:date>
    <dc:format>image/svg+xml</dc:format>
    <dc:creator>
     <cc:Agent>
      <dc:title>Matplotlib v3.6.2, https://matplotlib.org/</dc:title>
     </cc:Agent>
    </dc:creator>
   </cc:Work>
  </rdf:RDF>
 </metadata>
 <defs>
  <style type="text/css">*{stroke-linejoin: round; stroke-linecap: butt}</style>
 </defs>
 <g id="figure_1">
  <g id="patch_1">
   <path d="M 0 432 
L 864 432 
L 864 0 
L 0 0 
z
" style="fill: #ffffff"/>
  </g>
  <g id="axes_1">
   <g id="patch_2">
    <path d="M 108 384.48 
L 777.6 384.48 
L 777.6 51.84 
L 108 51.84 
z
" style="fill: #ffffff"/>
   </g>
   <g id="matplotlib.axis_1">
    <g id="xtick_1">
     <g id="line2d_1">
      <path d="M 138.371095 384.48 
L 138.371095 51.84 
" clip-path="url(#pf6fad80bfd)" style="fill: none; stroke: #b0b0b0; stroke-width: 0.8; stroke-linecap: square"/>
     </g>
     <g id="line2d_2">
      <defs>
       <path id="macb9b8d1f7" d="M 0 0 
L 0 3.5 
" style="stroke: #000000; stroke-width: 0.8"/>
      </defs>
      <g>
       <use xlink:href="#macb9b8d1f7" x="138.371095" y="384.48" style="stroke: #000000; stroke-width: 0.8"/>
      </g>
     </g>
     <g id="text_1">
      <!-- 0 -->
      <g transform="translate(135.189845 399.078438) scale(0.1 -0.1)">
       <defs>
        <path id="DejaVuSans-30" d="M 2034 4250 
Q 1547 4250 1301 3770 
Q 1056 3291 1056 2328 
Q 1056 1369 1301 889 
Q 1547 409 2034 409 
Q 2525 409 2770 889 
Q 3016 1369 3016 2328 
Q 3016 3291 2770 3770 
Q 2525 4250 2034 4250 
z
M 2034 4750 
Q 2819 4750 3233 4129 
Q 3647 3509 3647 2328 
Q 3647 1150 3233 529 
Q 2819 -91 2034 -91 
Q 1250 -91 836 529 
Q 422 1150 422 2328 
Q 422 3509 836 4129 
Q 1250 4750 2034 4750 
z
" transform="scale(0.015625)"/>
       </defs>
       <use xlink:href="#DejaVuSans-30"/>
      </g>
     </g>
    </g>
    <g id="xtick_2">
     <g id="line2d_3">
      <path d="M 225.395911 384.48 
L 225.395911 51.84 
" clip-path="url(#pf6fad80bfd)" style="fill: none; stroke: #b0b0b0; stroke-width: 0.8; stroke-linecap: square"/>
     </g>
     <g id="line2d_4">
      <g>
       <use xlink:href="#macb9b8d1f7" x="225.395911" y="384.48" style="stroke: #000000; stroke-width: 0.8"/>
      </g>
     </g>
     <g id="text_2">
      <!-- 100000 -->
      <g transform="translate(206.308411 399.078438) scale(0.1 -0.1)">
       <defs>
        <path id="DejaVuSans-31" d="M 794 531 
L 1825 531 
L 1825 4091 
L 703 3866 
L 703 4441 
L 1819 4666 
L 2450 4666 
L 2450 531 
L 3481 531 
L 3481 0 
L 794 0 
L 794 531 
z
" transform="scale(0.015625)"/>
       </defs>
       <use xlink:href="#DejaVuSans-31"/>
       <use xlink:href="#DejaVuSans-30" x="63.623047"/>
       <use xlink:href="#DejaVuSans-30" x="127.246094"/>
       <use xlink:href="#DejaVuSans-30" x="190.869141"/>
       <use xlink:href="#DejaVuSans-30" x="254.492188"/>
       <use xlink:href="#DejaVuSans-30" x="318.115234"/>
      </g>
     </g>
    </g>
    <g id="xtick_3">
     <g id="line2d_5">
      <path d="M 312.420726 384.48 
L 312.420726 51.84 
" clip-path="url(#pf6fad80bfd)" style="fill: none; stroke: #b0b0b0; stroke-width: 0.8; stroke-linecap: square"/>
     </g>
     <g id="line2d_6">
      <g>
       <use xlink:href="#macb9b8d1f7" x="312.420726" y="384.48" style="stroke: #000000; stroke-width: 0.8"/>
      </g>
     </g>
     <g id="text_3">
      <!-- 200000 -->
      <g transform="translate(293.333226 399.078438) scale(0.1 -0.1)">
       <defs>
        <path id="DejaVuSans-32" d="M 1228 531 
L 3431 531 
L 3431 0 
L 469 0 
L 469 531 
Q 828 903 1448 1529 
Q 2069 2156 2228 2338 
Q 2531 2678 2651 2914 
Q 2772 3150 2772 3378 
Q 2772 3750 2511 3984 
Q 2250 4219 1831 4219 
Q 1534 4219 1204 4116 
Q 875 4013 500 3803 
L 500 4441 
Q 881 4594 1212 4672 
Q 1544 4750 1819 4750 
Q 2544 4750 2975 4387 
Q 3406 4025 3406 3419 
Q 3406 3131 3298 2873 
Q 3191 2616 2906 2266 
Q 2828 2175 2409 1742 
Q 1991 1309 1228 531 
z
" transform="scale(0.015625)"/>
       </defs>
       <use xlink:href="#DejaVuSans-32"/>
       <use xlink:href="#DejaVuSans-30" x="63.623047"/>
       <use xlink:href="#DejaVuSans-30" x="127.246094"/>
       <use xlink:href="#DejaVuSans-30" x="190.869141"/>
       <use xlink:href="#DejaVuSans-30" x="254.492188"/>
       <use xlink:href="#DejaVuSans-30" x="318.115234"/>
      </g>
     </g>
    </g>
    <g id="xtick_4">
     <g id="line2d_7">
      <path d="M 399.445542 384.48 
L 399.445542 51.84 
" clip-path="url(#pf6fad80bfd)" style="fill: none; stroke: #b0b0b0; stroke-width: 0.8; stroke-linecap: square"/>
     </g>
     <g id="line2d_8">
      <g>
       <use xlink:href="#macb9b8d1f7" x="399.445542" y="384.48" style="stroke: #000000; stroke-width: 0.8"/>
      </g>
     </g>
     <g id="text_4">
      <!-- 300000 -->
      <g transform="translate(380.358042 399.078438) scale(0.1 -0.1)">
       <defs>
        <path id="DejaVuSans-33" d="M 2597 2516 
Q 3050 2419 3304 2112 
Q 3559 1806 3559 1356 
Q 3559 666 3084 287 
Q 2609 -91 1734 -91 
Q 1441 -91 1130 -33 
Q 819 25 488 141 
L 488 750 
Q 750 597 1062 519 
Q 1375 441 1716 441 
Q 2309 441 2620 675 
Q 2931 909 2931 1356 
Q 2931 1769 2642 2001 
Q 2353 2234 1838 2234 
L 1294 2234 
L 1294 2753 
L 1863 2753 
Q 2328 2753 2575 2939 
Q 2822 3125 2822 3475 
Q 2822 3834 2567 4026 
Q 2313 4219 1838 4219 
Q 1578 4219 1281 4162 
Q 984 4106 628 3988 
L 628 4550 
Q 988 4650 1302 4700 
Q 1616 4750 1894 4750 
Q 2613 4750 3031 4423 
Q 3450 4097 3450 3541 
Q 3450 3153 3228 2886 
Q 3006 2619 2597 2516 
z
" transform="scale(0.015625)"/>
       </defs>
       <use xlink:href="#DejaVuSans-33"/>
       <use xlink:href="#DejaVuSans-30" x="63.623047"/>
       <use xlink:href="#DejaVuSans-30" x="127.246094"/>
       <use xlink:href="#DejaVuSans-30" x="190.869141"/>
       <use xlink:href="#DejaVuSans-30" x="254.492188"/>
       <use xlink:href="#DejaVuSans-30" x="318.115234"/>
      </g>
     </g>
    </g>
    <g id="xtick_5">
     <g id="line2d_9">
      <path d="M 486.470358 384.48 
L 486.470358 51.84 
" clip-path="url(#pf6fad80bfd)" style="fill: none; stroke: #b0b0b0; stroke-width: 0.8; stroke-linecap: square"/>
     </g>
     <g id="line2d_10">
      <g>
       <use xlink:href="#macb9b8d1f7" x="486.470358" y="384.48" style="stroke: #000000; stroke-width: 0.8"/>
      </g>
     </g>
     <g id="text_5">
      <!-- 400000 -->
      <g transform="translate(467.382858 399.078438) scale(0.1 -0.1)">
       <defs>
        <path id="DejaVuSans-34" d="M 2419 4116 
L 825 1625 
L 2419 1625 
L 2419 4116 
z
M 2253 4666 
L 3047 4666 
L 3047 1625 
L 3713 1625 
L 3713 1100 
L 3047 1100 
L 3047 0 
L 2419 0 
L 2419 1100 
L 313 1100 
L 313 1709 
L 2253 4666 
z
" transform="scale(0.015625)"/>
       </defs>
       <use xlink:href="#DejaVuSans-34"/>
       <use xlink:href="#DejaVuSans-30" x="63.623047"/>
       <use xlink:href="#DejaVuSans-30" x="127.246094"/>
       <use xlink:href="#DejaVuSans-30" x="190.869141"/>
       <use xlink:href="#DejaVuSans-30" x="254.492188"/>
       <use xlink:href="#DejaVuSans-30" x="318.115234"/>
      </g>
     </g>
    </g>
    <g id="xtick_6">
     <g id="line2d_11">
      <path d="M 573.495174 384.48 
L 573.495174 51.84 
" clip-path="url(#pf6fad80bfd)" style="fill: none; stroke: #b0b0b0; stroke-width: 0.8; stroke-linecap: square"/>
     </g>
     <g id="line2d_12">
      <g>
       <use xlink:href="#macb9b8d1f7" x="573.495174" y="384.48" style="stroke: #000000; stroke-width: 0.8"/>
      </g>
     </g>
     <g id="text_6">
      <!-- 500000 -->
      <g transform="translate(554.407674 399.078438) scale(0.1 -0.1)">
       <defs>
        <path id="DejaVuSans-35" d="M 691 4666 
L 3169 4666 
L 3169 4134 
L 1269 4134 
L 1269 2991 
Q 1406 3038 1543 3061 
Q 1681 3084 1819 3084 
Q 2600 3084 3056 2656 
Q 3513 2228 3513 1497 
Q 3513 744 3044 326 
Q 2575 -91 1722 -91 
Q 1428 -91 1123 -41 
Q 819 9 494 109 
L 494 744 
Q 775 591 1075 516 
Q 1375 441 1709 441 
Q 2250 441 2565 725 
Q 2881 1009 2881 1497 
Q 2881 1984 2565 2268 
Q 2250 2553 1709 2553 
Q 1456 2553 1204 2497 
Q 953 2441 691 2322 
L 691 4666 
z
" transform="scale(0.015625)"/>
       </defs>
       <use xlink:href="#DejaVuSans-35"/>
       <use xlink:href="#DejaVuSans-30" x="63.623047"/>
       <use xlink:href="#DejaVuSans-30" x="127.246094"/>
       <use xlink:href="#DejaVuSans-30" x="190.869141"/>
       <use xlink:href="#DejaVuSans-30" x="254.492188"/>
       <use xlink:href="#DejaVuSans-30" x="318.115234"/>
      </g>
     </g>
    </g>
    <g id="xtick_7">
     <g id="line2d_13">
      <path d="M 660.519989 384.48 
L 660.519989 51.84 
" clip-path="url(#pf6fad80bfd)" style="fill: none; stroke: #b0b0b0; stroke-width: 0.8; stroke-linecap: square"/>
     </g>
     <g id="line2d_14">
      <g>
       <use xlink:href="#macb9b8d1f7" x="660.519989" y="384.48" style="stroke: #000000; stroke-width: 0.8"/>
      </g>
     </g>
     <g id="text_7">
      <!-- 600000 -->
      <g transform="translate(641.432489 399.078438) scale(0.1 -0.1)">
       <defs>
        <path id="DejaVuSans-36" d="M 2113 2584 
Q 1688 2584 1439 2293 
Q 1191 2003 1191 1497 
Q 1191 994 1439 701 
Q 1688 409 2113 409 
Q 2538 409 2786 701 
Q 3034 994 3034 1497 
Q 3034 2003 2786 2293 
Q 2538 2584 2113 2584 
z
M 3366 4563 
L 3366 3988 
Q 3128 4100 2886 4159 
Q 2644 4219 2406 4219 
Q 1781 4219 1451 3797 
Q 1122 3375 1075 2522 
Q 1259 2794 1537 2939 
Q 1816 3084 2150 3084 
Q 2853 3084 3261 2657 
Q 3669 2231 3669 1497 
Q 3669 778 3244 343 
Q 2819 -91 2113 -91 
Q 1303 -91 875 529 
Q 447 1150 447 2328 
Q 447 3434 972 4092 
Q 1497 4750 2381 4750 
Q 2619 4750 2861 4703 
Q 3103 4656 3366 4563 
z
" transform="scale(0.015625)"/>
       </defs>
       <use xlink:href="#DejaVuSans-36"/>
       <use xlink:href="#DejaVuSans-30" x="63.623047"/>
       <use xlink:href="#DejaVuSans-30" x="127.246094"/>
       <use xlink:href="#DejaVuSans-30" x="190.869141"/>
       <use xlink:href="#DejaVuSans-30" x="254.492188"/>
       <use xlink:href="#DejaVuSans-30" x="318.115234"/>
      </g>
     </g>
    </g>
    <g id="xtick_8">
     <g id="line2d_15">
      <path d="M 747.544805 384.48 
L 747.544805 51.84 
" clip-path="url(#pf6fad80bfd)" style="fill: none; stroke: #b0b0b0; stroke-width: 0.8; stroke-linecap: square"/>
     </g>
     <g id="line2d_16">
      <g>
       <use xlink:href="#macb9b8d1f7" x="747.544805" y="384.48" style="stroke: #000000; stroke-width: 0.8"/>
      </g>
     </g>
     <g id="text_8">
      <!-- 700000 -->
      <g transform="translate(728.457305 399.078438) scale(0.1 -0.1)">
       <defs>
        <path id="DejaVuSans-37" d="M 525 4666 
L 3525 4666 
L 3525 4397 
L 1831 0 
L 1172 0 
L 2766 4134 
L 525 4134 
L 525 4666 
z
" transform="scale(0.015625)"/>
       </defs>
       <use xlink:href="#DejaVuSans-37"/>
       <use xlink:href="#DejaVuSans-30" x="63.623047"/>
       <use xlink:href="#DejaVuSans-30" x="127.246094"/>
       <use xlink:href="#DejaVuSans-30" x="190.869141"/>
       <use xlink:href="#DejaVuSans-30" x="254.492188"/>
       <use xlink:href="#DejaVuSans-30" x="318.115234"/>
      </g>
     </g>
    </g>
    <g id="text_9">
     <!-- Time (s) -->
     <g transform="translate(422.471094 412.756563) scale(0.1 -0.1)">
      <defs>
       <path id="DejaVuSans-54" d="M -19 4666 
L 3928 4666 
L 3928 4134 
L 2272 4134 
L 2272 0 
L 1638 0 
L 1638 4134 
L -19 4134 
L -19 4666 
z
" transform="scale(0.015625)"/>
       <path id="DejaVuSans-69" d="M 603 3500 
L 1178 3500 
L 1178 0 
L 603 0 
L 603 3500 
z
M 603 4863 
L 1178 4863 
L 1178 4134 
L 603 4134 
L 603 4863 
z
" transform="scale(0.015625)"/>
       <path id="DejaVuSans-6d" d="M 3328 2828 
Q 3544 3216 3844 3400 
Q 4144 3584 4550 3584 
Q 5097 3584 5394 3201 
Q 5691 2819 5691 2113 
L 5691 0 
L 5113 0 
L 5113 2094 
Q 5113 2597 4934 2840 
Q 4756 3084 4391 3084 
Q 3944 3084 3684 2787 
Q 3425 2491 3425 1978 
L 3425 0 
L 2847 0 
L 2847 2094 
Q 2847 2600 2669 2842 
Q 2491 3084 2119 3084 
Q 1678 3084 1418 2786 
Q 1159 2488 1159 1978 
L 1159 0 
L 581 0 
L 581 3500 
L 1159 3500 
L 1159 2956 
Q 1356 3278 1631 3431 
Q 1906 3584 2284 3584 
Q 2666 3584 2933 3390 
Q 3200 3197 3328 2828 
z
" transform="scale(0.015625)"/>
       <path id="DejaVuSans-65" d="M 3597 1894 
L 3597 1613 
L 953 1613 
Q 991 1019 1311 708 
Q 1631 397 2203 397 
Q 2534 397 2845 478 
Q 3156 559 3463 722 
L 3463 178 
Q 3153 47 2828 -22 
Q 2503 -91 2169 -91 
Q 1331 -91 842 396 
Q 353 884 353 1716 
Q 353 2575 817 3079 
Q 1281 3584 2069 3584 
Q 2775 3584 3186 3129 
Q 3597 2675 3597 1894 
z
M 3022 2063 
Q 3016 2534 2758 2815 
Q 2500 3097 2075 3097 
Q 1594 3097 1305 2825 
Q 1016 2553 972 2059 
L 3022 2063 
z
" transform="scale(0.015625)"/>
       <path id="DejaVuSans-20" transform="scale(0.015625)"/>
       <path id="DejaVuSans-28" d="M 1984 4856 
Q 1566 4138 1362 3434 
Q 1159 2731 1159 2009 
Q 1159 1288 1364 580 
Q 1569 -128 1984 -844 
L 1484 -844 
Q 1016 -109 783 600 
Q 550 1309 550 2009 
Q 550 2706 781 3412 
Q 1013 4119 1484 4856 
L 1984 4856 
z
" transform="scale(0.015625)"/>
       <path id="DejaVuSans-73" d="M 2834 3397 
L 2834 2853 
Q 2591 2978 2328 3040 
Q 2066 3103 1784 3103 
Q 1356 3103 1142 2972 
Q 928 2841 928 2578 
Q 928 2378 1081 2264 
Q 1234 2150 1697 2047 
L 1894 2003 
Q 2506 1872 2764 1633 
Q 3022 1394 3022 966 
Q 3022 478 2636 193 
Q 2250 -91 1575 -91 
Q 1294 -91 989 -36 
Q 684 19 347 128 
L 347 722 
Q 666 556 975 473 
Q 1284 391 1588 391 
Q 1994 391 2212 530 
Q 2431 669 2431 922 
Q 2431 1156 2273 1281 
Q 2116 1406 1581 1522 
L 1381 1569 
Q 847 1681 609 1914 
Q 372 2147 372 2553 
Q 372 3047 722 3315 
Q 1072 3584 1716 3584 
Q 2034 3584 2315 3537 
Q 2597 3491 2834 3397 
z
" transform="scale(0.015625)"/>
       <path id="DejaVuSans-29" d="M 513 4856 
L 1013 4856 
Q 1481 4119 1714 3412 
Q 1947 2706 1947 2009 
Q 1947 1309 1714 600 
Q 1481 -109 1013 -844 
L 513 -844 
Q 928 -128 1133 580 
Q 1338 1288 1338 2009 
Q 1338 2731 1133 3434 
Q 928 4138 513 4856 
z
" transform="scale(0.015625)"/>
      </defs>
      <use xlink:href="#DejaVuSans-54"/>
      <use xlink:href="#DejaVuSans-69" x="57.958984"/>
      <use xlink:href="#DejaVuSans-6d" x="85.742188"/>
      <use xlink:href="#DejaVuSans-65" x="183.154297"/>
      <use xlink:href="#DejaVuSans-20" x="244.677734"/>
      <use xlink:href="#DejaVuSans-28" x="276.464844"/>
      <use xlink:href="#DejaVuSans-73" x="315.478516"/>
      <use xlink:href="#DejaVuSans-29" x="367.578125"/>
     </g>
    </g>
   </g>
   <g id="matplotlib.axis_2">
    <g id="ytick_1">
     <g id="line2d_17">
      <path d="M 108 369.36 
L 777.6 369.36 
" clip-path="url(#pf6fad80bfd)" style="fill: none; stroke: #b0b0b0; stroke-width: 0.8; stroke-linecap: square"/>
     </g>
     <g id="line2d_18">
      <defs>
       <path id="m9eeec814f9" d="M 0 0 
L -3.5 0 
" style="stroke: #000000; stroke-width: 0.8"/>
      </defs>
      <g>
       <use xlink:href="#m9eeec814f9" x="108" y="369.36" style="stroke: #000000; stroke-width: 0.8"/>
      </g>
     </g>
     <g id="text_10">
      <!-- 0.0 -->
      <g transform="translate(85.096875 373.159219) scale(0.1 -0.1)">
       <defs>
        <path id="DejaVuSans-2e" d="M 684 794 
L 1344 794 
L 1344 0 
L 684 0 
L 684 794 
z
" transform="scale(0.015625)"/>
       </defs>
       <use xlink:href="#DejaVuSans-30"/>
       <use xlink:href="#DejaVuSans-2e" x="63.623047"/>
       <use xlink:href="#DejaVuSans-30" x="95.410156"/>
      </g>
     </g>
    </g>
    <g id="ytick_2">
     <g id="line2d_19">
      <path d="M 108 308.47947 
L 777.6 308.47947 
" clip-path="url(#pf6fad80bfd)" style="fill: none; stroke: #b0b0b0; stroke-width: 0.8; stroke-linecap: square"/>
     </g>
     <g id="line2d_20">
      <g>
       <use xlink:href="#m9eeec814f9" x="108" y="308.47947" style="stroke: #000000; stroke-width: 0.8"/>
      </g>
     </g>
     <g id="text_11">
      <!-- 0.2 -->
      <g transform="translate(85.096875 312.278689) scale(0.1 -0.1)">
       <use xlink:href="#DejaVuSans-30"/>
       <use xlink:href="#DejaVuSans-2e" x="63.623047"/>
       <use xlink:href="#DejaVuSans-32" x="95.410156"/>
      </g>
     </g>
    </g>
    <g id="ytick_3">
     <g id="line2d_21">
      <path d="M 108 247.59894 
L 777.6 247.59894 
" clip-path="url(#pf6fad80bfd)" style="fill: none; stroke: #b0b0b0; stroke-width: 0.8; stroke-linecap: square"/>
     </g>
     <g id="line2d_22">
      <g>
       <use xlink:href="#m9eeec814f9" x="108" y="247.59894" style="stroke: #000000; stroke-width: 0.8"/>
      </g>
     </g>
     <g id="text_12">
      <!-- 0.4 -->
      <g transform="translate(85.096875 251.398159) scale(0.1 -0.1)">
       <use xlink:href="#DejaVuSans-30"/>
       <use xlink:href="#DejaVuSans-2e" x="63.623047"/>
       <use xlink:href="#DejaVuSans-34" x="95.410156"/>
      </g>
     </g>
    </g>
    <g id="ytick_4">
     <g id="line2d_23">
      <path d="M 108 186.718411 
L 777.6 186.718411 
" clip-path="url(#pf6fad80bfd)" style="fill: none; stroke: #b0b0b0; stroke-width: 0.8; stroke-linecap: square"/>
     </g>
     <g id="line2d_24">
      <g>
       <use xlink:href="#m9eeec814f9" x="108" y="186.718411" style="stroke: #000000; stroke-width: 0.8"/>
      </g>
     </g>
     <g id="text_13">
      <!-- 0.6 -->
      <g transform="translate(85.096875 190.517629) scale(0.1 -0.1)">
       <use xlink:href="#DejaVuSans-30"/>
       <use xlink:href="#DejaVuSans-2e" x="63.623047"/>
       <use xlink:href="#DejaVuSans-36" x="95.410156"/>
      </g>
     </g>
    </g>
    <g id="ytick_5">
     <g id="line2d_25">
      <path d="M 108 125.837881 
L 777.6 125.837881 
" clip-path="url(#pf6fad80bfd)" style="fill: none; stroke: #b0b0b0; stroke-width: 0.8; stroke-linecap: square"/>
     </g>
     <g id="line2d_26">
      <g>
       <use xlink:href="#m9eeec814f9" x="108" y="125.837881" style="stroke: #000000; stroke-width: 0.8"/>
      </g>
     </g>
     <g id="text_14">
      <!-- 0.8 -->
      <g transform="translate(85.096875 129.6371) scale(0.1 -0.1)">
       <defs>
        <path id="DejaVuSans-38" d="M 2034 2216 
Q 1584 2216 1326 1975 
Q 1069 1734 1069 1313 
Q 1069 891 1326 650 
Q 1584 409 2034 409 
Q 2484 409 2743 651 
Q 3003 894 3003 1313 
Q 3003 1734 2745 1975 
Q 2488 2216 2034 2216 
z
M 1403 2484 
Q 997 2584 770 2862 
Q 544 3141 544 3541 
Q 544 4100 942 4425 
Q 1341 4750 2034 4750 
Q 2731 4750 3128 4425 
Q 3525 4100 3525 3541 
Q 3525 3141 3298 2862 
Q 3072 2584 2669 2484 
Q 3125 2378 3379 2068 
Q 3634 1759 3634 1313 
Q 3634 634 3220 271 
Q 2806 -91 2034 -91 
Q 1263 -91 848 271 
Q 434 634 434 1313 
Q 434 1759 690 2068 
Q 947 2378 1403 2484 
z
M 1172 3481 
Q 1172 3119 1398 2916 
Q 1625 2713 2034 2713 
Q 2441 2713 2670 2916 
Q 2900 3119 2900 3481 
Q 2900 3844 2670 4047 
Q 2441 4250 2034 4250 
Q 1625 4250 1398 4047 
Q 1172 3844 1172 3481 
z
" transform="scale(0.015625)"/>
       </defs>
       <use xlink:href="#DejaVuSans-30"/>
       <use xlink:href="#DejaVuSans-2e" x="63.623047"/>
       <use xlink:href="#DejaVuSans-38" x="95.410156"/>
      </g>
     </g>
    </g>
    <g id="ytick_6">
     <g id="line2d_27">
      <path d="M 108 64.957351 
L 777.6 64.957351 
" clip-path="url(#pf6fad80bfd)" style="fill: none; stroke: #b0b0b0; stroke-width: 0.8; stroke-linecap: square"/>
     </g>
     <g id="line2d_28">
      <g>
       <use xlink:href="#m9eeec814f9" x="108" y="64.957351" style="stroke: #000000; stroke-width: 0.8"/>
      </g>
     </g>
     <g id="text_15">
      <!-- 1.0 -->
      <g transform="translate(85.096875 68.75657) scale(0.1 -0.1)">
       <use xlink:href="#DejaVuSans-31"/>
       <use xlink:href="#DejaVuSans-2e" x="63.623047"/>
       <use xlink:href="#DejaVuSans-30" x="95.410156"/>
      </g>
     </g>
    </g>
    <g id="text_16">
     <!-- Probability -->
     <g transform="translate(79.017187 244.588906) rotate(-90) scale(0.1 -0.1)">
      <defs>
       <path id="DejaVuSans-50" d="M 1259 4147 
L 1259 2394 
L 2053 2394 
Q 2494 2394 2734 2622 
Q 2975 2850 2975 3272 
Q 2975 3691 2734 3919 
Q 2494 4147 2053 4147 
L 1259 4147 
z
M 628 4666 
L 2053 4666 
Q 2838 4666 3239 4311 
Q 3641 3956 3641 3272 
Q 3641 2581 3239 2228 
Q 2838 1875 2053 1875 
L 1259 1875 
L 1259 0 
L 628 0 
L 628 4666 
z
" transform="scale(0.015625)"/>
       <path id="DejaVuSans-72" d="M 2631 2963 
Q 2534 3019 2420 3045 
Q 2306 3072 2169 3072 
Q 1681 3072 1420 2755 
Q 1159 2438 1159 1844 
L 1159 0 
L 581 0 
L 581 3500 
L 1159 3500 
L 1159 2956 
Q 1341 3275 1631 3429 
Q 1922 3584 2338 3584 
Q 2397 3584 2469 3576 
Q 2541 3569 2628 3553 
L 2631 2963 
z
" transform="scale(0.015625)"/>
       <path id="DejaVuSans-6f" d="M 1959 3097 
Q 1497 3097 1228 2736 
Q 959 2375 959 1747 
Q 959 1119 1226 758 
Q 1494 397 1959 397 
Q 2419 397 2687 759 
Q 2956 1122 2956 1747 
Q 2956 2369 2687 2733 
Q 2419 3097 1959 3097 
z
M 1959 3584 
Q 2709 3584 3137 3096 
Q 3566 2609 3566 1747 
Q 3566 888 3137 398 
Q 2709 -91 1959 -91 
Q 1206 -91 779 398 
Q 353 888 353 1747 
Q 353 2609 779 3096 
Q 1206 3584 1959 3584 
z
" transform="scale(0.015625)"/>
       <path id="DejaVuSans-62" d="M 3116 1747 
Q 3116 2381 2855 2742 
Q 2594 3103 2138 3103 
Q 1681 3103 1420 2742 
Q 1159 2381 1159 1747 
Q 1159 1113 1420 752 
Q 1681 391 2138 391 
Q 2594 391 2855 752 
Q 3116 1113 3116 1747 
z
M 1159 2969 
Q 1341 3281 1617 3432 
Q 1894 3584 2278 3584 
Q 2916 3584 3314 3078 
Q 3713 2572 3713 1747 
Q 3713 922 3314 415 
Q 2916 -91 2278 -91 
Q 1894 -91 1617 61 
Q 1341 213 1159 525 
L 1159 0 
L 581 0 
L 581 4863 
L 1159 4863 
L 1159 2969 
z
" transform="scale(0.015625)"/>
       <path id="DejaVuSans-61" d="M 2194 1759 
Q 1497 1759 1228 1600 
Q 959 1441 959 1056 
Q 959 750 1161 570 
Q 1363 391 1709 391 
Q 2188 391 2477 730 
Q 2766 1069 2766 1631 
L 2766 1759 
L 2194 1759 
z
M 3341 1997 
L 3341 0 
L 2766 0 
L 2766 531 
Q 2569 213 2275 61 
Q 1981 -91 1556 -91 
Q 1019 -91 701 211 
Q 384 513 384 1019 
Q 384 1609 779 1909 
Q 1175 2209 1959 2209 
L 2766 2209 
L 2766 2266 
Q 2766 2663 2505 2880 
Q 2244 3097 1772 3097 
Q 1472 3097 1187 3025 
Q 903 2953 641 2809 
L 641 3341 
Q 956 3463 1253 3523 
Q 1550 3584 1831 3584 
Q 2591 3584 2966 3190 
Q 3341 2797 3341 1997 
z
" transform="scale(0.015625)"/>
       <path id="DejaVuSans-6c" d="M 603 4863 
L 1178 4863 
L 1178 0 
L 603 0 
L 603 4863 
z
" transform="scale(0.015625)"/>
       <path id="DejaVuSans-74" d="M 1172 4494 
L 1172 3500 
L 2356 3500 
L 2356 3053 
L 1172 3053 
L 1172 1153 
Q 1172 725 1289 603 
Q 1406 481 1766 481 
L 2356 481 
L 2356 0 
L 1766 0 
Q 1100 0 847 248 
Q 594 497 594 1153 
L 594 3053 
L 172 3053 
L 172 3500 
L 594 3500 
L 594 4494 
L 1172 4494 
z
" transform="scale(0.015625)"/>
       <path id="DejaVuSans-79" d="M 2059 -325 
Q 1816 -950 1584 -1140 
Q 1353 -1331 966 -1331 
L 506 -1331 
L 506 -850 
L 844 -850 
Q 1081 -850 1212 -737 
Q 1344 -625 1503 -206 
L 1606 56 
L 191 3500 
L 800 3500 
L 1894 763 
L 2988 3500 
L 3597 3500 
L 2059 -325 
z
" transform="scale(0.015625)"/>
      </defs>
      <use xlink:href="#DejaVuSans-50"/>
      <use xlink:href="#DejaVuSans-72" x="58.552734"/>
      <use xlink:href="#DejaVuSans-6f" x="97.416016"/>
      <use xlink:href="#DejaVuSans-62" x="158.597656"/>
      <use xlink:href="#DejaVuSans-61" x="222.074219"/>
      <use xlink:href="#DejaVuSans-62" x="283.353516"/>
      <use xlink:href="#DejaVuSans-69" x="346.830078"/>
      <use xlink:href="#DejaVuSans-6c" x="374.613281"/>
      <use xlink:href="#DejaVuSans-69" x="402.396484"/>
      <use xlink:href="#DejaVuSans-74" x="430.179688"/>
      <use xlink:href="#DejaVuSans-79" x="469.388672"/>
     </g>
    </g>
   </g>
   <g id="line2d_29">
    <path d="M 138.436364 66.96 
L 138.561679 117.026225 
L 138.901076 143.060662 
L 139.027262 147.06596 
L 139.291818 149.068609 
L 139.388415 153.073907 
L 139.871403 155.076556 
L 140.238648 157.079205 
L 140.365704 161.084503 
L 141.101934 167.09245 
L 141.139354 171.097748 
L 141.337771 173.100397 
L 141.371711 175.103046 
L 141.664984 179.108344 
L 141.822499 187.11894 
L 142.662289 189.121589 
L 142.867667 191.124238 
L 144.077312 193.126887 
L 144.730869 195.129536 
L 144.960614 201.137483 
L 145.695104 203.140132 
L 145.946605 205.142781 
L 146.060608 207.14543 
L 146.812502 209.148079 
L 146.864717 211.150728 
L 147.392958 213.153377 
L 149.361459 215.156026 
L 149.923639 217.158675 
L 151.542301 219.161325 
L 152.314211 223.166623 
L 153.985087 227.171921 
L 154.949322 229.17457 
L 155.374874 231.177219 
L 155.933573 233.179868 
L 156.093699 237.185166 
L 158.185775 239.187815 
L 160.984493 241.190464 
L 163.212329 243.193113 
L 163.375935 245.195762 
L 165.642062 247.198411 
L 168.369419 249.20106 
L 169.531201 251.203709 
L 171.657217 253.206358 
L 171.858244 255.209007 
L 173.108791 257.211656 
L 173.346368 259.214305 
L 173.446447 261.216954 
L 175.218272 263.219603 
L 177.601882 265.222252 
L 177.802039 267.224901 
L 178.290248 269.22755 
L 178.43819 271.230199 
L 178.465168 273.232848 
L 179.527741 275.235497 
L 180.731294 277.238146 
L 180.916657 279.240795 
L 181.410088 281.243444 
L 182.654543 283.246093 
L 187.856886 285.248742 
L 189.603474 287.251391 
L 193.174973 289.25404 
L 196.078121 291.256689 
L 196.513245 293.259338 
L 199.452943 295.261987 
L 201.498026 297.264636 
L 204.006952 299.267285 
L 205.281865 301.269934 
L 205.33582 303.272583 
L 206.752584 305.275232 
L 207.217297 307.277881 
L 208.324253 309.28053 
L 209.060483 313.285828 
L 211.841796 315.288477 
L 214.114884 319.293775 
L 217.196433 321.296424 
L 219.942936 323.299073 
L 220.074343 325.301722 
L 225.298443 327.304371 
L 233.667619 329.30702 
L 259.185906 331.309669 
L 276.235808 335.314967 
L 281.237124 337.317616 
L 284.592801 339.320265 
L 293.457149 341.322914 
L 300.397378 343.325563 
L 304.217767 345.328212 
L 305.6998 347.330861 
L 308.175656 349.33351 
L 309.126837 351.336159 
L 314.961851 353.338808 
L 327.939862 355.341457 
L 349.575101 357.344106 
L 353.435522 359.346755 
L 421.665588 361.349404 
L 423.010122 363.352053 
L 425.030838 365.354702 
L 456.164836 367.357351 
L 467.782649 369.36 
L 467.782649 369.36 
" clip-path="url(#pf6fad80bfd)" style="fill: none; stroke: #1f77b4; stroke-width: 1.5; stroke-linecap: square"/>
   </g>
   <g id="line2d_30">
    <path d="M 138.438104 67.179268 
L 138.505113 107.173777 
L 138.569512 113.839528 
L 138.66872 124.949114 
L 138.858434 136.0587 
L 139.015949 138.280617 
L 139.052499 140.502534 
L 139.217846 142.724451 
L 139.243084 144.946368 
L 139.516342 147.168285 
L 139.590313 149.390203 
L 140.207319 151.61212 
L 140.390071 156.055954 
L 141.182867 158.277871 
L 141.337771 160.499788 
L 141.367359 162.721705 
L 141.697183 164.943623 
L 141.726772 167.16554 
L 142.151453 171.609374 
L 142.950341 176.053208 
L 144.093847 178.275125 
L 144.722166 180.497043 
L 144.73522 182.71896 
L 144.950171 184.940877 
L 145.333951 187.162794 
L 145.679439 191.606628 
L 146.10499 196.050463 
L 146.907359 198.27238 
L 147.36685 200.494297 
L 154.938009 207.160048 
L 155.99188 209.381965 
L 156.092828 211.603883 
L 157.426049 213.8258 
L 158.1675 216.047717 
L 160.390984 220.491551 
L 160.876583 222.713468 
L 161.067167 227.157303 
L 163.189702 229.37922 
L 165.650764 231.601137 
L 168.410321 233.823054 
L 169.532071 236.044971 
L 170.974942 238.266888 
L 171.639812 240.488806 
L 171.664179 242.710723 
L 171.901757 244.93264 
L 173.366384 247.154557 
L 173.967726 249.376474 
L 175.178241 251.598391 
L 177.599271 253.820308 
L 178.311134 256.042226 
L 178.451244 258.264143 
L 178.473871 260.48606 
L 180.50416 264.929894 
L 180.835724 269.373728 
L 182.603198 271.595646 
L 187.373899 273.817563 
L 189.55213 276.03948 
L 196.49584 278.261397 
L 198.071859 280.483314 
L 198.480876 282.705231 
L 199.448592 284.927148 
L 201.343992 287.149066 
L 201.498026 289.370983 
L 203.999119 293.814817 
L 205.272292 296.036734 
L 205.323637 298.258651 
L 207.196411 300.480568 
L 208.279 302.702486 
L 209.031764 304.924403 
L 210.821865 307.14632 
L 212.959194 311.590154 
L 215.307124 313.812071 
L 217.181638 316.033988 
L 219.925531 318.255906 
L 220.076954 320.477823 
L 220.87062 322.69974 
L 225.231434 324.921657 
L 233.647604 327.143574 
L 245.822375 329.365491 
L 270.305067 331.587409 
L 273.883527 333.809326 
L 276.254954 336.031243 
L 280.002242 338.25316 
L 281.197093 340.475077 
L 284.773813 342.696994 
L 305.606683 344.918911 
L 307.703111 347.140829 
L 308.159991 349.362746 
L 308.794402 351.584663 
L 314.939225 353.80658 
L 345.574571 356.028497 
L 349.352318 358.250414 
L 421.675161 360.472331 
L 422.970961 362.694249 
L 425.015174 364.916166 
L 456.187463 367.138083 
L 609.00565 369.36 
L 609.00565 369.36 
" clip-path="url(#pf6fad80bfd)" style="fill: none; stroke: #ff7f0e; stroke-width: 1.5; stroke-linecap: square"/>
   </g>
   <g id="line2d_31">
    <path d="M 138.437234 67.724648 
L 138.440715 70.491945 
L 138.443326 73.259241 
L 138.443326 76.026538 
L 138.443326 78.793835 
L 138.444196 81.561132 
L 138.444196 84.328429 
L 138.445066 87.095725 
L 138.445066 89.863022 
L 138.45812 92.630319 
L 138.463341 95.397616 
L 138.463341 98.164913 
L 138.473784 100.93221 
L 138.479876 103.699506 
L 138.482487 106.466803 
L 138.560809 109.2341 
L 138.63565 112.001397 
L 138.673941 114.768694 
L 138.680903 117.53599 
L 138.689606 120.303287 
L 138.762707 123.070584 
L 138.771409 125.837881 
L 138.77489 128.605178 
L 139.005506 131.372474 
L 139.056851 134.139771 
L 139.906213 136.907068 
L 140.279549 139.674365 
L 140.373536 142.441662 
L 140.567601 145.208958 
L 140.728597 147.976255 
L 140.908739 150.743552 
L 141.172424 153.510849 
L 141.354306 156.278146 
L 141.710237 159.045443 
L 141.717199 161.812739 
L 144.719555 164.580036 
L 144.758716 167.347333 
L 144.957133 170.11463 
L 145.951827 172.881927 
L 146.044073 175.649223 
L 146.540985 178.41652 
L 146.882122 181.183817 
L 147.362499 183.951114 
L 147.8568 186.718411 
L 149.894921 189.485707 
L 150.850454 192.253004 
L 152.3116 195.020301 
L 153.066105 197.787598 
L 154.55336 200.554895 
L 155.987528 203.322191 
L 158.176203 206.089488 
L 159.441543 208.856785 
L 160.941851 211.624082 
L 163.174038 214.391379 
L 165.650764 217.158675 
L 168.088329 219.925972 
L 168.319815 222.693269 
L 171.63198 225.460566 
L 171.837358 228.227863 
L 174.882356 230.99516 
L 175.220883 233.762456 
L 175.967556 236.529753 
L 177.587958 239.29705 
L 178.106626 242.064347 
L 178.113588 244.831644 
L 178.305042 247.59894 
L 178.443412 250.366237 
L 178.468649 253.133534 
L 179.500763 255.900831 
L 179.90804 258.668128 
L 180.495457 261.435424 
L 180.89316 264.202721 
L 183.986893 266.970018 
L 198.061416 269.737315 
L 198.091005 272.504612 
L 198.473044 275.271908 
L 199.44163 278.039205 
L 203.960828 280.806502 
L 205.307973 283.573799 
L 207.19119 286.341096 
L 208.31642 289.108393 
L 209.024802 291.875689 
L 211.935782 294.642986 
L 212.55975 297.410283 
L 215.584733 300.17758 
L 219.917699 302.944877 
L 220.070862 305.712173 
L 221.958431 308.47947 
L 225.281908 311.246767 
L 232.271741 314.014064 
L 258.514945 316.781361 
L 270.251982 319.548657 
L 270.775001 322.315954 
L 278.615937 325.083251 
L 281.114419 327.850548 
L 301.453859 330.617845 
L 305.646715 333.385141 
L 307.703111 336.152438 
L 308.150419 338.919735 
L 314.931392 341.687032 
L 349.546383 344.454329 
L 350.874382 347.221626 
L 355.518896 349.988922 
L 382.769847 352.756219 
L 422.997938 355.523516 
L 422.998809 358.290813 
L 425.00386 361.05811 
L 453.286925 363.825406 
L 456.192684 366.592703 
L 704.898294 369.36 
" clip-path="url(#pf6fad80bfd)" style="fill: none; stroke: #2ca02c; stroke-width: 1.5; stroke-linecap: square"/>
   </g>
   <g id="line2d_32">
    <path d="M 138.436364 67.65118 
L 138.437234 70.345008 
L 138.438974 73.038837 
L 138.439845 75.732666 
L 138.442455 78.426495 
L 138.442455 81.120324 
L 138.445936 83.814152 
L 138.446807 86.507981 
L 138.448547 89.20181 
L 138.455509 91.895639 
L 138.455509 94.589467 
L 138.466822 97.283296 
L 138.471174 99.977125 
L 138.479876 102.670954 
L 138.489449 105.364782 
L 138.508594 108.058611 
L 138.546015 110.75244 
L 138.548626 113.446269 
L 138.566031 116.140097 
L 138.67046 118.833926 
L 138.680903 121.527755 
L 138.691346 124.221584 
L 138.743561 126.915412 
L 138.747042 129.609241 
L 138.787944 132.30307 
L 138.941978 134.996899 
L 138.989841 137.690727 
L 139.619031 140.384556 
L 139.913175 143.078385 
L 140.280419 145.772214 
L 140.373536 148.466042 
L 140.573693 151.159871 
L 140.720765 153.8537 
L 141.136744 156.547529 
L 141.366489 159.241357 
L 141.71981 161.935186 
L 141.744177 164.629015 
L 142.896385 167.322844 
L 144.642973 170.016672 
L 144.764808 172.710501 
L 144.948431 175.40433 
L 145.937903 178.098159 
L 146.075402 180.791987 
L 146.445257 183.485816 
L 146.568833 186.179645 
L 146.881252 188.873474 
L 147.017881 191.567302 
L 147.387736 194.261131 
L 147.861151 196.95496 
L 149.899272 199.648789 
L 150.798239 202.342617 
L 151.764214 205.036446 
L 153.091343 207.730275 
L 154.606445 210.424104 
L 155.968383 213.117932 
L 158.16837 215.811761 
L 159.46591 218.50559 
L 160.97318 221.199419 
L 163.188832 223.893247 
L 165.628138 226.587076 
L 168.118788 229.280905 
L 168.376381 231.974734 
L 171.411807 234.668562 
L 171.665919 237.362391 
L 171.859114 240.05622 
L 172.469158 242.750049 
L 174.888448 245.443877 
L 175.181722 248.137706 
L 177.593179 250.831535 
L 178.103145 253.525364 
L 178.303302 256.219192 
L 178.428618 258.913021 
L 179.412868 261.60685 
L 180.481533 264.300679 
L 180.840075 266.994507 
L 183.980801 269.688336 
L 198.115372 272.382165 
L 198.121463 275.075994 
L 198.473044 277.769822 
L 199.436408 280.463651 
L 203.93124 283.15748 
L 205.310583 285.851309 
L 207.061523 288.545137 
L 207.207724 291.238966 
L 209.056131 293.932795 
L 211.840055 296.626624 
L 212.554529 299.320452 
L 215.654353 302.014281 
L 219.932493 304.70811 
L 220.069992 307.401939 
L 220.812314 310.095767 
L 221.970614 312.789596 
L 225.241007 315.483425 
L 232.270871 318.177254 
L 261.610418 320.871082 
L 270.776741 323.564911 
L 278.616807 326.25874 
L 281.030875 328.952569 
L 305.62844 331.646397 
L 307.62827 334.340226 
L 308.163472 337.034055 
L 314.954889 339.727884 
L 349.371463 342.421712 
L 350.858717 345.115541 
L 355.511934 347.80937 
L 382.777679 350.503199 
L 421.662107 353.197027 
L 422.989236 355.890856 
L 422.990976 358.584685 
L 425.014303 361.278514 
L 453.252986 363.972342 
L 456.182241 366.666171 
L 704.944417 369.36 
" clip-path="url(#pf6fad80bfd)" style="fill: none; stroke: #d62728; stroke-width: 1.5; stroke-linecap: square"/>
   </g>
   <g id="line2d_33">
    <path d="M 138.436364 67.675232 
L 138.438104 70.393113 
L 138.438974 73.110993 
L 138.444196 75.828874 
L 138.448547 78.546755 
L 138.462471 81.264636 
L 138.465082 83.982517 
L 138.470303 86.700397 
L 138.486838 89.418278 
L 138.49293 92.136159 
L 138.538183 94.85404 
L 138.543404 97.571921 
L 138.573863 100.289801 
L 138.680903 103.007682 
L 138.680903 105.725563 
L 138.693087 108.443444 
L 138.760096 111.161325 
L 138.803608 113.879205 
L 138.834937 116.597086 
L 138.989841 119.314967 
L 138.998544 122.032848 
L 139.282245 124.750728 
L 139.623382 127.468609 
L 139.639047 130.18649 
L 139.904472 132.904371 
L 140.174249 135.622252 
L 140.28303 138.340132 
L 140.378758 141.058013 
L 140.504073 143.775894 
L 140.564991 146.493775 
L 140.725987 149.211656 
L 141.136744 151.929536 
L 141.346473 154.647417 
L 141.680649 157.365298 
L 141.717199 160.083179 
L 141.89647 162.80106 
L 142.52566 165.51894 
L 142.918142 168.236821 
L 144.70128 170.954702 
L 144.743922 173.672583 
L 144.956263 176.390464 
L 145.950956 179.108344 
L 146.484419 181.826225 
L 146.529671 184.544106 
L 147.357277 187.261987 
L 149.873165 189.979868 
L 150.834789 192.697748 
L 152.383831 195.415629 
L 153.055662 198.13351 
L 153.884139 200.851391 
L 154.541176 203.569272 
L 156.050186 206.287152 
L 158.153576 209.005033 
L 159.4311 211.722914 
L 160.954905 214.440795 
L 163.152282 217.158675 
L 165.63684 219.876556 
L 167.455659 222.594437 
L 168.077016 225.312318 
L 169.28492 228.030199 
L 171.644163 230.748079 
L 171.820823 233.46596 
L 174.882356 236.183841 
L 175.21044 238.901722 
L 177.592309 241.619603 
L 178.029174 244.337483 
L 178.097923 247.055364 
L 178.287637 249.773245 
L 178.432099 252.491126 
L 178.463428 255.209007 
L 179.444197 257.926887 
L 180.234383 260.644768 
L 180.484144 263.362649 
L 180.630346 266.08053 
L 183.986893 268.798411 
L 186.897003 271.516291 
L 198.048362 274.234172 
L 198.086653 276.952053 
L 199.434668 279.669934 
L 203.951256 282.387815 
L 205.286216 285.105695 
L 207.197281 287.823576 
L 209.013489 290.541457 
L 211.916637 293.259338 
L 212.565842 295.977219 
L 215.582993 298.695099 
L 219.92379 301.41298 
L 220.06129 304.130861 
L 221.958431 306.848742 
L 225.237526 309.566623 
L 227.794315 312.284503 
L 232.285665 315.002384 
L 270.252852 317.720265 
L 270.768039 320.438146 
L 278.642914 323.156026 
L 281.032616 325.873907 
L 290.114526 328.591788 
L 307.690928 331.309669 
L 308.135625 334.02755 
L 314.918339 336.74543 
L 349.330562 339.463311 
L 350.862198 342.181192 
L 355.510194 344.899073 
L 375.095999 347.616954 
L 382.823802 350.334834 
L 421.645573 353.052715 
L 422.96922 355.770596 
L 423.009252 358.488477 
L 424.987326 361.206358 
L 453.278223 363.924238 
L 456.192684 366.642119 
L 468.165558 369.36 
" clip-path="url(#pf6fad80bfd)" style="fill: none; stroke: #9467bd; stroke-width: 1.5; stroke-linecap: square"/>
   </g>
   <g id="line2d_34">
    <path d="M 138.436364 67.515356 
L 138.439845 70.073362 
L 138.444196 72.631367 
L 138.445066 75.189373 
L 138.448547 77.747378 
L 138.448547 80.305384 
L 138.452898 82.863389 
L 138.452898 85.421395 
L 138.453769 87.9794 
L 138.454639 90.537406 
L 138.454639 93.095411 
L 138.45725 95.653416 
L 138.45812 98.211422 
L 138.45812 100.769427 
L 138.45986 103.327433 
L 138.45986 105.885438 
L 138.461601 108.443444 
L 138.463341 111.001449 
L 138.463341 113.559455 
L 138.465082 116.11746 
L 138.466822 118.675466 
L 138.467693 121.233471 
L 138.467693 123.791476 
L 138.468563 126.349482 
L 138.470303 128.907487 
L 138.476395 131.465493 
L 138.479006 134.023498 
L 138.484227 136.581504 
L 138.484227 139.139509 
L 138.486838 141.697515 
L 138.489449 144.25552 
L 138.49206 146.813526 
L 138.497281 149.371531 
L 138.569512 151.929536 
L 138.579955 154.487542 
L 138.581695 157.045547 
L 138.585176 159.603553 
L 138.59997 162.161558 
L 138.806219 164.719564 
L 139.032484 167.277569 
L 139.046408 169.835575 
L 140.225594 172.39358 
L 140.685085 174.951586 
L 141.134133 177.509591 
L 141.19418 180.067596 
L 141.363878 182.625602 
L 141.671946 185.183607 
L 141.705886 187.741613 
L 141.977403 190.299618 
L 142.229775 192.857624 
L 142.543065 195.415629 
L 143.549942 197.973635 
L 144.389731 200.53164 
L 144.753495 203.089646 
L 144.789175 205.647651 
L 144.963225 208.205656 
L 144.997164 210.763662 
L 145.483633 213.321667 
L 145.960529 215.879673 
L 149.102125 218.437678 
L 149.937563 220.995684 
L 151.64586 223.553689 
L 152.314211 226.111695 
L 153.2915 228.6697 
L 155.786501 231.227705 
L 155.999712 233.785711 
L 160.934889 236.343716 
L 161.544063 238.901722 
L 163.093105 241.459727 
L 165.716033 244.017733 
L 169.195285 246.575738 
L 171.654606 249.133744 
L 175.397543 251.691749 
L 175.535043 254.249755 
L 177.527911 256.80776 
L 177.597531 259.365765 
L 178.338112 261.923771 
L 178.451244 264.481776 
L 178.497367 267.039782 
L 179.464213 269.597787 
L 179.531222 272.155793 
L 180.530267 274.713798 
L 180.627735 277.271804 
L 180.867923 279.829809 
L 181.482318 282.387815 
L 191.752987 284.94582 
L 192.276877 287.503825 
L 196.152962 290.061831 
L 196.889192 292.619836 
L 198.18151 295.177842 
L 198.35382 297.735847 
L 203.996509 300.293853 
L 205.354966 302.851858 
L 209.029154 305.409864 
L 210.452009 307.967869 
L 211.860071 310.525875 
L 215.734416 313.08388 
L 219.929012 315.641885 
L 220.101321 318.199891 
L 227.365282 320.757896 
L 276.03217 323.315902 
L 281.018692 325.873907 
L 281.060464 328.431913 
L 290.460014 330.989918 
L 298.216536 333.547924 
L 305.607554 336.105929 
L 308.177396 338.663935 
L 309.150334 341.22194 
L 332.73841 343.779945 
L 342.437326 346.337951 
L 350.906581 348.895956 
L 360.192999 351.453962 
L 376.04718 354.011967 
L 421.677772 356.569973 
L 421.690826 359.127978 
L 425.012563 361.685984 
L 608.138012 364.243989 
L 694.71465 366.801995 
L 747.163636 369.36 
" clip-path="url(#pf6fad80bfd)" style="fill: none; stroke: #8c564b; stroke-width: 1.5; stroke-linecap: square"/>
   </g>
   <g id="line2d_35">
    <path d="M 138.438104 67.537034 
L 138.438104 70.116718 
L 138.438104 72.696401 
L 138.438974 75.276085 
L 138.438974 77.855768 
L 138.439845 80.435452 
L 138.439845 83.015135 
L 138.441585 85.594819 
L 138.446807 88.174502 
L 138.446807 90.754186 
L 138.446807 93.333869 
L 138.448547 95.913553 
L 138.448547 98.493236 
L 138.448547 101.07292 
L 138.451158 103.652603 
L 138.451158 106.232286 
L 138.452898 108.81197 
L 138.452898 111.391653 
L 138.453769 113.971337 
L 138.455509 116.55102 
L 138.45986 119.130704 
L 138.462471 121.710387 
L 138.463341 124.290071 
L 138.472914 126.869754 
L 138.474655 129.449438 
L 138.478136 132.029121 
L 138.482487 134.608805 
L 138.483357 137.188488 
L 138.49293 139.768172 
L 138.4938 142.347855 
L 138.541664 144.927538 
L 138.542534 147.507222 
L 138.566031 150.086905 
L 138.568641 152.666589 
L 138.578214 155.246272 
L 138.583436 157.825956 
L 138.5991 160.405639 
L 138.603451 162.985323 
L 138.604322 165.565006 
L 138.795776 168.14469 
L 138.961994 170.724373 
L 139.01943 173.304057 
L 139.045537 175.88374 
L 140.752964 178.463424 
L 141.182867 181.043107 
L 141.183737 183.62279 
L 141.356916 186.202474 
L 141.664984 188.782157 
L 141.726772 191.361841 
L 141.972182 193.941524 
L 142.217592 196.521208 
L 142.535232 199.100891 
L 143.536888 201.680575 
L 144.468054 204.260258 
L 144.70041 206.839942 
L 144.740441 209.419625 
L 144.956263 211.999309 
L 145.048509 214.578992 
L 145.959659 217.158675 
L 149.171745 219.738359 
L 149.916677 222.318042 
L 151.720702 224.897726 
L 152.395144 227.477409 
L 153.281057 230.057093 
L 156.011025 232.636776 
L 160.956645 235.21646 
L 161.531009 237.796143 
L 163.080051 240.375827 
L 163.203626 242.95551 
L 165.681223 245.535194 
L 169.176139 248.114877 
L 171.641552 250.694561 
L 175.38623 253.274244 
L 177.504414 255.853927 
L 177.590569 258.433611 
L 177.66454 261.013294 
L 178.329409 263.592978 
L 178.449504 266.172661 
L 179.45203 268.752345 
L 179.478137 271.332028 
L 180.533748 273.911712 
L 180.826151 276.491395 
L 181.595451 279.071079 
L 191.752117 281.650762 
L 192.273396 284.230446 
L 196.138168 286.810129 
L 198.036179 289.389813 
L 198.380797 291.969496 
L 203.989547 294.549179 
L 205.336691 297.128863 
L 209.01784 299.708546 
L 210.443307 302.28823 
L 211.852239 304.867913 
L 215.590825 307.447597 
L 219.935104 310.02728 
L 220.09871 312.606964 
L 220.76358 315.186647 
L 227.306105 317.766331 
L 239.153664 320.346014 
L 276.037392 322.925698 
L 280.991714 325.505381 
L 281.063945 328.085065 
L 290.460014 330.664748 
L 305.607554 333.244431 
L 308.163472 335.824115 
L 309.13728 338.403798 
L 324.168206 340.983482 
L 332.792366 343.563165 
L 333.645209 346.142849 
L 349.340134 348.722532 
L 350.887436 351.302216 
L 356.738984 353.881899 
L 376.032386 356.461583 
L 421.675161 359.041266 
L 421.683864 361.62095 
L 608.100592 364.200633 
L 694.696375 366.780317 
L 747.147972 369.36 
" clip-path="url(#pf6fad80bfd)" style="fill: none; stroke: #e377c2; stroke-width: 1.5; stroke-linecap: square"/>
   </g>
   <g id="line2d_36">
    <path d="M 138.436364 67.775894 
L 138.437234 70.594437 
L 138.437234 73.41298 
L 138.439845 76.231523 
L 138.440715 79.050066 
L 138.440715 81.868609 
L 138.440715 84.687152 
L 138.440715 87.505695 
L 138.441585 90.324238 
L 138.447677 93.142781 
L 138.448547 95.961325 
L 138.451158 98.779868 
L 138.452028 101.598411 
L 138.456379 104.416954 
L 138.45986 107.235497 
L 138.461601 110.05404 
L 138.463341 112.872583 
L 138.465082 115.691126 
L 138.465952 118.509669 
L 138.473784 121.328212 
L 138.477265 124.146755 
L 138.483357 126.965298 
L 138.483357 129.783841 
L 138.484227 132.602384 
L 138.485968 135.420927 
L 138.486838 138.23947 
L 138.487708 141.058013 
L 138.489449 143.876556 
L 138.559069 146.695099 
L 138.573863 149.513642 
L 138.593879 152.332185 
L 138.802738 155.150728 
L 139.014208 157.969272 
L 139.737385 160.787815 
L 140.300435 163.606358 
L 140.398773 166.424901 
L 140.718154 169.243444 
L 141.141965 172.061987 
L 141.353435 174.88053 
L 141.678038 177.699073 
L 141.728512 180.517616 
L 141.89647 183.336159 
L 142.52566 186.154702 
L 142.533492 188.973245 
L 142.84243 191.791788 
L 144.703021 194.610331 
L 144.73435 197.428874 
L 144.951041 200.247417 
L 145.946605 203.06596 
L 147.374682 205.884503 
L 149.907975 208.703046 
L 150.931387 211.521589 
L 152.349021 214.340132 
L 154.708264 217.158675 
L 155.649002 219.977219 
L 156.005804 222.795762 
L 158.190127 225.614305 
L 158.539096 228.432848 
L 160.941851 231.251391 
L 163.184481 234.069934 
L 165.669039 236.888477 
L 167.594898 239.70702 
L 171.636331 242.525563 
L 171.825175 245.344106 
L 177.591439 248.162649 
L 178.320707 250.981192 
L 178.443412 253.799735 
L 179.469434 256.618278 
L 180.518084 259.436821 
L 180.863572 262.255364 
L 190.011621 265.073907 
L 196.119022 267.89245 
L 198.148441 270.710993 
L 199.461645 273.529536 
L 199.924617 276.348079 
L 203.982585 279.166623 
L 205.327118 281.985166 
L 207.194671 284.803709 
L 208.342528 287.622252 
L 209.019581 290.440795 
L 211.96189 293.259338 
L 215.603878 296.077881 
L 219.917699 298.896424 
L 220.089137 301.714967 
L 220.741824 304.53351 
L 220.899339 307.352053 
L 221.984538 310.170596 
L 225.240136 312.989139 
L 233.626718 315.807682 
L 242.536318 318.626225 
L 268.224304 321.444768 
L 270.817643 324.263311 
L 281.057853 327.081854 
L 305.607554 329.900397 
L 307.669172 332.71894 
L 308.157381 335.537483 
L 314.929652 338.356026 
L 348.101771 341.17457 
L 349.544643 343.993113 
L 350.891787 346.811656 
L 382.769847 349.630199 
L 421.664718 352.448742 
L 423.010992 355.267285 
L 425.011693 358.085828 
L 426.696493 360.904371 
L 456.188333 363.722914 
L 695.498744 366.541457 
L 731.740228 369.36 
" clip-path="url(#pf6fad80bfd)" style="fill: none; stroke: #7f7f7f; stroke-width: 1.5; stroke-linecap: square"/>
   </g>
   <g id="patch_3">
    <path d="M 108 384.48 
L 108 51.84 
" style="fill: none; stroke: #000000; stroke-width: 0.8; stroke-linejoin: miter; stroke-linecap: square"/>
   </g>
   <g id="patch_4">
    <path d="M 777.6 384.48 
L 777.6 51.84 
" style="fill: none; stroke: #000000; stroke-width: 0.8; stroke-linejoin: miter; stroke-linecap: square"/>
   </g>
   <g id="patch_5">
    <path d="M 108 384.48 
L 777.6 384.48 
" style="fill: none; stroke: #000000; stroke-width: 0.8; stroke-linejoin: miter; stroke-linecap: square"/>
   </g>
   <g id="patch_6">
    <path d="M 108 51.84 
L 777.6 51.84 
" style="fill: none; stroke: #000000; stroke-width: 0.8; stroke-linejoin: miter; stroke-linecap: square"/>
   </g>
   <g id="legend_1">
    <g id="patch_7">
     <path d="M 617.232813 177.265 
L 770.6 177.265 
Q 772.6 177.265 772.6 175.265 
L 772.6 58.84 
Q 772.6 56.84 770.6 56.84 
L 617.232813 56.84 
Q 615.232813 56.84 615.232813 58.84 
L 615.232813 175.265 
Q 615.232813 177.265 617.232813 177.265 
z
" style="fill: #ffffff; opacity: 0.8; stroke: #cccccc; stroke-linejoin: miter"/>
    </g>
    <g id="line2d_37">
     <path d="M 619.232813 64.938437 
L 629.232813 64.938437 
L 639.232813 64.938437 
" style="fill: none; stroke: #1f77b4; stroke-width: 1.5; stroke-linecap: square"/>
    </g>
    <g id="text_17">
     <!-- Empirical Reliability R63 -->
     <g transform="translate(647.232813 68.438437) scale(0.1 -0.1)">
      <defs>
       <path id="DejaVuSans-45" d="M 628 4666 
L 3578 4666 
L 3578 4134 
L 1259 4134 
L 1259 2753 
L 3481 2753 
L 3481 2222 
L 1259 2222 
L 1259 531 
L 3634 531 
L 3634 0 
L 628 0 
L 628 4666 
z
" transform="scale(0.015625)"/>
       <path id="DejaVuSans-70" d="M 1159 525 
L 1159 -1331 
L 581 -1331 
L 581 3500 
L 1159 3500 
L 1159 2969 
Q 1341 3281 1617 3432 
Q 1894 3584 2278 3584 
Q 2916 3584 3314 3078 
Q 3713 2572 3713 1747 
Q 3713 922 3314 415 
Q 2916 -91 2278 -91 
Q 1894 -91 1617 61 
Q 1341 213 1159 525 
z
M 3116 1747 
Q 3116 2381 2855 2742 
Q 2594 3103 2138 3103 
Q 1681 3103 1420 2742 
Q 1159 2381 1159 1747 
Q 1159 1113 1420 752 
Q 1681 391 2138 391 
Q 2594 391 2855 752 
Q 3116 1113 3116 1747 
z
" transform="scale(0.015625)"/>
       <path id="DejaVuSans-63" d="M 3122 3366 
L 3122 2828 
Q 2878 2963 2633 3030 
Q 2388 3097 2138 3097 
Q 1578 3097 1268 2742 
Q 959 2388 959 1747 
Q 959 1106 1268 751 
Q 1578 397 2138 397 
Q 2388 397 2633 464 
Q 2878 531 3122 666 
L 3122 134 
Q 2881 22 2623 -34 
Q 2366 -91 2075 -91 
Q 1284 -91 818 406 
Q 353 903 353 1747 
Q 353 2603 823 3093 
Q 1294 3584 2113 3584 
Q 2378 3584 2631 3529 
Q 2884 3475 3122 3366 
z
" transform="scale(0.015625)"/>
       <path id="DejaVuSans-52" d="M 2841 2188 
Q 3044 2119 3236 1894 
Q 3428 1669 3622 1275 
L 4263 0 
L 3584 0 
L 2988 1197 
Q 2756 1666 2539 1819 
Q 2322 1972 1947 1972 
L 1259 1972 
L 1259 0 
L 628 0 
L 628 4666 
L 2053 4666 
Q 2853 4666 3247 4331 
Q 3641 3997 3641 3322 
Q 3641 2881 3436 2590 
Q 3231 2300 2841 2188 
z
M 1259 4147 
L 1259 2491 
L 2053 2491 
Q 2509 2491 2742 2702 
Q 2975 2913 2975 3322 
Q 2975 3731 2742 3939 
Q 2509 4147 2053 4147 
L 1259 4147 
z
" transform="scale(0.015625)"/>
      </defs>
      <use xlink:href="#DejaVuSans-45"/>
      <use xlink:href="#DejaVuSans-6d" x="63.183594"/>
      <use xlink:href="#DejaVuSans-70" x="160.595703"/>
      <use xlink:href="#DejaVuSans-69" x="224.072266"/>
      <use xlink:href="#DejaVuSans-72" x="251.855469"/>
      <use xlink:href="#DejaVuSans-69" x="292.96875"/>
      <use xlink:href="#DejaVuSans-63" x="320.751953"/>
      <use xlink:href="#DejaVuSans-61" x="375.732422"/>
      <use xlink:href="#DejaVuSans-6c" x="437.011719"/>
      <use xlink:href="#DejaVuSans-20" x="464.794922"/>
      <use xlink:href="#DejaVuSans-52" x="496.582031"/>
      <use xlink:href="#DejaVuSans-65" x="561.564453"/>
      <use xlink:href="#DejaVuSans-6c" x="623.087891"/>
      <use xlink:href="#DejaVuSans-69" x="650.871094"/>
      <use xlink:href="#DejaVuSans-61" x="678.654297"/>
      <use xlink:href="#DejaVuSans-62" x="739.933594"/>
      <use xlink:href="#DejaVuSans-69" x="803.410156"/>
      <use xlink:href="#DejaVuSans-6c" x="831.193359"/>
      <use xlink:href="#DejaVuSans-69" x="858.976562"/>
      <use xlink:href="#DejaVuSans-74" x="886.759766"/>
      <use xlink:href="#DejaVuSans-79" x="925.96875"/>
      <use xlink:href="#DejaVuSans-20" x="985.148438"/>
      <use xlink:href="#DejaVuSans-52" x="1016.935547"/>
      <use xlink:href="#DejaVuSans-36" x="1086.417969"/>
      <use xlink:href="#DejaVuSans-33" x="1150.041016"/>
     </g>
    </g>
    <g id="line2d_38">
     <path d="M 619.232813 79.616562 
L 629.232813 79.616562 
L 639.232813 79.616562 
" style="fill: none; stroke: #ff7f0e; stroke-width: 1.5; stroke-linecap: square"/>
    </g>
    <g id="text_18">
     <!-- Empirical Reliability R62 -->
     <g transform="translate(647.232813 83.116562) scale(0.1 -0.1)">
      <use xlink:href="#DejaVuSans-45"/>
      <use xlink:href="#DejaVuSans-6d" x="63.183594"/>
      <use xlink:href="#DejaVuSans-70" x="160.595703"/>
      <use xlink:href="#DejaVuSans-69" x="224.072266"/>
      <use xlink:href="#DejaVuSans-72" x="251.855469"/>
      <use xlink:href="#DejaVuSans-69" x="292.96875"/>
      <use xlink:href="#DejaVuSans-63" x="320.751953"/>
      <use xlink:href="#DejaVuSans-61" x="375.732422"/>
      <use xlink:href="#DejaVuSans-6c" x="437.011719"/>
      <use xlink:href="#DejaVuSans-20" x="464.794922"/>
      <use xlink:href="#DejaVuSans-52" x="496.582031"/>
      <use xlink:href="#DejaVuSans-65" x="561.564453"/>
      <use xlink:href="#DejaVuSans-6c" x="623.087891"/>
      <use xlink:href="#DejaVuSans-69" x="650.871094"/>
      <use xlink:href="#DejaVuSans-61" x="678.654297"/>
      <use xlink:href="#DejaVuSans-62" x="739.933594"/>
      <use xlink:href="#DejaVuSans-69" x="803.410156"/>
      <use xlink:href="#DejaVuSans-6c" x="831.193359"/>
      <use xlink:href="#DejaVuSans-69" x="858.976562"/>
      <use xlink:href="#DejaVuSans-74" x="886.759766"/>
      <use xlink:href="#DejaVuSans-79" x="925.96875"/>
      <use xlink:href="#DejaVuSans-20" x="985.148438"/>
      <use xlink:href="#DejaVuSans-52" x="1016.935547"/>
      <use xlink:href="#DejaVuSans-36" x="1086.417969"/>
      <use xlink:href="#DejaVuSans-32" x="1150.041016"/>
     </g>
    </g>
    <g id="line2d_39">
     <path d="M 619.232813 94.294687 
L 629.232813 94.294687 
L 639.232813 94.294687 
" style="fill: none; stroke: #2ca02c; stroke-width: 1.5; stroke-linecap: square"/>
    </g>
    <g id="text_19">
     <!-- Empirical Reliability R57 -->
     <g transform="translate(647.232813 97.794687) scale(0.1 -0.1)">
      <use xlink:href="#DejaVuSans-45"/>
      <use xlink:href="#DejaVuSans-6d" x="63.183594"/>
      <use xlink:href="#DejaVuSans-70" x="160.595703"/>
      <use xlink:href="#DejaVuSans-69" x="224.072266"/>
      <use xlink:href="#DejaVuSans-72" x="251.855469"/>
      <use xlink:href="#DejaVuSans-69" x="292.96875"/>
      <use xlink:href="#DejaVuSans-63" x="320.751953"/>
      <use xlink:href="#DejaVuSans-61" x="375.732422"/>
      <use xlink:href="#DejaVuSans-6c" x="437.011719"/>
      <use xlink:href="#DejaVuSans-20" x="464.794922"/>
      <use xlink:href="#DejaVuSans-52" x="496.582031"/>
      <use xlink:href="#DejaVuSans-65" x="561.564453"/>
      <use xlink:href="#DejaVuSans-6c" x="623.087891"/>
      <use xlink:href="#DejaVuSans-69" x="650.871094"/>
      <use xlink:href="#DejaVuSans-61" x="678.654297"/>
      <use xlink:href="#DejaVuSans-62" x="739.933594"/>
      <use xlink:href="#DejaVuSans-69" x="803.410156"/>
      <use xlink:href="#DejaVuSans-6c" x="831.193359"/>
      <use xlink:href="#DejaVuSans-69" x="858.976562"/>
      <use xlink:href="#DejaVuSans-74" x="886.759766"/>
      <use xlink:href="#DejaVuSans-79" x="925.96875"/>
      <use xlink:href="#DejaVuSans-20" x="985.148438"/>
      <use xlink:href="#DejaVuSans-52" x="1016.935547"/>
      <use xlink:href="#DejaVuSans-35" x="1086.417969"/>
      <use xlink:href="#DejaVuSans-37" x="1150.041016"/>
     </g>
    </g>
    <g id="line2d_40">
     <path d="M 619.232813 108.972812 
L 629.232813 108.972812 
L 639.232813 108.972812 
" style="fill: none; stroke: #d62728; stroke-width: 1.5; stroke-linecap: square"/>
    </g>
    <g id="text_20">
     <!-- Empirical Reliability R56 -->
     <g transform="translate(647.232813 112.472812) scale(0.1 -0.1)">
      <use xlink:href="#DejaVuSans-45"/>
      <use xlink:href="#DejaVuSans-6d" x="63.183594"/>
      <use xlink:href="#DejaVuSans-70" x="160.595703"/>
      <use xlink:href="#DejaVuSans-69" x="224.072266"/>
      <use xlink:href="#DejaVuSans-72" x="251.855469"/>
      <use xlink:href="#DejaVuSans-69" x="292.96875"/>
      <use xlink:href="#DejaVuSans-63" x="320.751953"/>
      <use xlink:href="#DejaVuSans-61" x="375.732422"/>
      <use xlink:href="#DejaVuSans-6c" x="437.011719"/>
      <use xlink:href="#DejaVuSans-20" x="464.794922"/>
      <use xlink:href="#DejaVuSans-52" x="496.582031"/>
      <use xlink:href="#DejaVuSans-65" x="561.564453"/>
      <use xlink:href="#DejaVuSans-6c" x="623.087891"/>
      <use xlink:href="#DejaVuSans-69" x="650.871094"/>
      <use xlink:href="#DejaVuSans-61" x="678.654297"/>
      <use xlink:href="#DejaVuSans-62" x="739.933594"/>
      <use xlink:href="#DejaVuSans-69" x="803.410156"/>
      <use xlink:href="#DejaVuSans-6c" x="831.193359"/>
      <use xlink:href="#DejaVuSans-69" x="858.976562"/>
      <use xlink:href="#DejaVuSans-74" x="886.759766"/>
      <use xlink:href="#DejaVuSans-79" x="925.96875"/>
      <use xlink:href="#DejaVuSans-20" x="985.148438"/>
      <use xlink:href="#DejaVuSans-52" x="1016.935547"/>
      <use xlink:href="#DejaVuSans-35" x="1086.417969"/>
      <use xlink:href="#DejaVuSans-36" x="1150.041016"/>
     </g>
    </g>
    <g id="line2d_41">
     <path d="M 619.232813 123.650937 
L 629.232813 123.650937 
L 639.232813 123.650937 
" style="fill: none; stroke: #9467bd; stroke-width: 1.5; stroke-linecap: square"/>
    </g>
    <g id="text_21">
     <!-- Empirical Reliability R46 -->
     <g transform="translate(647.232813 127.150937) scale(0.1 -0.1)">
      <use xlink:href="#DejaVuSans-45"/>
      <use xlink:href="#DejaVuSans-6d" x="63.183594"/>
      <use xlink:href="#DejaVuSans-70" x="160.595703"/>
      <use xlink:href="#DejaVuSans-69" x="224.072266"/>
      <use xlink:href="#DejaVuSans-72" x="251.855469"/>
      <use xlink:href="#DejaVuSans-69" x="292.96875"/>
      <use xlink:href="#DejaVuSans-63" x="320.751953"/>
      <use xlink:href="#DejaVuSans-61" x="375.732422"/>
      <use xlink:href="#DejaVuSans-6c" x="437.011719"/>
      <use xlink:href="#DejaVuSans-20" x="464.794922"/>
      <use xlink:href="#DejaVuSans-52" x="496.582031"/>
      <use xlink:href="#DejaVuSans-65" x="561.564453"/>
      <use xlink:href="#DejaVuSans-6c" x="623.087891"/>
      <use xlink:href="#DejaVuSans-69" x="650.871094"/>
      <use xlink:href="#DejaVuSans-61" x="678.654297"/>
      <use xlink:href="#DejaVuSans-62" x="739.933594"/>
      <use xlink:href="#DejaVuSans-69" x="803.410156"/>
      <use xlink:href="#DejaVuSans-6c" x="831.193359"/>
      <use xlink:href="#DejaVuSans-69" x="858.976562"/>
      <use xlink:href="#DejaVuSans-74" x="886.759766"/>
      <use xlink:href="#DejaVuSans-79" x="925.96875"/>
      <use xlink:href="#DejaVuSans-20" x="985.148438"/>
      <use xlink:href="#DejaVuSans-52" x="1016.935547"/>
      <use xlink:href="#DejaVuSans-34" x="1086.417969"/>
      <use xlink:href="#DejaVuSans-36" x="1150.041016"/>
     </g>
    </g>
    <g id="line2d_42">
     <path d="M 619.232813 138.329062 
L 629.232813 138.329062 
L 639.232813 138.329062 
" style="fill: none; stroke: #8c564b; stroke-width: 1.5; stroke-linecap: square"/>
    </g>
    <g id="text_22">
     <!-- Empirical Reliability R03 -->
     <g transform="translate(647.232813 141.829062) scale(0.1 -0.1)">
      <use xlink:href="#DejaVuSans-45"/>
      <use xlink:href="#DejaVuSans-6d" x="63.183594"/>
      <use xlink:href="#DejaVuSans-70" x="160.595703"/>
      <use xlink:href="#DejaVuSans-69" x="224.072266"/>
      <use xlink:href="#DejaVuSans-72" x="251.855469"/>
      <use xlink:href="#DejaVuSans-69" x="292.96875"/>
      <use xlink:href="#DejaVuSans-63" x="320.751953"/>
      <use xlink:href="#DejaVuSans-61" x="375.732422"/>
      <use xlink:href="#DejaVuSans-6c" x="437.011719"/>
      <use xlink:href="#DejaVuSans-20" x="464.794922"/>
      <use xlink:href="#DejaVuSans-52" x="496.582031"/>
      <use xlink:href="#DejaVuSans-65" x="561.564453"/>
      <use xlink:href="#DejaVuSans-6c" x="623.087891"/>
      <use xlink:href="#DejaVuSans-69" x="650.871094"/>
      <use xlink:href="#DejaVuSans-61" x="678.654297"/>
      <use xlink:href="#DejaVuSans-62" x="739.933594"/>
      <use xlink:href="#DejaVuSans-69" x="803.410156"/>
      <use xlink:href="#DejaVuSans-6c" x="831.193359"/>
      <use xlink:href="#DejaVuSans-69" x="858.976562"/>
      <use xlink:href="#DejaVuSans-74" x="886.759766"/>
      <use xlink:href="#DejaVuSans-79" x="925.96875"/>
      <use xlink:href="#DejaVuSans-20" x="985.148438"/>
      <use xlink:href="#DejaVuSans-52" x="1016.935547"/>
      <use xlink:href="#DejaVuSans-30" x="1086.417969"/>
      <use xlink:href="#DejaVuSans-33" x="1150.041016"/>
     </g>
    </g>
    <g id="line2d_43">
     <path d="M 619.232813 153.007187 
L 629.232813 153.007187 
L 639.232813 153.007187 
" style="fill: none; stroke: #e377c2; stroke-width: 1.5; stroke-linecap: square"/>
    </g>
    <g id="text_23">
     <!-- Empirical Reliability R12 -->
     <g transform="translate(647.232813 156.507187) scale(0.1 -0.1)">
      <use xlink:href="#DejaVuSans-45"/>
      <use xlink:href="#DejaVuSans-6d" x="63.183594"/>
      <use xlink:href="#DejaVuSans-70" x="160.595703"/>
      <use xlink:href="#DejaVuSans-69" x="224.072266"/>
      <use xlink:href="#DejaVuSans-72" x="251.855469"/>
      <use xlink:href="#DejaVuSans-69" x="292.96875"/>
      <use xlink:href="#DejaVuSans-63" x="320.751953"/>
      <use xlink:href="#DejaVuSans-61" x="375.732422"/>
      <use xlink:href="#DejaVuSans-6c" x="437.011719"/>
      <use xlink:href="#DejaVuSans-20" x="464.794922"/>
      <use xlink:href="#DejaVuSans-52" x="496.582031"/>
      <use xlink:href="#DejaVuSans-65" x="561.564453"/>
      <use xlink:href="#DejaVuSans-6c" x="623.087891"/>
      <use xlink:href="#DejaVuSans-69" x="650.871094"/>
      <use xlink:href="#DejaVuSans-61" x="678.654297"/>
      <use xlink:href="#DejaVuSans-62" x="739.933594"/>
      <use xlink:href="#DejaVuSans-69" x="803.410156"/>
      <use xlink:href="#DejaVuSans-6c" x="831.193359"/>
      <use xlink:href="#DejaVuSans-69" x="858.976562"/>
      <use xlink:href="#DejaVuSans-74" x="886.759766"/>
      <use xlink:href="#DejaVuSans-79" x="925.96875"/>
      <use xlink:href="#DejaVuSans-20" x="985.148438"/>
      <use xlink:href="#DejaVuSans-52" x="1016.935547"/>
      <use xlink:href="#DejaVuSans-31" x="1086.417969"/>
      <use xlink:href="#DejaVuSans-32" x="1150.041016"/>
     </g>
    </g>
    <g id="line2d_44">
     <path d="M 619.232813 167.685312 
L 629.232813 167.685312 
L 639.232813 167.685312 
" style="fill: none; stroke: #7f7f7f; stroke-width: 1.5; stroke-linecap: square"/>
    </g>
    <g id="text_24">
     <!-- Empirical Reliability R71 -->
     <g transform="translate(647.232813 171.185312) scale(0.1 -0.1)">
      <use xlink:href="#DejaVuSans-45"/>
      <use xlink:href="#DejaVuSans-6d" x="63.183594"/>
      <use xlink:href="#DejaVuSans-70" x="160.595703"/>
      <use xlink:href="#DejaVuSans-69" x="224.072266"/>
      <use xlink:href="#DejaVuSans-72" x="251.855469"/>
      <use xlink:href="#DejaVuSans-69" x="292.96875"/>
      <use xlink:href="#DejaVuSans-63" x="320.751953"/>
      <use xlink:href="#DejaVuSans-61" x="375.732422"/>
      <use xlink:href="#DejaVuSans-6c" x="437.011719"/>
      <use xlink:href="#DejaVuSans-20" x="464.794922"/>
      <use xlink:href="#DejaVuSans-52" x="496.582031"/>
      <use xlink:href="#DejaVuSans-65" x="561.564453"/>
      <use xlink:href="#DejaVuSans-6c" x="623.087891"/>
      <use xlink:href="#DejaVuSans-69" x="650.871094"/>
      <use xlink:href="#DejaVuSans-61" x="678.654297"/>
      <use xlink:href="#DejaVuSans-62" x="739.933594"/>
      <use xlink:href="#DejaVuSans-69" x="803.410156"/>
      <use xlink:href="#DejaVuSans-6c" x="831.193359"/>
      <use xlink:href="#DejaVuSans-69" x="858.976562"/>
      <use xlink:href="#DejaVuSans-74" x="886.759766"/>
      <use xlink:href="#DejaVuSans-79" x="925.96875"/>
      <use xlink:href="#DejaVuSans-20" x="985.148438"/>
      <use xlink:href="#DejaVuSans-52" x="1016.935547"/>
      <use xlink:href="#DejaVuSans-37" x="1086.417969"/>
      <use xlink:href="#DejaVuSans-31" x="1150.041016"/>
     </g>
    </g>
   </g>
  </g>
 </g>
 <defs>
  <clipPath id="pf6fad80bfd">
   <rect x="108" y="51.84" width="669.6" height="332.64"/>
  </clipPath>
 </defs>
</svg>
