<?xml version="1.0" encoding="utf-8" standalone="no"?>
<!DOCTYPE svg PUBLIC "-//W3C//DTD SVG 1.1//EN"
  "http://www.w3.org/Graphics/SVG/1.1/DTD/svg11.dtd">
<svg xmlns:xlink="http://www.w3.org/1999/xlink" width="432pt" height="864pt" viewBox="0 0 432 864" xmlns="http://www.w3.org/2000/svg" version="1.1">
 <metadata>
  <rdf:RDF xmlns:dc="http://purl.org/dc/elements/1.1/" xmlns:cc="http://creativecommons.org/ns#" xmlns:rdf="http://www.w3.org/1999/02/22-rdf-syntax-ns#">
   <cc:Work>
    <dc:type rdf:resource="http://purl.org/dc/dcmitype/StillImage"/>
    <dc:date>2022-12-16T13:08:20.522051</dc:date>
    <dc:format>image/svg+xml</dc:format>
    <dc:creator>
     <cc:Agent>
      <dc:title>Matplotlib v3.6.2, https://matplotlib.org/</dc:title>
     </cc:Agent>
    </dc:creator>
   </cc:Work>
  </rdf:RDF>
 </metadata>
 <defs>
  <style type="text/css">*{stroke-linejoin: round; stroke-linecap: butt}</style>
 </defs>
 <g id="figure_1">
  <g id="patch_1">
   <path d="M 0 864 
L 432 864 
L 432 0 
L 0 0 
z
" style="fill: #ffffff"/>
  </g>
  <g id="axes_1">
   <g id="patch_2">
    <path d="M 54 768.96 
L 388.8 768.96 
L 388.8 103.68 
L 54 103.68 
z
" style="fill: #ffffff"/>
   </g>
   <g id="patch_3">
    <path d="M 54 764.068235 
L 56.739158 764.068235 
L 56.739158 754.284706 
L 54 754.284706 
z
" clip-path="url(#p6d1a74064f)" style="fill: #1f77b4"/>
   </g>
   <g id="patch_4">
    <path d="M 54 744.501176 
L 56.83471 744.501176 
L 56.83471 734.717647 
L 54 734.717647 
z
" clip-path="url(#p6d1a74064f)" style="fill: #1f77b4"/>
   </g>
   <g id="patch_5">
    <path d="M 54 724.934118 
L 56.83471 724.934118 
L 56.83471 715.150588 
L 54 715.150588 
z
" clip-path="url(#p6d1a74064f)" style="fill: #1f77b4"/>
   </g>
   <g id="patch_6">
    <path d="M 54 705.367059 
L 56.860191 705.367059 
L 56.860191 695.583529 
L 54 695.583529 
z
" clip-path="url(#p6d1a74064f)" style="fill: #1f77b4"/>
   </g>
   <g id="patch_7">
    <path d="M 54 685.8 
L 56.892042 685.8 
L 56.892042 676.016471 
L 54 676.016471 
z
" clip-path="url(#p6d1a74064f)" style="fill: #1f77b4"/>
   </g>
   <g id="patch_8">
    <path d="M 54 666.232941 
L 56.904782 666.232941 
L 56.904782 656.449412 
L 54 656.449412 
z
" clip-path="url(#p6d1a74064f)" style="fill: #1f77b4"/>
   </g>
   <g id="patch_9">
    <path d="M 54 646.665882 
L 57.337951 646.665882 
L 57.337951 636.882353 
L 54 636.882353 
z
" clip-path="url(#p6d1a74064f)" style="fill: #1f77b4"/>
   </g>
   <g id="patch_10">
    <path d="M 54 627.098824 
L 57.529055 627.098824 
L 57.529055 617.315294 
L 54 617.315294 
z
" clip-path="url(#p6d1a74064f)" style="fill: #1f77b4"/>
   </g>
   <g id="patch_11">
    <path d="M 54 607.531765 
L 57.567276 607.531765 
L 57.567276 597.748235 
L 54 597.748235 
z
" clip-path="url(#p6d1a74064f)" style="fill: #1f77b4"/>
   </g>
   <g id="patch_12">
    <path d="M 54 587.964706 
L 57.586386 587.964706 
L 57.586386 578.181176 
L 54 578.181176 
z
" clip-path="url(#p6d1a74064f)" style="fill: #1f77b4"/>
   </g>
   <g id="patch_13">
    <path d="M 54 568.397647 
L 57.77749 568.397647 
L 57.77749 558.614118 
L 54 558.614118 
z
" clip-path="url(#p6d1a74064f)" style="fill: #1f77b4"/>
   </g>
   <g id="patch_14">
    <path d="M 54 548.830588 
L 57.796601 548.830588 
L 57.796601 539.047059 
L 54 539.047059 
z
" clip-path="url(#p6d1a74064f)" style="fill: #1f77b4"/>
   </g>
   <g id="patch_15">
    <path d="M 54 529.263529 
L 57.834822 529.263529 
L 57.834822 519.48 
L 54 519.48 
z
" clip-path="url(#p6d1a74064f)" style="fill: #1f77b4"/>
   </g>
   <g id="patch_16">
    <path d="M 54 509.696471 
L 58.032296 509.696471 
L 58.032296 499.912941 
L 54 499.912941 
z
" clip-path="url(#p6d1a74064f)" style="fill: #1f77b4"/>
   </g>
   <g id="patch_17">
    <path d="M 54 490.129412 
L 58.121478 490.129412 
L 58.121478 480.345882 
L 54 480.345882 
z
" clip-path="url(#p6d1a74064f)" style="fill: #1f77b4"/>
   </g>
   <g id="patch_18">
    <path d="M 54 470.562353 
L 58.172439 470.562353 
L 58.172439 460.778824 
L 54 460.778824 
z
" clip-path="url(#p6d1a74064f)" style="fill: #1f77b4"/>
   </g>
   <g id="patch_19">
    <path d="M 54 450.995294 
L 58.267991 450.995294 
L 58.267991 441.211765 
L 54 441.211765 
z
" clip-path="url(#p6d1a74064f)" style="fill: #1f77b4"/>
   </g>
   <g id="patch_20">
    <path d="M 54 431.428235 
L 58.459095 431.428235 
L 58.459095 421.644706 
L 54 421.644706 
z
" clip-path="url(#p6d1a74064f)" style="fill: #1f77b4"/>
   </g>
   <g id="patch_21">
    <path d="M 54 411.861176 
L 58.465465 411.861176 
L 58.465465 402.077647 
L 54 402.077647 
z
" clip-path="url(#p6d1a74064f)" style="fill: #1f77b4"/>
   </g>
   <g id="patch_22">
    <path d="M 54 392.294118 
L 58.720271 392.294118 
L 58.720271 382.510588 
L 54 382.510588 
z
" clip-path="url(#p6d1a74064f)" style="fill: #1f77b4"/>
   </g>
   <g id="patch_23">
    <path d="M 54 372.727059 
L 58.752121 372.727059 
L 58.752121 362.943529 
L 54 362.943529 
z
" clip-path="url(#p6d1a74064f)" style="fill: #1f77b4"/>
   </g>
   <g id="patch_24">
    <path d="M 54 353.16 
L 58.796712 353.16 
L 58.796712 343.376471 
L 54 343.376471 
z
" clip-path="url(#p6d1a74064f)" style="fill: #1f77b4"/>
   </g>
   <g id="patch_25">
    <path d="M 54 333.592941 
L 59.14707 333.592941 
L 59.14707 323.809412 
L 54 323.809412 
z
" clip-path="url(#p6d1a74064f)" style="fill: #1f77b4"/>
   </g>
   <g id="patch_26">
    <path d="M 54 314.025882 
L 59.248992 314.025882 
L 59.248992 304.242353 
L 54 304.242353 
z
" clip-path="url(#p6d1a74064f)" style="fill: #1f77b4"/>
   </g>
   <g id="patch_27">
    <path d="M 54 294.458824 
L 59.656681 294.458824 
L 59.656681 284.675294 
L 54 284.675294 
z
" clip-path="url(#p6d1a74064f)" style="fill: #1f77b4"/>
   </g>
   <g id="patch_28">
    <path d="M 54 274.891765 
L 60.11533 274.891765 
L 60.11533 265.108235 
L 54 265.108235 
z
" clip-path="url(#p6d1a74064f)" style="fill: #1f77b4"/>
   </g>
   <g id="patch_29">
    <path d="M 54 255.324706 
L 60.198142 255.324706 
L 60.198142 245.541176 
L 54 245.541176 
z
" clip-path="url(#p6d1a74064f)" style="fill: #1f77b4"/>
   </g>
   <g id="patch_30">
    <path d="M 54 235.757647 
L 60.497538 235.757647 
L 60.497538 225.974118 
L 54 225.974118 
z
" clip-path="url(#p6d1a74064f)" style="fill: #1f77b4"/>
   </g>
   <g id="patch_31">
    <path d="M 54 216.190588 
L 62.491391 216.190588 
L 62.491391 206.407059 
L 54 206.407059 
z
" clip-path="url(#p6d1a74064f)" style="fill: #1f77b4"/>
   </g>
   <g id="patch_32">
    <path d="M 54 196.623529 
L 65.338842 196.623529 
L 65.338842 186.84 
L 54 186.84 
z
" clip-path="url(#p6d1a74064f)" style="fill: #1f77b4"/>
   </g>
   <g id="patch_33">
    <path d="M 54 177.056471 
L 65.956745 177.056471 
L 65.956745 167.272941 
L 54 167.272941 
z
" clip-path="url(#p6d1a74064f)" style="fill: #1f77b4"/>
   </g>
   <g id="patch_34">
    <path d="M 54 157.489412 
L 68.377396 157.489412 
L 68.377396 147.705882 
L 54 147.705882 
z
" clip-path="url(#p6d1a74064f)" style="fill: #1f77b4"/>
   </g>
   <g id="patch_35">
    <path d="M 54 137.922353 
L 372.073616 137.922353 
L 372.073616 128.138824 
L 54 128.138824 
z
" clip-path="url(#p6d1a74064f)" style="fill: #1f77b4"/>
   </g>
   <g id="patch_36">
    <path d="M 54 118.355294 
L 372.857143 118.355294 
L 372.857143 108.571765 
L 54 108.571765 
z
" clip-path="url(#p6d1a74064f)" style="fill: #1f77b4"/>
   </g>
   <g id="matplotlib.axis_1">
    <g id="xtick_1">
     <g id="line2d_1">
      <defs>
       <path id="mb971bc7359" d="M 0 0 
L 0 3.5 
" style="stroke: #000000; stroke-width: 0.8"/>
      </defs>
      <g>
       <use xlink:href="#mb971bc7359" x="54" y="768.96" style="stroke: #000000; stroke-width: 0.8"/>
      </g>
     </g>
     <g id="text_1">
      <!-- 0 -->
      <g transform="translate(50.81875 783.558437) scale(0.1 -0.1)">
       <defs>
        <path id="DejaVuSans-30" d="M 2034 4250 
Q 1547 4250 1301 3770 
Q 1056 3291 1056 2328 
Q 1056 1369 1301 889 
Q 1547 409 2034 409 
Q 2525 409 2770 889 
Q 3016 1369 3016 2328 
Q 3016 3291 2770 3770 
Q 2525 4250 2034 4250 
z
M 2034 4750 
Q 2819 4750 3233 4129 
Q 3647 3509 3647 2328 
Q 3647 1150 3233 529 
Q 2819 -91 2034 -91 
Q 1250 -91 836 529 
Q 422 1150 422 2328 
Q 422 3509 836 4129 
Q 1250 4750 2034 4750 
z
" transform="scale(0.015625)"/>
       </defs>
       <use xlink:href="#DejaVuSans-30"/>
      </g>
     </g>
    </g>
    <g id="xtick_2">
     <g id="line2d_2">
      <g>
       <use xlink:href="#mb971bc7359" x="117.701357" y="768.96" style="stroke: #000000; stroke-width: 0.8"/>
      </g>
     </g>
     <g id="text_2">
      <!-- 10000 -->
      <g transform="translate(101.795107 783.558437) scale(0.1 -0.1)">
       <defs>
        <path id="DejaVuSans-31" d="M 794 531 
L 1825 531 
L 1825 4091 
L 703 3866 
L 703 4441 
L 1819 4666 
L 2450 4666 
L 2450 531 
L 3481 531 
L 3481 0 
L 794 0 
L 794 531 
z
" transform="scale(0.015625)"/>
       </defs>
       <use xlink:href="#DejaVuSans-31"/>
       <use xlink:href="#DejaVuSans-30" x="63.623047"/>
       <use xlink:href="#DejaVuSans-30" x="127.246094"/>
       <use xlink:href="#DejaVuSans-30" x="190.869141"/>
       <use xlink:href="#DejaVuSans-30" x="254.492188"/>
      </g>
     </g>
    </g>
    <g id="xtick_3">
     <g id="line2d_3">
      <g>
       <use xlink:href="#mb971bc7359" x="181.402714" y="768.96" style="stroke: #000000; stroke-width: 0.8"/>
      </g>
     </g>
     <g id="text_3">
      <!-- 20000 -->
      <g transform="translate(165.496464 783.558437) scale(0.1 -0.1)">
       <defs>
        <path id="DejaVuSans-32" d="M 1228 531 
L 3431 531 
L 3431 0 
L 469 0 
L 469 531 
Q 828 903 1448 1529 
Q 2069 2156 2228 2338 
Q 2531 2678 2651 2914 
Q 2772 3150 2772 3378 
Q 2772 3750 2511 3984 
Q 2250 4219 1831 4219 
Q 1534 4219 1204 4116 
Q 875 4013 500 3803 
L 500 4441 
Q 881 4594 1212 4672 
Q 1544 4750 1819 4750 
Q 2544 4750 2975 4387 
Q 3406 4025 3406 3419 
Q 3406 3131 3298 2873 
Q 3191 2616 2906 2266 
Q 2828 2175 2409 1742 
Q 1991 1309 1228 531 
z
" transform="scale(0.015625)"/>
       </defs>
       <use xlink:href="#DejaVuSans-32"/>
       <use xlink:href="#DejaVuSans-30" x="63.623047"/>
       <use xlink:href="#DejaVuSans-30" x="127.246094"/>
       <use xlink:href="#DejaVuSans-30" x="190.869141"/>
       <use xlink:href="#DejaVuSans-30" x="254.492188"/>
      </g>
     </g>
    </g>
    <g id="xtick_4">
     <g id="line2d_4">
      <g>
       <use xlink:href="#mb971bc7359" x="245.104071" y="768.96" style="stroke: #000000; stroke-width: 0.8"/>
      </g>
     </g>
     <g id="text_4">
      <!-- 30000 -->
      <g transform="translate(229.197821 783.558437) scale(0.1 -0.1)">
       <defs>
        <path id="DejaVuSans-33" d="M 2597 2516 
Q 3050 2419 3304 2112 
Q 3559 1806 3559 1356 
Q 3559 666 3084 287 
Q 2609 -91 1734 -91 
Q 1441 -91 1130 -33 
Q 819 25 488 141 
L 488 750 
Q 750 597 1062 519 
Q 1375 441 1716 441 
Q 2309 441 2620 675 
Q 2931 909 2931 1356 
Q 2931 1769 2642 2001 
Q 2353 2234 1838 2234 
L 1294 2234 
L 1294 2753 
L 1863 2753 
Q 2328 2753 2575 2939 
Q 2822 3125 2822 3475 
Q 2822 3834 2567 4026 
Q 2313 4219 1838 4219 
Q 1578 4219 1281 4162 
Q 984 4106 628 3988 
L 628 4550 
Q 988 4650 1302 4700 
Q 1616 4750 1894 4750 
Q 2613 4750 3031 4423 
Q 3450 4097 3450 3541 
Q 3450 3153 3228 2886 
Q 3006 2619 2597 2516 
z
" transform="scale(0.015625)"/>
       </defs>
       <use xlink:href="#DejaVuSans-33"/>
       <use xlink:href="#DejaVuSans-30" x="63.623047"/>
       <use xlink:href="#DejaVuSans-30" x="127.246094"/>
       <use xlink:href="#DejaVuSans-30" x="190.869141"/>
       <use xlink:href="#DejaVuSans-30" x="254.492188"/>
      </g>
     </g>
    </g>
    <g id="xtick_5">
     <g id="line2d_5">
      <g>
       <use xlink:href="#mb971bc7359" x="308.805428" y="768.96" style="stroke: #000000; stroke-width: 0.8"/>
      </g>
     </g>
     <g id="text_5">
      <!-- 40000 -->
      <g transform="translate(292.899178 783.558437) scale(0.1 -0.1)">
       <defs>
        <path id="DejaVuSans-34" d="M 2419 4116 
L 825 1625 
L 2419 1625 
L 2419 4116 
z
M 2253 4666 
L 3047 4666 
L 3047 1625 
L 3713 1625 
L 3713 1100 
L 3047 1100 
L 3047 0 
L 2419 0 
L 2419 1100 
L 313 1100 
L 313 1709 
L 2253 4666 
z
" transform="scale(0.015625)"/>
       </defs>
       <use xlink:href="#DejaVuSans-34"/>
       <use xlink:href="#DejaVuSans-30" x="63.623047"/>
       <use xlink:href="#DejaVuSans-30" x="127.246094"/>
       <use xlink:href="#DejaVuSans-30" x="190.869141"/>
       <use xlink:href="#DejaVuSans-30" x="254.492188"/>
      </g>
     </g>
    </g>
    <g id="xtick_6">
     <g id="line2d_6">
      <g>
       <use xlink:href="#mb971bc7359" x="372.506785" y="768.96" style="stroke: #000000; stroke-width: 0.8"/>
      </g>
     </g>
     <g id="text_6">
      <!-- 50000 -->
      <g transform="translate(356.600535 783.558437) scale(0.1 -0.1)">
       <defs>
        <path id="DejaVuSans-35" d="M 691 4666 
L 3169 4666 
L 3169 4134 
L 1269 4134 
L 1269 2991 
Q 1406 3038 1543 3061 
Q 1681 3084 1819 3084 
Q 2600 3084 3056 2656 
Q 3513 2228 3513 1497 
Q 3513 744 3044 326 
Q 2575 -91 1722 -91 
Q 1428 -91 1123 -41 
Q 819 9 494 109 
L 494 744 
Q 775 591 1075 516 
Q 1375 441 1709 441 
Q 2250 441 2565 725 
Q 2881 1009 2881 1497 
Q 2881 1984 2565 2268 
Q 2250 2553 1709 2553 
Q 1456 2553 1204 2497 
Q 953 2441 691 2322 
L 691 4666 
z
" transform="scale(0.015625)"/>
       </defs>
       <use xlink:href="#DejaVuSans-35"/>
       <use xlink:href="#DejaVuSans-30" x="63.623047"/>
       <use xlink:href="#DejaVuSans-30" x="127.246094"/>
       <use xlink:href="#DejaVuSans-30" x="190.869141"/>
       <use xlink:href="#DejaVuSans-30" x="254.492188"/>
      </g>
     </g>
    </g>
   </g>
   <g id="matplotlib.axis_2">
    <g id="ytick_1">
     <g id="line2d_7">
      <defs>
       <path id="m499f0db550" d="M 0 0 
L -3.5 0 
" style="stroke: #000000; stroke-width: 0.8"/>
      </defs>
      <g>
       <use xlink:href="#m499f0db550" x="54" y="759.176471" style="stroke: #000000; stroke-width: 0.8"/>
      </g>
     </g>
     <g id="text_7">
      <!-- J06-U01 -->
      <g transform="translate(7.673437 762.975689) scale(0.1 -0.1)">
       <defs>
        <path id="DejaVuSans-4a" d="M 628 4666 
L 1259 4666 
L 1259 325 
Q 1259 -519 939 -900 
Q 619 -1281 -91 -1281 
L -331 -1281 
L -331 -750 
L -134 -750 
Q 284 -750 456 -515 
Q 628 -281 628 325 
L 628 4666 
z
" transform="scale(0.015625)"/>
        <path id="DejaVuSans-36" d="M 2113 2584 
Q 1688 2584 1439 2293 
Q 1191 2003 1191 1497 
Q 1191 994 1439 701 
Q 1688 409 2113 409 
Q 2538 409 2786 701 
Q 3034 994 3034 1497 
Q 3034 2003 2786 2293 
Q 2538 2584 2113 2584 
z
M 3366 4563 
L 3366 3988 
Q 3128 4100 2886 4159 
Q 2644 4219 2406 4219 
Q 1781 4219 1451 3797 
Q 1122 3375 1075 2522 
Q 1259 2794 1537 2939 
Q 1816 3084 2150 3084 
Q 2853 3084 3261 2657 
Q 3669 2231 3669 1497 
Q 3669 778 3244 343 
Q 2819 -91 2113 -91 
Q 1303 -91 875 529 
Q 447 1150 447 2328 
Q 447 3434 972 4092 
Q 1497 4750 2381 4750 
Q 2619 4750 2861 4703 
Q 3103 4656 3366 4563 
z
" transform="scale(0.015625)"/>
        <path id="DejaVuSans-2d" d="M 313 2009 
L 1997 2009 
L 1997 1497 
L 313 1497 
L 313 2009 
z
" transform="scale(0.015625)"/>
        <path id="DejaVuSans-55" d="M 556 4666 
L 1191 4666 
L 1191 1831 
Q 1191 1081 1462 751 
Q 1734 422 2344 422 
Q 2950 422 3222 751 
Q 3494 1081 3494 1831 
L 3494 4666 
L 4128 4666 
L 4128 1753 
Q 4128 841 3676 375 
Q 3225 -91 2344 -91 
Q 1459 -91 1007 375 
Q 556 841 556 1753 
L 556 4666 
z
" transform="scale(0.015625)"/>
       </defs>
       <use xlink:href="#DejaVuSans-4a"/>
       <use xlink:href="#DejaVuSans-30" x="29.492188"/>
       <use xlink:href="#DejaVuSans-36" x="93.115234"/>
       <use xlink:href="#DejaVuSans-2d" x="156.738281"/>
       <use xlink:href="#DejaVuSans-55" x="192.822266"/>
       <use xlink:href="#DejaVuSans-30" x="266.015625"/>
       <use xlink:href="#DejaVuSans-31" x="329.638672"/>
      </g>
     </g>
    </g>
    <g id="ytick_2">
     <g id="line2d_8">
      <g>
       <use xlink:href="#m499f0db550" x="54" y="739.609412" style="stroke: #000000; stroke-width: 0.8"/>
      </g>
     </g>
     <g id="text_8">
      <!-- J14-U11 -->
      <g transform="translate(7.673437 743.408631) scale(0.1 -0.1)">
       <use xlink:href="#DejaVuSans-4a"/>
       <use xlink:href="#DejaVuSans-31" x="29.492188"/>
       <use xlink:href="#DejaVuSans-34" x="93.115234"/>
       <use xlink:href="#DejaVuSans-2d" x="156.738281"/>
       <use xlink:href="#DejaVuSans-55" x="192.822266"/>
       <use xlink:href="#DejaVuSans-31" x="266.015625"/>
       <use xlink:href="#DejaVuSans-31" x="329.638672"/>
      </g>
     </g>
    </g>
    <g id="ytick_3">
     <g id="line2d_9">
      <g>
       <use xlink:href="#m499f0db550" x="54" y="720.042353" style="stroke: #000000; stroke-width: 0.8"/>
      </g>
     </g>
     <g id="text_9">
      <!-- J07-U11 -->
      <g transform="translate(7.673437 723.841572) scale(0.1 -0.1)">
       <defs>
        <path id="DejaVuSans-37" d="M 525 4666 
L 3525 4666 
L 3525 4397 
L 1831 0 
L 1172 0 
L 2766 4134 
L 525 4134 
L 525 4666 
z
" transform="scale(0.015625)"/>
       </defs>
       <use xlink:href="#DejaVuSans-4a"/>
       <use xlink:href="#DejaVuSans-30" x="29.492188"/>
       <use xlink:href="#DejaVuSans-37" x="93.115234"/>
       <use xlink:href="#DejaVuSans-2d" x="156.738281"/>
       <use xlink:href="#DejaVuSans-55" x="192.822266"/>
       <use xlink:href="#DejaVuSans-31" x="266.015625"/>
       <use xlink:href="#DejaVuSans-31" x="329.638672"/>
      </g>
     </g>
    </g>
    <g id="ytick_4">
     <g id="line2d_10">
      <g>
       <use xlink:href="#m499f0db550" x="54" y="700.475294" style="stroke: #000000; stroke-width: 0.8"/>
      </g>
     </g>
     <g id="text_10">
      <!-- J02-U11 -->
      <g transform="translate(7.673437 704.274513) scale(0.1 -0.1)">
       <use xlink:href="#DejaVuSans-4a"/>
       <use xlink:href="#DejaVuSans-30" x="29.492188"/>
       <use xlink:href="#DejaVuSans-32" x="93.115234"/>
       <use xlink:href="#DejaVuSans-2d" x="156.738281"/>
       <use xlink:href="#DejaVuSans-55" x="192.822266"/>
       <use xlink:href="#DejaVuSans-31" x="266.015625"/>
       <use xlink:href="#DejaVuSans-31" x="329.638672"/>
      </g>
     </g>
    </g>
    <g id="ytick_5">
     <g id="line2d_11">
      <g>
       <use xlink:href="#m499f0db550" x="54" y="680.908235" style="stroke: #000000; stroke-width: 0.8"/>
      </g>
     </g>
     <g id="text_11">
      <!-- J15-U11 -->
      <g transform="translate(7.673437 684.707454) scale(0.1 -0.1)">
       <use xlink:href="#DejaVuSans-4a"/>
       <use xlink:href="#DejaVuSans-31" x="29.492188"/>
       <use xlink:href="#DejaVuSans-35" x="93.115234"/>
       <use xlink:href="#DejaVuSans-2d" x="156.738281"/>
       <use xlink:href="#DejaVuSans-55" x="192.822266"/>
       <use xlink:href="#DejaVuSans-31" x="266.015625"/>
       <use xlink:href="#DejaVuSans-31" x="329.638672"/>
      </g>
     </g>
    </g>
    <g id="ytick_6">
     <g id="line2d_12">
      <g>
       <use xlink:href="#m499f0db550" x="54" y="661.341176" style="stroke: #000000; stroke-width: 0.8"/>
      </g>
     </g>
     <g id="text_12">
      <!-- J05-U01 -->
      <g transform="translate(7.673437 665.140395) scale(0.1 -0.1)">
       <use xlink:href="#DejaVuSans-4a"/>
       <use xlink:href="#DejaVuSans-30" x="29.492188"/>
       <use xlink:href="#DejaVuSans-35" x="93.115234"/>
       <use xlink:href="#DejaVuSans-2d" x="156.738281"/>
       <use xlink:href="#DejaVuSans-55" x="192.822266"/>
       <use xlink:href="#DejaVuSans-30" x="266.015625"/>
       <use xlink:href="#DejaVuSans-31" x="329.638672"/>
      </g>
     </g>
    </g>
    <g id="ytick_7">
     <g id="line2d_13">
      <g>
       <use xlink:href="#m499f0db550" x="54" y="641.774118" style="stroke: #000000; stroke-width: 0.8"/>
      </g>
     </g>
     <g id="text_13">
      <!-- J02-U01 -->
      <g transform="translate(7.673437 645.573336) scale(0.1 -0.1)">
       <use xlink:href="#DejaVuSans-4a"/>
       <use xlink:href="#DejaVuSans-30" x="29.492188"/>
       <use xlink:href="#DejaVuSans-32" x="93.115234"/>
       <use xlink:href="#DejaVuSans-2d" x="156.738281"/>
       <use xlink:href="#DejaVuSans-55" x="192.822266"/>
       <use xlink:href="#DejaVuSans-30" x="266.015625"/>
       <use xlink:href="#DejaVuSans-31" x="329.638672"/>
      </g>
     </g>
    </g>
    <g id="ytick_8">
     <g id="line2d_14">
      <g>
       <use xlink:href="#m499f0db550" x="54" y="622.207059" style="stroke: #000000; stroke-width: 0.8"/>
      </g>
     </g>
     <g id="text_14">
      <!-- J10-U01 -->
      <g transform="translate(7.673437 626.006278) scale(0.1 -0.1)">
       <use xlink:href="#DejaVuSans-4a"/>
       <use xlink:href="#DejaVuSans-31" x="29.492188"/>
       <use xlink:href="#DejaVuSans-30" x="93.115234"/>
       <use xlink:href="#DejaVuSans-2d" x="156.738281"/>
       <use xlink:href="#DejaVuSans-55" x="192.822266"/>
       <use xlink:href="#DejaVuSans-30" x="266.015625"/>
       <use xlink:href="#DejaVuSans-31" x="329.638672"/>
      </g>
     </g>
    </g>
    <g id="ytick_9">
     <g id="line2d_15">
      <g>
       <use xlink:href="#m499f0db550" x="54" y="602.64" style="stroke: #000000; stroke-width: 0.8"/>
      </g>
     </g>
     <g id="text_15">
      <!-- J08-U11 -->
      <g transform="translate(7.673437 606.439219) scale(0.1 -0.1)">
       <defs>
        <path id="DejaVuSans-38" d="M 2034 2216 
Q 1584 2216 1326 1975 
Q 1069 1734 1069 1313 
Q 1069 891 1326 650 
Q 1584 409 2034 409 
Q 2484 409 2743 651 
Q 3003 894 3003 1313 
Q 3003 1734 2745 1975 
Q 2488 2216 2034 2216 
z
M 1403 2484 
Q 997 2584 770 2862 
Q 544 3141 544 3541 
Q 544 4100 942 4425 
Q 1341 4750 2034 4750 
Q 2731 4750 3128 4425 
Q 3525 4100 3525 3541 
Q 3525 3141 3298 2862 
Q 3072 2584 2669 2484 
Q 3125 2378 3379 2068 
Q 3634 1759 3634 1313 
Q 3634 634 3220 271 
Q 2806 -91 2034 -91 
Q 1263 -91 848 271 
Q 434 634 434 1313 
Q 434 1759 690 2068 
Q 947 2378 1403 2484 
z
M 1172 3481 
Q 1172 3119 1398 2916 
Q 1625 2713 2034 2713 
Q 2441 2713 2670 2916 
Q 2900 3119 2900 3481 
Q 2900 3844 2670 4047 
Q 2441 4250 2034 4250 
Q 1625 4250 1398 4047 
Q 1172 3844 1172 3481 
z
" transform="scale(0.015625)"/>
       </defs>
       <use xlink:href="#DejaVuSans-4a"/>
       <use xlink:href="#DejaVuSans-30" x="29.492188"/>
       <use xlink:href="#DejaVuSans-38" x="93.115234"/>
       <use xlink:href="#DejaVuSans-2d" x="156.738281"/>
       <use xlink:href="#DejaVuSans-55" x="192.822266"/>
       <use xlink:href="#DejaVuSans-31" x="266.015625"/>
       <use xlink:href="#DejaVuSans-31" x="329.638672"/>
      </g>
     </g>
    </g>
    <g id="ytick_10">
     <g id="line2d_16">
      <g>
       <use xlink:href="#m499f0db550" x="54" y="583.072941" style="stroke: #000000; stroke-width: 0.8"/>
      </g>
     </g>
     <g id="text_16">
      <!-- J13-U11 -->
      <g transform="translate(7.673437 586.87216) scale(0.1 -0.1)">
       <use xlink:href="#DejaVuSans-4a"/>
       <use xlink:href="#DejaVuSans-31" x="29.492188"/>
       <use xlink:href="#DejaVuSans-33" x="93.115234"/>
       <use xlink:href="#DejaVuSans-2d" x="156.738281"/>
       <use xlink:href="#DejaVuSans-55" x="192.822266"/>
       <use xlink:href="#DejaVuSans-31" x="266.015625"/>
       <use xlink:href="#DejaVuSans-31" x="329.638672"/>
      </g>
     </g>
    </g>
    <g id="ytick_11">
     <g id="line2d_17">
      <g>
       <use xlink:href="#m499f0db550" x="54" y="563.505882" style="stroke: #000000; stroke-width: 0.8"/>
      </g>
     </g>
     <g id="text_17">
      <!-- J04-U11 -->
      <g transform="translate(7.673437 567.305101) scale(0.1 -0.1)">
       <use xlink:href="#DejaVuSans-4a"/>
       <use xlink:href="#DejaVuSans-30" x="29.492188"/>
       <use xlink:href="#DejaVuSans-34" x="93.115234"/>
       <use xlink:href="#DejaVuSans-2d" x="156.738281"/>
       <use xlink:href="#DejaVuSans-55" x="192.822266"/>
       <use xlink:href="#DejaVuSans-31" x="266.015625"/>
       <use xlink:href="#DejaVuSans-31" x="329.638672"/>
      </g>
     </g>
    </g>
    <g id="ytick_12">
     <g id="line2d_18">
      <g>
       <use xlink:href="#m499f0db550" x="54" y="543.938824" style="stroke: #000000; stroke-width: 0.8"/>
      </g>
     </g>
     <g id="text_18">
      <!-- J12-U11 -->
      <g transform="translate(7.673437 547.738042) scale(0.1 -0.1)">
       <use xlink:href="#DejaVuSans-4a"/>
       <use xlink:href="#DejaVuSans-31" x="29.492188"/>
       <use xlink:href="#DejaVuSans-32" x="93.115234"/>
       <use xlink:href="#DejaVuSans-2d" x="156.738281"/>
       <use xlink:href="#DejaVuSans-55" x="192.822266"/>
       <use xlink:href="#DejaVuSans-31" x="266.015625"/>
       <use xlink:href="#DejaVuSans-31" x="329.638672"/>
      </g>
     </g>
    </g>
    <g id="ytick_13">
     <g id="line2d_19">
      <g>
       <use xlink:href="#m499f0db550" x="54" y="524.371765" style="stroke: #000000; stroke-width: 0.8"/>
      </g>
     </g>
     <g id="text_19">
      <!-- J17-U01 -->
      <g transform="translate(7.673437 528.170983) scale(0.1 -0.1)">
       <use xlink:href="#DejaVuSans-4a"/>
       <use xlink:href="#DejaVuSans-31" x="29.492188"/>
       <use xlink:href="#DejaVuSans-37" x="93.115234"/>
       <use xlink:href="#DejaVuSans-2d" x="156.738281"/>
       <use xlink:href="#DejaVuSans-55" x="192.822266"/>
       <use xlink:href="#DejaVuSans-30" x="266.015625"/>
       <use xlink:href="#DejaVuSans-31" x="329.638672"/>
      </g>
     </g>
    </g>
    <g id="ytick_14">
     <g id="line2d_20">
      <g>
       <use xlink:href="#m499f0db550" x="54" y="504.804706" style="stroke: #000000; stroke-width: 0.8"/>
      </g>
     </g>
     <g id="text_20">
      <!-- J15-U01 -->
      <g transform="translate(7.673437 508.603925) scale(0.1 -0.1)">
       <use xlink:href="#DejaVuSans-4a"/>
       <use xlink:href="#DejaVuSans-31" x="29.492188"/>
       <use xlink:href="#DejaVuSans-35" x="93.115234"/>
       <use xlink:href="#DejaVuSans-2d" x="156.738281"/>
       <use xlink:href="#DejaVuSans-55" x="192.822266"/>
       <use xlink:href="#DejaVuSans-30" x="266.015625"/>
       <use xlink:href="#DejaVuSans-31" x="329.638672"/>
      </g>
     </g>
    </g>
    <g id="ytick_15">
     <g id="line2d_21">
      <g>
       <use xlink:href="#m499f0db550" x="54" y="485.237647" style="stroke: #000000; stroke-width: 0.8"/>
      </g>
     </g>
     <g id="text_21">
      <!-- J13-U01 -->
      <g transform="translate(7.673437 489.036866) scale(0.1 -0.1)">
       <use xlink:href="#DejaVuSans-4a"/>
       <use xlink:href="#DejaVuSans-31" x="29.492188"/>
       <use xlink:href="#DejaVuSans-33" x="93.115234"/>
       <use xlink:href="#DejaVuSans-2d" x="156.738281"/>
       <use xlink:href="#DejaVuSans-55" x="192.822266"/>
       <use xlink:href="#DejaVuSans-30" x="266.015625"/>
       <use xlink:href="#DejaVuSans-31" x="329.638672"/>
      </g>
     </g>
    </g>
    <g id="ytick_16">
     <g id="line2d_22">
      <g>
       <use xlink:href="#m499f0db550" x="54" y="465.670588" style="stroke: #000000; stroke-width: 0.8"/>
      </g>
     </g>
     <g id="text_22">
      <!-- J04-U01 -->
      <g transform="translate(7.673437 469.469807) scale(0.1 -0.1)">
       <use xlink:href="#DejaVuSans-4a"/>
       <use xlink:href="#DejaVuSans-30" x="29.492188"/>
       <use xlink:href="#DejaVuSans-34" x="93.115234"/>
       <use xlink:href="#DejaVuSans-2d" x="156.738281"/>
       <use xlink:href="#DejaVuSans-55" x="192.822266"/>
       <use xlink:href="#DejaVuSans-30" x="266.015625"/>
       <use xlink:href="#DejaVuSans-31" x="329.638672"/>
      </g>
     </g>
    </g>
    <g id="ytick_17">
     <g id="line2d_23">
      <g>
       <use xlink:href="#m499f0db550" x="54" y="446.103529" style="stroke: #000000; stroke-width: 0.8"/>
      </g>
     </g>
     <g id="text_23">
      <!-- J05-U11 -->
      <g transform="translate(7.673437 449.902748) scale(0.1 -0.1)">
       <use xlink:href="#DejaVuSans-4a"/>
       <use xlink:href="#DejaVuSans-30" x="29.492188"/>
       <use xlink:href="#DejaVuSans-35" x="93.115234"/>
       <use xlink:href="#DejaVuSans-2d" x="156.738281"/>
       <use xlink:href="#DejaVuSans-55" x="192.822266"/>
       <use xlink:href="#DejaVuSans-31" x="266.015625"/>
       <use xlink:href="#DejaVuSans-31" x="329.638672"/>
      </g>
     </g>
    </g>
    <g id="ytick_18">
     <g id="line2d_24">
      <g>
       <use xlink:href="#m499f0db550" x="54" y="426.536471" style="stroke: #000000; stroke-width: 0.8"/>
      </g>
     </g>
     <g id="text_24">
      <!-- J11-U01 -->
      <g transform="translate(7.673437 430.335689) scale(0.1 -0.1)">
       <use xlink:href="#DejaVuSans-4a"/>
       <use xlink:href="#DejaVuSans-31" x="29.492188"/>
       <use xlink:href="#DejaVuSans-31" x="93.115234"/>
       <use xlink:href="#DejaVuSans-2d" x="156.738281"/>
       <use xlink:href="#DejaVuSans-55" x="192.822266"/>
       <use xlink:href="#DejaVuSans-30" x="266.015625"/>
       <use xlink:href="#DejaVuSans-31" x="329.638672"/>
      </g>
     </g>
    </g>
    <g id="ytick_19">
     <g id="line2d_25">
      <g>
       <use xlink:href="#m499f0db550" x="54" y="406.969412" style="stroke: #000000; stroke-width: 0.8"/>
      </g>
     </g>
     <g id="text_25">
      <!-- J03-U01 -->
      <g transform="translate(7.673437 410.768631) scale(0.1 -0.1)">
       <use xlink:href="#DejaVuSans-4a"/>
       <use xlink:href="#DejaVuSans-30" x="29.492188"/>
       <use xlink:href="#DejaVuSans-33" x="93.115234"/>
       <use xlink:href="#DejaVuSans-2d" x="156.738281"/>
       <use xlink:href="#DejaVuSans-55" x="192.822266"/>
       <use xlink:href="#DejaVuSans-30" x="266.015625"/>
       <use xlink:href="#DejaVuSans-31" x="329.638672"/>
      </g>
     </g>
    </g>
    <g id="ytick_20">
     <g id="line2d_26">
      <g>
       <use xlink:href="#m499f0db550" x="54" y="387.402353" style="stroke: #000000; stroke-width: 0.8"/>
      </g>
     </g>
     <g id="text_26">
      <!-- J08-U01 -->
      <g transform="translate(7.673437 391.201572) scale(0.1 -0.1)">
       <use xlink:href="#DejaVuSans-4a"/>
       <use xlink:href="#DejaVuSans-30" x="29.492188"/>
       <use xlink:href="#DejaVuSans-38" x="93.115234"/>
       <use xlink:href="#DejaVuSans-2d" x="156.738281"/>
       <use xlink:href="#DejaVuSans-55" x="192.822266"/>
       <use xlink:href="#DejaVuSans-30" x="266.015625"/>
       <use xlink:href="#DejaVuSans-31" x="329.638672"/>
      </g>
     </g>
    </g>
    <g id="ytick_21">
     <g id="line2d_27">
      <g>
       <use xlink:href="#m499f0db550" x="54" y="367.835294" style="stroke: #000000; stroke-width: 0.8"/>
      </g>
     </g>
     <g id="text_27">
      <!-- J09-U11 -->
      <g transform="translate(7.673437 371.634513) scale(0.1 -0.1)">
       <defs>
        <path id="DejaVuSans-39" d="M 703 97 
L 703 672 
Q 941 559 1184 500 
Q 1428 441 1663 441 
Q 2288 441 2617 861 
Q 2947 1281 2994 2138 
Q 2813 1869 2534 1725 
Q 2256 1581 1919 1581 
Q 1219 1581 811 2004 
Q 403 2428 403 3163 
Q 403 3881 828 4315 
Q 1253 4750 1959 4750 
Q 2769 4750 3195 4129 
Q 3622 3509 3622 2328 
Q 3622 1225 3098 567 
Q 2575 -91 1691 -91 
Q 1453 -91 1209 -44 
Q 966 3 703 97 
z
M 1959 2075 
Q 2384 2075 2632 2365 
Q 2881 2656 2881 3163 
Q 2881 3666 2632 3958 
Q 2384 4250 1959 4250 
Q 1534 4250 1286 3958 
Q 1038 3666 1038 3163 
Q 1038 2656 1286 2365 
Q 1534 2075 1959 2075 
z
" transform="scale(0.015625)"/>
       </defs>
       <use xlink:href="#DejaVuSans-4a"/>
       <use xlink:href="#DejaVuSans-30" x="29.492188"/>
       <use xlink:href="#DejaVuSans-39" x="93.115234"/>
       <use xlink:href="#DejaVuSans-2d" x="156.738281"/>
       <use xlink:href="#DejaVuSans-55" x="192.822266"/>
       <use xlink:href="#DejaVuSans-31" x="266.015625"/>
       <use xlink:href="#DejaVuSans-31" x="329.638672"/>
      </g>
     </g>
    </g>
    <g id="ytick_22">
     <g id="line2d_28">
      <g>
       <use xlink:href="#m499f0db550" x="54" y="348.268235" style="stroke: #000000; stroke-width: 0.8"/>
      </g>
     </g>
     <g id="text_28">
      <!-- J16-U01 -->
      <g transform="translate(7.673437 352.067454) scale(0.1 -0.1)">
       <use xlink:href="#DejaVuSans-4a"/>
       <use xlink:href="#DejaVuSans-31" x="29.492188"/>
       <use xlink:href="#DejaVuSans-36" x="93.115234"/>
       <use xlink:href="#DejaVuSans-2d" x="156.738281"/>
       <use xlink:href="#DejaVuSans-55" x="192.822266"/>
       <use xlink:href="#DejaVuSans-30" x="266.015625"/>
       <use xlink:href="#DejaVuSans-31" x="329.638672"/>
      </g>
     </g>
    </g>
    <g id="ytick_23">
     <g id="line2d_29">
      <g>
       <use xlink:href="#m499f0db550" x="54" y="328.701176" style="stroke: #000000; stroke-width: 0.8"/>
      </g>
     </g>
     <g id="text_29">
      <!-- J09-U01 -->
      <g transform="translate(7.673437 332.500395) scale(0.1 -0.1)">
       <use xlink:href="#DejaVuSans-4a"/>
       <use xlink:href="#DejaVuSans-30" x="29.492188"/>
       <use xlink:href="#DejaVuSans-39" x="93.115234"/>
       <use xlink:href="#DejaVuSans-2d" x="156.738281"/>
       <use xlink:href="#DejaVuSans-55" x="192.822266"/>
       <use xlink:href="#DejaVuSans-30" x="266.015625"/>
       <use xlink:href="#DejaVuSans-31" x="329.638672"/>
      </g>
     </g>
    </g>
    <g id="ytick_24">
     <g id="line2d_30">
      <g>
       <use xlink:href="#m499f0db550" x="54" y="309.134118" style="stroke: #000000; stroke-width: 0.8"/>
      </g>
     </g>
     <g id="text_30">
      <!-- J17-U11 -->
      <g transform="translate(7.673437 312.933336) scale(0.1 -0.1)">
       <use xlink:href="#DejaVuSans-4a"/>
       <use xlink:href="#DejaVuSans-31" x="29.492188"/>
       <use xlink:href="#DejaVuSans-37" x="93.115234"/>
       <use xlink:href="#DejaVuSans-2d" x="156.738281"/>
       <use xlink:href="#DejaVuSans-55" x="192.822266"/>
       <use xlink:href="#DejaVuSans-31" x="266.015625"/>
       <use xlink:href="#DejaVuSans-31" x="329.638672"/>
      </g>
     </g>
    </g>
    <g id="ytick_25">
     <g id="line2d_31">
      <g>
       <use xlink:href="#m499f0db550" x="54" y="289.567059" style="stroke: #000000; stroke-width: 0.8"/>
      </g>
     </g>
     <g id="text_31">
      <!-- J11-U11 -->
      <g transform="translate(7.673437 293.366278) scale(0.1 -0.1)">
       <use xlink:href="#DejaVuSans-4a"/>
       <use xlink:href="#DejaVuSans-31" x="29.492188"/>
       <use xlink:href="#DejaVuSans-31" x="93.115234"/>
       <use xlink:href="#DejaVuSans-2d" x="156.738281"/>
       <use xlink:href="#DejaVuSans-55" x="192.822266"/>
       <use xlink:href="#DejaVuSans-31" x="266.015625"/>
       <use xlink:href="#DejaVuSans-31" x="329.638672"/>
      </g>
     </g>
    </g>
    <g id="ytick_26">
     <g id="line2d_32">
      <g>
       <use xlink:href="#m499f0db550" x="54" y="270" style="stroke: #000000; stroke-width: 0.8"/>
      </g>
     </g>
     <g id="text_32">
      <!-- J06-U11 -->
      <g transform="translate(7.673437 273.799219) scale(0.1 -0.1)">
       <use xlink:href="#DejaVuSans-4a"/>
       <use xlink:href="#DejaVuSans-30" x="29.492188"/>
       <use xlink:href="#DejaVuSans-36" x="93.115234"/>
       <use xlink:href="#DejaVuSans-2d" x="156.738281"/>
       <use xlink:href="#DejaVuSans-55" x="192.822266"/>
       <use xlink:href="#DejaVuSans-31" x="266.015625"/>
       <use xlink:href="#DejaVuSans-31" x="329.638672"/>
      </g>
     </g>
    </g>
    <g id="ytick_27">
     <g id="line2d_33">
      <g>
       <use xlink:href="#m499f0db550" x="54" y="250.432941" style="stroke: #000000; stroke-width: 0.8"/>
      </g>
     </g>
     <g id="text_33">
      <!-- J16-U11 -->
      <g transform="translate(7.673437 254.23216) scale(0.1 -0.1)">
       <use xlink:href="#DejaVuSans-4a"/>
       <use xlink:href="#DejaVuSans-31" x="29.492188"/>
       <use xlink:href="#DejaVuSans-36" x="93.115234"/>
       <use xlink:href="#DejaVuSans-2d" x="156.738281"/>
       <use xlink:href="#DejaVuSans-55" x="192.822266"/>
       <use xlink:href="#DejaVuSans-31" x="266.015625"/>
       <use xlink:href="#DejaVuSans-31" x="329.638672"/>
      </g>
     </g>
    </g>
    <g id="ytick_28">
     <g id="line2d_34">
      <g>
       <use xlink:href="#m499f0db550" x="54" y="230.865882" style="stroke: #000000; stroke-width: 0.8"/>
      </g>
     </g>
     <g id="text_34">
      <!-- J03-U11 -->
      <g transform="translate(7.673437 234.665101) scale(0.1 -0.1)">
       <use xlink:href="#DejaVuSans-4a"/>
       <use xlink:href="#DejaVuSans-30" x="29.492188"/>
       <use xlink:href="#DejaVuSans-33" x="93.115234"/>
       <use xlink:href="#DejaVuSans-2d" x="156.738281"/>
       <use xlink:href="#DejaVuSans-55" x="192.822266"/>
       <use xlink:href="#DejaVuSans-31" x="266.015625"/>
       <use xlink:href="#DejaVuSans-31" x="329.638672"/>
      </g>
     </g>
    </g>
    <g id="ytick_29">
     <g id="line2d_35">
      <g>
       <use xlink:href="#m499f0db550" x="54" y="211.298824" style="stroke: #000000; stroke-width: 0.8"/>
      </g>
     </g>
     <g id="text_35">
      <!-- J10-U11 -->
      <g transform="translate(7.673437 215.098042) scale(0.1 -0.1)">
       <use xlink:href="#DejaVuSans-4a"/>
       <use xlink:href="#DejaVuSans-31" x="29.492188"/>
       <use xlink:href="#DejaVuSans-30" x="93.115234"/>
       <use xlink:href="#DejaVuSans-2d" x="156.738281"/>
       <use xlink:href="#DejaVuSans-55" x="192.822266"/>
       <use xlink:href="#DejaVuSans-31" x="266.015625"/>
       <use xlink:href="#DejaVuSans-31" x="329.638672"/>
      </g>
     </g>
    </g>
    <g id="ytick_30">
     <g id="line2d_36">
      <g>
       <use xlink:href="#m499f0db550" x="54" y="191.731765" style="stroke: #000000; stroke-width: 0.8"/>
      </g>
     </g>
     <g id="text_36">
      <!-- J07-U01 -->
      <g transform="translate(7.673437 195.530983) scale(0.1 -0.1)">
       <use xlink:href="#DejaVuSans-4a"/>
       <use xlink:href="#DejaVuSans-30" x="29.492188"/>
       <use xlink:href="#DejaVuSans-37" x="93.115234"/>
       <use xlink:href="#DejaVuSans-2d" x="156.738281"/>
       <use xlink:href="#DejaVuSans-55" x="192.822266"/>
       <use xlink:href="#DejaVuSans-30" x="266.015625"/>
       <use xlink:href="#DejaVuSans-31" x="329.638672"/>
      </g>
     </g>
    </g>
    <g id="ytick_31">
     <g id="line2d_37">
      <g>
       <use xlink:href="#m499f0db550" x="54" y="172.164706" style="stroke: #000000; stroke-width: 0.8"/>
      </g>
     </g>
     <g id="text_37">
      <!-- J12-U01 -->
      <g transform="translate(7.673437 175.963925) scale(0.1 -0.1)">
       <use xlink:href="#DejaVuSans-4a"/>
       <use xlink:href="#DejaVuSans-31" x="29.492188"/>
       <use xlink:href="#DejaVuSans-32" x="93.115234"/>
       <use xlink:href="#DejaVuSans-2d" x="156.738281"/>
       <use xlink:href="#DejaVuSans-55" x="192.822266"/>
       <use xlink:href="#DejaVuSans-30" x="266.015625"/>
       <use xlink:href="#DejaVuSans-31" x="329.638672"/>
      </g>
     </g>
    </g>
    <g id="ytick_32">
     <g id="line2d_38">
      <g>
       <use xlink:href="#m499f0db550" x="54" y="152.597647" style="stroke: #000000; stroke-width: 0.8"/>
      </g>
     </g>
     <g id="text_38">
      <!-- J14-U01 -->
      <g transform="translate(7.673437 156.396866) scale(0.1 -0.1)">
       <use xlink:href="#DejaVuSans-4a"/>
       <use xlink:href="#DejaVuSans-31" x="29.492188"/>
       <use xlink:href="#DejaVuSans-34" x="93.115234"/>
       <use xlink:href="#DejaVuSans-2d" x="156.738281"/>
       <use xlink:href="#DejaVuSans-55" x="192.822266"/>
       <use xlink:href="#DejaVuSans-30" x="266.015625"/>
       <use xlink:href="#DejaVuSans-31" x="329.638672"/>
      </g>
     </g>
    </g>
    <g id="ytick_33">
     <g id="line2d_39">
      <g>
       <use xlink:href="#m499f0db550" x="54" y="133.030588" style="stroke: #000000; stroke-width: 0.8"/>
      </g>
     </g>
     <g id="text_39">
      <!-- J18-U01 -->
      <g transform="translate(7.673437 136.829807) scale(0.1 -0.1)">
       <use xlink:href="#DejaVuSans-4a"/>
       <use xlink:href="#DejaVuSans-31" x="29.492188"/>
       <use xlink:href="#DejaVuSans-38" x="93.115234"/>
       <use xlink:href="#DejaVuSans-2d" x="156.738281"/>
       <use xlink:href="#DejaVuSans-55" x="192.822266"/>
       <use xlink:href="#DejaVuSans-30" x="266.015625"/>
       <use xlink:href="#DejaVuSans-31" x="329.638672"/>
      </g>
     </g>
    </g>
    <g id="ytick_34">
     <g id="line2d_40">
      <g>
       <use xlink:href="#m499f0db550" x="54" y="113.463529" style="stroke: #000000; stroke-width: 0.8"/>
      </g>
     </g>
     <g id="text_40">
      <!-- J18-U11 -->
      <g transform="translate(7.673437 117.262748) scale(0.1 -0.1)">
       <use xlink:href="#DejaVuSans-4a"/>
       <use xlink:href="#DejaVuSans-31" x="29.492188"/>
       <use xlink:href="#DejaVuSans-38" x="93.115234"/>
       <use xlink:href="#DejaVuSans-2d" x="156.738281"/>
       <use xlink:href="#DejaVuSans-55" x="192.822266"/>
       <use xlink:href="#DejaVuSans-31" x="266.015625"/>
       <use xlink:href="#DejaVuSans-31" x="329.638672"/>
      </g>
     </g>
    </g>
    <g id="text_41">
     <!-- Card -->
     <g transform="translate(1.59375 448.017656) rotate(-90) scale(0.1 -0.1)">
      <defs>
       <path id="DejaVuSans-43" d="M 4122 4306 
L 4122 3641 
Q 3803 3938 3442 4084 
Q 3081 4231 2675 4231 
Q 1875 4231 1450 3742 
Q 1025 3253 1025 2328 
Q 1025 1406 1450 917 
Q 1875 428 2675 428 
Q 3081 428 3442 575 
Q 3803 722 4122 1019 
L 4122 359 
Q 3791 134 3420 21 
Q 3050 -91 2638 -91 
Q 1578 -91 968 557 
Q 359 1206 359 2328 
Q 359 3453 968 4101 
Q 1578 4750 2638 4750 
Q 3056 4750 3426 4639 
Q 3797 4528 4122 4306 
z
" transform="scale(0.015625)"/>
       <path id="DejaVuSans-61" d="M 2194 1759 
Q 1497 1759 1228 1600 
Q 959 1441 959 1056 
Q 959 750 1161 570 
Q 1363 391 1709 391 
Q 2188 391 2477 730 
Q 2766 1069 2766 1631 
L 2766 1759 
L 2194 1759 
z
M 3341 1997 
L 3341 0 
L 2766 0 
L 2766 531 
Q 2569 213 2275 61 
Q 1981 -91 1556 -91 
Q 1019 -91 701 211 
Q 384 513 384 1019 
Q 384 1609 779 1909 
Q 1175 2209 1959 2209 
L 2766 2209 
L 2766 2266 
Q 2766 2663 2505 2880 
Q 2244 3097 1772 3097 
Q 1472 3097 1187 3025 
Q 903 2953 641 2809 
L 641 3341 
Q 956 3463 1253 3523 
Q 1550 3584 1831 3584 
Q 2591 3584 2966 3190 
Q 3341 2797 3341 1997 
z
" transform="scale(0.015625)"/>
       <path id="DejaVuSans-72" d="M 2631 2963 
Q 2534 3019 2420 3045 
Q 2306 3072 2169 3072 
Q 1681 3072 1420 2755 
Q 1159 2438 1159 1844 
L 1159 0 
L 581 0 
L 581 3500 
L 1159 3500 
L 1159 2956 
Q 1341 3275 1631 3429 
Q 1922 3584 2338 3584 
Q 2397 3584 2469 3576 
Q 2541 3569 2628 3553 
L 2631 2963 
z
" transform="scale(0.015625)"/>
       <path id="DejaVuSans-64" d="M 2906 2969 
L 2906 4863 
L 3481 4863 
L 3481 0 
L 2906 0 
L 2906 525 
Q 2725 213 2448 61 
Q 2172 -91 1784 -91 
Q 1150 -91 751 415 
Q 353 922 353 1747 
Q 353 2572 751 3078 
Q 1150 3584 1784 3584 
Q 2172 3584 2448 3432 
Q 2725 3281 2906 2969 
z
M 947 1747 
Q 947 1113 1208 752 
Q 1469 391 1925 391 
Q 2381 391 2643 752 
Q 2906 1113 2906 1747 
Q 2906 2381 2643 2742 
Q 2381 3103 1925 3103 
Q 1469 3103 1208 2742 
Q 947 2381 947 1747 
z
" transform="scale(0.015625)"/>
      </defs>
      <use xlink:href="#DejaVuSans-43"/>
      <use xlink:href="#DejaVuSans-61" x="69.824219"/>
      <use xlink:href="#DejaVuSans-72" x="131.103516"/>
      <use xlink:href="#DejaVuSans-64" x="170.466797"/>
     </g>
    </g>
   </g>
   <g id="patch_37">
    <path d="M 54 768.96 
L 54 103.68 
" style="fill: none; stroke: #000000; stroke-width: 0.8; stroke-linejoin: miter; stroke-linecap: square"/>
   </g>
   <g id="patch_38">
    <path d="M 388.8 768.96 
L 388.8 103.68 
" style="fill: none; stroke: #000000; stroke-width: 0.8; stroke-linejoin: miter; stroke-linecap: square"/>
   </g>
   <g id="patch_39">
    <path d="M 54 768.96 
L 388.8 768.96 
" style="fill: none; stroke: #000000; stroke-width: 0.8; stroke-linejoin: miter; stroke-linecap: square"/>
   </g>
   <g id="patch_40">
    <path d="M 54 103.68 
L 388.8 103.68 
" style="fill: none; stroke: #000000; stroke-width: 0.8; stroke-linejoin: miter; stroke-linecap: square"/>
   </g>
  </g>
 </g>
 <defs>
  <clipPath id="p6d1a74064f">
   <rect x="54" y="103.68" width="334.8" height="665.28"/>
  </clipPath>
 </defs>
</svg>
