<?xml version="1.0" encoding="utf-8" standalone="no"?>
<!DOCTYPE svg PUBLIC "-//W3C//DTD SVG 1.1//EN"
  "http://www.w3.org/Graphics/SVG/1.1/DTD/svg11.dtd">
<svg height="360pt" version="1.1" viewBox="0 0 504 360" width="504pt" xmlns="http://www.w3.org/2000/svg" xmlns:xlink="http://www.w3.org/1999/xlink">
 <metadata>
  <rdf:RDF xmlns:cc="http://creativecommons.org/ns#" xmlns:dc="http://purl.org/dc/elements/1.1/" xmlns:rdf="http://www.w3.org/1999/02/22-rdf-syntax-ns#">
   <cc:Work>
    <dc:type rdf:resource="http://purl.org/dc/dcmitype/StillImage"/>
    <dc:date>2022-11-04T17:10:56.672304</dc:date>
    <dc:format>image/svg+xml</dc:format>
    <dc:creator>
     <cc:Agent>
      <dc:title>Matplotlib v3.4.3, https://matplotlib.org/</dc:title>
     </cc:Agent>
    </dc:creator>
   </cc:Work>
  </rdf:RDF>
 </metadata>
 <defs>
  <style type="text/css">*{stroke-linecap:butt;stroke-linejoin:round;}</style>
 </defs>
 <g id="figure_1">
  <g id="patch_1">
   <path d="M 0 360 
L 504 360 
L 504 0 
L 0 0 
z
" style="fill:none;"/>
  </g>
  <g id="axes_1">
   <g id="patch_2">
    <path d="M 63 315 
L 453.6 315 
L 453.6 43.2 
L 63 43.2 
z
" style="fill:#ffffff;"/>
   </g>
   <g id="matplotlib.axis_1">
    <g id="xtick_1">
     <g id="line2d_1">
      <defs>
       <path d="M 0 0 
L 0 3.5 
" id="m9b3c1a8008" style="stroke:#000000;stroke-width:0.8;"/>
      </defs>
      <g>
       <use style="stroke:#000000;stroke-width:0.8;" x="70.310695" xlink:href="#m9b3c1a8008" y="315"/>
      </g>
     </g>
     <g id="text_1">
      <!-- 0 -->
      <g transform="translate(67.129445 329.598437)scale(0.1 -0.1)">
       <defs>
        <path d="M 2034 4250 
Q 1547 4250 1301 3770 
Q 1056 3291 1056 2328 
Q 1056 1369 1301 889 
Q 1547 409 2034 409 
Q 2525 409 2770 889 
Q 3016 1369 3016 2328 
Q 3016 3291 2770 3770 
Q 2525 4250 2034 4250 
z
M 2034 4750 
Q 2819 4750 3233 4129 
Q 3647 3509 3647 2328 
Q 3647 1150 3233 529 
Q 2819 -91 2034 -91 
Q 1250 -91 836 529 
Q 422 1150 422 2328 
Q 422 3509 836 4129 
Q 1250 4750 2034 4750 
z
" id="DejaVuSans-30" transform="scale(0.015625)"/>
       </defs>
       <use xlink:href="#DejaVuSans-30"/>
      </g>
     </g>
    </g>
    <g id="xtick_2">
     <g id="line2d_2">
      <g>
       <use style="stroke:#000000;stroke-width:0.8;" x="80.754545" xlink:href="#m9b3c1a8008" y="315"/>
      </g>
     </g>
     <g id="text_2">
      <!-- 1 -->
      <g transform="translate(77.573295 329.598437)scale(0.1 -0.1)">
       <defs>
        <path d="M 794 531 
L 1825 531 
L 1825 4091 
L 703 3866 
L 703 4441 
L 1819 4666 
L 2450 4666 
L 2450 531 
L 3481 531 
L 3481 0 
L 794 0 
L 794 531 
z
" id="DejaVuSans-31" transform="scale(0.015625)"/>
       </defs>
       <use xlink:href="#DejaVuSans-31"/>
      </g>
     </g>
    </g>
    <g id="xtick_3">
     <g id="line2d_3">
      <g>
       <use style="stroke:#000000;stroke-width:0.8;" x="91.198396" xlink:href="#m9b3c1a8008" y="315"/>
      </g>
     </g>
     <g id="text_3">
      <!-- 2 -->
      <g transform="translate(88.017146 329.598437)scale(0.1 -0.1)">
       <defs>
        <path d="M 1228 531 
L 3431 531 
L 3431 0 
L 469 0 
L 469 531 
Q 828 903 1448 1529 
Q 2069 2156 2228 2338 
Q 2531 2678 2651 2914 
Q 2772 3150 2772 3378 
Q 2772 3750 2511 3984 
Q 2250 4219 1831 4219 
Q 1534 4219 1204 4116 
Q 875 4013 500 3803 
L 500 4441 
Q 881 4594 1212 4672 
Q 1544 4750 1819 4750 
Q 2544 4750 2975 4387 
Q 3406 4025 3406 3419 
Q 3406 3131 3298 2873 
Q 3191 2616 2906 2266 
Q 2828 2175 2409 1742 
Q 1991 1309 1228 531 
z
" id="DejaVuSans-32" transform="scale(0.015625)"/>
       </defs>
       <use xlink:href="#DejaVuSans-32"/>
      </g>
     </g>
    </g>
    <g id="xtick_4">
     <g id="line2d_4">
      <g>
       <use style="stroke:#000000;stroke-width:0.8;" x="101.642246" xlink:href="#m9b3c1a8008" y="315"/>
      </g>
     </g>
     <g id="text_4">
      <!-- 3 -->
      <g transform="translate(98.460996 329.598437)scale(0.1 -0.1)">
       <defs>
        <path d="M 2597 2516 
Q 3050 2419 3304 2112 
Q 3559 1806 3559 1356 
Q 3559 666 3084 287 
Q 2609 -91 1734 -91 
Q 1441 -91 1130 -33 
Q 819 25 488 141 
L 488 750 
Q 750 597 1062 519 
Q 1375 441 1716 441 
Q 2309 441 2620 675 
Q 2931 909 2931 1356 
Q 2931 1769 2642 2001 
Q 2353 2234 1838 2234 
L 1294 2234 
L 1294 2753 
L 1863 2753 
Q 2328 2753 2575 2939 
Q 2822 3125 2822 3475 
Q 2822 3834 2567 4026 
Q 2313 4219 1838 4219 
Q 1578 4219 1281 4162 
Q 984 4106 628 3988 
L 628 4550 
Q 988 4650 1302 4700 
Q 1616 4750 1894 4750 
Q 2613 4750 3031 4423 
Q 3450 4097 3450 3541 
Q 3450 3153 3228 2886 
Q 3006 2619 2597 2516 
z
" id="DejaVuSans-33" transform="scale(0.015625)"/>
       </defs>
       <use xlink:href="#DejaVuSans-33"/>
      </g>
     </g>
    </g>
    <g id="xtick_5">
     <g id="line2d_5">
      <g>
       <use style="stroke:#000000;stroke-width:0.8;" x="112.086096" xlink:href="#m9b3c1a8008" y="315"/>
      </g>
     </g>
     <g id="text_5">
      <!-- 4 -->
      <g transform="translate(108.904846 329.598437)scale(0.1 -0.1)">
       <defs>
        <path d="M 2419 4116 
L 825 1625 
L 2419 1625 
L 2419 4116 
z
M 2253 4666 
L 3047 4666 
L 3047 1625 
L 3713 1625 
L 3713 1100 
L 3047 1100 
L 3047 0 
L 2419 0 
L 2419 1100 
L 313 1100 
L 313 1709 
L 2253 4666 
z
" id="DejaVuSans-34" transform="scale(0.015625)"/>
       </defs>
       <use xlink:href="#DejaVuSans-34"/>
      </g>
     </g>
    </g>
    <g id="xtick_6">
     <g id="line2d_6">
      <g>
       <use style="stroke:#000000;stroke-width:0.8;" x="122.529947" xlink:href="#m9b3c1a8008" y="315"/>
      </g>
     </g>
     <g id="text_6">
      <!-- 5 -->
      <g transform="translate(119.348697 329.598437)scale(0.1 -0.1)">
       <defs>
        <path d="M 691 4666 
L 3169 4666 
L 3169 4134 
L 1269 4134 
L 1269 2991 
Q 1406 3038 1543 3061 
Q 1681 3084 1819 3084 
Q 2600 3084 3056 2656 
Q 3513 2228 3513 1497 
Q 3513 744 3044 326 
Q 2575 -91 1722 -91 
Q 1428 -91 1123 -41 
Q 819 9 494 109 
L 494 744 
Q 775 591 1075 516 
Q 1375 441 1709 441 
Q 2250 441 2565 725 
Q 2881 1009 2881 1497 
Q 2881 1984 2565 2268 
Q 2250 2553 1709 2553 
Q 1456 2553 1204 2497 
Q 953 2441 691 2322 
L 691 4666 
z
" id="DejaVuSans-35" transform="scale(0.015625)"/>
       </defs>
       <use xlink:href="#DejaVuSans-35"/>
      </g>
     </g>
    </g>
    <g id="xtick_7">
     <g id="line2d_7">
      <g>
       <use style="stroke:#000000;stroke-width:0.8;" x="132.973797" xlink:href="#m9b3c1a8008" y="315"/>
      </g>
     </g>
     <g id="text_7">
      <!-- 6 -->
      <g transform="translate(129.792547 329.598437)scale(0.1 -0.1)">
       <defs>
        <path d="M 2113 2584 
Q 1688 2584 1439 2293 
Q 1191 2003 1191 1497 
Q 1191 994 1439 701 
Q 1688 409 2113 409 
Q 2538 409 2786 701 
Q 3034 994 3034 1497 
Q 3034 2003 2786 2293 
Q 2538 2584 2113 2584 
z
M 3366 4563 
L 3366 3988 
Q 3128 4100 2886 4159 
Q 2644 4219 2406 4219 
Q 1781 4219 1451 3797 
Q 1122 3375 1075 2522 
Q 1259 2794 1537 2939 
Q 1816 3084 2150 3084 
Q 2853 3084 3261 2657 
Q 3669 2231 3669 1497 
Q 3669 778 3244 343 
Q 2819 -91 2113 -91 
Q 1303 -91 875 529 
Q 447 1150 447 2328 
Q 447 3434 972 4092 
Q 1497 4750 2381 4750 
Q 2619 4750 2861 4703 
Q 3103 4656 3366 4563 
z
" id="DejaVuSans-36" transform="scale(0.015625)"/>
       </defs>
       <use xlink:href="#DejaVuSans-36"/>
      </g>
     </g>
    </g>
    <g id="xtick_8">
     <g id="line2d_8">
      <g>
       <use style="stroke:#000000;stroke-width:0.8;" x="143.417647" xlink:href="#m9b3c1a8008" y="315"/>
      </g>
     </g>
     <g id="text_8">
      <!-- 7 -->
      <g transform="translate(140.236397 329.598437)scale(0.1 -0.1)">
       <defs>
        <path d="M 525 4666 
L 3525 4666 
L 3525 4397 
L 1831 0 
L 1172 0 
L 2766 4134 
L 525 4134 
L 525 4666 
z
" id="DejaVuSans-37" transform="scale(0.015625)"/>
       </defs>
       <use xlink:href="#DejaVuSans-37"/>
      </g>
     </g>
    </g>
    <g id="xtick_9">
     <g id="line2d_9">
      <g>
       <use style="stroke:#000000;stroke-width:0.8;" x="153.861497" xlink:href="#m9b3c1a8008" y="315"/>
      </g>
     </g>
     <g id="text_9">
      <!-- 8 -->
      <g transform="translate(150.680247 329.598437)scale(0.1 -0.1)">
       <defs>
        <path d="M 2034 2216 
Q 1584 2216 1326 1975 
Q 1069 1734 1069 1313 
Q 1069 891 1326 650 
Q 1584 409 2034 409 
Q 2484 409 2743 651 
Q 3003 894 3003 1313 
Q 3003 1734 2745 1975 
Q 2488 2216 2034 2216 
z
M 1403 2484 
Q 997 2584 770 2862 
Q 544 3141 544 3541 
Q 544 4100 942 4425 
Q 1341 4750 2034 4750 
Q 2731 4750 3128 4425 
Q 3525 4100 3525 3541 
Q 3525 3141 3298 2862 
Q 3072 2584 2669 2484 
Q 3125 2378 3379 2068 
Q 3634 1759 3634 1313 
Q 3634 634 3220 271 
Q 2806 -91 2034 -91 
Q 1263 -91 848 271 
Q 434 634 434 1313 
Q 434 1759 690 2068 
Q 947 2378 1403 2484 
z
M 1172 3481 
Q 1172 3119 1398 2916 
Q 1625 2713 2034 2713 
Q 2441 2713 2670 2916 
Q 2900 3119 2900 3481 
Q 2900 3844 2670 4047 
Q 2441 4250 2034 4250 
Q 1625 4250 1398 4047 
Q 1172 3844 1172 3481 
z
" id="DejaVuSans-38" transform="scale(0.015625)"/>
       </defs>
       <use xlink:href="#DejaVuSans-38"/>
      </g>
     </g>
    </g>
    <g id="xtick_10">
     <g id="line2d_10">
      <g>
       <use style="stroke:#000000;stroke-width:0.8;" x="164.305348" xlink:href="#m9b3c1a8008" y="315"/>
      </g>
     </g>
     <g id="text_10">
      <!-- 9 -->
      <g transform="translate(161.124098 329.598437)scale(0.1 -0.1)">
       <defs>
        <path d="M 703 97 
L 703 672 
Q 941 559 1184 500 
Q 1428 441 1663 441 
Q 2288 441 2617 861 
Q 2947 1281 2994 2138 
Q 2813 1869 2534 1725 
Q 2256 1581 1919 1581 
Q 1219 1581 811 2004 
Q 403 2428 403 3163 
Q 403 3881 828 4315 
Q 1253 4750 1959 4750 
Q 2769 4750 3195 4129 
Q 3622 3509 3622 2328 
Q 3622 1225 3098 567 
Q 2575 -91 1691 -91 
Q 1453 -91 1209 -44 
Q 966 3 703 97 
z
M 1959 2075 
Q 2384 2075 2632 2365 
Q 2881 2656 2881 3163 
Q 2881 3666 2632 3958 
Q 2384 4250 1959 4250 
Q 1534 4250 1286 3958 
Q 1038 3666 1038 3163 
Q 1038 2656 1286 2365 
Q 1534 2075 1959 2075 
z
" id="DejaVuSans-39" transform="scale(0.015625)"/>
       </defs>
       <use xlink:href="#DejaVuSans-39"/>
      </g>
     </g>
    </g>
    <g id="xtick_11">
     <g id="line2d_11">
      <g>
       <use style="stroke:#000000;stroke-width:0.8;" x="174.749198" xlink:href="#m9b3c1a8008" y="315"/>
      </g>
     </g>
     <g id="text_11">
      <!-- 10 -->
      <g transform="translate(168.386698 329.598437)scale(0.1 -0.1)">
       <use xlink:href="#DejaVuSans-31"/>
       <use x="63.623047" xlink:href="#DejaVuSans-30"/>
      </g>
     </g>
    </g>
    <g id="xtick_12">
     <g id="line2d_12">
      <g>
       <use style="stroke:#000000;stroke-width:0.8;" x="185.193048" xlink:href="#m9b3c1a8008" y="315"/>
      </g>
     </g>
     <g id="text_12">
      <!-- 11 -->
      <g transform="translate(178.830548 329.598437)scale(0.1 -0.1)">
       <use xlink:href="#DejaVuSans-31"/>
       <use x="63.623047" xlink:href="#DejaVuSans-31"/>
      </g>
     </g>
    </g>
    <g id="xtick_13">
     <g id="line2d_13">
      <g>
       <use style="stroke:#000000;stroke-width:0.8;" x="195.636898" xlink:href="#m9b3c1a8008" y="315"/>
      </g>
     </g>
     <g id="text_13">
      <!-- 12 -->
      <g transform="translate(189.274398 329.598437)scale(0.1 -0.1)">
       <use xlink:href="#DejaVuSans-31"/>
       <use x="63.623047" xlink:href="#DejaVuSans-32"/>
      </g>
     </g>
    </g>
    <g id="xtick_14">
     <g id="line2d_14">
      <g>
       <use style="stroke:#000000;stroke-width:0.8;" x="206.080749" xlink:href="#m9b3c1a8008" y="315"/>
      </g>
     </g>
     <g id="text_14">
      <!-- 13 -->
      <g transform="translate(199.718249 329.598437)scale(0.1 -0.1)">
       <use xlink:href="#DejaVuSans-31"/>
       <use x="63.623047" xlink:href="#DejaVuSans-33"/>
      </g>
     </g>
    </g>
    <g id="xtick_15">
     <g id="line2d_15">
      <g>
       <use style="stroke:#000000;stroke-width:0.8;" x="216.524599" xlink:href="#m9b3c1a8008" y="315"/>
      </g>
     </g>
     <g id="text_15">
      <!-- 14 -->
      <g transform="translate(210.162099 329.598437)scale(0.1 -0.1)">
       <use xlink:href="#DejaVuSans-31"/>
       <use x="63.623047" xlink:href="#DejaVuSans-34"/>
      </g>
     </g>
    </g>
    <g id="xtick_16">
     <g id="line2d_16">
      <g>
       <use style="stroke:#000000;stroke-width:0.8;" x="226.968449" xlink:href="#m9b3c1a8008" y="315"/>
      </g>
     </g>
     <g id="text_16">
      <!-- 15 -->
      <g transform="translate(220.605949 329.598437)scale(0.1 -0.1)">
       <use xlink:href="#DejaVuSans-31"/>
       <use x="63.623047" xlink:href="#DejaVuSans-35"/>
      </g>
     </g>
    </g>
    <g id="xtick_17">
     <g id="line2d_17">
      <g>
       <use style="stroke:#000000;stroke-width:0.8;" x="237.412299" xlink:href="#m9b3c1a8008" y="315"/>
      </g>
     </g>
     <g id="text_17">
      <!-- 16 -->
      <g transform="translate(231.049799 329.598437)scale(0.1 -0.1)">
       <use xlink:href="#DejaVuSans-31"/>
       <use x="63.623047" xlink:href="#DejaVuSans-36"/>
      </g>
     </g>
    </g>
    <g id="xtick_18">
     <g id="line2d_18">
      <g>
       <use style="stroke:#000000;stroke-width:0.8;" x="247.85615" xlink:href="#m9b3c1a8008" y="315"/>
      </g>
     </g>
     <g id="text_18">
      <!-- 17 -->
      <g transform="translate(241.49365 329.598437)scale(0.1 -0.1)">
       <use xlink:href="#DejaVuSans-31"/>
       <use x="63.623047" xlink:href="#DejaVuSans-37"/>
      </g>
     </g>
    </g>
    <g id="xtick_19">
     <g id="line2d_19">
      <g>
       <use style="stroke:#000000;stroke-width:0.8;" x="258.3" xlink:href="#m9b3c1a8008" y="315"/>
      </g>
     </g>
     <g id="text_19">
      <!-- 18 -->
      <g transform="translate(251.9375 329.598437)scale(0.1 -0.1)">
       <use xlink:href="#DejaVuSans-31"/>
       <use x="63.623047" xlink:href="#DejaVuSans-38"/>
      </g>
     </g>
    </g>
    <g id="xtick_20">
     <g id="line2d_20">
      <g>
       <use style="stroke:#000000;stroke-width:0.8;" x="268.74385" xlink:href="#m9b3c1a8008" y="315"/>
      </g>
     </g>
     <g id="text_20">
      <!-- 19 -->
      <g transform="translate(262.38135 329.598437)scale(0.1 -0.1)">
       <use xlink:href="#DejaVuSans-31"/>
       <use x="63.623047" xlink:href="#DejaVuSans-39"/>
      </g>
     </g>
    </g>
    <g id="xtick_21">
     <g id="line2d_21">
      <g>
       <use style="stroke:#000000;stroke-width:0.8;" x="279.187701" xlink:href="#m9b3c1a8008" y="315"/>
      </g>
     </g>
     <g id="text_21">
      <!-- 20 -->
      <g transform="translate(272.825201 329.598437)scale(0.1 -0.1)">
       <use xlink:href="#DejaVuSans-32"/>
       <use x="63.623047" xlink:href="#DejaVuSans-30"/>
      </g>
     </g>
    </g>
    <g id="xtick_22">
     <g id="line2d_22">
      <g>
       <use style="stroke:#000000;stroke-width:0.8;" x="289.631551" xlink:href="#m9b3c1a8008" y="315"/>
      </g>
     </g>
     <g id="text_22">
      <!-- 21 -->
      <g transform="translate(283.269051 329.598437)scale(0.1 -0.1)">
       <use xlink:href="#DejaVuSans-32"/>
       <use x="63.623047" xlink:href="#DejaVuSans-31"/>
      </g>
     </g>
    </g>
    <g id="xtick_23">
     <g id="line2d_23">
      <g>
       <use style="stroke:#000000;stroke-width:0.8;" x="300.075401" xlink:href="#m9b3c1a8008" y="315"/>
      </g>
     </g>
     <g id="text_23">
      <!-- 22 -->
      <g transform="translate(293.712901 329.598437)scale(0.1 -0.1)">
       <use xlink:href="#DejaVuSans-32"/>
       <use x="63.623047" xlink:href="#DejaVuSans-32"/>
      </g>
     </g>
    </g>
    <g id="xtick_24">
     <g id="line2d_24">
      <g>
       <use style="stroke:#000000;stroke-width:0.8;" x="310.519251" xlink:href="#m9b3c1a8008" y="315"/>
      </g>
     </g>
     <g id="text_24">
      <!-- 23 -->
      <g transform="translate(304.156751 329.598437)scale(0.1 -0.1)">
       <use xlink:href="#DejaVuSans-32"/>
       <use x="63.623047" xlink:href="#DejaVuSans-33"/>
      </g>
     </g>
    </g>
    <g id="xtick_25">
     <g id="line2d_25">
      <g>
       <use style="stroke:#000000;stroke-width:0.8;" x="320.963102" xlink:href="#m9b3c1a8008" y="315"/>
      </g>
     </g>
     <g id="text_25">
      <!-- 24 -->
      <g transform="translate(314.600602 329.598437)scale(0.1 -0.1)">
       <use xlink:href="#DejaVuSans-32"/>
       <use x="63.623047" xlink:href="#DejaVuSans-34"/>
      </g>
     </g>
    </g>
    <g id="xtick_26">
     <g id="line2d_26">
      <g>
       <use style="stroke:#000000;stroke-width:0.8;" x="331.406952" xlink:href="#m9b3c1a8008" y="315"/>
      </g>
     </g>
     <g id="text_26">
      <!-- 25 -->
      <g transform="translate(325.044452 329.598437)scale(0.1 -0.1)">
       <use xlink:href="#DejaVuSans-32"/>
       <use x="63.623047" xlink:href="#DejaVuSans-35"/>
      </g>
     </g>
    </g>
    <g id="xtick_27">
     <g id="line2d_27">
      <g>
       <use style="stroke:#000000;stroke-width:0.8;" x="341.850802" xlink:href="#m9b3c1a8008" y="315"/>
      </g>
     </g>
     <g id="text_27">
      <!-- 26 -->
      <g transform="translate(335.488302 329.598437)scale(0.1 -0.1)">
       <use xlink:href="#DejaVuSans-32"/>
       <use x="63.623047" xlink:href="#DejaVuSans-36"/>
      </g>
     </g>
    </g>
    <g id="xtick_28">
     <g id="line2d_28">
      <g>
       <use style="stroke:#000000;stroke-width:0.8;" x="352.294652" xlink:href="#m9b3c1a8008" y="315"/>
      </g>
     </g>
     <g id="text_28">
      <!-- 27 -->
      <g transform="translate(345.932152 329.598437)scale(0.1 -0.1)">
       <use xlink:href="#DejaVuSans-32"/>
       <use x="63.623047" xlink:href="#DejaVuSans-37"/>
      </g>
     </g>
    </g>
    <g id="xtick_29">
     <g id="line2d_29">
      <g>
       <use style="stroke:#000000;stroke-width:0.8;" x="362.738503" xlink:href="#m9b3c1a8008" y="315"/>
      </g>
     </g>
     <g id="text_29">
      <!-- 28 -->
      <g transform="translate(356.376003 329.598437)scale(0.1 -0.1)">
       <use xlink:href="#DejaVuSans-32"/>
       <use x="63.623047" xlink:href="#DejaVuSans-38"/>
      </g>
     </g>
    </g>
    <g id="xtick_30">
     <g id="line2d_30">
      <g>
       <use style="stroke:#000000;stroke-width:0.8;" x="373.182353" xlink:href="#m9b3c1a8008" y="315"/>
      </g>
     </g>
     <g id="text_30">
      <!-- 29 -->
      <g transform="translate(366.819853 329.598437)scale(0.1 -0.1)">
       <use xlink:href="#DejaVuSans-32"/>
       <use x="63.623047" xlink:href="#DejaVuSans-39"/>
      </g>
     </g>
    </g>
    <g id="xtick_31">
     <g id="line2d_31">
      <g>
       <use style="stroke:#000000;stroke-width:0.8;" x="383.626203" xlink:href="#m9b3c1a8008" y="315"/>
      </g>
     </g>
     <g id="text_31">
      <!-- 30 -->
      <g transform="translate(377.263703 329.598437)scale(0.1 -0.1)">
       <use xlink:href="#DejaVuSans-33"/>
       <use x="63.623047" xlink:href="#DejaVuSans-30"/>
      </g>
     </g>
    </g>
    <g id="xtick_32">
     <g id="line2d_32">
      <g>
       <use style="stroke:#000000;stroke-width:0.8;" x="394.070053" xlink:href="#m9b3c1a8008" y="315"/>
      </g>
     </g>
     <g id="text_32">
      <!-- 31 -->
      <g transform="translate(387.707553 329.598437)scale(0.1 -0.1)">
       <use xlink:href="#DejaVuSans-33"/>
       <use x="63.623047" xlink:href="#DejaVuSans-31"/>
      </g>
     </g>
    </g>
    <g id="xtick_33">
     <g id="line2d_33">
      <g>
       <use style="stroke:#000000;stroke-width:0.8;" x="404.513904" xlink:href="#m9b3c1a8008" y="315"/>
      </g>
     </g>
     <g id="text_33">
      <!-- 32 -->
      <g transform="translate(398.151404 329.598437)scale(0.1 -0.1)">
       <use xlink:href="#DejaVuSans-33"/>
       <use x="63.623047" xlink:href="#DejaVuSans-32"/>
      </g>
     </g>
    </g>
    <g id="xtick_34">
     <g id="line2d_34">
      <g>
       <use style="stroke:#000000;stroke-width:0.8;" x="414.957754" xlink:href="#m9b3c1a8008" y="315"/>
      </g>
     </g>
     <g id="text_34">
      <!-- 33 -->
      <g transform="translate(408.595254 329.598437)scale(0.1 -0.1)">
       <use xlink:href="#DejaVuSans-33"/>
       <use x="63.623047" xlink:href="#DejaVuSans-33"/>
      </g>
     </g>
    </g>
    <g id="xtick_35">
     <g id="line2d_35">
      <g>
       <use style="stroke:#000000;stroke-width:0.8;" x="425.401604" xlink:href="#m9b3c1a8008" y="315"/>
      </g>
     </g>
     <g id="text_35">
      <!-- 34 -->
      <g transform="translate(419.039104 329.598437)scale(0.1 -0.1)">
       <use xlink:href="#DejaVuSans-33"/>
       <use x="63.623047" xlink:href="#DejaVuSans-34"/>
      </g>
     </g>
    </g>
    <g id="xtick_36">
     <g id="line2d_36">
      <g>
       <use style="stroke:#000000;stroke-width:0.8;" x="435.845455" xlink:href="#m9b3c1a8008" y="315"/>
      </g>
     </g>
     <g id="text_36">
      <!-- 35 -->
      <g transform="translate(429.482955 329.598437)scale(0.1 -0.1)">
       <use xlink:href="#DejaVuSans-33"/>
       <use x="63.623047" xlink:href="#DejaVuSans-35"/>
      </g>
     </g>
    </g>
    <g id="text_37">
     <!-- Number of clusters -->
     <g transform="translate(210.607813 343.276563)scale(0.1 -0.1)">
      <defs>
       <path d="M 628 4666 
L 1478 4666 
L 3547 763 
L 3547 4666 
L 4159 4666 
L 4159 0 
L 3309 0 
L 1241 3903 
L 1241 0 
L 628 0 
L 628 4666 
z
" id="DejaVuSans-4e" transform="scale(0.015625)"/>
       <path d="M 544 1381 
L 544 3500 
L 1119 3500 
L 1119 1403 
Q 1119 906 1312 657 
Q 1506 409 1894 409 
Q 2359 409 2629 706 
Q 2900 1003 2900 1516 
L 2900 3500 
L 3475 3500 
L 3475 0 
L 2900 0 
L 2900 538 
Q 2691 219 2414 64 
Q 2138 -91 1772 -91 
Q 1169 -91 856 284 
Q 544 659 544 1381 
z
M 1991 3584 
L 1991 3584 
z
" id="DejaVuSans-75" transform="scale(0.015625)"/>
       <path d="M 3328 2828 
Q 3544 3216 3844 3400 
Q 4144 3584 4550 3584 
Q 5097 3584 5394 3201 
Q 5691 2819 5691 2113 
L 5691 0 
L 5113 0 
L 5113 2094 
Q 5113 2597 4934 2840 
Q 4756 3084 4391 3084 
Q 3944 3084 3684 2787 
Q 3425 2491 3425 1978 
L 3425 0 
L 2847 0 
L 2847 2094 
Q 2847 2600 2669 2842 
Q 2491 3084 2119 3084 
Q 1678 3084 1418 2786 
Q 1159 2488 1159 1978 
L 1159 0 
L 581 0 
L 581 3500 
L 1159 3500 
L 1159 2956 
Q 1356 3278 1631 3431 
Q 1906 3584 2284 3584 
Q 2666 3584 2933 3390 
Q 3200 3197 3328 2828 
z
" id="DejaVuSans-6d" transform="scale(0.015625)"/>
       <path d="M 3116 1747 
Q 3116 2381 2855 2742 
Q 2594 3103 2138 3103 
Q 1681 3103 1420 2742 
Q 1159 2381 1159 1747 
Q 1159 1113 1420 752 
Q 1681 391 2138 391 
Q 2594 391 2855 752 
Q 3116 1113 3116 1747 
z
M 1159 2969 
Q 1341 3281 1617 3432 
Q 1894 3584 2278 3584 
Q 2916 3584 3314 3078 
Q 3713 2572 3713 1747 
Q 3713 922 3314 415 
Q 2916 -91 2278 -91 
Q 1894 -91 1617 61 
Q 1341 213 1159 525 
L 1159 0 
L 581 0 
L 581 4863 
L 1159 4863 
L 1159 2969 
z
" id="DejaVuSans-62" transform="scale(0.015625)"/>
       <path d="M 3597 1894 
L 3597 1613 
L 953 1613 
Q 991 1019 1311 708 
Q 1631 397 2203 397 
Q 2534 397 2845 478 
Q 3156 559 3463 722 
L 3463 178 
Q 3153 47 2828 -22 
Q 2503 -91 2169 -91 
Q 1331 -91 842 396 
Q 353 884 353 1716 
Q 353 2575 817 3079 
Q 1281 3584 2069 3584 
Q 2775 3584 3186 3129 
Q 3597 2675 3597 1894 
z
M 3022 2063 
Q 3016 2534 2758 2815 
Q 2500 3097 2075 3097 
Q 1594 3097 1305 2825 
Q 1016 2553 972 2059 
L 3022 2063 
z
" id="DejaVuSans-65" transform="scale(0.015625)"/>
       <path d="M 2631 2963 
Q 2534 3019 2420 3045 
Q 2306 3072 2169 3072 
Q 1681 3072 1420 2755 
Q 1159 2438 1159 1844 
L 1159 0 
L 581 0 
L 581 3500 
L 1159 3500 
L 1159 2956 
Q 1341 3275 1631 3429 
Q 1922 3584 2338 3584 
Q 2397 3584 2469 3576 
Q 2541 3569 2628 3553 
L 2631 2963 
z
" id="DejaVuSans-72" transform="scale(0.015625)"/>
       <path id="DejaVuSans-20" transform="scale(0.015625)"/>
       <path d="M 1959 3097 
Q 1497 3097 1228 2736 
Q 959 2375 959 1747 
Q 959 1119 1226 758 
Q 1494 397 1959 397 
Q 2419 397 2687 759 
Q 2956 1122 2956 1747 
Q 2956 2369 2687 2733 
Q 2419 3097 1959 3097 
z
M 1959 3584 
Q 2709 3584 3137 3096 
Q 3566 2609 3566 1747 
Q 3566 888 3137 398 
Q 2709 -91 1959 -91 
Q 1206 -91 779 398 
Q 353 888 353 1747 
Q 353 2609 779 3096 
Q 1206 3584 1959 3584 
z
" id="DejaVuSans-6f" transform="scale(0.015625)"/>
       <path d="M 2375 4863 
L 2375 4384 
L 1825 4384 
Q 1516 4384 1395 4259 
Q 1275 4134 1275 3809 
L 1275 3500 
L 2222 3500 
L 2222 3053 
L 1275 3053 
L 1275 0 
L 697 0 
L 697 3053 
L 147 3053 
L 147 3500 
L 697 3500 
L 697 3744 
Q 697 4328 969 4595 
Q 1241 4863 1831 4863 
L 2375 4863 
z
" id="DejaVuSans-66" transform="scale(0.015625)"/>
       <path d="M 3122 3366 
L 3122 2828 
Q 2878 2963 2633 3030 
Q 2388 3097 2138 3097 
Q 1578 3097 1268 2742 
Q 959 2388 959 1747 
Q 959 1106 1268 751 
Q 1578 397 2138 397 
Q 2388 397 2633 464 
Q 2878 531 3122 666 
L 3122 134 
Q 2881 22 2623 -34 
Q 2366 -91 2075 -91 
Q 1284 -91 818 406 
Q 353 903 353 1747 
Q 353 2603 823 3093 
Q 1294 3584 2113 3584 
Q 2378 3584 2631 3529 
Q 2884 3475 3122 3366 
z
" id="DejaVuSans-63" transform="scale(0.015625)"/>
       <path d="M 603 4863 
L 1178 4863 
L 1178 0 
L 603 0 
L 603 4863 
z
" id="DejaVuSans-6c" transform="scale(0.015625)"/>
       <path d="M 2834 3397 
L 2834 2853 
Q 2591 2978 2328 3040 
Q 2066 3103 1784 3103 
Q 1356 3103 1142 2972 
Q 928 2841 928 2578 
Q 928 2378 1081 2264 
Q 1234 2150 1697 2047 
L 1894 2003 
Q 2506 1872 2764 1633 
Q 3022 1394 3022 966 
Q 3022 478 2636 193 
Q 2250 -91 1575 -91 
Q 1294 -91 989 -36 
Q 684 19 347 128 
L 347 722 
Q 666 556 975 473 
Q 1284 391 1588 391 
Q 1994 391 2212 530 
Q 2431 669 2431 922 
Q 2431 1156 2273 1281 
Q 2116 1406 1581 1522 
L 1381 1569 
Q 847 1681 609 1914 
Q 372 2147 372 2553 
Q 372 3047 722 3315 
Q 1072 3584 1716 3584 
Q 2034 3584 2315 3537 
Q 2597 3491 2834 3397 
z
" id="DejaVuSans-73" transform="scale(0.015625)"/>
       <path d="M 1172 4494 
L 1172 3500 
L 2356 3500 
L 2356 3053 
L 1172 3053 
L 1172 1153 
Q 1172 725 1289 603 
Q 1406 481 1766 481 
L 2356 481 
L 2356 0 
L 1766 0 
Q 1100 0 847 248 
Q 594 497 594 1153 
L 594 3053 
L 172 3053 
L 172 3500 
L 594 3500 
L 594 4494 
L 1172 4494 
z
" id="DejaVuSans-74" transform="scale(0.015625)"/>
      </defs>
      <use xlink:href="#DejaVuSans-4e"/>
      <use x="74.804688" xlink:href="#DejaVuSans-75"/>
      <use x="138.183594" xlink:href="#DejaVuSans-6d"/>
      <use x="235.595703" xlink:href="#DejaVuSans-62"/>
      <use x="299.072266" xlink:href="#DejaVuSans-65"/>
      <use x="360.595703" xlink:href="#DejaVuSans-72"/>
      <use x="401.708984" xlink:href="#DejaVuSans-20"/>
      <use x="433.496094" xlink:href="#DejaVuSans-6f"/>
      <use x="494.677734" xlink:href="#DejaVuSans-66"/>
      <use x="529.882812" xlink:href="#DejaVuSans-20"/>
      <use x="561.669922" xlink:href="#DejaVuSans-63"/>
      <use x="616.650391" xlink:href="#DejaVuSans-6c"/>
      <use x="644.433594" xlink:href="#DejaVuSans-75"/>
      <use x="707.8125" xlink:href="#DejaVuSans-73"/>
      <use x="759.912109" xlink:href="#DejaVuSans-74"/>
      <use x="799.121094" xlink:href="#DejaVuSans-65"/>
      <use x="860.644531" xlink:href="#DejaVuSans-72"/>
      <use x="901.757812" xlink:href="#DejaVuSans-73"/>
     </g>
    </g>
   </g>
   <g id="matplotlib.axis_2">
    <g id="ytick_1">
     <g id="line2d_37">
      <defs>
       <path d="M 0 0 
L -3.5 0 
" id="mb8054282a7" style="stroke:#000000;stroke-width:0.8;"/>
      </defs>
      <g>
       <use style="stroke:#000000;stroke-width:0.8;" x="63" xlink:href="#mb8054282a7" y="266.723737"/>
      </g>
     </g>
     <g id="text_38">
      <!-- 0.002 -->
      <g transform="translate(27.371875 270.522956)scale(0.1 -0.1)">
       <defs>
        <path d="M 684 794 
L 1344 794 
L 1344 0 
L 684 0 
L 684 794 
z
" id="DejaVuSans-2e" transform="scale(0.015625)"/>
       </defs>
       <use xlink:href="#DejaVuSans-30"/>
       <use x="63.623047" xlink:href="#DejaVuSans-2e"/>
       <use x="95.410156" xlink:href="#DejaVuSans-30"/>
       <use x="159.033203" xlink:href="#DejaVuSans-30"/>
       <use x="222.65625" xlink:href="#DejaVuSans-32"/>
      </g>
     </g>
    </g>
    <g id="ytick_2">
     <g id="line2d_38">
      <g>
       <use style="stroke:#000000;stroke-width:0.8;" x="63" xlink:href="#mb8054282a7" y="213.72896"/>
      </g>
     </g>
     <g id="text_39">
      <!-- 0.004 -->
      <g transform="translate(27.371875 217.528179)scale(0.1 -0.1)">
       <use xlink:href="#DejaVuSans-30"/>
       <use x="63.623047" xlink:href="#DejaVuSans-2e"/>
       <use x="95.410156" xlink:href="#DejaVuSans-30"/>
       <use x="159.033203" xlink:href="#DejaVuSans-30"/>
       <use x="222.65625" xlink:href="#DejaVuSans-34"/>
      </g>
     </g>
    </g>
    <g id="ytick_3">
     <g id="line2d_39">
      <g>
       <use style="stroke:#000000;stroke-width:0.8;" x="63" xlink:href="#mb8054282a7" y="160.734184"/>
      </g>
     </g>
     <g id="text_40">
      <!-- 0.006 -->
      <g transform="translate(27.371875 164.533402)scale(0.1 -0.1)">
       <use xlink:href="#DejaVuSans-30"/>
       <use x="63.623047" xlink:href="#DejaVuSans-2e"/>
       <use x="95.410156" xlink:href="#DejaVuSans-30"/>
       <use x="159.033203" xlink:href="#DejaVuSans-30"/>
       <use x="222.65625" xlink:href="#DejaVuSans-36"/>
      </g>
     </g>
    </g>
    <g id="ytick_4">
     <g id="line2d_40">
      <g>
       <use style="stroke:#000000;stroke-width:0.8;" x="63" xlink:href="#mb8054282a7" y="107.739407"/>
      </g>
     </g>
     <g id="text_41">
      <!-- 0.008 -->
      <g transform="translate(27.371875 111.538626)scale(0.1 -0.1)">
       <use xlink:href="#DejaVuSans-30"/>
       <use x="63.623047" xlink:href="#DejaVuSans-2e"/>
       <use x="95.410156" xlink:href="#DejaVuSans-30"/>
       <use x="159.033203" xlink:href="#DejaVuSans-30"/>
       <use x="222.65625" xlink:href="#DejaVuSans-38"/>
      </g>
     </g>
    </g>
    <g id="ytick_5">
     <g id="line2d_41">
      <g>
       <use style="stroke:#000000;stroke-width:0.8;" x="63" xlink:href="#mb8054282a7" y="54.74463"/>
      </g>
     </g>
     <g id="text_42">
      <!-- 0.010 -->
      <g transform="translate(27.371875 58.543849)scale(0.1 -0.1)">
       <use xlink:href="#DejaVuSans-30"/>
       <use x="63.623047" xlink:href="#DejaVuSans-2e"/>
       <use x="95.410156" xlink:href="#DejaVuSans-30"/>
       <use x="159.033203" xlink:href="#DejaVuSans-31"/>
       <use x="222.65625" xlink:href="#DejaVuSans-30"/>
      </g>
     </g>
    </g>
    <g id="text_43">
     <!-- Deviance lost ratio * dimension ratio -->
     <g transform="translate(21.292187 270.849219)rotate(-90)scale(0.1 -0.1)">
      <defs>
       <path d="M 1259 4147 
L 1259 519 
L 2022 519 
Q 2988 519 3436 956 
Q 3884 1394 3884 2338 
Q 3884 3275 3436 3711 
Q 2988 4147 2022 4147 
L 1259 4147 
z
M 628 4666 
L 1925 4666 
Q 3281 4666 3915 4102 
Q 4550 3538 4550 2338 
Q 4550 1131 3912 565 
Q 3275 0 1925 0 
L 628 0 
L 628 4666 
z
" id="DejaVuSans-44" transform="scale(0.015625)"/>
       <path d="M 191 3500 
L 800 3500 
L 1894 563 
L 2988 3500 
L 3597 3500 
L 2284 0 
L 1503 0 
L 191 3500 
z
" id="DejaVuSans-76" transform="scale(0.015625)"/>
       <path d="M 603 3500 
L 1178 3500 
L 1178 0 
L 603 0 
L 603 3500 
z
M 603 4863 
L 1178 4863 
L 1178 4134 
L 603 4134 
L 603 4863 
z
" id="DejaVuSans-69" transform="scale(0.015625)"/>
       <path d="M 2194 1759 
Q 1497 1759 1228 1600 
Q 959 1441 959 1056 
Q 959 750 1161 570 
Q 1363 391 1709 391 
Q 2188 391 2477 730 
Q 2766 1069 2766 1631 
L 2766 1759 
L 2194 1759 
z
M 3341 1997 
L 3341 0 
L 2766 0 
L 2766 531 
Q 2569 213 2275 61 
Q 1981 -91 1556 -91 
Q 1019 -91 701 211 
Q 384 513 384 1019 
Q 384 1609 779 1909 
Q 1175 2209 1959 2209 
L 2766 2209 
L 2766 2266 
Q 2766 2663 2505 2880 
Q 2244 3097 1772 3097 
Q 1472 3097 1187 3025 
Q 903 2953 641 2809 
L 641 3341 
Q 956 3463 1253 3523 
Q 1550 3584 1831 3584 
Q 2591 3584 2966 3190 
Q 3341 2797 3341 1997 
z
" id="DejaVuSans-61" transform="scale(0.015625)"/>
       <path d="M 3513 2113 
L 3513 0 
L 2938 0 
L 2938 2094 
Q 2938 2591 2744 2837 
Q 2550 3084 2163 3084 
Q 1697 3084 1428 2787 
Q 1159 2491 1159 1978 
L 1159 0 
L 581 0 
L 581 3500 
L 1159 3500 
L 1159 2956 
Q 1366 3272 1645 3428 
Q 1925 3584 2291 3584 
Q 2894 3584 3203 3211 
Q 3513 2838 3513 2113 
z
" id="DejaVuSans-6e" transform="scale(0.015625)"/>
       <path d="M 3009 3897 
L 1888 3291 
L 3009 2681 
L 2828 2375 
L 1778 3009 
L 1778 1831 
L 1422 1831 
L 1422 3009 
L 372 2375 
L 191 2681 
L 1313 3291 
L 191 3897 
L 372 4206 
L 1422 3572 
L 1422 4750 
L 1778 4750 
L 1778 3572 
L 2828 4206 
L 3009 3897 
z
" id="DejaVuSans-2a" transform="scale(0.015625)"/>
       <path d="M 2906 2969 
L 2906 4863 
L 3481 4863 
L 3481 0 
L 2906 0 
L 2906 525 
Q 2725 213 2448 61 
Q 2172 -91 1784 -91 
Q 1150 -91 751 415 
Q 353 922 353 1747 
Q 353 2572 751 3078 
Q 1150 3584 1784 3584 
Q 2172 3584 2448 3432 
Q 2725 3281 2906 2969 
z
M 947 1747 
Q 947 1113 1208 752 
Q 1469 391 1925 391 
Q 2381 391 2643 752 
Q 2906 1113 2906 1747 
Q 2906 2381 2643 2742 
Q 2381 3103 1925 3103 
Q 1469 3103 1208 2742 
Q 947 2381 947 1747 
z
" id="DejaVuSans-64" transform="scale(0.015625)"/>
      </defs>
      <use xlink:href="#DejaVuSans-44"/>
      <use x="77.001953" xlink:href="#DejaVuSans-65"/>
      <use x="138.525391" xlink:href="#DejaVuSans-76"/>
      <use x="197.705078" xlink:href="#DejaVuSans-69"/>
      <use x="225.488281" xlink:href="#DejaVuSans-61"/>
      <use x="286.767578" xlink:href="#DejaVuSans-6e"/>
      <use x="350.146484" xlink:href="#DejaVuSans-63"/>
      <use x="405.126953" xlink:href="#DejaVuSans-65"/>
      <use x="466.650391" xlink:href="#DejaVuSans-20"/>
      <use x="498.4375" xlink:href="#DejaVuSans-6c"/>
      <use x="526.220703" xlink:href="#DejaVuSans-6f"/>
      <use x="587.402344" xlink:href="#DejaVuSans-73"/>
      <use x="639.501953" xlink:href="#DejaVuSans-74"/>
      <use x="678.710938" xlink:href="#DejaVuSans-20"/>
      <use x="710.498047" xlink:href="#DejaVuSans-72"/>
      <use x="751.611328" xlink:href="#DejaVuSans-61"/>
      <use x="812.890625" xlink:href="#DejaVuSans-74"/>
      <use x="852.099609" xlink:href="#DejaVuSans-69"/>
      <use x="879.882812" xlink:href="#DejaVuSans-6f"/>
      <use x="941.064453" xlink:href="#DejaVuSans-20"/>
      <use x="972.851562" xlink:href="#DejaVuSans-2a"/>
      <use x="1022.851562" xlink:href="#DejaVuSans-20"/>
      <use x="1054.638672" xlink:href="#DejaVuSans-64"/>
      <use x="1118.115234" xlink:href="#DejaVuSans-69"/>
      <use x="1145.898438" xlink:href="#DejaVuSans-6d"/>
      <use x="1243.310547" xlink:href="#DejaVuSans-65"/>
      <use x="1304.833984" xlink:href="#DejaVuSans-6e"/>
      <use x="1368.212891" xlink:href="#DejaVuSans-73"/>
      <use x="1420.3125" xlink:href="#DejaVuSans-69"/>
      <use x="1448.095703" xlink:href="#DejaVuSans-6f"/>
      <use x="1509.277344" xlink:href="#DejaVuSans-6e"/>
      <use x="1572.65625" xlink:href="#DejaVuSans-20"/>
      <use x="1604.443359" xlink:href="#DejaVuSans-72"/>
      <use x="1645.556641" xlink:href="#DejaVuSans-61"/>
      <use x="1706.835938" xlink:href="#DejaVuSans-74"/>
      <use x="1746.044922" xlink:href="#DejaVuSans-69"/>
      <use x="1773.828125" xlink:href="#DejaVuSans-6f"/>
     </g>
    </g>
   </g>
   <g id="line2d_42">
    <path clip-path="url(#p05d312c7c2)" d="M 80.754545 302.645455 
L 91.198396 292.826922 
L 101.642246 285.911094 
L 112.086096 277.997961 
L 122.529947 270.585527 
L 132.973797 264.253315 
L 143.417647 257.179075 
L 153.861497 250.619889 
L 164.305348 243.417443 
L 174.749198 236.233614 
L 185.193048 229.114847 
L 195.636898 221.812417 
L 206.080749 214.646043 
L 216.524599 207.597782 
L 226.968449 200.579313 
L 237.412299 193.403389 
L 247.85615 186.217314 
L 258.3 179.081667 
L 268.74385 171.892123 
L 279.187701 164.714106 
L 289.631551 157.471186 
L 300.075401 150.225525 
L 310.519251 142.925284 
L 320.963102 135.639953 
L 331.406952 128.341181 
L 341.850802 121.049925 
L 352.294652 113.763763 
L 362.738503 106.45566 
L 373.182353 99.157861 
L 383.626203 91.869471 
L 394.070053 84.593806 
L 404.513904 77.316083 
L 414.957754 70.04968 
L 425.401604 62.801714 
L 435.845455 55.554545 
" style="fill:none;stroke:#1f77b4;stroke-linecap:square;stroke-width:1.5;"/>
   </g>
   <g id="line2d_43">
    <path clip-path="url(#p05d312c7c2)" d="M 80.754545 302.645455 
L 91.198396 292.496975 
L 101.642246 286.832248 
L 112.086096 285.576895 
L 122.529947 281.0979 
L 132.973797 277.551553 
L 143.417647 274.683284 
L 153.861497 270.292546 
L 164.305348 266.110016 
L 174.749198 261.889871 
L 185.193048 257.485538 
L 195.636898 252.925221 
L 206.080749 248.52937 
L 216.524599 244.098362 
L 226.968449 239.718793 
L 237.412299 235.277939 
L 247.85615 230.944209 
L 258.3 226.571342 
L 268.74385 222.281302 
L 279.187701 218.076015 
L 289.631551 213.762971 
L 300.075401 209.452434 
L 310.519251 205.187415 
L 320.963102 200.91992 
L 331.406952 196.678631 
L 341.850802 192.460369 
L 352.294652 188.235374 
L 362.738503 184.045243 
L 373.182353 179.864917 
L 383.626203 175.60412 
L 394.070053 171.372147 
L 404.513904 167.164626 
L 414.957754 162.972255 
L 425.401604 158.784576 
L 435.845455 154.609447 
" style="fill:none;stroke:#ff7f0e;stroke-linecap:square;stroke-width:1.5;"/>
   </g>
   <g id="line2d_44">
    <path clip-path="url(#p05d312c7c2)" d="M 80.754545 302.645455 
L 91.198396 292.319391 
L 101.642246 287.942266 
L 112.086096 287.490807 
L 122.529947 287.724612 
L 132.973797 285.104762 
L 143.417647 282.495499 
L 153.861497 280.327628 
L 164.305348 277.446105 
L 174.749198 274.804058 
L 185.193048 271.927605 
L 195.636898 269.31115 
L 206.080749 266.834666 
L 216.524599 264.423829 
L 226.968449 261.984891 
L 237.412299 259.27209 
L 247.85615 256.631893 
L 258.3 253.981755 
L 268.74385 251.384194 
L 279.187701 248.893758 
L 289.631551 246.494888 
L 300.075401 244.107591 
L 310.519251 241.754232 
L 320.963102 239.481266 
L 331.406952 237.125573 
L 341.850802 234.770705 
L 352.294652 232.485722 
L 362.738503 230.2257 
L 373.182353 227.883615 
L 383.626203 225.534617 
L 394.070053 223.101611 
L 404.513904 220.659366 
L 414.957754 218.234776 
L 425.401604 215.765784 
L 435.845455 213.317659 
" style="fill:none;stroke:#2ca02c;stroke-linecap:square;stroke-width:1.5;"/>
   </g>
   <g id="line2d_45">
    <path clip-path="url(#p05d312c7c2)" d="M 80.754545 302.645455 
L 91.198396 293.207171 
L 101.642246 289.054066 
L 112.086096 287.13158 
L 122.529947 286.187332 
L 132.973797 285.483224 
L 143.417647 283.663728 
L 153.861497 281.302348 
L 164.305348 279.282159 
L 174.749198 277.652961 
L 185.193048 276.439093 
L 195.636898 275.067414 
L 206.080749 273.958649 
L 216.524599 273.061897 
L 226.968449 271.603307 
L 237.412299 270.365777 
L 247.85615 269.354092 
L 258.3 268.364767 
L 268.74385 267.582552 
L 279.187701 266.645084 
L 289.631551 265.663368 
L 300.075401 264.490938 
L 310.519251 263.44095 
L 320.963102 262.445052 
L 331.406952 261.563022 
L 341.850802 260.744937 
L 352.294652 259.804137 
L 362.738503 258.95704 
L 373.182353 258.086544 
L 383.626203 257.076445 
L 394.070053 256.127251 
L 404.513904 255.185192 
L 414.957754 254.27649 
L 425.401604 253.384037 
L 435.845455 252.514198 
" style="fill:none;stroke:#d62728;stroke-linecap:square;stroke-width:1.5;"/>
   </g>
   <g id="patch_3">
    <path d="M 63 315 
L 63 43.2 
" style="fill:none;stroke:#000000;stroke-linecap:square;stroke-linejoin:miter;stroke-width:0.8;"/>
   </g>
   <g id="patch_4">
    <path d="M 453.6 315 
L 453.6 43.2 
" style="fill:none;stroke:#000000;stroke-linecap:square;stroke-linejoin:miter;stroke-width:0.8;"/>
   </g>
   <g id="patch_5">
    <path d="M 63 315 
L 453.6 315 
" style="fill:none;stroke:#000000;stroke-linecap:square;stroke-linejoin:miter;stroke-width:0.8;"/>
   </g>
   <g id="patch_6">
    <path d="M 63 43.2 
L 453.6 43.2 
" style="fill:none;stroke:#000000;stroke-linecap:square;stroke-linejoin:miter;stroke-width:0.8;"/>
   </g>
   <g id="text_44">
    <!-- Deviance lost vs dimension ratio -->
    <g transform="translate(160.264688 37.2)scale(0.12 -0.12)">
     <use xlink:href="#DejaVuSans-44"/>
     <use x="77.001953" xlink:href="#DejaVuSans-65"/>
     <use x="138.525391" xlink:href="#DejaVuSans-76"/>
     <use x="197.705078" xlink:href="#DejaVuSans-69"/>
     <use x="225.488281" xlink:href="#DejaVuSans-61"/>
     <use x="286.767578" xlink:href="#DejaVuSans-6e"/>
     <use x="350.146484" xlink:href="#DejaVuSans-63"/>
     <use x="405.126953" xlink:href="#DejaVuSans-65"/>
     <use x="466.650391" xlink:href="#DejaVuSans-20"/>
     <use x="498.4375" xlink:href="#DejaVuSans-6c"/>
     <use x="526.220703" xlink:href="#DejaVuSans-6f"/>
     <use x="587.402344" xlink:href="#DejaVuSans-73"/>
     <use x="639.501953" xlink:href="#DejaVuSans-74"/>
     <use x="678.710938" xlink:href="#DejaVuSans-20"/>
     <use x="710.498047" xlink:href="#DejaVuSans-76"/>
     <use x="769.677734" xlink:href="#DejaVuSans-73"/>
     <use x="821.777344" xlink:href="#DejaVuSans-20"/>
     <use x="853.564453" xlink:href="#DejaVuSans-64"/>
     <use x="917.041016" xlink:href="#DejaVuSans-69"/>
     <use x="944.824219" xlink:href="#DejaVuSans-6d"/>
     <use x="1042.236328" xlink:href="#DejaVuSans-65"/>
     <use x="1103.759766" xlink:href="#DejaVuSans-6e"/>
     <use x="1167.138672" xlink:href="#DejaVuSans-73"/>
     <use x="1219.238281" xlink:href="#DejaVuSans-69"/>
     <use x="1247.021484" xlink:href="#DejaVuSans-6f"/>
     <use x="1308.203125" xlink:href="#DejaVuSans-6e"/>
     <use x="1371.582031" xlink:href="#DejaVuSans-20"/>
     <use x="1403.369141" xlink:href="#DejaVuSans-72"/>
     <use x="1444.482422" xlink:href="#DejaVuSans-61"/>
     <use x="1505.761719" xlink:href="#DejaVuSans-74"/>
     <use x="1544.970703" xlink:href="#DejaVuSans-69"/>
     <use x="1572.753906" xlink:href="#DejaVuSans-6f"/>
    </g>
   </g>
   <g id="legend_1">
    <g id="patch_7">
     <path d="M 70 109.9125 
L 139.246875 109.9125 
Q 141.246875 109.9125 141.246875 107.9125 
L 141.246875 50.2 
Q 141.246875 48.2 139.246875 48.2 
L 70 48.2 
Q 68 48.2 68 50.2 
L 68 107.9125 
Q 68 109.9125 70 109.9125 
z
" style="fill:#ffffff;opacity:0.8;stroke:#cccccc;stroke-linejoin:miter;"/>
    </g>
    <g id="line2d_46">
     <path d="M 72 56.298437 
L 92 56.298437 
" style="fill:none;stroke:#1f77b4;stroke-linecap:square;stroke-width:1.5;"/>
    </g>
    <g id="line2d_47"/>
    <g id="text_45">
     <!-- 2 comp -->
     <g transform="translate(100 59.798437)scale(0.1 -0.1)">
      <defs>
       <path d="M 1159 525 
L 1159 -1331 
L 581 -1331 
L 581 3500 
L 1159 3500 
L 1159 2969 
Q 1341 3281 1617 3432 
Q 1894 3584 2278 3584 
Q 2916 3584 3314 3078 
Q 3713 2572 3713 1747 
Q 3713 922 3314 415 
Q 2916 -91 2278 -91 
Q 1894 -91 1617 61 
Q 1341 213 1159 525 
z
M 3116 1747 
Q 3116 2381 2855 2742 
Q 2594 3103 2138 3103 
Q 1681 3103 1420 2742 
Q 1159 2381 1159 1747 
Q 1159 1113 1420 752 
Q 1681 391 2138 391 
Q 2594 391 2855 752 
Q 3116 1113 3116 1747 
z
" id="DejaVuSans-70" transform="scale(0.015625)"/>
      </defs>
      <use xlink:href="#DejaVuSans-32"/>
      <use x="63.623047" xlink:href="#DejaVuSans-20"/>
      <use x="95.410156" xlink:href="#DejaVuSans-63"/>
      <use x="150.390625" xlink:href="#DejaVuSans-6f"/>
      <use x="211.572266" xlink:href="#DejaVuSans-6d"/>
      <use x="308.984375" xlink:href="#DejaVuSans-70"/>
     </g>
    </g>
    <g id="line2d_48">
     <path d="M 72 70.976562 
L 92 70.976562 
" style="fill:none;stroke:#ff7f0e;stroke-linecap:square;stroke-width:1.5;"/>
    </g>
    <g id="line2d_49"/>
    <g id="text_46">
     <!-- 3 comp -->
     <g transform="translate(100 74.476562)scale(0.1 -0.1)">
      <use xlink:href="#DejaVuSans-33"/>
      <use x="63.623047" xlink:href="#DejaVuSans-20"/>
      <use x="95.410156" xlink:href="#DejaVuSans-63"/>
      <use x="150.390625" xlink:href="#DejaVuSans-6f"/>
      <use x="211.572266" xlink:href="#DejaVuSans-6d"/>
      <use x="308.984375" xlink:href="#DejaVuSans-70"/>
     </g>
    </g>
    <g id="line2d_50">
     <path d="M 72 85.654687 
L 92 85.654687 
" style="fill:none;stroke:#2ca02c;stroke-linecap:square;stroke-width:1.5;"/>
    </g>
    <g id="line2d_51"/>
    <g id="text_47">
     <!-- 4 comp -->
     <g transform="translate(100 89.154687)scale(0.1 -0.1)">
      <use xlink:href="#DejaVuSans-34"/>
      <use x="63.623047" xlink:href="#DejaVuSans-20"/>
      <use x="95.410156" xlink:href="#DejaVuSans-63"/>
      <use x="150.390625" xlink:href="#DejaVuSans-6f"/>
      <use x="211.572266" xlink:href="#DejaVuSans-6d"/>
      <use x="308.984375" xlink:href="#DejaVuSans-70"/>
     </g>
    </g>
    <g id="line2d_52">
     <path d="M 72 100.332812 
L 92 100.332812 
" style="fill:none;stroke:#d62728;stroke-linecap:square;stroke-width:1.5;"/>
    </g>
    <g id="line2d_53"/>
    <g id="text_48">
     <!-- 5 comp -->
     <g transform="translate(100 103.832812)scale(0.1 -0.1)">
      <use xlink:href="#DejaVuSans-35"/>
      <use x="63.623047" xlink:href="#DejaVuSans-20"/>
      <use x="95.410156" xlink:href="#DejaVuSans-63"/>
      <use x="150.390625" xlink:href="#DejaVuSans-6f"/>
      <use x="211.572266" xlink:href="#DejaVuSans-6d"/>
      <use x="308.984375" xlink:href="#DejaVuSans-70"/>
     </g>
    </g>
   </g>
  </g>
 </g>
 <defs>
  <clipPath id="p05d312c7c2">
   <rect height="271.8" width="390.6" x="63" y="43.2"/>
  </clipPath>
 </defs>
</svg>
