<?xml version="1.0" encoding="utf-8" standalone="no"?>
<!DOCTYPE svg PUBLIC "-//W3C//DTD SVG 1.1//EN"
  "http://www.w3.org/Graphics/SVG/1.1/DTD/svg11.dtd">
<svg xmlns:xlink="http://www.w3.org/1999/xlink" width="864pt" height="432pt" viewBox="0 0 864 432" xmlns="http://www.w3.org/2000/svg" version="1.1">
 <metadata>
  <rdf:RDF xmlns:dc="http://purl.org/dc/elements/1.1/" xmlns:cc="http://creativecommons.org/ns#" xmlns:rdf="http://www.w3.org/1999/02/22-rdf-syntax-ns#">
   <cc:Work>
    <dc:type rdf:resource="http://purl.org/dc/dcmitype/StillImage"/>
    <dc:date>2022-12-14T11:03:15.086873</dc:date>
    <dc:format>image/svg+xml</dc:format>
    <dc:creator>
     <cc:Agent>
      <dc:title>Matplotlib v3.6.2, https://matplotlib.org/</dc:title>
     </cc:Agent>
    </dc:creator>
   </cc:Work>
  </rdf:RDF>
 </metadata>
 <defs>
  <style type="text/css">*{stroke-linejoin: round; stroke-linecap: butt}</style>
 </defs>
 <g id="figure_1">
  <g id="patch_1">
   <path d="M 0 432 
L 864 432 
L 864 0 
L 0 0 
z
" style="fill: #ffffff"/>
  </g>
  <g id="axes_1">
   <g id="patch_2">
    <path d="M 108 384.48 
L 777.6 384.48 
L 777.6 51.84 
L 108 51.84 
z
" style="fill: #ffffff"/>
   </g>
   <g id="matplotlib.axis_1">
    <g id="xtick_1">
     <g id="line2d_1">
      <path d="M 138.277086 384.48 
L 138.277086 51.84 
" clip-path="url(#p85b3f244c0)" style="fill: none; stroke: #b0b0b0; stroke-width: 0.8; stroke-linecap: square"/>
     </g>
     <g id="line2d_2">
      <defs>
       <path id="mda45f07196" d="M 0 0 
L 0 3.5 
" style="stroke: #000000; stroke-width: 0.8"/>
      </defs>
      <g>
       <use xlink:href="#mda45f07196" x="138.277086" y="384.48" style="stroke: #000000; stroke-width: 0.8"/>
      </g>
     </g>
     <g id="text_1">
      <!-- 0 -->
      <g transform="translate(135.095836 399.078438) scale(0.1 -0.1)">
       <defs>
        <path id="DejaVuSans-30" d="M 2034 4250 
Q 1547 4250 1301 3770 
Q 1056 3291 1056 2328 
Q 1056 1369 1301 889 
Q 1547 409 2034 409 
Q 2525 409 2770 889 
Q 3016 1369 3016 2328 
Q 3016 3291 2770 3770 
Q 2525 4250 2034 4250 
z
M 2034 4750 
Q 2819 4750 3233 4129 
Q 3647 3509 3647 2328 
Q 3647 1150 3233 529 
Q 2819 -91 2034 -91 
Q 1250 -91 836 529 
Q 422 1150 422 2328 
Q 422 3509 836 4129 
Q 1250 4750 2034 4750 
z
" transform="scale(0.015625)"/>
       </defs>
       <use xlink:href="#DejaVuSans-30"/>
      </g>
     </g>
    </g>
    <g id="xtick_2">
     <g id="line2d_3">
      <path d="M 225.31422 384.48 
L 225.31422 51.84 
" clip-path="url(#p85b3f244c0)" style="fill: none; stroke: #b0b0b0; stroke-width: 0.8; stroke-linecap: square"/>
     </g>
     <g id="line2d_4">
      <g>
       <use xlink:href="#mda45f07196" x="225.31422" y="384.48" style="stroke: #000000; stroke-width: 0.8"/>
      </g>
     </g>
     <g id="text_2">
      <!-- 100000 -->
      <g transform="translate(206.22672 399.078438) scale(0.1 -0.1)">
       <defs>
        <path id="DejaVuSans-31" d="M 794 531 
L 1825 531 
L 1825 4091 
L 703 3866 
L 703 4441 
L 1819 4666 
L 2450 4666 
L 2450 531 
L 3481 531 
L 3481 0 
L 794 0 
L 794 531 
z
" transform="scale(0.015625)"/>
       </defs>
       <use xlink:href="#DejaVuSans-31"/>
       <use xlink:href="#DejaVuSans-30" x="63.623047"/>
       <use xlink:href="#DejaVuSans-30" x="127.246094"/>
       <use xlink:href="#DejaVuSans-30" x="190.869141"/>
       <use xlink:href="#DejaVuSans-30" x="254.492188"/>
       <use xlink:href="#DejaVuSans-30" x="318.115234"/>
      </g>
     </g>
    </g>
    <g id="xtick_3">
     <g id="line2d_5">
      <path d="M 312.351354 384.48 
L 312.351354 51.84 
" clip-path="url(#p85b3f244c0)" style="fill: none; stroke: #b0b0b0; stroke-width: 0.8; stroke-linecap: square"/>
     </g>
     <g id="line2d_6">
      <g>
       <use xlink:href="#mda45f07196" x="312.351354" y="384.48" style="stroke: #000000; stroke-width: 0.8"/>
      </g>
     </g>
     <g id="text_3">
      <!-- 200000 -->
      <g transform="translate(293.263854 399.078438) scale(0.1 -0.1)">
       <defs>
        <path id="DejaVuSans-32" d="M 1228 531 
L 3431 531 
L 3431 0 
L 469 0 
L 469 531 
Q 828 903 1448 1529 
Q 2069 2156 2228 2338 
Q 2531 2678 2651 2914 
Q 2772 3150 2772 3378 
Q 2772 3750 2511 3984 
Q 2250 4219 1831 4219 
Q 1534 4219 1204 4116 
Q 875 4013 500 3803 
L 500 4441 
Q 881 4594 1212 4672 
Q 1544 4750 1819 4750 
Q 2544 4750 2975 4387 
Q 3406 4025 3406 3419 
Q 3406 3131 3298 2873 
Q 3191 2616 2906 2266 
Q 2828 2175 2409 1742 
Q 1991 1309 1228 531 
z
" transform="scale(0.015625)"/>
       </defs>
       <use xlink:href="#DejaVuSans-32"/>
       <use xlink:href="#DejaVuSans-30" x="63.623047"/>
       <use xlink:href="#DejaVuSans-30" x="127.246094"/>
       <use xlink:href="#DejaVuSans-30" x="190.869141"/>
       <use xlink:href="#DejaVuSans-30" x="254.492188"/>
       <use xlink:href="#DejaVuSans-30" x="318.115234"/>
      </g>
     </g>
    </g>
    <g id="xtick_4">
     <g id="line2d_7">
      <path d="M 399.388489 384.48 
L 399.388489 51.84 
" clip-path="url(#p85b3f244c0)" style="fill: none; stroke: #b0b0b0; stroke-width: 0.8; stroke-linecap: square"/>
     </g>
     <g id="line2d_8">
      <g>
       <use xlink:href="#mda45f07196" x="399.388489" y="384.48" style="stroke: #000000; stroke-width: 0.8"/>
      </g>
     </g>
     <g id="text_4">
      <!-- 300000 -->
      <g transform="translate(380.300989 399.078438) scale(0.1 -0.1)">
       <defs>
        <path id="DejaVuSans-33" d="M 2597 2516 
Q 3050 2419 3304 2112 
Q 3559 1806 3559 1356 
Q 3559 666 3084 287 
Q 2609 -91 1734 -91 
Q 1441 -91 1130 -33 
Q 819 25 488 141 
L 488 750 
Q 750 597 1062 519 
Q 1375 441 1716 441 
Q 2309 441 2620 675 
Q 2931 909 2931 1356 
Q 2931 1769 2642 2001 
Q 2353 2234 1838 2234 
L 1294 2234 
L 1294 2753 
L 1863 2753 
Q 2328 2753 2575 2939 
Q 2822 3125 2822 3475 
Q 2822 3834 2567 4026 
Q 2313 4219 1838 4219 
Q 1578 4219 1281 4162 
Q 984 4106 628 3988 
L 628 4550 
Q 988 4650 1302 4700 
Q 1616 4750 1894 4750 
Q 2613 4750 3031 4423 
Q 3450 4097 3450 3541 
Q 3450 3153 3228 2886 
Q 3006 2619 2597 2516 
z
" transform="scale(0.015625)"/>
       </defs>
       <use xlink:href="#DejaVuSans-33"/>
       <use xlink:href="#DejaVuSans-30" x="63.623047"/>
       <use xlink:href="#DejaVuSans-30" x="127.246094"/>
       <use xlink:href="#DejaVuSans-30" x="190.869141"/>
       <use xlink:href="#DejaVuSans-30" x="254.492188"/>
       <use xlink:href="#DejaVuSans-30" x="318.115234"/>
      </g>
     </g>
    </g>
    <g id="xtick_5">
     <g id="line2d_9">
      <path d="M 486.425623 384.48 
L 486.425623 51.84 
" clip-path="url(#p85b3f244c0)" style="fill: none; stroke: #b0b0b0; stroke-width: 0.8; stroke-linecap: square"/>
     </g>
     <g id="line2d_10">
      <g>
       <use xlink:href="#mda45f07196" x="486.425623" y="384.48" style="stroke: #000000; stroke-width: 0.8"/>
      </g>
     </g>
     <g id="text_5">
      <!-- 400000 -->
      <g transform="translate(467.338123 399.078438) scale(0.1 -0.1)">
       <defs>
        <path id="DejaVuSans-34" d="M 2419 4116 
L 825 1625 
L 2419 1625 
L 2419 4116 
z
M 2253 4666 
L 3047 4666 
L 3047 1625 
L 3713 1625 
L 3713 1100 
L 3047 1100 
L 3047 0 
L 2419 0 
L 2419 1100 
L 313 1100 
L 313 1709 
L 2253 4666 
z
" transform="scale(0.015625)"/>
       </defs>
       <use xlink:href="#DejaVuSans-34"/>
       <use xlink:href="#DejaVuSans-30" x="63.623047"/>
       <use xlink:href="#DejaVuSans-30" x="127.246094"/>
       <use xlink:href="#DejaVuSans-30" x="190.869141"/>
       <use xlink:href="#DejaVuSans-30" x="254.492188"/>
       <use xlink:href="#DejaVuSans-30" x="318.115234"/>
      </g>
     </g>
    </g>
    <g id="xtick_6">
     <g id="line2d_11">
      <path d="M 573.462757 384.48 
L 573.462757 51.84 
" clip-path="url(#p85b3f244c0)" style="fill: none; stroke: #b0b0b0; stroke-width: 0.8; stroke-linecap: square"/>
     </g>
     <g id="line2d_12">
      <g>
       <use xlink:href="#mda45f07196" x="573.462757" y="384.48" style="stroke: #000000; stroke-width: 0.8"/>
      </g>
     </g>
     <g id="text_6">
      <!-- 500000 -->
      <g transform="translate(554.375257 399.078438) scale(0.1 -0.1)">
       <defs>
        <path id="DejaVuSans-35" d="M 691 4666 
L 3169 4666 
L 3169 4134 
L 1269 4134 
L 1269 2991 
Q 1406 3038 1543 3061 
Q 1681 3084 1819 3084 
Q 2600 3084 3056 2656 
Q 3513 2228 3513 1497 
Q 3513 744 3044 326 
Q 2575 -91 1722 -91 
Q 1428 -91 1123 -41 
Q 819 9 494 109 
L 494 744 
Q 775 591 1075 516 
Q 1375 441 1709 441 
Q 2250 441 2565 725 
Q 2881 1009 2881 1497 
Q 2881 1984 2565 2268 
Q 2250 2553 1709 2553 
Q 1456 2553 1204 2497 
Q 953 2441 691 2322 
L 691 4666 
z
" transform="scale(0.015625)"/>
       </defs>
       <use xlink:href="#DejaVuSans-35"/>
       <use xlink:href="#DejaVuSans-30" x="63.623047"/>
       <use xlink:href="#DejaVuSans-30" x="127.246094"/>
       <use xlink:href="#DejaVuSans-30" x="190.869141"/>
       <use xlink:href="#DejaVuSans-30" x="254.492188"/>
       <use xlink:href="#DejaVuSans-30" x="318.115234"/>
      </g>
     </g>
    </g>
    <g id="xtick_7">
     <g id="line2d_13">
      <path d="M 660.499891 384.48 
L 660.499891 51.84 
" clip-path="url(#p85b3f244c0)" style="fill: none; stroke: #b0b0b0; stroke-width: 0.8; stroke-linecap: square"/>
     </g>
     <g id="line2d_14">
      <g>
       <use xlink:href="#mda45f07196" x="660.499891" y="384.48" style="stroke: #000000; stroke-width: 0.8"/>
      </g>
     </g>
     <g id="text_7">
      <!-- 600000 -->
      <g transform="translate(641.412391 399.078438) scale(0.1 -0.1)">
       <defs>
        <path id="DejaVuSans-36" d="M 2113 2584 
Q 1688 2584 1439 2293 
Q 1191 2003 1191 1497 
Q 1191 994 1439 701 
Q 1688 409 2113 409 
Q 2538 409 2786 701 
Q 3034 994 3034 1497 
Q 3034 2003 2786 2293 
Q 2538 2584 2113 2584 
z
M 3366 4563 
L 3366 3988 
Q 3128 4100 2886 4159 
Q 2644 4219 2406 4219 
Q 1781 4219 1451 3797 
Q 1122 3375 1075 2522 
Q 1259 2794 1537 2939 
Q 1816 3084 2150 3084 
Q 2853 3084 3261 2657 
Q 3669 2231 3669 1497 
Q 3669 778 3244 343 
Q 2819 -91 2113 -91 
Q 1303 -91 875 529 
Q 447 1150 447 2328 
Q 447 3434 972 4092 
Q 1497 4750 2381 4750 
Q 2619 4750 2861 4703 
Q 3103 4656 3366 4563 
z
" transform="scale(0.015625)"/>
       </defs>
       <use xlink:href="#DejaVuSans-36"/>
       <use xlink:href="#DejaVuSans-30" x="63.623047"/>
       <use xlink:href="#DejaVuSans-30" x="127.246094"/>
       <use xlink:href="#DejaVuSans-30" x="190.869141"/>
       <use xlink:href="#DejaVuSans-30" x="254.492188"/>
       <use xlink:href="#DejaVuSans-30" x="318.115234"/>
      </g>
     </g>
    </g>
    <g id="xtick_8">
     <g id="line2d_15">
      <path d="M 747.537026 384.48 
L 747.537026 51.84 
" clip-path="url(#p85b3f244c0)" style="fill: none; stroke: #b0b0b0; stroke-width: 0.8; stroke-linecap: square"/>
     </g>
     <g id="line2d_16">
      <g>
       <use xlink:href="#mda45f07196" x="747.537026" y="384.48" style="stroke: #000000; stroke-width: 0.8"/>
      </g>
     </g>
     <g id="text_8">
      <!-- 700000 -->
      <g transform="translate(728.449526 399.078438) scale(0.1 -0.1)">
       <defs>
        <path id="DejaVuSans-37" d="M 525 4666 
L 3525 4666 
L 3525 4397 
L 1831 0 
L 1172 0 
L 2766 4134 
L 525 4134 
L 525 4666 
z
" transform="scale(0.015625)"/>
       </defs>
       <use xlink:href="#DejaVuSans-37"/>
       <use xlink:href="#DejaVuSans-30" x="63.623047"/>
       <use xlink:href="#DejaVuSans-30" x="127.246094"/>
       <use xlink:href="#DejaVuSans-30" x="190.869141"/>
       <use xlink:href="#DejaVuSans-30" x="254.492188"/>
       <use xlink:href="#DejaVuSans-30" x="318.115234"/>
      </g>
     </g>
    </g>
    <g id="text_9">
     <!-- Time (s) -->
     <g transform="translate(422.471094 412.756563) scale(0.1 -0.1)">
      <defs>
       <path id="DejaVuSans-54" d="M -19 4666 
L 3928 4666 
L 3928 4134 
L 2272 4134 
L 2272 0 
L 1638 0 
L 1638 4134 
L -19 4134 
L -19 4666 
z
" transform="scale(0.015625)"/>
       <path id="DejaVuSans-69" d="M 603 3500 
L 1178 3500 
L 1178 0 
L 603 0 
L 603 3500 
z
M 603 4863 
L 1178 4863 
L 1178 4134 
L 603 4134 
L 603 4863 
z
" transform="scale(0.015625)"/>
       <path id="DejaVuSans-6d" d="M 3328 2828 
Q 3544 3216 3844 3400 
Q 4144 3584 4550 3584 
Q 5097 3584 5394 3201 
Q 5691 2819 5691 2113 
L 5691 0 
L 5113 0 
L 5113 2094 
Q 5113 2597 4934 2840 
Q 4756 3084 4391 3084 
Q 3944 3084 3684 2787 
Q 3425 2491 3425 1978 
L 3425 0 
L 2847 0 
L 2847 2094 
Q 2847 2600 2669 2842 
Q 2491 3084 2119 3084 
Q 1678 3084 1418 2786 
Q 1159 2488 1159 1978 
L 1159 0 
L 581 0 
L 581 3500 
L 1159 3500 
L 1159 2956 
Q 1356 3278 1631 3431 
Q 1906 3584 2284 3584 
Q 2666 3584 2933 3390 
Q 3200 3197 3328 2828 
z
" transform="scale(0.015625)"/>
       <path id="DejaVuSans-65" d="M 3597 1894 
L 3597 1613 
L 953 1613 
Q 991 1019 1311 708 
Q 1631 397 2203 397 
Q 2534 397 2845 478 
Q 3156 559 3463 722 
L 3463 178 
Q 3153 47 2828 -22 
Q 2503 -91 2169 -91 
Q 1331 -91 842 396 
Q 353 884 353 1716 
Q 353 2575 817 3079 
Q 1281 3584 2069 3584 
Q 2775 3584 3186 3129 
Q 3597 2675 3597 1894 
z
M 3022 2063 
Q 3016 2534 2758 2815 
Q 2500 3097 2075 3097 
Q 1594 3097 1305 2825 
Q 1016 2553 972 2059 
L 3022 2063 
z
" transform="scale(0.015625)"/>
       <path id="DejaVuSans-20" transform="scale(0.015625)"/>
       <path id="DejaVuSans-28" d="M 1984 4856 
Q 1566 4138 1362 3434 
Q 1159 2731 1159 2009 
Q 1159 1288 1364 580 
Q 1569 -128 1984 -844 
L 1484 -844 
Q 1016 -109 783 600 
Q 550 1309 550 2009 
Q 550 2706 781 3412 
Q 1013 4119 1484 4856 
L 1984 4856 
z
" transform="scale(0.015625)"/>
       <path id="DejaVuSans-73" d="M 2834 3397 
L 2834 2853 
Q 2591 2978 2328 3040 
Q 2066 3103 1784 3103 
Q 1356 3103 1142 2972 
Q 928 2841 928 2578 
Q 928 2378 1081 2264 
Q 1234 2150 1697 2047 
L 1894 2003 
Q 2506 1872 2764 1633 
Q 3022 1394 3022 966 
Q 3022 478 2636 193 
Q 2250 -91 1575 -91 
Q 1294 -91 989 -36 
Q 684 19 347 128 
L 347 722 
Q 666 556 975 473 
Q 1284 391 1588 391 
Q 1994 391 2212 530 
Q 2431 669 2431 922 
Q 2431 1156 2273 1281 
Q 2116 1406 1581 1522 
L 1381 1569 
Q 847 1681 609 1914 
Q 372 2147 372 2553 
Q 372 3047 722 3315 
Q 1072 3584 1716 3584 
Q 2034 3584 2315 3537 
Q 2597 3491 2834 3397 
z
" transform="scale(0.015625)"/>
       <path id="DejaVuSans-29" d="M 513 4856 
L 1013 4856 
Q 1481 4119 1714 3412 
Q 1947 2706 1947 2009 
Q 1947 1309 1714 600 
Q 1481 -109 1013 -844 
L 513 -844 
Q 928 -128 1133 580 
Q 1338 1288 1338 2009 
Q 1338 2731 1133 3434 
Q 928 4138 513 4856 
z
" transform="scale(0.015625)"/>
      </defs>
      <use xlink:href="#DejaVuSans-54"/>
      <use xlink:href="#DejaVuSans-69" x="57.958984"/>
      <use xlink:href="#DejaVuSans-6d" x="85.742188"/>
      <use xlink:href="#DejaVuSans-65" x="183.154297"/>
      <use xlink:href="#DejaVuSans-20" x="244.677734"/>
      <use xlink:href="#DejaVuSans-28" x="276.464844"/>
      <use xlink:href="#DejaVuSans-73" x="315.478516"/>
      <use xlink:href="#DejaVuSans-29" x="367.578125"/>
     </g>
    </g>
   </g>
   <g id="matplotlib.axis_2">
    <g id="ytick_1">
     <g id="line2d_17">
      <path d="M 108 369.36 
L 777.6 369.36 
" clip-path="url(#p85b3f244c0)" style="fill: none; stroke: #b0b0b0; stroke-width: 0.8; stroke-linecap: square"/>
     </g>
     <g id="line2d_18">
      <defs>
       <path id="m6fac1aa255" d="M 0 0 
L -3.5 0 
" style="stroke: #000000; stroke-width: 0.8"/>
      </defs>
      <g>
       <use xlink:href="#m6fac1aa255" x="108" y="369.36" style="stroke: #000000; stroke-width: 0.8"/>
      </g>
     </g>
     <g id="text_10">
      <!-- 0.0 -->
      <g transform="translate(85.096875 373.159219) scale(0.1 -0.1)">
       <defs>
        <path id="DejaVuSans-2e" d="M 684 794 
L 1344 794 
L 1344 0 
L 684 0 
L 684 794 
z
" transform="scale(0.015625)"/>
       </defs>
       <use xlink:href="#DejaVuSans-30"/>
       <use xlink:href="#DejaVuSans-2e" x="63.623047"/>
       <use xlink:href="#DejaVuSans-30" x="95.410156"/>
      </g>
     </g>
    </g>
    <g id="ytick_2">
     <g id="line2d_19">
      <path d="M 108 308.32 
L 777.6 308.32 
" clip-path="url(#p85b3f244c0)" style="fill: none; stroke: #b0b0b0; stroke-width: 0.8; stroke-linecap: square"/>
     </g>
     <g id="line2d_20">
      <g>
       <use xlink:href="#m6fac1aa255" x="108" y="308.32" style="stroke: #000000; stroke-width: 0.8"/>
      </g>
     </g>
     <g id="text_11">
      <!-- 0.2 -->
      <g transform="translate(85.096875 312.119219) scale(0.1 -0.1)">
       <use xlink:href="#DejaVuSans-30"/>
       <use xlink:href="#DejaVuSans-2e" x="63.623047"/>
       <use xlink:href="#DejaVuSans-32" x="95.410156"/>
      </g>
     </g>
    </g>
    <g id="ytick_3">
     <g id="line2d_21">
      <path d="M 108 247.28 
L 777.6 247.28 
" clip-path="url(#p85b3f244c0)" style="fill: none; stroke: #b0b0b0; stroke-width: 0.8; stroke-linecap: square"/>
     </g>
     <g id="line2d_22">
      <g>
       <use xlink:href="#m6fac1aa255" x="108" y="247.28" style="stroke: #000000; stroke-width: 0.8"/>
      </g>
     </g>
     <g id="text_12">
      <!-- 0.4 -->
      <g transform="translate(85.096875 251.079219) scale(0.1 -0.1)">
       <use xlink:href="#DejaVuSans-30"/>
       <use xlink:href="#DejaVuSans-2e" x="63.623047"/>
       <use xlink:href="#DejaVuSans-34" x="95.410156"/>
      </g>
     </g>
    </g>
    <g id="ytick_4">
     <g id="line2d_23">
      <path d="M 108 186.24 
L 777.6 186.24 
" clip-path="url(#p85b3f244c0)" style="fill: none; stroke: #b0b0b0; stroke-width: 0.8; stroke-linecap: square"/>
     </g>
     <g id="line2d_24">
      <g>
       <use xlink:href="#m6fac1aa255" x="108" y="186.24" style="stroke: #000000; stroke-width: 0.8"/>
      </g>
     </g>
     <g id="text_13">
      <!-- 0.6 -->
      <g transform="translate(85.096875 190.039219) scale(0.1 -0.1)">
       <use xlink:href="#DejaVuSans-30"/>
       <use xlink:href="#DejaVuSans-2e" x="63.623047"/>
       <use xlink:href="#DejaVuSans-36" x="95.410156"/>
      </g>
     </g>
    </g>
    <g id="ytick_5">
     <g id="line2d_25">
      <path d="M 108 125.2 
L 777.6 125.2 
" clip-path="url(#p85b3f244c0)" style="fill: none; stroke: #b0b0b0; stroke-width: 0.8; stroke-linecap: square"/>
     </g>
     <g id="line2d_26">
      <g>
       <use xlink:href="#m6fac1aa255" x="108" y="125.2" style="stroke: #000000; stroke-width: 0.8"/>
      </g>
     </g>
     <g id="text_14">
      <!-- 0.8 -->
      <g transform="translate(85.096875 128.999219) scale(0.1 -0.1)">
       <defs>
        <path id="DejaVuSans-38" d="M 2034 2216 
Q 1584 2216 1326 1975 
Q 1069 1734 1069 1313 
Q 1069 891 1326 650 
Q 1584 409 2034 409 
Q 2484 409 2743 651 
Q 3003 894 3003 1313 
Q 3003 1734 2745 1975 
Q 2488 2216 2034 2216 
z
M 1403 2484 
Q 997 2584 770 2862 
Q 544 3141 544 3541 
Q 544 4100 942 4425 
Q 1341 4750 2034 4750 
Q 2731 4750 3128 4425 
Q 3525 4100 3525 3541 
Q 3525 3141 3298 2862 
Q 3072 2584 2669 2484 
Q 3125 2378 3379 2068 
Q 3634 1759 3634 1313 
Q 3634 634 3220 271 
Q 2806 -91 2034 -91 
Q 1263 -91 848 271 
Q 434 634 434 1313 
Q 434 1759 690 2068 
Q 947 2378 1403 2484 
z
M 1172 3481 
Q 1172 3119 1398 2916 
Q 1625 2713 2034 2713 
Q 2441 2713 2670 2916 
Q 2900 3119 2900 3481 
Q 2900 3844 2670 4047 
Q 2441 4250 2034 4250 
Q 1625 4250 1398 4047 
Q 1172 3844 1172 3481 
z
" transform="scale(0.015625)"/>
       </defs>
       <use xlink:href="#DejaVuSans-30"/>
       <use xlink:href="#DejaVuSans-2e" x="63.623047"/>
       <use xlink:href="#DejaVuSans-38" x="95.410156"/>
      </g>
     </g>
    </g>
    <g id="ytick_6">
     <g id="line2d_27">
      <path d="M 108 64.16 
L 777.6 64.16 
" clip-path="url(#p85b3f244c0)" style="fill: none; stroke: #b0b0b0; stroke-width: 0.8; stroke-linecap: square"/>
     </g>
     <g id="line2d_28">
      <g>
       <use xlink:href="#m6fac1aa255" x="108" y="64.16" style="stroke: #000000; stroke-width: 0.8"/>
      </g>
     </g>
     <g id="text_15">
      <!-- 1.0 -->
      <g transform="translate(85.096875 67.959219) scale(0.1 -0.1)">
       <use xlink:href="#DejaVuSans-31"/>
       <use xlink:href="#DejaVuSans-2e" x="63.623047"/>
       <use xlink:href="#DejaVuSans-30" x="95.410156"/>
      </g>
     </g>
    </g>
    <g id="text_16">
     <!-- Probability -->
     <g transform="translate(79.017187 244.588906) rotate(-90) scale(0.1 -0.1)">
      <defs>
       <path id="DejaVuSans-50" d="M 1259 4147 
L 1259 2394 
L 2053 2394 
Q 2494 2394 2734 2622 
Q 2975 2850 2975 3272 
Q 2975 3691 2734 3919 
Q 2494 4147 2053 4147 
L 1259 4147 
z
M 628 4666 
L 2053 4666 
Q 2838 4666 3239 4311 
Q 3641 3956 3641 3272 
Q 3641 2581 3239 2228 
Q 2838 1875 2053 1875 
L 1259 1875 
L 1259 0 
L 628 0 
L 628 4666 
z
" transform="scale(0.015625)"/>
       <path id="DejaVuSans-72" d="M 2631 2963 
Q 2534 3019 2420 3045 
Q 2306 3072 2169 3072 
Q 1681 3072 1420 2755 
Q 1159 2438 1159 1844 
L 1159 0 
L 581 0 
L 581 3500 
L 1159 3500 
L 1159 2956 
Q 1341 3275 1631 3429 
Q 1922 3584 2338 3584 
Q 2397 3584 2469 3576 
Q 2541 3569 2628 3553 
L 2631 2963 
z
" transform="scale(0.015625)"/>
       <path id="DejaVuSans-6f" d="M 1959 3097 
Q 1497 3097 1228 2736 
Q 959 2375 959 1747 
Q 959 1119 1226 758 
Q 1494 397 1959 397 
Q 2419 397 2687 759 
Q 2956 1122 2956 1747 
Q 2956 2369 2687 2733 
Q 2419 3097 1959 3097 
z
M 1959 3584 
Q 2709 3584 3137 3096 
Q 3566 2609 3566 1747 
Q 3566 888 3137 398 
Q 2709 -91 1959 -91 
Q 1206 -91 779 398 
Q 353 888 353 1747 
Q 353 2609 779 3096 
Q 1206 3584 1959 3584 
z
" transform="scale(0.015625)"/>
       <path id="DejaVuSans-62" d="M 3116 1747 
Q 3116 2381 2855 2742 
Q 2594 3103 2138 3103 
Q 1681 3103 1420 2742 
Q 1159 2381 1159 1747 
Q 1159 1113 1420 752 
Q 1681 391 2138 391 
Q 2594 391 2855 752 
Q 3116 1113 3116 1747 
z
M 1159 2969 
Q 1341 3281 1617 3432 
Q 1894 3584 2278 3584 
Q 2916 3584 3314 3078 
Q 3713 2572 3713 1747 
Q 3713 922 3314 415 
Q 2916 -91 2278 -91 
Q 1894 -91 1617 61 
Q 1341 213 1159 525 
L 1159 0 
L 581 0 
L 581 4863 
L 1159 4863 
L 1159 2969 
z
" transform="scale(0.015625)"/>
       <path id="DejaVuSans-61" d="M 2194 1759 
Q 1497 1759 1228 1600 
Q 959 1441 959 1056 
Q 959 750 1161 570 
Q 1363 391 1709 391 
Q 2188 391 2477 730 
Q 2766 1069 2766 1631 
L 2766 1759 
L 2194 1759 
z
M 3341 1997 
L 3341 0 
L 2766 0 
L 2766 531 
Q 2569 213 2275 61 
Q 1981 -91 1556 -91 
Q 1019 -91 701 211 
Q 384 513 384 1019 
Q 384 1609 779 1909 
Q 1175 2209 1959 2209 
L 2766 2209 
L 2766 2266 
Q 2766 2663 2505 2880 
Q 2244 3097 1772 3097 
Q 1472 3097 1187 3025 
Q 903 2953 641 2809 
L 641 3341 
Q 956 3463 1253 3523 
Q 1550 3584 1831 3584 
Q 2591 3584 2966 3190 
Q 3341 2797 3341 1997 
z
" transform="scale(0.015625)"/>
       <path id="DejaVuSans-6c" d="M 603 4863 
L 1178 4863 
L 1178 0 
L 603 0 
L 603 4863 
z
" transform="scale(0.015625)"/>
       <path id="DejaVuSans-74" d="M 1172 4494 
L 1172 3500 
L 2356 3500 
L 2356 3053 
L 1172 3053 
L 1172 1153 
Q 1172 725 1289 603 
Q 1406 481 1766 481 
L 2356 481 
L 2356 0 
L 1766 0 
Q 1100 0 847 248 
Q 594 497 594 1153 
L 594 3053 
L 172 3053 
L 172 3500 
L 594 3500 
L 594 4494 
L 1172 4494 
z
" transform="scale(0.015625)"/>
       <path id="DejaVuSans-79" d="M 2059 -325 
Q 1816 -950 1584 -1140 
Q 1353 -1331 966 -1331 
L 506 -1331 
L 506 -850 
L 844 -850 
Q 1081 -850 1212 -737 
Q 1344 -625 1503 -206 
L 1606 56 
L 191 3500 
L 800 3500 
L 1894 763 
L 2988 3500 
L 3597 3500 
L 2059 -325 
z
" transform="scale(0.015625)"/>
      </defs>
      <use xlink:href="#DejaVuSans-50"/>
      <use xlink:href="#DejaVuSans-72" x="58.552734"/>
      <use xlink:href="#DejaVuSans-6f" x="97.416016"/>
      <use xlink:href="#DejaVuSans-62" x="158.597656"/>
      <use xlink:href="#DejaVuSans-61" x="222.074219"/>
      <use xlink:href="#DejaVuSans-62" x="283.353516"/>
      <use xlink:href="#DejaVuSans-69" x="346.830078"/>
      <use xlink:href="#DejaVuSans-6c" x="374.613281"/>
      <use xlink:href="#DejaVuSans-69" x="402.396484"/>
      <use xlink:href="#DejaVuSans-74" x="430.179688"/>
      <use xlink:href="#DejaVuSans-79" x="469.388672"/>
     </g>
    </g>
   </g>
   <g id="line2d_29">
    <path d="M 138.436364 68.229333 
L 138.477271 72.298667 
L 138.495549 76.368 
L 138.505123 80.437333 
L 138.743605 84.506667 
L 138.948142 88.576 
L 139.643569 92.645333 
L 140.223236 96.714667 
L 140.627088 100.784 
L 141.108404 104.853333 
L 141.637589 108.922667 
L 141.885645 112.992 
L 142.445294 117.061333 
L 142.574979 121.130667 
L 142.759498 125.2 
L 144.703908 129.269333 
L 144.759611 133.338667 
L 144.925852 137.408 
L 145.872816 141.477333 
L 147.28804 145.546667 
L 149.858247 149.616 
L 150.882674 153.685333 
L 152.290935 157.754667 
L 154.6244 161.824 
L 155.560049 165.893333 
L 158.452293 169.962667 
L 159.002368 174.032 
L 160.894555 178.101333 
L 163.134021 182.170667 
L 165.632857 186.24 
L 167.509378 190.309333 
L 171.574012 194.378667 
L 177.633537 198.448 
L 178.255853 202.517333 
L 178.490853 206.586667 
L 179.399521 210.656 
L 180.443096 214.725333 
L 180.833892 218.794667 
L 189.932755 222.864 
L 196.044502 226.933333 
L 198.109893 231.002667 
L 199.397172 235.072 
L 199.842803 239.141333 
L 203.9379 243.210667 
L 205.282624 247.28 
L 207.1252 251.349333 
L 208.324571 255.418667 
L 211.044482 259.488 
L 215.525153 263.557333 
L 219.927492 267.626667 
L 220.069362 271.696 
L 220.682974 275.765333 
L 220.844863 279.834667 
L 221.917161 283.904 
L 225.167998 287.973333 
L 233.623655 292.042667 
L 242.469239 296.112 
L 265.305172 300.181333 
L 268.259212 304.250667 
L 270.763271 308.32 
L 281.087616 312.389333 
L 305.59031 316.458667 
L 307.626108 320.528 
L 308.116127 324.597333 
L 314.875431 328.666667 
L 348.111431 332.736 
L 349.49097 336.805333 
L 350.900971 340.874667 
L 386.095307 344.944 
L 421.717865 349.013333 
L 423.006015 353.082667 
L 424.98698 357.152 
L 426.704223 361.221333 
L 695.510579 365.290667 
L 731.825082 369.36 
" clip-path="url(#p85b3f244c0)" style="fill: none; stroke: #1f77b4; stroke-width: 1.5; stroke-linecap: square"/>
   </g>
   <g id="line2d_30">
    <path d="M 138.448549 68.072821 
L 138.493808 71.985641 
L 138.494679 75.898462 
L 138.505123 79.811282 
L 138.509475 83.724103 
L 138.510345 87.636923 
L 138.948142 91.549744 
L 138.982086 95.462564 
L 138.984698 99.375385 
L 140.731533 103.288205 
L 141.17107 107.201026 
L 141.206756 111.113846 
L 141.621052 115.026667 
L 142.145016 118.939487 
L 143.46624 122.852308 
L 144.501982 126.765128 
L 144.703908 130.677949 
L 144.757871 134.590769 
L 144.925852 138.50359 
L 145.120816 142.41641 
L 145.965076 146.329231 
L 149.089709 150.242051 
L 149.858247 154.154872 
L 151.659045 158.067692 
L 153.253565 161.980513 
L 158.999757 165.893333 
L 160.605592 169.806154 
L 160.893685 173.718974 
L 161.462038 177.631795 
L 163.113132 181.544615 
L 163.134891 185.457436 
L 165.633727 189.370256 
L 169.121305 193.283077 
L 171.574882 197.195897 
L 175.318349 201.108718 
L 177.458592 205.021538 
L 177.600463 208.934359 
L 178.176649 212.847179 
L 178.275001 216.76 
L 178.364649 220.672821 
L 179.387335 224.585641 
L 179.53791 228.498462 
L 180.450059 232.411282 
L 180.765133 236.324103 
L 181.536282 240.236923 
L 192.19572 244.149744 
L 196.077576 248.062564 
L 197.976726 251.975385 
L 198.419745 255.888205 
L 203.93877 259.801026 
L 205.281753 263.713846 
L 208.95385 267.626667 
L 210.418685 271.539487 
L 215.519931 275.452308 
L 219.854381 279.365128 
L 220.119844 283.277949 
L 220.690807 287.190769 
L 227.321296 291.10359 
L 265.304302 295.01641 
L 275.973314 298.929231 
L 280.964023 302.842051 
L 281.042356 306.754872 
L 290.396237 310.667692 
L 305.537217 314.580513 
L 308.115257 318.493333 
L 309.135332 322.406154 
L 333.602341 326.318974 
L 336.114233 330.231795 
L 349.282081 334.144615 
L 350.948842 338.057436 
L 356.698515 341.970256 
L 375.995518 345.883077 
L 421.625606 349.795897 
L 421.646495 353.708718 
L 424.98785 357.621538 
L 608.104407 361.534359 
L 694.707226 365.447179 
L 747.163636 369.36 
" clip-path="url(#p85b3f244c0)" style="fill: none; stroke: #ff7f0e; stroke-width: 1.5; stroke-linecap: square"/>
   </g>
   <g id="line2d_31">
    <path d="M 138.436364 66.96 
L 138.490327 69.76 
L 138.496419 72.56 
L 138.512956 75.36 
L 138.557345 78.16 
L 138.577364 80.96 
L 138.581716 83.76 
L 138.618271 86.56 
L 138.696605 89.36 
L 138.716623 92.16 
L 138.807142 94.96 
L 138.894179 97.76 
L 138.895049 100.56 
L 138.946401 103.36 
L 139.197939 106.16 
L 139.231013 108.96 
L 139.777606 111.76 
L 140.337255 114.56 
L 140.364236 117.36 
L 140.51307 120.16 
L 140.676699 122.96 
L 141.045737 125.76 
L 141.199793 128.56 
L 141.244182 131.36 
L 141.349497 134.16 
L 141.583626 136.96 
L 141.698515 139.76 
L 141.715052 142.56 
L 141.729849 145.36 
L 142.568887 148.16 
L 142.776906 150.96 
L 144.650815 153.76 
L 144.700426 156.56 
L 144.807482 159.36 
L 144.979815 162.16 
L 145.978131 164.96 
L 146.130446 167.76 
L 146.720558 170.56 
L 146.805854 173.36 
L 147.31067 176.16 
L 149.272487 178.96 
L 149.848673 181.76 
L 151.45886 184.56 
L 151.906231 187.36 
L 152.447602 190.16 
L 153.009861 192.96 
L 153.894159 195.76 
L 154.866363 198.56 
L 155.287623 201.36 
L 155.906457 204.16 
L 158.114589 206.96 
L 160.912833 209.76 
L 163.140113 212.56 
L 163.297651 215.36 
L 165.637209 218.16 
L 171.580975 220.96 
L 171.837734 223.76 
L 173.019699 226.56 
L 173.366106 229.36 
L 175.141664 232.16 
L 177.631796 234.96 
L 177.720574 237.76 
L 178.207112 240.56 
L 178.376834 243.36 
L 178.421223 246.16 
L 179.451743 248.96 
L 180.658077 251.76 
L 180.940948 254.56 
L 181.330875 257.36 
L 182.579857 260.16 
L 185.905546 262.96 
L 187.794252 265.76 
L 195.99228 268.56 
L 199.377154 271.36 
L 203.934418 274.16 
L 205.271309 276.96 
L 206.668255 279.76 
L 207.202663 282.56 
L 208.420312 285.36 
L 208.603961 288.16 
L 208.985183 290.96 
L 211.803446 293.76 
L 213.545059 296.56 
L 214.031596 299.36 
L 219.931844 302.16 
L 219.997992 304.96 
L 220.693419 307.76 
L 225.226312 310.56 
L 233.632359 313.36 
L 280.977949 316.16 
L 284.535157 318.96 
L 293.385963 321.76 
L 300.326304 324.56 
L 304.159419 327.36 
L 305.659069 330.16 
L 308.118738 332.96 
L 310.892612 335.76 
L 314.903283 338.56 
L 327.872686 341.36 
L 335.598102 344.16 
L 349.569303 346.96 
L 350.823508 349.76 
L 351.597268 352.56 
L 421.615162 355.36 
L 423.003404 358.16 
L 424.990462 360.96 
L 456.18283 363.76 
L 474.274368 366.56 
L 510.060557 369.36 
" clip-path="url(#p85b3f244c0)" style="fill: none; stroke: #2ca02c; stroke-width: 1.5; stroke-linecap: square"/>
   </g>
   <g id="patch_3">
    <path d="M 108 384.48 
L 108 51.84 
" style="fill: none; stroke: #000000; stroke-width: 0.8; stroke-linejoin: miter; stroke-linecap: square"/>
   </g>
   <g id="patch_4">
    <path d="M 777.6 384.48 
L 777.6 51.84 
" style="fill: none; stroke: #000000; stroke-width: 0.8; stroke-linejoin: miter; stroke-linecap: square"/>
   </g>
   <g id="patch_5">
    <path d="M 108 384.48 
L 777.6 384.48 
" style="fill: none; stroke: #000000; stroke-width: 0.8; stroke-linejoin: miter; stroke-linecap: square"/>
   </g>
   <g id="patch_6">
    <path d="M 108 51.84 
L 777.6 51.84 
" style="fill: none; stroke: #000000; stroke-width: 0.8; stroke-linejoin: miter; stroke-linecap: square"/>
   </g>
   <g id="legend_1">
    <g id="patch_7">
     <path d="M 581.182812 103.874375 
L 770.6 103.874375 
Q 772.6 103.874375 772.6 101.874375 
L 772.6 58.84 
Q 772.6 56.84 770.6 56.84 
L 581.182812 56.84 
Q 579.182812 56.84 579.182812 58.84 
L 579.182812 101.874375 
Q 579.182812 103.874375 581.182812 103.874375 
z
" style="fill: #ffffff; opacity: 0.8; stroke: #cccccc; stroke-linejoin: miter"/>
    </g>
    <g id="line2d_32">
     <path d="M 583.182812 64.938437 
L 593.182812 64.938437 
L 603.182812 64.938437 
" style="fill: none; stroke: #1f77b4; stroke-width: 1.5; stroke-linecap: square"/>
    </g>
    <g id="text_17">
     <!-- Empirical Reliability R71-M0-N4 -->
     <g transform="translate(611.182812 68.438437) scale(0.1 -0.1)">
      <defs>
       <path id="DejaVuSans-45" d="M 628 4666 
L 3578 4666 
L 3578 4134 
L 1259 4134 
L 1259 2753 
L 3481 2753 
L 3481 2222 
L 1259 2222 
L 1259 531 
L 3634 531 
L 3634 0 
L 628 0 
L 628 4666 
z
" transform="scale(0.015625)"/>
       <path id="DejaVuSans-70" d="M 1159 525 
L 1159 -1331 
L 581 -1331 
L 581 3500 
L 1159 3500 
L 1159 2969 
Q 1341 3281 1617 3432 
Q 1894 3584 2278 3584 
Q 2916 3584 3314 3078 
Q 3713 2572 3713 1747 
Q 3713 922 3314 415 
Q 2916 -91 2278 -91 
Q 1894 -91 1617 61 
Q 1341 213 1159 525 
z
M 3116 1747 
Q 3116 2381 2855 2742 
Q 2594 3103 2138 3103 
Q 1681 3103 1420 2742 
Q 1159 2381 1159 1747 
Q 1159 1113 1420 752 
Q 1681 391 2138 391 
Q 2594 391 2855 752 
Q 3116 1113 3116 1747 
z
" transform="scale(0.015625)"/>
       <path id="DejaVuSans-63" d="M 3122 3366 
L 3122 2828 
Q 2878 2963 2633 3030 
Q 2388 3097 2138 3097 
Q 1578 3097 1268 2742 
Q 959 2388 959 1747 
Q 959 1106 1268 751 
Q 1578 397 2138 397 
Q 2388 397 2633 464 
Q 2878 531 3122 666 
L 3122 134 
Q 2881 22 2623 -34 
Q 2366 -91 2075 -91 
Q 1284 -91 818 406 
Q 353 903 353 1747 
Q 353 2603 823 3093 
Q 1294 3584 2113 3584 
Q 2378 3584 2631 3529 
Q 2884 3475 3122 3366 
z
" transform="scale(0.015625)"/>
       <path id="DejaVuSans-52" d="M 2841 2188 
Q 3044 2119 3236 1894 
Q 3428 1669 3622 1275 
L 4263 0 
L 3584 0 
L 2988 1197 
Q 2756 1666 2539 1819 
Q 2322 1972 1947 1972 
L 1259 1972 
L 1259 0 
L 628 0 
L 628 4666 
L 2053 4666 
Q 2853 4666 3247 4331 
Q 3641 3997 3641 3322 
Q 3641 2881 3436 2590 
Q 3231 2300 2841 2188 
z
M 1259 4147 
L 1259 2491 
L 2053 2491 
Q 2509 2491 2742 2702 
Q 2975 2913 2975 3322 
Q 2975 3731 2742 3939 
Q 2509 4147 2053 4147 
L 1259 4147 
z
" transform="scale(0.015625)"/>
       <path id="DejaVuSans-2d" d="M 313 2009 
L 1997 2009 
L 1997 1497 
L 313 1497 
L 313 2009 
z
" transform="scale(0.015625)"/>
       <path id="DejaVuSans-4d" d="M 628 4666 
L 1569 4666 
L 2759 1491 
L 3956 4666 
L 4897 4666 
L 4897 0 
L 4281 0 
L 4281 4097 
L 3078 897 
L 2444 897 
L 1241 4097 
L 1241 0 
L 628 0 
L 628 4666 
z
" transform="scale(0.015625)"/>
       <path id="DejaVuSans-4e" d="M 628 4666 
L 1478 4666 
L 3547 763 
L 3547 4666 
L 4159 4666 
L 4159 0 
L 3309 0 
L 1241 3903 
L 1241 0 
L 628 0 
L 628 4666 
z
" transform="scale(0.015625)"/>
      </defs>
      <use xlink:href="#DejaVuSans-45"/>
      <use xlink:href="#DejaVuSans-6d" x="63.183594"/>
      <use xlink:href="#DejaVuSans-70" x="160.595703"/>
      <use xlink:href="#DejaVuSans-69" x="224.072266"/>
      <use xlink:href="#DejaVuSans-72" x="251.855469"/>
      <use xlink:href="#DejaVuSans-69" x="292.96875"/>
      <use xlink:href="#DejaVuSans-63" x="320.751953"/>
      <use xlink:href="#DejaVuSans-61" x="375.732422"/>
      <use xlink:href="#DejaVuSans-6c" x="437.011719"/>
      <use xlink:href="#DejaVuSans-20" x="464.794922"/>
      <use xlink:href="#DejaVuSans-52" x="496.582031"/>
      <use xlink:href="#DejaVuSans-65" x="561.564453"/>
      <use xlink:href="#DejaVuSans-6c" x="623.087891"/>
      <use xlink:href="#DejaVuSans-69" x="650.871094"/>
      <use xlink:href="#DejaVuSans-61" x="678.654297"/>
      <use xlink:href="#DejaVuSans-62" x="739.933594"/>
      <use xlink:href="#DejaVuSans-69" x="803.410156"/>
      <use xlink:href="#DejaVuSans-6c" x="831.193359"/>
      <use xlink:href="#DejaVuSans-69" x="858.976562"/>
      <use xlink:href="#DejaVuSans-74" x="886.759766"/>
      <use xlink:href="#DejaVuSans-79" x="925.96875"/>
      <use xlink:href="#DejaVuSans-20" x="985.148438"/>
      <use xlink:href="#DejaVuSans-52" x="1016.935547"/>
      <use xlink:href="#DejaVuSans-37" x="1086.417969"/>
      <use xlink:href="#DejaVuSans-31" x="1150.041016"/>
      <use xlink:href="#DejaVuSans-2d" x="1213.664062"/>
      <use xlink:href="#DejaVuSans-4d" x="1249.748047"/>
      <use xlink:href="#DejaVuSans-30" x="1336.027344"/>
      <use xlink:href="#DejaVuSans-2d" x="1399.650391"/>
      <use xlink:href="#DejaVuSans-4e" x="1435.734375"/>
      <use xlink:href="#DejaVuSans-34" x="1510.539062"/>
     </g>
    </g>
    <g id="line2d_33">
     <path d="M 583.182812 79.616562 
L 593.182812 79.616562 
L 603.182812 79.616562 
" style="fill: none; stroke: #ff7f0e; stroke-width: 1.5; stroke-linecap: square"/>
    </g>
    <g id="text_18">
     <!-- Empirical Reliability R12-M0-N0 -->
     <g transform="translate(611.182812 83.116562) scale(0.1 -0.1)">
      <use xlink:href="#DejaVuSans-45"/>
      <use xlink:href="#DejaVuSans-6d" x="63.183594"/>
      <use xlink:href="#DejaVuSans-70" x="160.595703"/>
      <use xlink:href="#DejaVuSans-69" x="224.072266"/>
      <use xlink:href="#DejaVuSans-72" x="251.855469"/>
      <use xlink:href="#DejaVuSans-69" x="292.96875"/>
      <use xlink:href="#DejaVuSans-63" x="320.751953"/>
      <use xlink:href="#DejaVuSans-61" x="375.732422"/>
      <use xlink:href="#DejaVuSans-6c" x="437.011719"/>
      <use xlink:href="#DejaVuSans-20" x="464.794922"/>
      <use xlink:href="#DejaVuSans-52" x="496.582031"/>
      <use xlink:href="#DejaVuSans-65" x="561.564453"/>
      <use xlink:href="#DejaVuSans-6c" x="623.087891"/>
      <use xlink:href="#DejaVuSans-69" x="650.871094"/>
      <use xlink:href="#DejaVuSans-61" x="678.654297"/>
      <use xlink:href="#DejaVuSans-62" x="739.933594"/>
      <use xlink:href="#DejaVuSans-69" x="803.410156"/>
      <use xlink:href="#DejaVuSans-6c" x="831.193359"/>
      <use xlink:href="#DejaVuSans-69" x="858.976562"/>
      <use xlink:href="#DejaVuSans-74" x="886.759766"/>
      <use xlink:href="#DejaVuSans-79" x="925.96875"/>
      <use xlink:href="#DejaVuSans-20" x="985.148438"/>
      <use xlink:href="#DejaVuSans-52" x="1016.935547"/>
      <use xlink:href="#DejaVuSans-31" x="1086.417969"/>
      <use xlink:href="#DejaVuSans-32" x="1150.041016"/>
      <use xlink:href="#DejaVuSans-2d" x="1213.664062"/>
      <use xlink:href="#DejaVuSans-4d" x="1249.748047"/>
      <use xlink:href="#DejaVuSans-30" x="1336.027344"/>
      <use xlink:href="#DejaVuSans-2d" x="1399.650391"/>
      <use xlink:href="#DejaVuSans-4e" x="1435.734375"/>
      <use xlink:href="#DejaVuSans-30" x="1510.539062"/>
     </g>
    </g>
    <g id="line2d_34">
     <path d="M 583.182812 94.294687 
L 593.182812 94.294687 
L 603.182812 94.294687 
" style="fill: none; stroke: #2ca02c; stroke-width: 1.5; stroke-linecap: square"/>
    </g>
    <g id="text_19">
     <!-- Empirical Reliability R63-M0-N0 -->
     <g transform="translate(611.182812 97.794687) scale(0.1 -0.1)">
      <use xlink:href="#DejaVuSans-45"/>
      <use xlink:href="#DejaVuSans-6d" x="63.183594"/>
      <use xlink:href="#DejaVuSans-70" x="160.595703"/>
      <use xlink:href="#DejaVuSans-69" x="224.072266"/>
      <use xlink:href="#DejaVuSans-72" x="251.855469"/>
      <use xlink:href="#DejaVuSans-69" x="292.96875"/>
      <use xlink:href="#DejaVuSans-63" x="320.751953"/>
      <use xlink:href="#DejaVuSans-61" x="375.732422"/>
      <use xlink:href="#DejaVuSans-6c" x="437.011719"/>
      <use xlink:href="#DejaVuSans-20" x="464.794922"/>
      <use xlink:href="#DejaVuSans-52" x="496.582031"/>
      <use xlink:href="#DejaVuSans-65" x="561.564453"/>
      <use xlink:href="#DejaVuSans-6c" x="623.087891"/>
      <use xlink:href="#DejaVuSans-69" x="650.871094"/>
      <use xlink:href="#DejaVuSans-61" x="678.654297"/>
      <use xlink:href="#DejaVuSans-62" x="739.933594"/>
      <use xlink:href="#DejaVuSans-69" x="803.410156"/>
      <use xlink:href="#DejaVuSans-6c" x="831.193359"/>
      <use xlink:href="#DejaVuSans-69" x="858.976562"/>
      <use xlink:href="#DejaVuSans-74" x="886.759766"/>
      <use xlink:href="#DejaVuSans-79" x="925.96875"/>
      <use xlink:href="#DejaVuSans-20" x="985.148438"/>
      <use xlink:href="#DejaVuSans-52" x="1016.935547"/>
      <use xlink:href="#DejaVuSans-36" x="1086.417969"/>
      <use xlink:href="#DejaVuSans-33" x="1150.041016"/>
      <use xlink:href="#DejaVuSans-2d" x="1213.664062"/>
      <use xlink:href="#DejaVuSans-4d" x="1249.748047"/>
      <use xlink:href="#DejaVuSans-30" x="1336.027344"/>
      <use xlink:href="#DejaVuSans-2d" x="1399.650391"/>
      <use xlink:href="#DejaVuSans-4e" x="1435.734375"/>
      <use xlink:href="#DejaVuSans-30" x="1510.539062"/>
     </g>
    </g>
   </g>
  </g>
 </g>
 <defs>
  <clipPath id="p85b3f244c0">
   <rect x="108" y="51.84" width="669.6" height="332.64"/>
  </clipPath>
 </defs>
</svg>
